<?xml version="1.0" encoding="UTF-8"?>
<!DOCTYPE svg PUBLIC "-//W3C//DTD SVG 1.1//EN" "http://www.w3.org/Graphics/SVG/1.1/DTD/svg11.dtd">
<svg xmlns="http://www.w3.org/2000/svg" version="1.1" width="512px" height="512px" style="shape-rendering:geometricPrecision; text-rendering:geometricPrecision; image-rendering:optimizeQuality; fill-rule:evenodd; clip-rule:evenodd" xmlns:xlink="http://www.w3.org/1999/xlink">
<g><path style="opacity:0.981" fill="#c8c8c8" d="M 268.5,15.5 C 280.332,22.2484 291.999,29.2484 303.5,36.5C 252.225,25.9101 202.892,31.5767 155.5,53.5C 156.221,47.1189 157.221,40.7855 158.5,34.5C 193.599,19.5386 230.266,13.2052 268.5,15.5 Z"/></g>
<g><path style="opacity:1" fill="#494e51" d="M 268.5,15.5 C 314.995,18.1086 357.329,32.442 395.5,58.5C 384.5,58.5 373.5,58.5 362.5,58.5C 355.167,58.5 347.833,58.5 340.5,58.5C 334.847,59.3266 329.847,57.9933 325.5,54.5C 318.574,48.0322 311.24,42.0322 303.5,36.5C 291.999,29.2484 280.332,22.2484 268.5,15.5 Z"/></g>
<g><path style="opacity:1" fill="#fefefe" d="M 303.5,36.5 C 311.24,42.0322 318.574,48.0322 325.5,54.5C 321.96,68.2002 318.293,81.8669 314.5,95.5C 282.056,104.759 250.056,115.426 218.5,127.5C 217.817,127.137 217.15,126.804 216.5,126.5C 194.686,115.672 172.02,107.005 148.5,100.5C 147.445,97.9272 147.278,95.2605 148,92.5C 150.374,79.3363 152.874,66.3363 155.5,53.5C 202.892,31.5767 252.225,25.9101 303.5,36.5 Z"/></g>
<g><path style="opacity:0.997" fill="#484d4f" d="M 158.5,34.5 C 157.221,40.7855 156.221,47.1189 155.5,53.5C 152.874,66.3363 150.374,79.3363 148,92.5C 147.278,95.2605 147.445,97.9272 148.5,100.5C 146.489,102.667 145.322,105.334 145,108.5C 143.27,110.402 141.437,112.069 139.5,113.5C 110.094,131.904 84.4278,154.571 62.5,181.5C 57.3556,187.015 52.5223,186.682 48,180.5C 47.8138,183.036 47.3138,185.369 46.5,187.5C 46.8064,184.615 46.4731,181.948 45.5,179.5C 41.0826,174.747 36.0826,170.747 30.5,167.5C 51.3161,114.517 86.3161,73.6833 135.5,45C 142.95,40.9403 150.617,37.4403 158.5,34.5 Z"/></g>
<g><path style="opacity:1" fill="#1a1a1a" d="M 325.5,54.5 C 329.847,57.9933 334.847,59.3266 340.5,58.5C 336.844,72.486 333.177,86.486 329.5,100.5C 326.106,94.5264 321.106,92.8597 314.5,95.5C 318.293,81.8669 321.96,68.2002 325.5,54.5 Z"/></g>
<g><path style="opacity:1" fill="#fefefe" d="M 340.5,58.5 C 347.833,58.5 355.167,58.5 362.5,58.5C 387.445,72.0826 409.612,89.4159 429,110.5C 442.988,127.325 453.821,145.991 461.5,166.5C 459.777,174.174 457.944,181.841 456,189.5C 455.451,191.76 454.284,193.426 452.5,194.5C 433.21,188.094 413.544,183.094 393.5,179.5C 372.925,152.587 351.591,126.254 329.5,100.5C 333.177,86.486 336.844,72.486 340.5,58.5 Z"/></g>
<g><path style="opacity:0.981" fill="#c8c8c8" d="M 362.5,58.5 C 373.5,58.5 384.5,58.5 395.5,58.5C 427.7,80.6992 452.367,109.366 469.5,144.5C 466.636,151.757 463.97,159.09 461.5,166.5C 453.821,145.991 442.988,127.325 429,110.5C 409.612,89.4159 387.445,72.0826 362.5,58.5 Z"/></g>
<g><path style="opacity:1" fill="#474c4f" d="M 329.5,100.5 C 351.591,126.254 372.925,152.587 393.5,179.5C 396.007,182.512 398.007,185.845 399.5,189.5C 398.533,191.762 397.866,194.095 397.5,196.5C 380.315,223.866 362.482,250.866 344,277.5C 342.991,279.025 342.491,280.692 342.5,282.5C 339.74,283.423 337.74,285.256 336.5,288C 333.493,288.301 330.493,288.135 327.5,287.5C 292.948,276.427 258.614,264.76 224.5,252.5C 221.925,251.213 219.259,249.879 216.5,248.5C 216.062,245.705 215.062,243.372 213.5,241.5C 214.14,236.913 214.473,232.247 214.5,227.5C 213.333,198.775 212.333,170.108 211.5,141.5C 212.323,138.023 212.823,134.356 213,130.5C 214.627,129.468 215.793,128.134 216.5,126.5C 217.15,126.804 217.817,127.137 218.5,127.5C 250.056,115.426 282.056,104.759 314.5,95.5C 321.106,92.8597 326.106,94.5264 329.5,100.5 Z"/></g>
<g><path style="opacity:1" fill="#191919" d="M 148.5,100.5 C 172.02,107.005 194.686,115.672 216.5,126.5C 215.793,128.134 214.627,129.468 213,130.5C 212.823,134.356 212.323,138.023 211.5,141.5C 188.091,130.455 164.091,121.122 139.5,113.5C 141.437,112.069 143.27,110.402 145,108.5C 145.322,105.334 146.489,102.667 148.5,100.5 Z"/></g>
<g><path style="opacity:1" fill="#fefefe" d="M 139.5,113.5 C 164.091,121.122 188.091,130.455 211.5,141.5C 212.333,170.108 213.333,198.775 214.5,227.5C 214.473,232.247 214.14,236.913 213.5,241.5C 190.808,261.862 168.141,282.195 145.5,302.5C 117.833,294.388 91.1666,283.721 65.5,270.5C 64.8326,267.358 64.166,264.358 63.5,261.5C 61.3687,234.856 61.0354,208.189 62.5,181.5C 84.4278,154.571 110.094,131.904 139.5,113.5 Z"/></g>
<g><path style="opacity:1" fill="#494d50" d="M 469.5,144.5 C 480.825,166.815 488.158,190.482 491.5,215.5C 491.444,220.731 492.111,225.731 493.5,230.5C 497.505,265.101 494.839,299.101 485.5,332.5C 481.833,332.5 478.167,332.5 474.5,332.5C 472.409,332.682 470.409,332.348 468.5,331.5C 467.833,325.681 467.167,320.014 466.5,314.5C 466.987,313.527 467.487,312.527 468,311.5C 468.828,294.995 468.662,278.661 467.5,262.5C 465.243,246.139 461.41,230.139 456,214.5C 455.302,213.309 454.469,212.309 453.5,211.5C 454.097,211.265 454.43,210.765 454.5,210C 453.399,207.965 452.732,205.798 452.5,203.5C 453.594,200.431 453.594,197.431 452.5,194.5C 454.284,193.426 455.451,191.76 456,189.5C 457.944,181.841 459.777,174.174 461.5,166.5C 463.97,159.09 466.636,151.757 469.5,144.5 Z"/></g>
<g><path style="opacity:0.982" fill="#c7c7c7" d="M 30.5,167.5 C 36.0826,170.747 41.0826,174.747 45.5,179.5C 29.6775,221.913 27.3442,264.913 38.5,308.5C 34.9394,320.969 32.2727,333.636 30.5,346.5C 14.4527,302.018 10.286,256.352 18,209.5C 20.9333,195.093 25.1,181.093 30.5,167.5 Z"/></g>
<g><path style="opacity:1" fill="#fcfcfc" d="M 45.5,179.5 C 46.4731,181.948 46.8064,184.615 46.5,187.5C 44.7868,217.926 45.7868,248.259 49.5,278.5C 45.4434,288.335 41.7767,298.335 38.5,308.5C 27.3442,264.913 29.6775,221.913 45.5,179.5 Z"/></g>
<g><path style="opacity:1" fill="#1a1a1a" d="M 393.5,179.5 C 413.544,183.094 433.21,188.094 452.5,194.5C 453.594,197.431 453.594,200.431 452.5,203.5C 452.732,205.798 453.399,207.965 454.5,210C 454.43,210.765 454.097,211.265 453.5,211.5C 435.157,205.331 416.49,200.331 397.5,196.5C 397.866,194.095 398.533,191.762 399.5,189.5C 398.007,185.845 396.007,182.512 393.5,179.5 Z"/></g>
<g><path style="opacity:1" fill="#191919" d="M 62.5,181.5 C 61.0354,208.189 61.3687,234.856 63.5,261.5C 63.8134,264.247 63.48,266.914 62.5,269.5C 60.1891,268.039 57.8558,267.706 55.5,268.5C 53.4741,271.897 51.4741,275.23 49.5,278.5C 45.7868,248.259 44.7868,217.926 46.5,187.5C 47.3138,185.369 47.8138,183.036 48,180.5C 52.5223,186.682 57.3556,187.015 62.5,181.5 Z"/></g>
<g><path style="opacity:1" fill="#fefefe" d="M 397.5,196.5 C 416.49,200.331 435.157,205.331 453.5,211.5C 454.469,212.309 455.302,213.309 456,214.5C 461.41,230.139 465.243,246.139 467.5,262.5C 466.88,280.196 461.714,296.529 452,311.5C 439.296,330.709 424.796,348.542 408.5,365C 405.935,367.08 403.268,368.913 400.5,370.5C 387.12,368.659 373.787,366.492 360.5,364C 359.934,363.005 359.267,362.172 358.5,361.5C 356.279,334.499 350.946,308.166 342.5,282.5C 342.491,280.692 342.991,279.025 344,277.5C 362.482,250.866 380.315,223.866 397.5,196.5 Z"/></g>
<g><path style="opacity:1" fill="#848688" d="M 491.5,215.5 C 492.889,220.269 493.556,225.269 493.5,230.5C 492.111,225.731 491.444,220.731 491.5,215.5 Z"/></g>
<g><path style="opacity:1" fill="#1a1a1a" d="M 213.5,241.5 C 215.062,243.372 216.062,245.705 216.5,248.5C 219.259,249.879 221.925,251.213 224.5,252.5C 201.526,273.138 178.526,293.805 155.5,314.5C 154.009,312.129 153.009,309.462 152.5,306.5C 150.235,304.873 147.901,303.539 145.5,302.5C 168.141,282.195 190.808,261.862 213.5,241.5 Z"/></g>
<g><path style="opacity:1" fill="#fefefe" d="M 224.5,252.5 C 258.614,264.76 292.948,276.427 327.5,287.5C 335.44,311.199 340.44,335.533 342.5,360.5C 342.777,363.448 342.444,366.281 341.5,369C 315.618,389.209 290.618,410.542 266.5,433C 265.207,433.49 263.873,433.657 262.5,433.5C 232.583,427.972 203.916,418.639 176.5,405.5C 166.5,376.5 159.167,346.833 154.5,316.5C 154.863,315.817 155.196,315.15 155.5,314.5C 178.526,293.805 201.526,273.138 224.5,252.5 Z"/></g>
<g><path style="opacity:1" fill="#474c4f" d="M 63.5,261.5 C 64.166,264.358 64.8326,267.358 65.5,270.5C 91.1666,283.721 117.833,294.388 145.5,302.5C 147.901,303.539 150.235,304.873 152.5,306.5C 153.009,309.462 154.009,312.129 155.5,314.5C 155.196,315.15 154.863,315.817 154.5,316.5C 159.167,346.833 166.5,376.5 176.5,405.5C 177.548,408.789 178.048,412.122 178,415.5C 175.243,416.603 173.076,418.269 171.5,420.5C 170.85,420.196 170.183,419.863 169.5,419.5C 157.853,423.659 146.186,427.659 134.5,431.5C 122.303,435.208 110.303,439.208 98.5,443.5C 71.7605,422.02 51.2605,395.686 37,364.5C 34.5343,358.576 32.3676,352.576 30.5,346.5C 32.2727,333.636 34.9394,320.969 38.5,308.5C 41.7767,298.335 45.4434,288.335 49.5,278.5C 51.4741,275.23 53.4741,271.897 55.5,268.5C 57.8558,267.706 60.1891,268.039 62.5,269.5C 63.48,266.914 63.8134,264.247 63.5,261.5 Z"/></g>
<g><path style="opacity:1" fill="#c6c6c6" d="M 467.5,262.5 C 468.662,278.661 468.828,294.995 468,311.5C 467.487,312.527 466.987,313.527 466.5,314.5C 455.201,336.101 441.201,355.768 424.5,373.5C 416.27,374.181 408.27,373.181 400.5,370.5C 403.268,368.913 405.935,367.08 408.5,365C 424.796,348.542 439.296,330.709 452,311.5C 461.714,296.529 466.88,280.196 467.5,262.5 Z"/></g>
<g><path style="opacity:1" fill="#191919" d="M 342.5,282.5 C 350.946,308.166 356.279,334.499 358.5,361.5C 358.53,362.497 358.03,363.164 357,363.5C 351.938,361.553 347.605,362.553 344,366.5C 343.809,364.292 343.309,362.292 342.5,360.5C 340.44,335.533 335.44,311.199 327.5,287.5C 330.493,288.135 333.493,288.301 336.5,288C 337.74,285.256 339.74,283.423 342.5,282.5 Z"/></g>
<g><path style="opacity:1" fill="#191919" d="M 466.5,314.5 C 467.167,320.014 467.833,325.681 468.5,331.5C 470.409,332.348 472.409,332.682 474.5,332.5C 463.129,352.209 449.463,370.209 433.5,386.5C 433.665,383.482 433.498,380.482 433,377.5C 429.675,376.826 426.841,375.493 424.5,373.5C 441.201,355.768 455.201,336.101 466.5,314.5 Z"/></g>
<g><path style="opacity:0.973" fill="#c6c6c6" d="M 474.5,332.5 C 478.167,332.5 481.833,332.5 485.5,332.5C 475.625,369.275 457.291,400.942 430.5,427.5C 430.959,413.789 431.959,400.123 433.5,386.5C 449.463,370.209 463.129,352.209 474.5,332.5 Z"/></g>
<g><path style="opacity:0.998" fill="#474c4f" d="M 342.5,360.5 C 343.309,362.292 343.809,364.292 344,366.5C 347.605,362.553 351.938,361.553 357,363.5C 358.03,363.164 358.53,362.497 358.5,361.5C 359.267,362.172 359.934,363.005 360.5,364C 373.787,366.492 387.12,368.659 400.5,370.5C 408.27,373.181 416.27,374.181 424.5,373.5C 426.841,375.493 429.675,376.826 433,377.5C 433.498,380.482 433.665,383.482 433.5,386.5C 431.959,400.123 430.959,413.789 430.5,427.5C 422.644,436.852 413.644,445.019 403.5,452C 370.464,475.183 333.797,489.016 293.5,493.5C 284.193,479.184 274.859,464.851 265.5,450.5C 263.13,447.598 261.13,444.432 259.5,441C 260.776,438.719 262.443,436.719 264.5,435C 263.584,434.722 262.918,434.222 262.5,433.5C 263.873,433.657 265.207,433.49 266.5,433C 290.618,410.542 315.618,389.209 341.5,369C 342.444,366.281 342.777,363.448 342.5,360.5 Z"/></g>
<g><path style="opacity:1" fill="#191919" d="M 176.5,405.5 C 203.916,418.639 232.583,427.972 262.5,433.5C 262.918,434.222 263.584,434.722 264.5,435C 262.443,436.719 260.776,438.719 259.5,441C 261.13,444.432 263.13,447.598 265.5,450.5C 258.005,449.459 250.671,447.792 243.5,445.5C 218.557,439.93 194.557,431.596 171.5,420.5C 173.076,418.269 175.243,416.603 178,415.5C 178.048,412.122 177.548,408.789 176.5,405.5 Z"/></g>
<g><path style="opacity:1" fill="#fbfbfb" d="M 171.5,420.5 C 194.557,431.596 218.557,439.93 243.5,445.5C 210.283,452.367 177.616,449.867 145.5,438C 142.048,436.774 138.715,435.274 135.5,433.5C 134.702,433.043 134.369,432.376 134.5,431.5C 146.186,427.659 157.853,423.659 169.5,419.5C 170.183,419.863 170.85,420.196 171.5,420.5 Z"/></g>
<g><path style="opacity:0.989" fill="#c7c7c7" d="M 134.5,431.5 C 134.369,432.376 134.702,433.043 135.5,433.5C 138.715,435.274 142.048,436.774 145.5,438C 177.616,449.867 210.283,452.367 243.5,445.5C 250.671,447.792 258.005,449.459 265.5,450.5C 274.859,464.851 284.193,479.184 293.5,493.5C 231.121,500.996 172.787,489.163 118.5,458C 111.675,453.335 105.009,448.502 98.5,443.5C 110.303,439.208 122.303,435.208 134.5,431.5 Z"/></g>
</svg>
