<?xml version="1.0" encoding="UTF-8"?>
<!DOCTYPE svg PUBLIC "-//W3C//DTD SVG 1.1//EN" "http://www.w3.org/Graphics/SVG/1.1/DTD/svg11.dtd">
<svg xmlns="http://www.w3.org/2000/svg" version="1.1" width="225px" height="225px" style="shape-rendering:geometricPrecision; text-rendering:geometricPrecision; image-rendering:optimizeQuality; fill-rule:evenodd; clip-rule:evenodd" xmlns:xlink="http://www.w3.org/1999/xlink">
<g><path style="opacity:1" fill="#fdfdfd" d="M -0.5,-0.5 C 74.5,-0.5 149.5,-0.5 224.5,-0.5C 224.5,74.5 224.5,149.5 224.5,224.5C 149.5,224.5 74.5,224.5 -0.5,224.5C -0.5,206.167 -0.5,187.833 -0.5,169.5C 0.166667,169.833 0.833333,170.167 1.5,170.5C 2.806,172.473 4.47266,174.139 6.5,175.5C 9.2869,176.477 12.2869,176.81 15.5,176.5C 18.4671,186.465 24.8004,193.132 34.5,196.5C 35.5137,197.674 36.847,198.34 38.5,198.5C 43.3158,199.65 48.3158,199.816 53.5,199C 55.4308,198.098 57.0975,196.931 58.5,195.5C 62.2783,193.195 65.7783,190.528 69,187.5C 71.3195,184.019 73.1528,180.352 74.5,176.5C 100.169,176.333 125.835,176.5 151.5,177C 152.044,177.717 152.711,178.217 153.5,178.5C 157.449,189.45 165.116,196.116 176.5,198.5C 185.797,200.636 194.464,198.969 202.5,193.5C 203.386,192.675 203.719,191.675 203.5,190.5C 207.471,186.598 210.137,181.931 211.5,176.5C 214.385,176.806 217.052,176.473 219.5,175.5C 220.804,174.013 221.97,172.346 223,170.5C 223.667,163.167 223.667,155.833 223,148.5C 221.955,147.627 221.122,146.627 220.5,145.5C 221.074,139.516 221.407,133.516 221.5,127.5C 221.666,119.493 221.5,111.493 221,103.5C 220.337,99.9647 218.837,96.9647 216.5,94.5C 216.068,93.2905 215.401,92.2905 214.5,91.5C 214.167,90.8333 213.833,90.1667 213.5,89.5C 212.663,84.1364 211.496,78.8031 210,73.5C 206.187,66.6156 202.521,59.6156 199,52.5C 198.292,51.6195 197.458,50.9528 196.5,50.5C 195.833,49.1667 194.833,48.1667 193.5,47.5C 191.846,46.2497 190.179,44.9163 188.5,43.5C 187.5,42.1667 186.5,40.8333 185.5,39.5C 185.4,36.8915 186.067,34.5582 187.5,32.5C 189.428,30.2192 190.428,27.5525 190.5,24.5C 187.288,24.7124 185.288,26.3791 184.5,29.5C 182.722,31.3316 180.722,32.9982 178.5,34.5C 172.12,32.8305 165.787,31.4972 159.5,30.5C 145.006,29.3391 130.339,29.1724 115.5,30C 114.944,30.3826 114.611,30.8826 114.5,31.5C 110.463,32.0653 106.797,33.3987 103.5,35.5C 100.238,36.7694 97.5712,38.7694 95.5,41.5C 92.5454,44.1156 89.5454,46.7823 86.5,49.5C 83.9438,50.5434 81.7772,52.2101 80,54.5C 74.6515,61.8811 69.3182,69.2144 64,76.5C 62.6012,79.6293 60.9345,82.6293 59,85.5C 58.3897,88.8273 57.8897,92.1606 57.5,95.5C 51.8548,95.5083 47.1881,97.5083 43.5,101.5C 43.1667,101.5 42.8333,101.5 42.5,101.5C 39.6544,101.03 37.3211,101.863 35.5,104C 30.2968,105.043 25.6302,107.209 21.5,110.5C 20.8075,111.518 20.1408,112.518 19.5,113.5C 16.4275,115.569 14.0941,118.236 12.5,121.5C 9.17617,123.106 7.0095,125.773 6,129.5C 4.5102,135.449 3.34353,141.449 2.5,147.5C 2.5,148.167 2.5,148.833 2.5,149.5C 2.16667,149.5 1.83333,149.5 1.5,149.5C 0.833333,150.167 0.166667,150.833 -0.5,151.5C -0.5,100.833 -0.5,50.1667 -0.5,-0.5 Z"/></g>
<g><path style="opacity:1" fill="#f3c1ba" d="M 159.5,30.5 C 144.475,30.2506 129.475,30.584 114.5,31.5C 114.611,30.8826 114.944,30.3826 115.5,30C 130.339,29.1724 145.006,29.3391 159.5,30.5 Z"/></g>
<g><path style="opacity:1" fill="#393434" d="M 187.5,32.5 C 185.461,33.6718 184.128,35.3384 183.5,37.5C 182.508,37.6716 181.842,37.3382 181.5,36.5C 181.918,35.7784 182.584,35.2784 183.5,35C 182.668,33.0912 183.001,31.2578 184.5,29.5C 185.288,26.3791 187.288,24.7124 190.5,24.5C 190.428,27.5525 189.428,30.2192 187.5,32.5 Z"/></g>
<g><path style="opacity:1" fill="#ea766f" d="M 159.5,30.5 C 165.787,31.4972 172.12,32.8305 178.5,34.5C 178.5,34.8333 178.5,35.1667 178.5,35.5C 175.656,34.9421 172.822,34.2755 170,33.5C 168.93,33.528 168.097,33.8614 167.5,34.5C 148.86,31.0015 130.194,30.8349 111.5,34C 108.885,34.6119 107.219,36.1119 106.5,38.5C 105.609,39.1098 104.609,39.4431 103.5,39.5C 103.721,38.2652 104.388,37.2652 105.5,36.5C 105.043,35.7025 104.376,35.3691 103.5,35.5C 106.797,33.3987 110.463,32.0653 114.5,31.5C 129.475,30.584 144.475,30.2506 159.5,30.5 Z"/></g>
<g><path style="opacity:1" fill="#f49a8d" d="M 167.5,34.5 C 169.05,35.4408 170.716,36.1075 172.5,36.5C 171.551,37.1524 170.385,37.4857 169,37.5C 160.688,35.1543 152.188,34.1543 143.5,34.5C 132.61,34.0616 121.943,34.7283 111.5,36.5C 110.07,37.5375 108.403,38.2041 106.5,38.5C 107.219,36.1119 108.885,34.6119 111.5,34C 130.194,30.8349 148.86,31.0015 167.5,34.5 Z"/></g>
<g><path style="opacity:1" fill="#797874" d="M 184.5,29.5 C 183.001,31.2578 182.668,33.0912 183.5,35C 182.584,35.2784 181.918,35.7784 181.5,36.5C 180.391,36.4431 179.391,36.1098 178.5,35.5C 178.5,35.1667 178.5,34.8333 178.5,34.5C 180.722,32.9982 182.722,31.3316 184.5,29.5 Z"/></g>
<g><path style="opacity:1" fill="#724f4c" d="M 143.5,34.5 C 146.167,35.1667 148.833,35.8333 151.5,36.5C 138.167,36.5 124.833,36.5 111.5,36.5C 121.943,34.7283 132.61,34.0616 143.5,34.5 Z"/></g>
<g><path style="opacity:1" fill="#ef584d" d="M 143.5,34.5 C 152.188,34.1543 160.688,35.1543 169,37.5C 170.385,37.4857 171.551,37.1524 172.5,36.5C 177.367,37.8956 181.7,40.229 185.5,43.5C 185.5,43.8333 185.5,44.1667 185.5,44.5C 185.44,45.0431 185.107,45.3764 184.5,45.5C 178.437,42.5478 172.104,40.2145 165.5,38.5C 164.287,38.7472 163.62,39.4138 163.5,40.5C 159.835,38.2354 155.835,36.9021 151.5,36.5C 148.833,35.8333 146.167,35.1667 143.5,34.5 Z"/></g>
<g><path style="opacity:1" fill="#af9895" d="M 187.5,32.5 C 186.067,34.5582 185.4,36.8915 185.5,39.5C 184.167,39.5 183.5,38.8333 183.5,37.5C 184.128,35.3384 185.461,33.6718 187.5,32.5 Z"/></g>
<g><path style="opacity:1" fill="#e03435" d="M 167.5,34.5 C 168.097,33.8614 168.93,33.528 170,33.5C 172.822,34.2755 175.656,34.9421 178.5,35.5C 179.391,36.1098 180.391,36.4431 181.5,36.5C 181.842,37.3382 182.508,37.6716 183.5,37.5C 183.5,38.8333 184.167,39.5 185.5,39.5C 186.5,40.8333 187.5,42.1667 188.5,43.5C 187.202,42.8843 186.202,42.8843 185.5,43.5C 181.7,40.229 177.367,37.8956 172.5,36.5C 170.716,36.1075 169.05,35.4408 167.5,34.5 Z"/></g>
<g><path style="opacity:1" fill="#f93e37" d="M 185.5,44.5 C 189.667,46.6032 189.334,47.9366 184.5,48.5C 178.176,48.2632 172.843,45.9298 168.5,41.5C 167.571,42.6888 167.238,44.0222 167.5,45.5C 165.457,44.4206 164.124,42.754 163.5,40.5C 163.62,39.4138 164.287,38.7472 165.5,38.5C 172.104,40.2145 178.437,42.5478 184.5,45.5C 185.107,45.3764 185.44,45.0431 185.5,44.5 Z"/></g>
<g><path style="opacity:1" fill="#e7524d" d="M 103.5,35.5 C 104.376,35.3691 105.043,35.7025 105.5,36.5C 104.388,37.2652 103.721,38.2652 103.5,39.5C 96.1792,47.494 89.1792,55.8274 82.5,64.5C 83.2323,61.0193 84.5657,57.686 86.5,54.5C 89.9535,49.8784 93.9535,45.7118 98.5,42C 97.552,41.5172 96.552,41.3505 95.5,41.5C 97.5712,38.7694 100.238,36.7694 103.5,35.5 Z"/></g>
<g><path style="opacity:1" fill="#383738" d="M 111.5,36.5 C 124.833,36.5 138.167,36.5 151.5,36.5C 155.835,36.9021 159.835,38.2354 163.5,40.5C 164.124,42.754 165.457,44.4206 167.5,45.5C 171.052,59.2013 173.385,73.2013 174.5,87.5C 173.167,88.1667 171.833,88.8333 170.5,89.5C 169.5,89.5 168.5,89.5 167.5,89.5C 167.5,89.1667 167.5,88.8333 167.5,88.5C 168.649,88.2089 169.316,87.3756 169.5,86C 170.077,83.863 170.41,81.6963 170.5,79.5C 170.473,73.9494 169.806,68.6161 168.5,63.5C 168.706,60.5049 168.04,57.8383 166.5,55.5C 166.554,52.0076 165.554,49.0076 163.5,46.5C 161.666,42.5448 158.5,40.2115 154,39.5C 150.542,38.7135 147.042,38.3802 143.5,38.5C 139.681,37.8344 135.681,37.5011 131.5,37.5C 125.26,37.3332 119.26,37.9999 113.5,39.5C 110.738,40.3795 108.071,41.5462 105.5,43C 102.964,45.705 100.297,48.205 97.5,50.5C 96.407,52.3492 95.0737,54.0158 93.5,55.5C 91.1792,58.7959 88.8458,62.1292 86.5,65.5C 85.3263,66.5137 84.6596,67.847 84.5,69.5C 83.1224,70.5451 82.1224,71.8784 81.5,73.5C 80.8826,73.6107 80.3826,73.944 80,74.5C 78.3558,78.3754 77.1891,82.3754 76.5,86.5C 76.5,86.8333 76.5,87.1667 76.5,87.5C 74.8958,88.287 74.2291,89.6203 74.5,91.5C 73.5,91.5 72.5,91.5 71.5,91.5C 71.2535,86.0675 72.9202,81.4008 76.5,77.5C 77.4918,75.5439 78.4918,73.5439 79.5,71.5C 80.2271,69.0462 81.2271,66.7128 82.5,64.5C 89.1792,55.8274 96.1792,47.494 103.5,39.5C 104.609,39.4431 105.609,39.1098 106.5,38.5C 108.403,38.2041 110.07,37.5375 111.5,36.5 Z"/></g>
<g><path style="opacity:1" fill="#79d1da" d="M 143.5,38.5 C 147.042,38.3802 150.542,38.7135 154,39.5C 158.5,40.2115 161.666,42.5448 163.5,46.5C 164.39,48.7819 164.556,51.1152 164,53.5C 162.558,49.9681 160.725,49.9681 158.5,53.5C 140.213,52.5132 121.88,52.1799 103.5,52.5C 103.719,51.325 103.386,50.325 102.5,49.5C 101.174,50.9902 99.6743,52.3235 98,53.5C 97.5172,52.552 97.3505,51.552 97.5,50.5C 100.297,48.205 102.964,45.705 105.5,43C 108.071,41.5462 110.738,40.3795 113.5,39.5C 123.484,38.7865 133.484,38.4532 143.5,38.5 Z"/></g>
<g><path style="opacity:1" fill="#5ca2a6" d="M 143.5,38.5 C 133.484,38.4532 123.484,38.7865 113.5,39.5C 119.26,37.9999 125.26,37.3332 131.5,37.5C 135.681,37.5011 139.681,37.8344 143.5,38.5 Z"/></g>
<g><path style="opacity:1" fill="#cc201b" d="M 193.5,47.5 C 194.833,48.1667 195.833,49.1667 196.5,50.5C 196.744,55.1898 198.078,59.5231 200.5,63.5C 198.077,60.8703 195.743,58.037 193.5,55C 194.649,52.5408 194.649,50.0408 193.5,47.5 Z"/></g>
<g><path style="opacity:1" fill="#f8030f" d="M 185.5,44.5 C 185.5,44.1667 185.5,43.8333 185.5,43.5C 186.202,42.8843 187.202,42.8843 188.5,43.5C 190.179,44.9163 191.846,46.2497 193.5,47.5C 194.649,50.0408 194.649,52.5408 193.5,55C 195.743,58.037 198.077,60.8703 200.5,63.5C 200.328,64.4916 200.662,65.1583 201.5,65.5C 202.547,69.5218 202.713,73.5218 202,77.5C 205.238,80.5629 207.405,84.2295 208.5,88.5C 209.183,88.8627 209.85,89.1961 210.5,89.5C 212.034,91.3421 211.7,92.6754 209.5,93.5C 208.749,92.624 208.249,91.624 208,90.5C 207.481,91.5156 206.647,92.1822 205.5,92.5C 194.954,90.763 184.288,89.9297 173.5,90C 174.252,89.3292 174.586,88.4959 174.5,87.5C 173.385,73.2013 171.052,59.2013 167.5,45.5C 167.238,44.0222 167.571,42.6888 168.5,41.5C 172.843,45.9298 178.176,48.2632 184.5,48.5C 189.334,47.9366 189.667,46.6032 185.5,44.5 Z"/></g>
<g><path style="opacity:1" fill="#63b8c7" d="M 163.5,46.5 C 165.554,49.0076 166.554,52.0076 166.5,55.5C 167.008,58.1761 167.175,60.8428 167,63.5C 165.45,59.6358 163.95,59.6358 162.5,63.5C 161.667,62.5 160.833,61.5 160,60.5C 138.212,61.9002 116.378,61.7335 94.5,60C 93.8333,59.3333 93.1667,58.6667 92.5,58C 93.2524,57.3292 93.5858,56.4959 93.5,55.5C 95.0737,54.0158 96.407,52.3492 97.5,50.5C 97.3505,51.552 97.5172,52.552 98,53.5C 99.6743,52.3235 101.174,50.9902 102.5,49.5C 103.386,50.325 103.719,51.325 103.5,52.5C 121.88,52.1799 140.213,52.5132 158.5,53.5C 160.725,49.9681 162.558,49.9681 164,53.5C 164.556,51.1152 164.39,48.7819 163.5,46.5 Z"/></g>
<g><path style="opacity:1" fill="#5fa6bd" d="M 86.5,49.5 C 80.2519,58.328 74.2519,67.328 68.5,76.5C 66.7497,77.6594 65.7497,79.326 65.5,81.5C 64.8902,82.391 64.5569,83.391 64.5,84.5C 62.8793,87.7415 61.2126,91.0748 59.5,94.5C 59.0431,95.2975 58.3764,95.6309 57.5,95.5C 57.8897,92.1606 58.3897,88.8273 59,85.5C 60.9345,82.6293 62.6012,79.6293 64,76.5C 69.3182,69.2144 74.6515,61.8811 80,54.5C 81.7772,52.2101 83.9438,50.5434 86.5,49.5 Z"/></g>
<g><path style="opacity:1" fill="#53a4b8" d="M 93.5,55.5 C 93.5858,56.4959 93.2524,57.3292 92.5,58C 93.1667,58.6667 93.8333,59.3333 94.5,60C 116.378,61.7335 138.212,61.9002 160,60.5C 160.833,61.5 161.667,62.5 162.5,63.5C 163.95,59.6358 165.45,59.6358 167,63.5C 167.175,60.8428 167.008,58.1761 166.5,55.5C 168.04,57.8383 168.706,60.5049 168.5,63.5C 168.663,65.8568 168.497,68.1902 168,70.5C 143.235,69.1576 118.402,67.8243 93.5,66.5C 91.5,66.8333 89.5,67.1667 87.5,67.5C 86.7025,67.0431 86.3691,66.3764 86.5,65.5C 88.8458,62.1292 91.1792,58.7959 93.5,55.5 Z"/></g>
<g><path style="opacity:1" fill="#4793ab" d="M 168.5,63.5 C 169.806,68.6161 170.473,73.9494 170.5,79.5C 169.022,78.5525 168.022,77.2191 167.5,75.5C 140.695,74.9409 113.695,74.6076 86.5,74.5C 86.1692,72.6776 85.5025,71.0109 84.5,69.5C 84.6596,67.847 85.3263,66.5137 86.5,65.5C 86.3691,66.3764 86.7025,67.0431 87.5,67.5C 89.5,67.1667 91.5,66.8333 93.5,66.5C 118.402,67.8243 143.235,69.1576 168,70.5C 168.497,68.1902 168.663,65.8568 168.5,63.5 Z"/></g>
<g><path style="opacity:1" fill="#732527" d="M 79.5,71.5 C 78.4918,73.5439 77.4918,75.5439 76.5,77.5C 76.0246,74.6874 77.0246,72.6874 79.5,71.5 Z"/></g>
<g><path style="opacity:1" fill="#4089a4" d="M 84.5,69.5 C 85.5025,71.0109 86.1692,72.6776 86.5,74.5C 113.695,74.6076 140.695,74.9409 167.5,75.5C 167.5,76.8333 167.5,78.1667 167.5,79.5C 143.243,79.5914 119.076,79.5914 95,79.5C 94.5172,80.448 94.3505,81.448 94.5,82.5C 92.076,82.8076 89.7427,82.4742 87.5,81.5C 88.7287,80.7189 90.062,80.2189 91.5,80C 87.8484,79.5014 84.1817,79.3347 80.5,79.5C 80.5172,77.4352 80.8505,75.4352 81.5,73.5C 82.1224,71.8784 83.1224,70.5451 84.5,69.5 Z"/></g>
<g><path style="opacity:1" fill="#c41517" d="M 201.5,65.5 C 204.627,73.5387 207.961,81.5387 211.5,89.5C 211.167,89.5 210.833,89.5 210.5,89.5C 209.85,89.1961 209.183,88.8627 208.5,88.5C 207.405,84.2295 205.238,80.5629 202,77.5C 202.713,73.5218 202.547,69.5218 201.5,65.5 Z"/></g>
<g><path style="opacity:1" fill="#4b8ea7" d="M 196.5,50.5 C 197.458,50.9528 198.292,51.6195 199,52.5C 202.521,59.6156 206.187,66.6156 210,73.5C 211.496,78.8031 212.663,84.1364 213.5,89.5C 212.833,89.5 212.167,89.5 211.5,89.5C 207.961,81.5387 204.627,73.5387 201.5,65.5C 200.662,65.1583 200.328,64.4916 200.5,63.5C 198.078,59.5231 196.744,55.1898 196.5,50.5 Z"/></g>
<g><path style="opacity:1" fill="#aa424b" d="M 68.5,76.5 C 68.4077,78.8477 67.4077,80.5144 65.5,81.5C 65.7497,79.326 66.7497,77.6594 68.5,76.5 Z"/></g>
<g><path style="opacity:1" fill="#ec1013" d="M 95.5,41.5 C 96.552,41.3505 97.552,41.5172 98.5,42C 93.9535,45.7118 89.9535,49.8784 86.5,54.5C 84.5657,57.686 83.2323,61.0193 82.5,64.5C 81.2271,66.7128 80.2271,69.0462 79.5,71.5C 77.0246,72.6874 76.0246,74.6874 76.5,77.5C 72.9202,81.4008 71.2535,86.0675 71.5,91.5C 71.5,92.5 71.5,93.5 71.5,94.5C 68.8333,94.5 66.1667,94.5 63.5,94.5C 64.3242,91.2356 64.6576,87.9023 64.5,84.5C 64.5569,83.391 64.8902,82.391 65.5,81.5C 67.4077,80.5144 68.4077,78.8477 68.5,76.5C 74.2519,67.328 80.2519,58.328 86.5,49.5C 89.5454,46.7823 92.5454,44.1156 95.5,41.5 Z"/></g>
<g><path style="opacity:1" fill="#367999" d="M 81.5,73.5 C 80.8505,75.4352 80.5172,77.4352 80.5,79.5C 84.1817,79.3347 87.8484,79.5014 91.5,80C 90.062,80.2189 88.7287,80.7189 87.5,81.5C 89.7427,82.4742 92.076,82.8076 94.5,82.5C 94.3505,81.448 94.5172,80.448 95,79.5C 119.076,79.5914 143.243,79.5914 167.5,79.5C 167.5,78.1667 167.5,76.8333 167.5,75.5C 168.022,77.2191 169.022,78.5525 170.5,79.5C 170.41,81.6963 170.077,83.863 169.5,86C 169.316,87.3756 168.649,88.2089 167.5,88.5C 155.983,88.7063 144.483,88.373 133,87.5C 120.749,87.8772 108.582,88.8772 96.5,90.5C 96.0358,88.0251 95.0358,86.0251 93.5,84.5C 88.6367,84.1805 83.97,84.5139 79.5,85.5C 78.391,85.5569 77.391,85.8902 76.5,86.5C 77.1891,82.3754 78.3558,78.3754 80,74.5C 80.3826,73.944 80.8826,73.6107 81.5,73.5 Z"/></g>
<g><path style="opacity:1" fill="#df9087" d="M 79.5,85.5 C 83.97,84.5139 88.6367,84.1805 93.5,84.5C 94.2341,85.7079 94.5674,87.0413 94.5,88.5C 94.1667,88.5 93.8333,88.5 93.5,88.5C 88.805,87.9368 84.1383,86.9368 79.5,85.5 Z"/></g>
<g><path style="opacity:1" fill="#426579" d="M 93.5,84.5 C 95.0358,86.0251 96.0358,88.0251 96.5,90.5C 108.582,88.8772 120.749,87.8772 133,87.5C 144.483,88.373 155.983,88.7063 167.5,88.5C 167.5,88.8333 167.5,89.1667 167.5,89.5C 143.481,89.6673 119.481,90.3339 95.5,91.5C 94.596,90.791 94.2627,89.791 94.5,88.5C 94.5674,87.0413 94.2341,85.7079 93.5,84.5 Z"/></g>
<g><path style="opacity:1" fill="#311c19" d="M 167.5,89.5 C 168.5,89.5 169.5,89.5 170.5,89.5C 169.5,90.1667 168.5,90.8333 167.5,91.5C 156.833,91.5 146.167,91.5 135.5,91.5C 129.158,91.3338 122.825,91.5005 116.5,92C 114.618,92.1981 112.952,92.6981 111.5,93.5C 108.167,93.5 104.833,93.5 101.5,93.5C 98.9179,93.9746 96.9179,93.3079 95.5,91.5C 119.481,90.3339 143.481,89.6673 167.5,89.5 Z"/></g>
<g><path style="opacity:1" fill="#a74b53" d="M 211.5,89.5 C 212.167,89.5 212.833,89.5 213.5,89.5C 213.833,90.1667 214.167,90.8333 214.5,91.5C 212.973,91.573 211.973,90.9063 211.5,89.5 Z"/></g>
<g><path style="opacity:1" fill="#8f241f" d="M 135.5,91.5 C 127.903,93.4668 119.903,94.1335 111.5,93.5C 112.952,92.6981 114.618,92.1981 116.5,92C 122.825,91.5005 129.158,91.3338 135.5,91.5 Z"/></g>
<g><path style="opacity:1" fill="#e91c16" d="M 79.5,85.5 C 84.1383,86.9368 88.805,87.9368 93.5,88.5C 93.5,90.1667 93.5,91.8333 93.5,93.5C 88.5,93.5 83.5,93.5 78.5,93.5C 77.8333,91.5 77.1667,89.5 76.5,87.5C 76.5,87.1667 76.5,86.8333 76.5,86.5C 77.391,85.8902 78.391,85.5569 79.5,85.5 Z"/></g>
<g><path style="opacity:1" fill="#f7c4b7" d="M 135.5,91.5 C 146.167,91.5 156.833,91.5 167.5,91.5C 179.935,91.0484 192.268,91.715 204.5,93.5C 204.5,93.8333 204.5,94.1667 204.5,94.5C 176.358,94.927 148.025,95.427 119.5,96C 116.964,96.1862 114.631,96.6862 112.5,97.5C 108.453,97.3048 104.453,97.6381 100.5,98.5C 98.484,98.4841 97.484,97.4841 97.5,95.5C 102.37,95.3104 107.036,94.6437 111.5,93.5C 119.903,94.1335 127.903,93.4668 135.5,91.5 Z"/></g>
<g><path style="opacity:1" fill="#fbbeb1" d="M 204.5,94.5 C 205.391,95.1098 206.391,95.4431 207.5,95.5C 175.994,96.2625 144.328,96.9292 112.5,97.5C 114.631,96.6862 116.964,96.1862 119.5,96C 148.025,95.427 176.358,94.927 204.5,94.5 Z"/></g>
<g><path style="opacity:1" fill="#ea2222" d="M 174.5,87.5 C 174.586,88.4959 174.252,89.3292 173.5,90C 184.288,89.9297 194.954,90.763 205.5,92.5C 206.647,92.1822 207.481,91.5156 208,90.5C 208.249,91.624 208.749,92.624 209.5,93.5C 211.7,92.6754 212.034,91.3421 210.5,89.5C 210.833,89.5 211.167,89.5 211.5,89.5C 211.973,90.9063 212.973,91.573 214.5,91.5C 215.401,92.2905 216.068,93.2905 216.5,94.5C 215.306,95.2719 214.306,96.2719 213.5,97.5C 210.905,95.3712 207.905,94.0378 204.5,93.5C 192.268,91.715 179.935,91.0484 167.5,91.5C 168.5,90.8333 169.5,90.1667 170.5,89.5C 171.833,88.8333 173.167,88.1667 174.5,87.5 Z"/></g>
<g><path style="opacity:1" fill="#f1cac7" d="M 57.5,95.5 C 55.7576,97.769 53.4243,99.1024 50.5,99.5C 48.1667,100.167 45.8333,100.833 43.5,101.5C 47.1881,97.5083 51.8548,95.5083 57.5,95.5 Z"/></g>
<g><path style="opacity:1" fill="#a80d0e" d="M 76.5,87.5 C 77.1667,89.5 77.8333,91.5 78.5,93.5C 83.5,93.5 88.5,93.5 93.5,93.5C 93.5,91.8333 93.5,90.1667 93.5,88.5C 93.8333,88.5 94.1667,88.5 94.5,88.5C 94.2627,89.791 94.596,90.791 95.5,91.5C 96.9179,93.3079 98.9179,93.9746 101.5,93.5C 99.3926,94.4682 97.0593,94.8016 94.5,94.5C 94.5,96.1667 94.5,97.8333 94.5,99.5C 94.1667,99.5 93.8333,99.5 93.5,99.5C 93.5,98.1667 93.5,96.8333 93.5,95.5C 89.8019,95.5524 86.1352,95.8857 82.5,96.5C 82.5,98.1667 82.5,99.8333 82.5,101.5C 81.5,101.5 80.5,101.5 79.5,101.5C 81.548,107.365 85.548,109.031 91.5,106.5C 91.2852,104.821 91.9519,103.821 93.5,103.5C 93.528,105.582 92.8613,107.416 91.5,109C 88.1667,109.667 84.8333,109.667 81.5,109C 80.0997,107.562 78.433,106.729 76.5,106.5C 76.5,106.167 76.5,105.833 76.5,105.5C 76.5,102.833 76.5,100.167 76.5,97.5C 74.8008,97.6602 73.1341,97.4935 71.5,97C 72.5981,96.2303 72.5981,95.397 71.5,94.5C 71.5,93.5 71.5,92.5 71.5,91.5C 72.5,91.5 73.5,91.5 74.5,91.5C 74.2291,89.6203 74.8958,88.287 76.5,87.5 Z"/></g>
<g><path style="opacity:1" fill="#e52b25" d="M 64.5,84.5 C 64.6576,87.9023 64.3242,91.2356 63.5,94.5C 62.5222,94.811 61.8555,95.4777 61.5,96.5C 62.7287,97.2811 64.062,97.7811 65.5,98C 63.0261,98.0367 61.0261,98.87 59.5,100.5C 55.4764,101.038 51.4764,101.705 47.5,102.5C 48.6935,101.728 49.6935,100.728 50.5,99.5C 53.4243,99.1024 55.7576,97.769 57.5,95.5C 58.3764,95.6309 59.0431,95.2975 59.5,94.5C 61.2126,91.0748 62.8793,87.7415 64.5,84.5 Z"/></g>
<g><path style="opacity:1" fill="#860507" d="M 93.5,99.5 C 93.5,100.833 93.5,102.167 93.5,103.5C 91.9519,103.821 91.2852,104.821 91.5,106.5C 85.548,109.031 81.548,107.365 79.5,101.5C 80.5,101.5 81.5,101.5 82.5,101.5C 82.5,99.8333 82.5,98.1667 82.5,96.5C 86.1352,95.8857 89.8019,95.5524 93.5,95.5C 93.5,96.8333 93.5,98.1667 93.5,99.5 Z"/></g>
<g><path style="opacity:1" fill="#fda99c" d="M 97.5,95.5 C 97.484,97.4841 98.484,98.4841 100.5,98.5C 104.453,97.6381 108.453,97.3048 112.5,97.5C 144.328,96.9292 175.994,96.2625 207.5,95.5C 208.043,95.56 208.376,95.8933 208.5,96.5C 171.471,97.4617 134.471,98.795 97.5,100.5C 95.1493,98.5828 95.1493,96.9161 97.5,95.5 Z"/></g>
<g><path style="opacity:1" fill="#fc8c7d" d="M 204.5,94.5 C 204.5,94.1667 204.5,93.8333 204.5,93.5C 207.905,94.0378 210.905,95.3712 213.5,97.5C 212.89,98.391 212.557,99.391 212.5,100.5C 181.33,99.2898 150.33,99.6231 119.5,101.5C 111.981,101.825 104.648,101.492 97.5,100.5C 134.471,98.795 171.471,97.4617 208.5,96.5C 208.376,95.8933 208.043,95.56 207.5,95.5C 206.391,95.4431 205.391,95.1098 204.5,94.5 Z"/></g>
<g><path style="opacity:1" fill="#a34847" d="M 216.5,94.5 C 218.837,96.9647 220.337,99.9647 221,103.5C 221.5,111.493 221.666,119.493 221.5,127.5C 221.167,127.5 220.833,127.5 220.5,127.5C 220.823,123.774 220.489,120.107 219.5,116.5C 218.482,115.807 217.482,115.141 216.5,114.5C 214.038,111.339 212.705,107.672 212.5,103.5C 212.5,102.5 212.5,101.5 212.5,100.5C 212.557,99.391 212.89,98.391 213.5,97.5C 214.306,96.2719 215.306,95.2719 216.5,94.5 Z"/></g>
<g><path style="opacity:1" fill="#fa564b" d="M 212.5,100.5 C 212.5,101.5 212.5,102.5 212.5,103.5C 203.73,102.195 194.73,101.528 185.5,101.5C 158.831,102.122 132.164,102.789 105.5,103.5C 110.167,102.833 114.833,102.167 119.5,101.5C 150.33,99.6231 181.33,99.2898 212.5,100.5 Z"/></g>
<g><path style="opacity:1" fill="#fbbfb1" d="M 71.5,103.5 C 60.4586,104.339 49.6253,106.339 39,109.5C 37.5,109.333 36,109.167 34.5,109C 35.056,108.617 35.3893,108.117 35.5,107.5C 39.7337,106.205 43.7337,104.539 47.5,102.5C 51.4764,101.705 55.4764,101.038 59.5,100.5C 64.3844,99.0976 69.3844,98.431 74.5,98.5C 74.7593,100.989 73.7593,102.656 71.5,103.5 Z"/></g>
<g><path style="opacity:1" fill="#f35e54" d="M 101.5,93.5 C 104.833,93.5 108.167,93.5 111.5,93.5C 107.036,94.6437 102.37,95.3104 97.5,95.5C 95.1493,96.9161 95.1493,98.5828 97.5,100.5C 104.648,101.492 111.981,101.825 119.5,101.5C 114.833,102.167 110.167,102.833 105.5,103.5C 102.482,103.665 99.4816,103.498 96.5,103C 95.9152,101.698 95.2485,100.531 94.5,99.5C 94.5,97.8333 94.5,96.1667 94.5,94.5C 97.0593,94.8016 99.3926,94.4682 101.5,93.5 Z"/></g>
<g><path style="opacity:1" fill="#e24844" d="M 50.5,99.5 C 49.6935,100.728 48.6935,101.728 47.5,102.5C 43.7337,104.539 39.7337,106.205 35.5,107.5C 33.2546,108.096 31.2546,109.096 29.5,110.5C 29.1667,110.5 28.8333,110.5 28.5,110.5C 27.2935,109.12 27.6269,107.953 29.5,107C 34.4036,106.2 38.7369,104.367 42.5,101.5C 42.8333,101.5 43.1667,101.5 43.5,101.5C 45.8333,100.833 48.1667,100.167 50.5,99.5 Z"/></g>
<g><path style="opacity:1" fill="#fa6d61" d="M 63.5,94.5 C 66.1667,94.5 68.8333,94.5 71.5,94.5C 72.5981,95.397 72.5981,96.2303 71.5,97C 73.1341,97.4935 74.8008,97.6602 76.5,97.5C 76.5,100.167 76.5,102.833 76.5,105.5C 69.484,106.337 62.484,107.337 55.5,108.5C 60.8496,106.822 66.1829,105.155 71.5,103.5C 73.7593,102.656 74.7593,100.989 74.5,98.5C 69.3844,98.431 64.3844,99.0976 59.5,100.5C 61.0261,98.87 63.0261,98.0367 65.5,98C 64.062,97.7811 62.7287,97.2811 61.5,96.5C 61.8555,95.4777 62.5222,94.811 63.5,94.5 Z"/></g>
<g><path style="opacity:1" fill="#fb473d" d="M 76.5,105.5 C 76.5,105.833 76.5,106.167 76.5,106.5C 64.1268,108.178 51.7935,110.512 39.5,113.5C 39.62,112.414 40.2867,111.747 41.5,111.5C 46.1128,110.18 50.7794,109.18 55.5,108.5C 62.484,107.337 69.484,106.337 76.5,105.5 Z"/></g>
<g><path style="opacity:1" fill="#99040e" d="M 214.5,99.5 C 216.39,99.2965 217.89,99.9632 219,101.5C 220.579,105.12 220.745,108.786 219.5,112.5C 217.866,112.032 216.7,111.032 216,109.5C 214.957,106.243 214.457,102.91 214.5,99.5 Z"/></g>
<g><path style="opacity:1" fill="#de908b" d="M 42.5,101.5 C 38.7369,104.367 34.4036,106.2 29.5,107C 27.6269,107.953 27.2935,109.12 28.5,110.5C 25.2814,110.776 22.6148,112.109 20.5,114.5C 20.5,113.833 20.1667,113.5 19.5,113.5C 20.1408,112.518 20.8075,111.518 21.5,110.5C 25.6302,107.209 30.2968,105.043 35.5,104C 37.3211,101.863 39.6544,101.03 42.5,101.5 Z"/></g>
<g><path style="opacity:1" fill="#f5040d" d="M 94.5,99.5 C 95.2485,100.531 95.9152,101.698 96.5,103C 99.4816,103.498 102.482,103.665 105.5,103.5C 132.164,102.789 158.831,102.122 185.5,101.5C 194.73,101.528 203.73,102.195 212.5,103.5C 212.705,107.672 214.038,111.339 216.5,114.5C 217.038,116.117 217.371,117.784 217.5,119.5C 216.744,127.493 215.91,135.493 215,143.5C 214,144.167 213,144.833 212,145.5C 207.961,138.919 206.795,139.586 208.5,147.5C 207.85,147.804 207.183,148.137 206.5,148.5C 205.06,147.048 203.394,146.048 201.5,145.5C 200.833,144.833 200.167,144.167 199.5,143.5C 200.459,141.455 201.125,139.289 201.5,137C 201.516,134.695 200.516,133.028 198.5,132C 199.337,130.989 199.67,129.822 199.5,128.5C 194.321,126.961 188.988,125.961 183.5,125.5C 180.645,125.503 177.978,125.836 175.5,126.5C 173.58,127.065 171.913,128.065 170.5,129.5C 168.381,131.4 166.047,133.066 163.5,134.5C 161.37,135.964 160.037,137.964 159.5,140.5C 164.007,138.665 168.674,136.832 173.5,135C 180.217,134.244 186.883,134.411 193.5,135.5C 192.53,136.629 191.364,137.629 190,138.5C 185.689,137.232 181.522,137.232 177.5,138.5C 173.851,139.267 170.518,140.6 167.5,142.5C 165.19,143.325 163.19,144.658 161.5,146.5C 160.5,146.833 159.833,147.5 159.5,148.5C 156.205,149.824 154.872,148.491 155.5,144.5C 154.041,144.433 152.708,144.766 151.5,145.5C 151.768,147.099 151.434,148.432 150.5,149.5C 125.289,151.115 100.289,150.782 75.5,148.5C 74.5,147.167 73.5,145.833 72.5,144.5C 71.016,143.527 70.516,142.193 71,140.5C 96.4277,141.661 121.928,141.828 147.5,141C 149.058,140.79 150.391,140.29 151.5,139.5C 154.502,136.157 157.502,132.824 160.5,129.5C 160.449,126.335 160.282,123.002 160,119.5C 157.52,121.166 154.687,121.999 151.5,122C 143.5,122.167 135.5,122.333 127.5,122.5C 116.755,122.722 106.088,122.055 95.5,120.5C 95.6789,113.595 95.3456,106.595 94.5,99.5 Z"/></g>
<g><path style="opacity:1" fill="#fc9488" d="M 71.5,103.5 C 66.1829,105.155 60.8496,106.822 55.5,108.5C 50.7794,109.18 46.1128,110.18 41.5,111.5C 40.2867,111.747 39.62,112.414 39.5,113.5C 36.1445,113.091 33.1445,113.758 30.5,115.5C 30.634,113.708 30.3007,112.042 29.5,110.5C 31.2546,109.096 33.2546,108.096 35.5,107.5C 35.3893,108.117 35.056,108.617 34.5,109C 36,109.167 37.5,109.333 39,109.5C 49.6253,106.339 60.4586,104.339 71.5,103.5 Z"/></g>
<g><path style="opacity:1" fill="#f7685c" d="M 39.5,113.5 C 37.5242,115.011 35.1909,115.844 32.5,116C 31.3636,117.145 30.3636,118.312 29.5,119.5C 29.4326,118.041 29.7659,116.708 30.5,115.5C 33.1445,113.758 36.1445,113.091 39.5,113.5 Z"/></g>
<g><path style="opacity:1" fill="#eeeceb" d="M 28.5,110.5 C 28.8333,110.5 29.1667,110.5 29.5,110.5C 30.3007,112.042 30.634,113.708 30.5,115.5C 29.7659,116.708 29.4326,118.041 29.5,119.5C 27.5544,120.035 26.5544,121.368 26.5,123.5C 23.1897,125.482 20.1897,127.815 17.5,130.5C 16.1667,130.5 14.8333,130.5 13.5,130.5C 13.3367,128.143 13.5034,125.81 14,123.5C 15.9979,120.342 18.1645,117.342 20.5,114.5C 22.6148,112.109 25.2814,110.776 28.5,110.5 Z"/></g>
<g><path style="opacity:1" fill="#b90d0d" d="M 216.5,114.5 C 217.482,115.141 218.482,115.807 219.5,116.5C 220.489,120.107 220.823,123.774 220.5,127.5C 220.034,133.491 219.701,139.491 219.5,145.5C 218.307,145.03 217.64,144.03 217.5,142.5C 218.073,134.735 218.073,127.068 217.5,119.5C 217.371,117.784 217.038,116.117 216.5,114.5 Z"/></g>
<g><path style="opacity:1" fill="#be4746" d="M 26.5,123.5 C 26.4894,125.017 25.8228,126.184 24.5,127C 22.4234,128.705 20.09,129.872 17.5,130.5C 20.1897,127.815 23.1897,125.482 26.5,123.5 Z"/></g>
<g><path style="opacity:1" fill="#dc0006" d="M 151.5,136.5 C 148.15,136.665 144.817,136.498 141.5,136C 142.308,135.692 142.975,135.192 143.5,134.5C 142.167,134.167 140.833,133.833 139.5,133.5C 124.842,134.501 110.175,134.501 95.5,133.5C 95.5,134.5 95.5,135.5 95.5,136.5C 90.1563,136.334 84.8229,136.501 79.5,137C 81.5,137.333 83.5,137.667 85.5,138C 84.3774,139.044 83.0441,139.71 81.5,140C 99.5,140.667 117.5,140.667 135.5,140C 136.5,139.667 137.5,139.333 138.5,139C 138.167,138.667 137.833,138.333 137.5,138C 140.817,137.502 144.15,137.335 147.5,137.5C 147.082,138.222 146.416,138.722 145.5,139C 147.473,139.495 149.473,139.662 151.5,139.5C 150.391,140.29 149.058,140.79 147.5,141C 121.928,141.828 96.4277,141.661 71,140.5C 70.516,142.193 71.016,143.527 72.5,144.5C 71.1429,145.59 70.1429,146.924 69.5,148.5C 69.7035,146.61 69.0368,145.11 67.5,144C 68.3081,143.692 68.9747,143.192 69.5,142.5C 68.1468,141.476 67.4802,140.143 67.5,138.5C 69.7834,138.392 71.7834,137.559 73.5,136C 72.0439,135.577 71.5439,134.744 72,133.5C 74.3079,132.359 76.1413,130.692 77.5,128.5C 103.158,127.5 128.825,127.167 154.5,127.5C 154.072,130.785 153.072,133.785 151.5,136.5 Z"/></g>
<g><path style="opacity:1" fill="#fb7e6f" d="M 175.5,126.5 C 179.182,126.335 182.848,126.501 186.5,127C 188.653,127.099 190.319,127.933 191.5,129.5C 185.024,128.274 178.691,128.274 172.5,129.5C 171.833,129.5 171.167,129.5 170.5,129.5C 171.913,128.065 173.58,127.065 175.5,126.5 Z"/></g>
<g><path style="opacity:1" fill="#ba3f3e" d="M 19.5,113.5 C 20.1667,113.5 20.5,113.833 20.5,114.5C 18.1645,117.342 15.9979,120.342 14,123.5C 13.5034,125.81 13.3367,128.143 13.5,130.5C 14.8333,130.5 16.1667,130.5 17.5,130.5C 15.1831,131.942 13.0164,131.608 11,129.5C 10.1637,134.378 8.99704,139.044 7.5,143.5C 7.38672,135.729 9.05339,128.395 12.5,121.5C 14.0941,118.236 16.4275,115.569 19.5,113.5 Z"/></g>
<g><path style="opacity:1" fill="#fccdc2" d="M 191.5,129.5 C 191.5,129.833 191.5,130.167 191.5,130.5C 185.653,131.247 179.653,131.914 173.5,132.5C 171.197,132.124 170.863,131.124 172.5,129.5C 178.691,128.274 185.024,128.274 191.5,129.5 Z"/></g>
<g><path style="opacity:1" fill="#ee2c24" d="M 175.5,126.5 C 177.978,125.836 180.645,125.503 183.5,125.5C 188.988,125.961 194.321,126.961 199.5,128.5C 199.67,129.822 199.337,130.989 198.5,132C 200.516,133.028 201.516,134.695 201.5,137C 201.125,139.289 200.459,141.455 199.5,143.5C 196.557,143.02 193.89,142.02 191.5,140.5C 187.119,138.789 182.453,138.123 177.5,138.5C 181.522,137.232 185.689,137.232 190,138.5C 191.364,137.629 192.53,136.629 193.5,135.5C 195.379,136.341 197.379,136.675 199.5,136.5C 199.226,134.019 197.893,132.353 195.5,131.5C 194.167,131.167 192.833,130.833 191.5,130.5C 191.5,130.167 191.5,129.833 191.5,129.5C 190.319,127.933 188.653,127.099 186.5,127C 182.848,126.501 179.182,126.335 175.5,126.5 Z"/></g>
<g><path style="opacity:1" fill="#fda195" d="M 170.5,129.5 C 171.167,129.5 171.833,129.5 172.5,129.5C 170.863,131.124 171.197,132.124 173.5,132.5C 179.653,131.914 185.653,131.247 191.5,130.5C 192.833,130.833 194.167,131.167 195.5,131.5C 194.848,132.725 193.681,133.392 192,133.5C 182.847,131.711 174.013,132.711 165.5,136.5C 164.287,136.253 163.62,135.586 163.5,134.5C 166.047,133.066 168.381,131.4 170.5,129.5 Z"/></g>
<g><path style="opacity:1" fill="#867474" d="M 12.5,121.5 C 9.05339,128.395 7.38672,135.729 7.5,143.5C 6.16667,144.833 4.83333,146.167 3.5,147.5C 3.16667,147.5 2.83333,147.5 2.5,147.5C 3.34353,141.449 4.5102,135.449 6,129.5C 7.0095,125.773 9.17617,123.106 12.5,121.5 Z"/></g>
<g><path style="opacity:1" fill="#fa5e51" d="M 195.5,131.5 C 197.893,132.353 199.226,134.019 199.5,136.5C 197.379,136.675 195.379,136.341 193.5,135.5C 186.883,134.411 180.217,134.244 173.5,135C 168.674,136.832 164.007,138.665 159.5,140.5C 160.037,137.964 161.37,135.964 163.5,134.5C 163.62,135.586 164.287,136.253 165.5,136.5C 174.013,132.711 182.847,131.711 192,133.5C 193.681,133.392 194.848,132.725 195.5,131.5 Z"/></g>
<g><path style="opacity:1" fill="#e3a4a4" d="M 220.5,127.5 C 220.833,127.5 221.167,127.5 221.5,127.5C 221.407,133.516 221.074,139.516 220.5,145.5C 220.167,145.5 219.833,145.5 219.5,145.5C 219.701,139.491 220.034,133.491 220.5,127.5 Z"/></g>
<g><path style="opacity:1" fill="#ed0910" d="M 93.5,99.5 C 93.8333,99.5 94.1667,99.5 94.5,99.5C 95.3456,106.595 95.6789,113.595 95.5,120.5C 106.088,122.055 116.755,122.722 127.5,122.5C 135.5,122.333 143.5,122.167 151.5,122C 154.687,121.999 157.52,121.166 160,119.5C 160.282,123.002 160.449,126.335 160.5,129.5C 157.502,132.824 154.502,136.157 151.5,139.5C 149.473,139.662 147.473,139.495 145.5,139C 146.416,138.722 147.082,138.222 147.5,137.5C 149.099,137.768 150.432,137.434 151.5,136.5C 153.072,133.785 154.072,130.785 154.5,127.5C 128.825,127.167 103.158,127.5 77.5,128.5C 76.1413,130.692 74.3079,132.359 72,133.5C 71.5439,134.744 72.0439,135.577 73.5,136C 71.7834,137.559 69.7834,138.392 67.5,138.5C 67.4802,140.143 68.1468,141.476 69.5,142.5C 68.9747,143.192 68.3081,143.692 67.5,144C 69.0368,145.11 69.7035,146.61 69.5,148.5C 67.7541,146.748 65.7541,145.415 63.5,144.5C 59.0369,143.099 54.7035,141.432 50.5,139.5C 39.0437,138.208 29.0437,141.541 20.5,149.5C 19.2652,149.279 18.2652,148.612 17.5,147.5C 14.9124,148.194 12.579,149.36 10.5,151C 11.731,152.183 11.731,153.349 10.5,154.5C 9.66412,152.06 7.99745,150.727 5.5,150.5C 5.06795,149.29 4.40128,148.29 3.5,147.5C 4.83333,146.167 6.16667,144.833 7.5,143.5C 8.99704,139.044 10.1637,134.378 11,129.5C 13.0164,131.608 15.1831,131.942 17.5,130.5C 20.09,129.872 22.4234,128.705 24.5,127C 25.8228,126.184 26.4894,125.017 26.5,123.5C 26.5544,121.368 27.5544,120.035 29.5,119.5C 30.3636,118.312 31.3636,117.145 32.5,116C 35.1909,115.844 37.5242,115.011 39.5,113.5C 51.7935,110.512 64.1268,108.178 76.5,106.5C 78.433,106.729 80.0997,107.562 81.5,109C 84.8333,109.667 88.1667,109.667 91.5,109C 92.8613,107.416 93.528,105.582 93.5,103.5C 93.5,102.167 93.5,100.833 93.5,99.5 Z"/></g>
<g><path style="opacity:1" fill="#fb8174" d="M 33.5,129.5 C 34.1667,129.5 34.8333,129.5 35.5,129.5C 34.8592,130.482 34.1925,131.482 33.5,132.5C 41.0487,133.031 48.3821,134.031 55.5,135.5C 53.5,135.5 51.5,135.5 49.5,135.5C 43.9627,134.192 38.2961,134.192 32.5,135.5C 31.2291,133.194 31.5624,131.194 33.5,129.5 Z"/></g>
<g><path style="opacity:1" fill="#fa5345" d="M 57.5,130.5 C 64.6167,130.664 67.6167,134.33 66.5,141.5C 63.9369,140.912 61.6036,139.912 59.5,138.5C 61.1439,138.286 62.6439,138.62 64,139.5C 64.49,138.207 64.6567,136.873 64.5,135.5C 61.9203,134.265 59.587,132.599 57.5,130.5 Z"/></g>
<g><path style="opacity:1" fill="#fbb9aa" d="M 57.5,130.5 C 59.587,132.599 61.9203,134.265 64.5,135.5C 64.6567,136.873 64.49,138.207 64,139.5C 62.6439,138.62 61.1439,138.286 59.5,138.5C 58.1283,137.488 56.795,136.488 55.5,135.5C 48.3821,134.031 41.0487,133.031 33.5,132.5C 34.1925,131.482 34.8592,130.482 35.5,129.5C 42.9496,127.894 50.283,128.228 57.5,130.5 Z"/></g>
<g><path style="opacity:1" fill="#fd786c" d="M 57.5,130.5 C 50.283,128.228 42.9496,127.894 35.5,129.5C 38.1199,127.105 41.2866,126.105 45,126.5C 48.5517,126.641 52.0517,127.141 55.5,128C 56.756,128.417 57.4226,129.25 57.5,130.5 Z"/></g>
<g><path style="opacity:1" fill="#fa584b" d="M 33.5,129.5 C 31.5624,131.194 31.2291,133.194 32.5,135.5C 38.2961,134.192 43.9627,134.192 49.5,135.5C 42.3691,134.827 35.5357,135.827 29,138.5C 28.1667,138.167 27.3333,137.833 26.5,137.5C 27.1962,134.643 28.5295,132.143 30.5,130C 31.448,129.517 32.448,129.351 33.5,129.5 Z"/></g>
<g><path style="opacity:1" fill="#cd0204" d="M 151.5,136.5 C 150.432,137.434 149.099,137.768 147.5,137.5C 144.15,137.335 140.817,137.502 137.5,138C 137.833,138.333 138.167,138.667 138.5,139C 137.5,139.333 136.5,139.667 135.5,140C 117.5,140.667 99.5,140.667 81.5,140C 83.0441,139.71 84.3774,139.044 85.5,138C 83.5,137.667 81.5,137.333 79.5,137C 84.8229,136.501 90.1563,136.334 95.5,136.5C 95.5,135.5 95.5,134.5 95.5,133.5C 110.175,134.501 124.842,134.501 139.5,133.5C 140.833,133.833 142.167,134.167 143.5,134.5C 142.975,135.192 142.308,135.692 141.5,136C 144.817,136.498 148.15,136.665 151.5,136.5 Z"/></g>
<g><path style="opacity:1" fill="#5a0203" d="M 177.5,138.5 C 182.453,138.123 187.119,138.789 191.5,140.5C 188.175,140.169 184.841,139.836 181.5,139.5C 176.737,140.089 172.07,141.089 167.5,142.5C 170.518,140.6 173.851,139.267 177.5,138.5 Z"/></g>
<g><path style="opacity:1" fill="#f96a5f" d="M 151.5,145.5 C 148.833,145.5 146.167,145.5 143.5,145.5C 145.292,144.691 147.292,144.191 149.5,144C 124.833,143.333 100.167,143.333 75.5,144C 76.056,144.383 76.3893,144.883 76.5,145.5C 74.9519,145.179 74.2852,144.179 74.5,142.5C 100.167,142.5 125.833,142.5 151.5,142.5C 151.5,143.5 151.5,144.5 151.5,145.5 Z"/></g>
<g><path style="opacity:1" fill="#f38e7d" d="M 143.5,145.5 C 121.167,145.5 98.8333,145.5 76.5,145.5C 76.3893,144.883 76.056,144.383 75.5,144C 100.167,143.333 124.833,143.333 149.5,144C 147.292,144.191 145.292,144.691 143.5,145.5 Z"/></g>
<g><path style="opacity:1" fill="#39393a" d="M 204.5,152.5 C 205.292,153.967 205.292,155.3 204.5,156.5C 197.202,147.179 187.536,143.345 175.5,145C 172.78,145.797 170.28,146.963 168,148.5C 167.517,147.552 167.351,146.552 167.5,145.5C 171.6,143.184 176.1,141.517 181,140.5C 187.63,141.365 193.797,143.532 199.5,147C 202.056,148.055 203.723,149.888 204.5,152.5 Z"/></g>
<g><path style="opacity:1" fill="#d50c0c" d="M 217.5,119.5 C 218.073,127.068 218.073,134.735 217.5,142.5C 217.64,144.03 218.307,145.03 219.5,145.5C 219.557,146.609 219.89,147.609 220.5,148.5C 220.66,152.4 218.993,155.067 215.5,156.5C 214.402,154.368 213.402,152.202 212.5,150C 212.167,149.833 211.833,149.667 211.5,149.5C 209.722,154.232 208.722,153.565 208.5,147.5C 206.795,139.586 207.961,138.919 212,145.5C 213,144.833 214,144.167 215,143.5C 215.91,135.493 216.744,127.493 217.5,119.5 Z"/></g>
<g><path style="opacity:1" fill="#c90004" d="M 63.5,144.5 C 65.7541,145.415 67.7541,146.748 69.5,148.5C 70.1429,146.924 71.1429,145.59 72.5,144.5C 73.5,145.833 74.5,147.167 75.5,148.5C 76.3103,150.798 77.1436,153.132 78,155.5C 101.427,154.672 124.927,154.172 148.5,154C 149.167,152.667 150.167,151.667 151.5,151C 150.944,150.617 150.611,150.117 150.5,149.5C 151.434,148.432 151.768,147.099 151.5,145.5C 152.708,144.766 154.041,144.433 155.5,144.5C 154.872,148.491 156.205,149.824 159.5,148.5C 157.666,151.083 155.999,153.75 154.5,156.5C 152.908,157.602 152.075,156.935 152,154.5C 150.667,155.833 149.333,157.167 148,158.5C 147.439,157.978 146.772,157.645 146,157.5C 123.625,159.466 101.125,160.133 78.5,159.5C 77.8826,159.389 77.3826,159.056 77,158.5C 76.79,160.058 76.29,161.391 75.5,162.5C 74.8333,161.5 74.1667,160.5 73.5,159.5C 73.2761,157.213 72.6094,155.047 71.5,153C 68.6511,150.318 65.9844,147.485 63.5,144.5 Z"/></g>
<g><path style="opacity:1" fill="#de0005" d="M 75.5,148.5 C 100.289,150.782 125.289,151.115 150.5,149.5C 150.611,150.117 150.944,150.617 151.5,151C 150.167,151.667 149.167,152.667 148.5,154C 124.927,154.172 101.427,154.672 78,155.5C 77.1436,153.132 76.3103,150.798 75.5,148.5 Z"/></g>
<g><path style="opacity:1" fill="#c30104" d="M 20.5,149.5 C 19.9872,151.854 18.8205,153.854 17,155.5C 16.338,157.813 15.838,160.146 15.5,162.5C 15.1667,162.5 14.8333,162.5 14.5,162.5C 13.6981,161.048 13.1981,159.382 13,157.5C 11.6839,158.974 10.6839,160.641 10,162.5C 9.51722,161.552 9.35055,160.552 9.5,159.5C 8.16667,159.5 6.83333,159.5 5.5,159.5C 5.5,156.5 5.5,153.5 5.5,150.5C 7.99745,150.727 9.66412,152.06 10.5,154.5C 11.731,153.349 11.731,152.183 10.5,151C 12.579,149.36 14.9124,148.194 17.5,147.5C 18.2652,148.612 19.2652,149.279 20.5,149.5 Z"/></g>
<g><path style="opacity:1" fill="#a90004" d="M 201.5,145.5 C 203.394,146.048 205.06,147.048 206.5,148.5C 207.183,148.137 207.85,147.804 208.5,147.5C 208.722,153.565 209.722,154.232 211.5,149.5C 211.833,149.667 212.167,149.833 212.5,150C 213.402,152.202 214.402,154.368 215.5,156.5C 218.993,155.067 220.66,152.4 220.5,148.5C 221.599,154.364 221.432,160.364 220,166.5C 218.644,167.38 217.144,167.714 215.5,167.5C 215.82,164.102 215.487,160.768 214.5,157.5C 213.83,159.291 213.163,160.958 212.5,162.5C 212.068,161.29 211.401,160.29 210.5,159.5C 210.509,157.692 210.009,156.025 209,154.5C 206.665,151.335 204.165,148.335 201.5,145.5 Z"/></g>
<g><path style="opacity:1" fill="#9a0102" d="M 2.5,147.5 C 2.83333,147.5 3.16667,147.5 3.5,147.5C 4.40128,148.29 5.06795,149.29 5.5,150.5C 5.5,153.5 5.5,156.5 5.5,159.5C 6.83333,159.5 8.16667,159.5 9.5,159.5C 9.35055,160.552 9.51722,161.552 10,162.5C 10.6839,160.641 11.6839,158.974 13,157.5C 13.1981,159.382 13.6981,161.048 14.5,162.5C 13.9198,166.81 13.5865,171.143 13.5,175.5C 11.8333,175.5 10.1667,175.5 8.5,175.5C 8.72045,172.6 8.05378,169.933 6.5,167.5C 5.80273,169.385 4.80273,169.718 3.5,168.5C 2.50367,162.202 2.17033,155.868 2.5,149.5C 2.5,148.833 2.5,148.167 2.5,147.5 Z"/></g>
<g><path style="opacity:1" fill="#b30003" d="M 154.5,156.5 C 154.737,157.791 154.404,158.791 153.5,159.5C 152.833,160.5 152.167,161.5 151.5,162.5C 150.153,161.829 148.986,161.829 148,162.5C 147.506,164.134 147.34,165.801 147.5,167.5C 146.5,167.5 145.5,167.5 144.5,167.5C 144.5,166.5 144.5,165.5 144.5,164.5C 124.121,163.254 103.787,163.254 83.5,164.5C 79.8232,164.801 78.1565,163.134 78.5,159.5C 101.125,160.133 123.625,159.466 146,157.5C 146.772,157.645 147.439,157.978 148,158.5C 149.333,157.167 150.667,155.833 152,154.5C 152.075,156.935 152.908,157.602 154.5,156.5 Z"/></g>
<g><path style="opacity:1" fill="#954949" d="M 1.5,149.5 C 0.252851,156.52 0.252851,163.52 1.5,170.5C 0.833333,170.167 0.166667,169.833 -0.5,169.5C -0.5,163.5 -0.5,157.5 -0.5,151.5C 0.166667,150.833 0.833333,150.167 1.5,149.5 Z"/></g>
<g><path style="opacity:1" fill="#a10003" d="M 78.5,159.5 C 78.1565,163.134 79.8232,164.801 83.5,164.5C 103.787,163.254 124.121,163.254 144.5,164.5C 144.5,165.5 144.5,166.5 144.5,167.5C 145.5,167.5 146.5,167.5 147.5,167.5C 147.34,165.801 147.506,164.134 148,162.5C 148.986,161.829 150.153,161.829 151.5,162.5C 151.5,166.833 151.5,171.167 151.5,175.5C 126.167,175.5 100.833,175.5 75.5,175.5C 75.5,171.167 75.5,166.833 75.5,162.5C 76.29,161.391 76.79,160.058 77,158.5C 77.3826,159.056 77.8826,159.389 78.5,159.5 Z"/></g>
<g><path style="opacity:1" fill="#570005" d="M 73.5,159.5 C 74.1667,160.5 74.8333,161.5 75.5,162.5C 75.5,166.833 75.5,171.167 75.5,175.5C 75.1667,175.5 74.8333,175.5 74.5,175.5C 74.5276,170.138 74.1942,164.805 73.5,159.5 Z"/></g>
<g><path style="opacity:1" fill="#590108" d="M 153.5,159.5 C 152.725,164.797 152.392,170.13 152.5,175.5C 152.167,175.5 151.833,175.5 151.5,175.5C 151.5,171.167 151.5,166.833 151.5,162.5C 152.167,161.5 152.833,160.5 153.5,159.5 Z"/></g>
<g><path style="opacity:1" fill="#5b2020" d="M 210.5,159.5 C 211.401,160.29 212.068,161.29 212.5,162.5C 212.5,166.833 212.5,171.167 212.5,175.5C 214.833,175.5 217.167,175.5 219.5,175.5C 217.052,176.473 214.385,176.806 211.5,176.5C 211.687,170.788 211.354,165.121 210.5,159.5 Z"/></g>
<g><path style="opacity:1" fill="#900606" d="M 219.5,145.5 C 219.833,145.5 220.167,145.5 220.5,145.5C 221.122,146.627 221.955,147.627 223,148.5C 223.667,155.833 223.667,163.167 223,170.5C 221.97,172.346 220.804,174.013 219.5,175.5C 217.167,175.5 214.833,175.5 212.5,175.5C 212.5,171.167 212.5,166.833 212.5,162.5C 213.163,160.958 213.83,159.291 214.5,157.5C 215.487,160.768 215.82,164.102 215.5,167.5C 217.144,167.714 218.644,167.38 220,166.5C 221.432,160.364 221.599,154.364 220.5,148.5C 219.89,147.609 219.557,146.609 219.5,145.5 Z"/></g>
<g><path style="opacity:1" fill="#850d0d" d="M 1.5,149.5 C 1.83333,149.5 2.16667,149.5 2.5,149.5C 2.17033,155.868 2.50367,162.202 3.5,168.5C 4.80273,169.718 5.80273,169.385 6.5,167.5C 8.05378,169.933 8.72045,172.6 8.5,175.5C 7.83333,175.5 7.16667,175.5 6.5,175.5C 4.47266,174.139 2.806,172.473 1.5,170.5C 0.252851,163.52 0.252851,156.52 1.5,149.5 Z"/></g>
<g><path style="opacity:1" fill="#732321" d="M 14.5,162.5 C 14.8333,162.5 15.1667,162.5 15.5,162.5C 15.5,167.167 15.5,171.833 15.5,176.5C 12.2869,176.81 9.2869,176.477 6.5,175.5C 7.16667,175.5 7.83333,175.5 8.5,175.5C 10.1667,175.5 11.8333,175.5 13.5,175.5C 13.5865,171.143 13.9198,166.81 14.5,162.5 Z"/></g>
<g><path style="opacity:1" fill="#181414" d="M 63.5,144.5 C 65.9844,147.485 68.6511,150.318 71.5,153C 72.6094,155.047 73.2761,157.213 73.5,159.5C 74.1942,164.805 74.5276,170.138 74.5,175.5C 74.5,175.833 74.5,176.167 74.5,176.5C 73.1528,180.352 71.3195,184.019 69,187.5C 65.7783,190.528 62.2783,193.195 58.5,195.5C 56.3024,195.875 54.3024,196.542 52.5,197.5C 46.4638,197.64 40.4638,197.307 34.5,196.5C 24.8004,193.132 18.4671,186.465 15.5,176.5C 15.5,171.833 15.5,167.167 15.5,162.5C 15.838,160.146 16.338,157.813 17,155.5C 18.8205,153.854 19.9872,151.854 20.5,149.5C 29.0437,141.541 39.0437,138.208 50.5,139.5C 54.7035,141.432 59.0369,143.099 63.5,144.5 Z"/></g>
<g><path style="opacity:1" fill="#3a383a" d="M 68.5,153.5 C 68.6495,154.552 68.4828,155.552 68,156.5C 64.5869,152.58 60.7536,149.247 56.5,146.5C 48.0688,143.758 39.7355,143.925 31.5,147C 30.3067,149.027 28.64,150.527 26.5,151.5C 25.7025,151.043 25.3691,150.376 25.5,149.5C 27.4863,146.025 30.4863,143.858 34.5,143C 48.4246,138.93 59.7579,142.43 68.5,153.5 Z"/></g>
<g><path style="opacity:1" fill="#4c4d4f" d="M 61.5,175.5 C 61.6495,174.448 61.4828,173.448 61,172.5C 57.5,174.667 54.6667,177.5 52.5,181C 48.2486,182.195 43.9152,182.695 39.5,182.5C 36.9258,180.962 34.4258,179.295 32,177.5C 30.9701,177.836 30.4701,178.503 30.5,179.5C 29.1986,178.36 28.0319,177.027 27,175.5C 26.5014,171.848 26.3347,168.182 26.5,164.5C 30.0612,153.375 37.7279,148.875 49.5,151C 59.9344,154.357 64.4344,161.524 63,172.5C 62.7679,173.737 62.2679,174.737 61.5,175.5 Z"/></g>
<g><path style="opacity:1" fill="#6e6f71" d="M 39.5,157.5 C 37.8325,159.479 37.1658,161.812 37.5,164.5C 42.1776,165.569 46.8442,165.569 51.5,164.5C 52.819,162.468 52.819,160.468 51.5,158.5C 55.9489,160.725 57.6156,164.391 56.5,169.5C 50.4632,169.829 44.4632,169.496 38.5,168.5C 37.6798,166.889 36.3464,166.222 34.5,166.5C 33.8747,162.073 35.5413,159.073 39.5,157.5 Z"/></g>
<g><path style="opacity:1" fill="#1f1f1f" d="M 204.5,152.5 C 207.201,155.234 208.867,158.568 209.5,162.5C 208.868,166.817 208.368,171.15 208,175.5C 207.667,174.5 207.333,173.5 207,172.5C 204.627,176.582 202.794,180.916 201.5,185.5C 199.898,184.45 199.065,185.117 199,187.5C 197.817,186.269 196.651,186.269 195.5,187.5C 195.833,188.167 196.167,188.833 196.5,189.5C 194.833,190.167 193.167,190.833 191.5,191.5C 185.948,192.188 180.448,192.854 175,193.5C 173.029,191.9 171.196,191.734 169.5,193C 175.193,196.964 181.527,198.464 188.5,197.5C 184.702,198.483 180.702,198.817 176.5,198.5C 165.116,196.116 157.449,189.45 153.5,178.5C 153.443,177.391 153.11,176.391 152.5,175.5C 152.392,170.13 152.725,164.797 153.5,159.5C 154.404,158.791 154.737,157.791 154.5,156.5C 155.999,153.75 157.666,151.083 159.5,148.5C 159.833,147.5 160.5,146.833 161.5,146.5C 163.435,145.85 165.435,145.517 167.5,145.5C 167.351,146.552 167.517,147.552 168,148.5C 170.28,146.963 172.78,145.797 175.5,145C 187.536,143.345 197.202,147.179 204.5,156.5C 205.292,155.3 205.292,153.967 204.5,152.5 Z"/></g>
<g><path style="opacity:1" fill="#4b4c4e" d="M 198.5,176.5 C 198.762,175.022 198.429,173.689 197.5,172.5C 195.889,173.32 195.222,174.654 195.5,176.5C 191.107,179.64 186.107,181.64 180.5,182.5C 174.117,180.96 169.284,177.293 166,171.5C 165.506,173.134 165.34,174.801 165.5,176.5C 160.607,165.038 163.94,156.538 175.5,151C 190.64,148.563 199.306,154.897 201.5,170C 201.343,172.675 200.343,174.841 198.5,176.5 Z"/></g>
<g><path style="opacity:1" fill="#808183" d="M 175.5,156.5 C 182.141,155.139 187.641,156.805 192,161.5C 192.567,166.107 190.401,168.441 185.5,168.5C 181.862,167.818 178.195,167.318 174.5,167C 173.5,166.167 172.5,165.333 171.5,164.5C 173.03,161.896 174.363,159.229 175.5,156.5 Z"/></g>
<g><path style="opacity:1" fill="#b3b4b6" d="M 178.5,158.5 C 181.572,158.183 184.572,158.516 187.5,159.5C 188.246,160.736 188.579,162.07 188.5,163.5C 185.15,163.665 181.817,163.498 178.5,163C 177.272,161.51 177.272,160.01 178.5,158.5 Z"/></g>
<g><path style="opacity:1" fill="#c57381" d="M 74.5,176.5 C 74.5,176.167 74.5,175.833 74.5,175.5C 74.8333,175.5 75.1667,175.5 75.5,175.5C 100.833,175.5 126.167,175.5 151.5,175.5C 151.833,175.5 152.167,175.5 152.5,175.5C 153.11,176.391 153.443,177.391 153.5,178.5C 152.711,178.217 152.044,177.717 151.5,177C 125.835,176.5 100.169,176.333 74.5,176.5 Z"/></g>
<g><path style="opacity:1" fill="#7d7d7f" d="M 61.5,175.5 C 60.9109,178.276 59.5776,180.61 57.5,182.5C 56.3951,183.6 55.0618,184.267 53.5,184.5C 54.8595,182.991 54.3595,182.324 52,182.5C 47.6767,183.698 43.51,183.698 39.5,182.5C 43.9152,182.695 48.2486,182.195 52.5,181C 54.6667,177.5 57.5,174.667 61,172.5C 61.4828,173.448 61.6495,174.448 61.5,175.5 Z"/></g>
<g><path style="opacity:1" fill="#797a7c" d="M 198.5,176.5 C 197.493,179.674 195.493,182.007 192.5,183.5C 192.209,182.351 191.376,181.684 190,181.5C 184.961,183.633 179.794,183.967 174.5,182.5C 172.279,182.439 171.946,183.105 173.5,184.5C 169.19,183.523 166.523,180.856 165.5,176.5C 165.34,174.801 165.506,173.134 166,171.5C 169.284,177.293 174.117,180.96 180.5,182.5C 186.107,181.64 191.107,179.64 195.5,176.5C 195.222,174.654 195.889,173.32 197.5,172.5C 198.429,173.689 198.762,175.022 198.5,176.5 Z"/></g>
<g><path style="opacity:1" fill="#121010" d="M 191.5,140.5 C 193.89,142.02 196.557,143.02 199.5,143.5C 200.167,144.167 200.833,144.833 201.5,145.5C 204.165,148.335 206.665,151.335 209,154.5C 210.009,156.025 210.509,157.692 210.5,159.5C 211.354,165.121 211.687,170.788 211.5,176.5C 210.137,181.931 207.471,186.598 203.5,190.5C 199.154,194.165 194.154,196.499 188.5,197.5C 181.527,198.464 175.193,196.964 169.5,193C 171.196,191.734 173.029,191.9 175,193.5C 180.448,192.854 185.948,192.188 191.5,191.5C 193.167,190.833 194.833,190.167 196.5,189.5C 196.167,188.833 195.833,188.167 195.5,187.5C 196.651,186.269 197.817,186.269 199,187.5C 199.065,185.117 199.898,184.45 201.5,185.5C 202.794,180.916 204.627,176.582 207,172.5C 207.333,173.5 207.667,174.5 208,175.5C 208.368,171.15 208.868,166.817 209.5,162.5C 208.867,158.568 207.201,155.234 204.5,152.5C 203.723,149.888 202.056,148.055 199.5,147C 193.797,143.532 187.63,141.365 181,140.5C 176.1,141.517 171.6,143.184 167.5,145.5C 165.435,145.517 163.435,145.85 161.5,146.5C 163.19,144.658 165.19,143.325 167.5,142.5C 172.07,141.089 176.737,140.089 181.5,139.5C 184.841,139.836 188.175,140.169 191.5,140.5 Z"/></g>
<g><path style="opacity:1" fill="#9e9e9e" d="M 39.5,182.5 C 43.51,183.698 47.6767,183.698 52,182.5C 54.3595,182.324 54.8595,182.991 53.5,184.5C 46.2977,188.783 39.2977,188.283 32.5,183C 31.695,181.887 31.0283,180.721 30.5,179.5C 30.4701,178.503 30.9701,177.836 32,177.5C 34.4258,179.295 36.9258,180.962 39.5,182.5 Z"/></g>
<g><path style="opacity:1" fill="#a6a7a7" d="M 192.5,183.5 C 186.279,188.243 179.946,188.577 173.5,184.5C 171.946,183.105 172.279,182.439 174.5,182.5C 179.794,183.967 184.961,183.633 190,181.5C 191.376,181.684 192.209,182.351 192.5,183.5 Z"/></g>
<g><path style="opacity:1" fill="#262626" d="M 68.5,153.5 C 69.2216,153.918 69.7216,154.584 70,155.5C 70.718,159.177 71.0514,162.843 71,166.5C 66.856,160.691 62.356,155.191 57.5,150C 52.5191,147.068 47.1858,145.735 41.5,146C 38.065,147.699 34.565,149.199 31,150.5C 29.4226,153.751 27.4226,156.751 25,159.5C 24.7132,161.891 24.2132,164.224 23.5,166.5C 23.8333,166.833 24.1667,167.167 24.5,167.5C 25.1757,166.398 25.8423,165.398 26.5,164.5C 26.3347,168.182 26.5014,171.848 27,175.5C 28.0319,177.027 29.1986,178.36 30.5,179.5C 31.0283,180.721 31.695,181.887 32.5,183C 39.2977,188.283 46.2977,188.783 53.5,184.5C 55.0618,184.267 56.3951,183.6 57.5,182.5C 57.1667,184.5 56.8333,186.5 56.5,188.5C 53.2857,189.44 50.2857,190.94 47.5,193C 43.8333,193.667 40.1667,193.667 36.5,193C 33.0623,190.504 29.5623,188.004 26,185.5C 23.8899,182.508 22.5566,179.175 22,175.5C 21.6667,175.833 21.3333,176.167 21,176.5C 20.2269,173.789 19.0602,171.289 17.5,169C 19.2781,166.868 19.6114,164.368 18.5,161.5C 18.3985,155.964 20.7319,151.964 25.5,149.5C 25.3691,150.376 25.7025,151.043 26.5,151.5C 28.64,150.527 30.3067,149.027 31.5,147C 39.7355,143.925 48.0688,143.758 56.5,146.5C 60.7536,149.247 64.5869,152.58 68,156.5C 68.4828,155.552 68.6495,154.552 68.5,153.5 Z"/></g>
<g><path style="opacity:1" fill="#999a9c" d="M 51.5,158.5 C 52.819,160.468 52.819,162.468 51.5,164.5C 46.8442,165.569 42.1776,165.569 37.5,164.5C 37.1658,161.812 37.8325,159.479 39.5,157.5C 43.5106,156.163 47.5106,156.496 51.5,158.5 Z"/></g>
<g><path style="opacity:1" fill="#454545" d="M 34.5,196.5 C 40.4638,197.307 46.4638,197.64 52.5,197.5C 48.03,198.486 43.3633,198.819 38.5,198.5C 36.847,198.34 35.5137,197.674 34.5,196.5 Z"/></g>
<g><path style="opacity:1" fill="#b5b5b5" d="M 58.5,195.5 C 57.0975,196.931 55.4308,198.098 53.5,199C 48.3158,199.816 43.3158,199.65 38.5,198.5C 43.3633,198.819 48.03,198.486 52.5,197.5C 54.3024,196.542 56.3024,195.875 58.5,195.5 Z"/></g>
<g><path style="opacity:1" fill="#c0c0c0" d="M 203.5,190.5 C 203.719,191.675 203.386,192.675 202.5,193.5C 194.464,198.969 185.797,200.636 176.5,198.5C 180.702,198.817 184.702,198.483 188.5,197.5C 194.154,196.499 199.154,194.165 203.5,190.5 Z"/></g>
</svg>
