<?xml version="1.0" encoding="UTF-8"?>
<!DOCTYPE svg PUBLIC "-//W3C//DTD SVG 1.1//EN" "http://www.w3.org/Graphics/SVG/1.1/DTD/svg11.dtd">
<svg xmlns="http://www.w3.org/2000/svg" version="1.1" width="225px" height="225px" style="shape-rendering:geometricPrecision; text-rendering:geometricPrecision; image-rendering:optimizeQuality; fill-rule:evenodd; clip-rule:evenodd" xmlns:xlink="http://www.w3.org/1999/xlink">
<g><path style="opacity:1" fill="#fefefd" d="M -0.5,-0.5 C 74.5,-0.5 149.5,-0.5 224.5,-0.5C 224.5,74.5 224.5,149.5 224.5,224.5C 149.5,224.5 74.5,224.5 -0.5,224.5C -0.5,149.5 -0.5,74.5 -0.5,-0.5 Z"/></g>
<g><path style="opacity:1" fill="#eb9004" d="M 207.5,130.5 C 205.784,130.629 204.117,130.962 202.5,131.5C 207.795,94.1853 195.462,64.3519 165.5,42C 155.354,35.5941 144.354,31.4274 132.5,29.5C 132.667,42.1711 132.5,54.8377 132,67.5C 129.947,71.2916 126.781,72.4582 122.5,71C 121.299,70.0975 120.465,68.9308 120,67.5C 119.5,54.1708 119.333,40.8375 119.5,27.5C 114.5,27.5 109.5,27.5 104.5,27.5C 104.667,40.8375 104.5,54.1708 104,67.5C 101.947,71.2916 98.7806,72.4582 94.5,71C 93.2986,70.0975 92.4652,68.9308 92,67.5C 91.5001,54.8377 91.3334,42.1711 91.5,29.5C 63.1292,34.7183 42.2959,50.0517 29,75.5C 21.4205,93.4678 18.9205,112.134 21.5,131.5C 19.7085,131.634 18.0418,131.301 16.5,130.5C 14.8226,116.725 15.4893,103.058 18.5,89.5C 11.7204,76.7217 7.88704,63.0551 7,48.5C 6.33333,40.5 6.33333,32.5 7,24.5C 9.42646,16.9016 14.5931,12.9016 22.5,12.5C 40.67,14.2892 57.67,19.6225 73.5,28.5C 99.5245,18.9211 125.358,19.2544 151,29.5C 166.316,19.5611 183.149,13.8944 201.5,12.5C 208.654,12.4918 213.487,15.8251 216,22.5C 218.031,37.5836 217.364,52.5836 214,67.5C 212.238,75.2934 209.404,82.6267 205.5,89.5C 208.511,103.058 209.177,116.725 207.5,130.5 Z"/></g>
<g><path style="opacity:1" fill="#fdcf32" d="M 18.5,17.5 C 35.4518,18.5716 51.4518,23.0716 66.5,31C 59.4236,34.9127 52.7569,39.4127 46.5,44.5C 36.8353,34.903 25.3353,30.5697 12,31.5C 11.2635,25.4252 13.4302,20.7586 18.5,17.5 Z"/></g>
<g><path style="opacity:1" fill="#fdcf32" d="M 199.5,17.5 C 208.504,17.8396 212.671,22.5063 212,31.5C 198.675,30.5633 187.175,34.8967 177.5,44.5C 171.174,39.6687 164.508,35.3354 157.5,31.5C 170.592,23.8025 184.592,19.1358 199.5,17.5 Z"/></g>
<g><path style="opacity:1" fill="#fdcf32" d="M 202.5,131.5 C 192.844,133.622 183.344,136.289 174,139.5C 173.333,141.167 173.333,142.833 174,144.5C 174.725,145.059 175.558,145.392 176.5,145.5C 184.484,143.371 192.484,141.371 200.5,139.5C 199.475,144.267 198.142,148.934 196.5,153.5C 189.211,152.196 181.877,151.696 174.5,152C 173.944,152.383 173.611,152.883 173.5,153.5C 171.167,153.548 168.834,153.215 166.5,152.5C 166.5,151.5 166.5,150.5 166.5,149.5C 167.646,145.121 165.812,142.787 161,142.5C 146.269,144.979 131.435,146.313 116.5,146.5C 116.5,140.5 116.5,134.5 116.5,128.5C 119.186,124.492 122.353,120.825 126,117.5C 128.364,113.454 127.53,110.287 123.5,108C 115.833,107.333 108.167,107.333 100.5,108C 96.4696,110.287 95.6363,113.454 98,117.5C 101.75,120.744 104.917,124.411 107.5,128.5C 107.5,134.5 107.5,140.5 107.5,146.5C 92.0535,146.44 76.7202,145.107 61.5,142.5C 56.6671,142.336 54.6671,144.669 55.5,149.5C 56.038,151.117 56.3713,152.784 56.5,154.5C 56.5654,154.938 56.3988,155.272 56,155.5C 54.5063,153.282 52.673,152.615 50.5,153.5C 49.7505,151.754 48.4172,150.754 46.5,150.5C 40.1759,151.61 33.8426,152.61 27.5,153.5C 25.5506,149.04 24.2173,144.373 23.5,139.5C 31.4817,141.495 39.4817,143.495 47.5,145.5C 48.4419,145.392 49.2753,145.059 50,144.5C 50.6667,142.833 50.6667,141.167 50,139.5C 40.3936,136.893 30.8936,134.226 21.5,131.5C 18.9205,112.134 21.4205,93.4678 29,75.5C 42.2959,50.0517 63.1292,34.7183 91.5,29.5C 91.3334,42.1711 91.5001,54.8377 92,67.5C 92.4652,68.9308 93.2986,70.0975 94.5,71C 98.7806,72.4582 101.947,71.2916 104,67.5C 104.5,54.1708 104.667,40.8375 104.5,27.5C 109.5,27.5 114.5,27.5 119.5,27.5C 119.333,40.8375 119.5,54.1708 120,67.5C 120.465,68.9308 121.299,70.0975 122.5,71C 126.781,72.4582 129.947,71.2916 132,67.5C 132.5,54.8377 132.667,42.1711 132.5,29.5C 144.354,31.4274 155.354,35.5941 165.5,42C 195.462,64.3519 207.795,94.1853 202.5,131.5 Z"/></g>
<g><path style="opacity:1" fill="#404040" d="M 60.5,94.5 C 72.4595,92.5623 80.6261,97.229 85,108.5C 86.4761,115.679 83.6428,119.179 76.5,119C 73.6612,115.849 70.4945,113.016 67,110.5C 63.5471,112.95 60.3805,115.783 57.5,119C 52.0902,119.793 49.0902,117.459 48.5,112C 49.6703,104.14 53.6703,98.3065 60.5,94.5 Z"/></g>
<g><path style="opacity:1" fill="#404040" d="M 151.5,94.5 C 167.792,93.1285 175.458,100.462 174.5,116.5C 172.408,119.152 169.742,119.986 166.5,119C 163.651,115.984 160.651,113.15 157.5,110.5C 154.065,113.188 150.732,116.021 147.5,119C 139.333,118.523 136.833,114.356 140,106.5C 142.691,101.311 146.524,97.3111 151.5,94.5 Z"/></g>
<g><path style="opacity:1" fill="#613913" d="M 116.5,128.5 C 113.5,129.833 110.5,129.833 107.5,128.5C 104.917,124.411 101.75,120.744 98,117.5C 95.6363,113.454 96.4696,110.287 100.5,108C 108.167,107.333 115.833,107.333 123.5,108C 127.53,110.287 128.364,113.454 126,117.5C 122.353,120.825 119.186,124.492 116.5,128.5 Z"/></g>
<g><path style="opacity:1" fill="#414140" d="M 16.5,130.5 C 18.0418,131.301 19.7085,131.634 21.5,131.5C 30.8936,134.226 40.3936,136.893 50,139.5C 50.6667,141.167 50.6667,142.833 50,144.5C 49.2753,145.059 48.4419,145.392 47.5,145.5C 39.4817,143.495 31.4817,141.495 23.5,139.5C 21.5648,138.85 19.5648,138.517 17.5,138.5C 15.0458,137.379 12.3791,136.546 9.5,136C 6.55246,134.99 5.88579,133.157 7.5,130.5C 8.5,130.167 9.5,129.833 10.5,129.5C 12.5122,129.84 14.5122,130.173 16.5,130.5 Z"/></g>
<g><path style="opacity:1" fill="#40403f" d="M 107.5,128.5 C 110.5,129.833 113.5,129.833 116.5,128.5C 116.5,134.5 116.5,140.5 116.5,146.5C 113.5,146.5 110.5,146.5 107.5,146.5C 107.5,140.5 107.5,134.5 107.5,128.5 Z"/></g>
<g><path style="opacity:1" fill="#444240" d="M 206.5,137.5 C 204.5,138.167 202.5,138.833 200.5,139.5C 192.484,141.371 184.484,143.371 176.5,145.5C 175.558,145.392 174.725,145.059 174,144.5C 173.333,142.833 173.333,141.167 174,139.5C 183.344,136.289 192.844,133.622 202.5,131.5C 204.117,130.962 205.784,130.629 207.5,130.5C 210.502,129.357 213.502,129.357 216.5,130.5C 217.747,132.042 217.747,133.542 216.5,135C 213.232,136.15 209.899,136.984 206.5,137.5 Z"/></g>
<g><path style="opacity:1" fill="#e98e0a" d="M 17.5,138.5 C 19.5648,138.517 21.5648,138.85 23.5,139.5C 24.2173,144.373 25.5506,149.04 27.5,153.5C 25.5,153.833 23.5,154.167 21.5,154.5C 20.3731,149.118 19.0397,143.785 17.5,138.5 Z"/></g>
<g><path style="opacity:1" fill="#e68e0d" d="M 206.5,137.5 C 205.437,143.355 203.77,149.022 201.5,154.5C 199.784,154.371 198.117,154.038 196.5,153.5C 198.142,148.934 199.475,144.267 200.5,139.5C 202.5,138.833 204.5,138.167 206.5,137.5 Z"/></g>
<g><path style="opacity:1" fill="#ea8e07" d="M 107.5,146.5 C 110.5,146.5 113.5,146.5 116.5,146.5C 131.435,146.313 146.269,144.979 161,142.5C 165.812,142.787 167.646,145.121 166.5,149.5C 163.993,150.892 161.327,151.892 158.5,152.5C 157.848,151.275 156.681,150.608 155,150.5C 125.321,154.423 95.654,154.423 66,150.5C 64.6244,150.684 63.7911,151.351 63.5,152.5C 60.6446,151.883 57.9779,150.883 55.5,149.5C 54.6671,144.669 56.6671,142.336 61.5,142.5C 76.7202,145.107 92.0535,146.44 107.5,146.5 Z"/></g>
<g><path style="opacity:1" fill="#232323" d="M 55.5,149.5 C 57.9779,150.883 60.6446,151.883 63.5,152.5C 77.7409,159.515 92.9075,162.849 109,162.5C 126.486,163.377 142.986,160.044 158.5,152.5C 161.327,151.892 163.993,150.892 166.5,149.5C 166.5,150.5 166.5,151.5 166.5,152.5C 164.047,158.74 161.047,164.74 157.5,170.5C 151.729,175.939 145.396,180.605 138.5,184.5C 135.615,183.618 132.948,182.284 130.5,180.5C 117.5,172.5 104.5,172.5 91.5,180.5C 89.1495,181.861 86.8162,183.194 84.5,184.5C 77.2773,181.054 70.944,176.387 65.5,170.5C 61.9638,165.423 58.9638,160.09 56.5,154.5C 56.3713,152.784 56.038,151.117 55.5,149.5 Z"/></g>
<g><path style="opacity:1" fill="#f9f7f4" d="M 158.5,152.5 C 142.986,160.044 126.486,163.377 109,162.5C 92.9075,162.849 77.7409,159.515 63.5,152.5C 63.7911,151.351 64.6244,150.684 66,150.5C 95.654,154.423 125.321,154.423 155,150.5C 156.681,150.608 157.848,151.275 158.5,152.5 Z"/></g>
<g><path style="opacity:1" fill="#424242" d="M 50.5,153.5 C 50.67,154.822 50.3366,155.989 49.5,157C 42.6669,158.014 36.0002,159.181 29.5,160.5C 27.901,160.232 26.5676,160.566 25.5,161.5C 19.2436,161.971 13.0769,161.971 7,161.5C 6.1751,159.299 6.6751,157.466 8.5,156C 12.7901,155.077 17.1234,154.577 21.5,154.5C 23.5,154.167 25.5,153.833 27.5,153.5C 33.8426,152.61 40.1759,151.61 46.5,150.5C 48.4172,150.754 49.7505,151.754 50.5,153.5 Z"/></g>
<g><path style="opacity:1" fill="#404041" d="M 196.5,153.5 C 198.117,154.038 199.784,154.371 201.5,154.5C 206.57,154.925 211.57,155.759 216.5,157C 217.554,158.388 217.72,159.888 217,161.5C 210.904,162.348 204.738,162.348 198.5,161.5C 197.081,160.549 195.415,160.216 193.5,160.5C 187.316,159.261 180.983,158.094 174.5,157C 173.663,155.989 173.33,154.822 173.5,153.5C 173.611,152.883 173.944,152.383 174.5,152C 181.877,151.696 189.211,152.196 196.5,153.5 Z"/></g>
<g><path style="opacity:1" fill="#f4b22a" d="M 56.5,154.5 C 58.9638,160.09 61.9638,165.423 65.5,170.5C 61.2315,169.627 56.8982,169.294 52.5,169.5C 54.1871,166.246 53.1871,164.246 49.5,163.5C 44.533,165.317 39.8663,167.65 35.5,170.5C 34.5208,166.539 32.5208,163.206 29.5,160.5C 36.0002,159.181 42.6669,158.014 49.5,157C 50.3366,155.989 50.67,154.822 50.5,153.5C 52.673,152.615 54.5063,153.282 56,155.5C 56.3988,155.272 56.5654,154.938 56.5,154.5 Z"/></g>
<g><path style="opacity:1" fill="#f5b32a" d="M 166.5,152.5 C 168.834,153.215 171.167,153.548 173.5,153.5C 173.33,154.822 173.663,155.989 174.5,157C 180.983,158.094 187.316,159.261 193.5,160.5C 191.748,163.672 189.748,166.672 187.5,169.5C 183.334,167.252 179,165.252 174.5,163.5C 170.813,164.246 169.813,166.246 171.5,169.5C 166.737,169.226 162.07,169.559 157.5,170.5C 161.047,164.74 164.047,158.74 166.5,152.5 Z"/></g>
<g><path style="opacity:1" fill="#e98e0a" d="M 29.5,160.5 C 32.5208,163.206 34.5208,166.539 35.5,170.5C 34.1667,171.167 32.8333,171.833 31.5,172.5C 29.246,168.993 27.246,165.327 25.5,161.5C 26.5676,160.566 27.901,160.232 29.5,160.5 Z"/></g>
<g><path style="opacity:1" fill="#e88e0e" d="M 193.5,160.5 C 195.415,160.216 197.081,160.549 198.5,161.5C 196.472,165.184 194.472,168.85 192.5,172.5C 190.632,171.737 188.965,170.737 187.5,169.5C 189.748,166.672 191.748,163.672 193.5,160.5 Z"/></g>
<g><path style="opacity:1" fill="#41403f" d="M 52.5,169.5 C 48.6654,171.25 44.9988,173.25 41.5,175.5C 39.7162,175.893 38.0495,176.559 36.5,177.5C 30.018,181.242 23.3513,184.742 16.5,188C 13.7629,189.08 12.0963,188.246 11.5,185.5C 11.5288,183.971 12.1955,182.804 13.5,182C 19.3687,178.566 25.3687,175.399 31.5,172.5C 32.8333,171.833 34.1667,171.167 35.5,170.5C 39.8663,167.65 44.533,165.317 49.5,163.5C 53.1871,164.246 54.1871,166.246 52.5,169.5 Z"/></g>
<g><path style="opacity:1" fill="#414040" d="M 187.5,169.5 C 188.965,170.737 190.632,171.737 192.5,172.5C 198.996,175.581 205.329,178.914 211.5,182.5C 213.588,187.019 212.254,188.852 207.5,188C 200.649,184.742 193.982,181.242 187.5,177.5C 185.95,176.559 184.284,175.893 182.5,175.5C 179.001,173.25 175.335,171.25 171.5,169.5C 169.813,166.246 170.813,164.246 174.5,163.5C 179,165.252 183.334,167.252 187.5,169.5 Z"/></g>
<g><path style="opacity:1" fill="#f5a222" d="M 52.5,169.5 C 56.8982,169.294 61.2315,169.627 65.5,170.5C 70.944,176.387 77.2773,181.054 84.5,184.5C 92.6523,188.905 101.486,191.238 111,191.5C 116.876,190.953 122.709,190.12 128.5,189C 132.229,188.156 135.563,186.656 138.5,184.5C 145.396,180.605 151.729,175.939 157.5,170.5C 162.07,169.559 166.737,169.226 171.5,169.5C 175.335,171.25 179.001,173.25 182.5,175.5C 163.786,196.264 140.286,206.598 112,206.5C 88.2257,206.132 67.059,198.632 48.5,184C 45.5532,181.564 43.2199,178.731 41.5,175.5C 44.9988,173.25 48.6654,171.25 52.5,169.5 Z"/></g>
<g><path style="opacity:1" fill="#e8756c" d="M 130.5,180.5 C 117.513,184.46 104.513,184.46 91.5,180.5C 104.5,172.5 117.5,172.5 130.5,180.5 Z"/></g>
<g><path style="opacity:1" fill="#eb8f0a" d="M 41.5,175.5 C 43.2199,178.731 45.5532,181.564 48.5,184C 67.059,198.632 88.2257,206.132 112,206.5C 140.286,206.598 163.786,196.264 182.5,175.5C 184.284,175.893 185.95,176.559 187.5,177.5C 173.655,194.102 155.989,204.602 134.5,209C 102.065,215.379 72.7315,208.712 46.5,189C 42.5615,185.571 39.2281,181.737 36.5,177.5C 38.0495,176.559 39.7162,175.893 41.5,175.5 Z"/></g>
<g><path style="opacity:1" fill="#ea8e04" d="M 91.5,180.5 C 104.513,184.46 117.513,184.46 130.5,180.5C 132.948,182.284 135.615,183.618 138.5,184.5C 135.563,186.656 132.229,188.156 128.5,189C 122.709,190.12 116.876,190.953 111,191.5C 101.486,191.238 92.6523,188.905 84.5,184.5C 86.8162,183.194 89.1495,181.861 91.5,180.5 Z"/></g>
</svg>
