<?xml version="1.0" encoding="UTF-8"?>
<!DOCTYPE svg PUBLIC "-//W3C//DTD SVG 1.1//EN" "http://www.w3.org/Graphics/SVG/1.1/DTD/svg11.dtd">
<svg xmlns="http://www.w3.org/2000/svg" version="1.1" width="225px" height="225px" style="shape-rendering:geometricPrecision; text-rendering:geometricPrecision; image-rendering:optimizeQuality; fill-rule:evenodd; clip-rule:evenodd" xmlns:xlink="http://www.w3.org/1999/xlink">
<g><path style="opacity:1" fill="#fdfefe" d="M -0.5,-0.5 C 74.5,-0.5 149.5,-0.5 224.5,-0.5C 224.5,74.5 224.5,149.5 224.5,224.5C 149.5,224.5 74.5,224.5 -0.5,224.5C -0.5,149.5 -0.5,74.5 -0.5,-0.5 Z"/></g>
<g><path style="opacity:1" fill="#bdc8d0" d="M 170.5,27.5 C 169.62,29.1368 168.954,30.9701 168.5,33C 170.013,34.8792 170.679,37.0459 170.5,39.5C 168.627,33.2675 165.961,27.2675 162.5,21.5C 158.54,19.5231 154.873,17.1897 151.5,14.5C 150.426,13.1154 149.093,11.9487 147.5,11C 140.872,9.17553 134.205,7.67553 127.5,6.5C 124.833,6.66667 122.167,6.83333 119.5,7C 114.2,8.69177 108.867,10.1918 103.5,11.5C 103.5,12.5 103.5,13.5 103.5,14.5C 100.873,15.0916 98.2062,15.4249 95.5,15.5C 95.6567,16.8734 95.49,18.2068 95,19.5C 92.7635,20.0563 90.7635,21.0563 89,22.5C 88.2599,23.7494 88.4265,24.7494 89.5,25.5C 90.1667,25.8333 90.8333,26.1667 91.5,26.5C 91.5,27.5 91.5,28.5 91.5,29.5C 89.7376,29.6427 88.0709,29.3094 86.5,28.5C 85.5,26.8333 84.1667,25.5 82.5,24.5C 83.1925,23.4822 83.8592,22.4822 84.5,21.5C 85.1175,19.7708 86.1175,18.2708 87.5,17C 108.55,1.36209 130.884,-0.63791 154.5,11C 161.402,15.0672 166.735,20.5672 170.5,27.5 Z"/></g>
<g><path style="opacity:1" fill="#d1d9e0" d="M 151.5,14.5 C 147.75,14.5979 144.417,13.4312 141.5,11C 131.58,10.0645 121.746,10.5645 112,12.5C 109.624,12.6846 107.791,13.6846 106.5,15.5C 100.518,18.6442 94.8514,21.9775 89.5,25.5C 88.4265,24.7494 88.2599,23.7494 89,22.5C 90.7635,21.0563 92.7635,20.0563 95,19.5C 95.49,18.2068 95.6567,16.8734 95.5,15.5C 98.2062,15.4249 100.873,15.0916 103.5,14.5C 103.5,13.5 103.5,12.5 103.5,11.5C 108.867,10.1918 114.2,8.69177 119.5,7C 122.167,6.83333 124.833,6.66667 127.5,6.5C 134.205,7.67553 140.872,9.17553 147.5,11C 149.093,11.9487 150.426,13.1154 151.5,14.5 Z"/></g>
<g><path style="opacity:1" fill="#dee2e7" d="M 151.5,14.5 C 153.385,18.2239 156.219,21.2239 160,23.5C 160.131,26.3712 161.297,28.7046 163.5,30.5C 165.991,36.2387 167.324,42.2387 167.5,48.5C 164.833,48.8333 162.167,49.1667 159.5,49.5C 159.666,44.4889 159.499,39.4889 159,34.5C 156.95,30.3385 154.45,26.6718 151.5,23.5C 143.762,20.1381 135.762,17.1381 127.5,14.5C 124.833,14.1667 122.167,13.8333 119.5,13.5C 115.097,13.9245 110.763,14.5911 106.5,15.5C 107.791,13.6846 109.624,12.6846 112,12.5C 121.746,10.5645 131.58,10.0645 141.5,11C 144.417,13.4312 147.75,14.5979 151.5,14.5 Z"/></g>
<g><path style="opacity:1" fill="#edeff2" d="M 159.5,49.5 C 156.873,50.0916 154.206,50.4249 151.5,50.5C 150.816,48.8148 149.483,47.8148 147.5,47.5C 146.194,41.9462 146.194,36.4462 147.5,31C 145.446,28.4559 143.113,26.1226 140.5,24C 131.048,21.2761 121.381,19.7761 111.5,19.5C 111.5,20.5 111.5,21.5 111.5,22.5C 107.822,21.4138 104.155,21.4138 100.5,22.5C 100.931,23.2935 101.265,24.1268 101.5,25C 99.4642,28.8415 97.7975,32.8415 96.5,37C 90.9493,35.6994 85.2827,34.5327 79.5,33.5C 79.6567,32.1266 79.49,30.7932 79,29.5C 75.9006,30.4553 72.734,31.2886 69.5,32C 67.9366,33.9473 65.9366,35.114 63.5,35.5C 63.3234,33.0194 64.3234,31.1861 66.5,30C 71.6736,27.9678 77.0069,27.3012 82.5,28C 84.4828,29.1136 86.1495,30.6136 87.5,32.5C 90.0865,33.48 92.7531,33.8134 95.5,33.5C 95.0023,30.6737 93.6689,28.3403 91.5,26.5C 90.8333,26.1667 90.1667,25.8333 89.5,25.5C 94.8514,21.9775 100.518,18.6442 106.5,15.5C 110.763,14.5911 115.097,13.9245 119.5,13.5C 122.167,13.8333 124.833,14.1667 127.5,14.5C 135.762,17.1381 143.762,20.1381 151.5,23.5C 154.45,26.6718 156.95,30.3385 159,34.5C 159.499,39.4889 159.666,44.4889 159.5,49.5 Z"/></g>
<g><path style="opacity:1" fill="#b1bcc7" d="M 170.5,27.5 C 173.277,29.6403 175.444,32.307 177,35.5C 177.49,36.7932 177.657,38.1266 177.5,39.5C 178.114,43.1352 178.448,46.8019 178.5,50.5C 176.167,50.5 173.833,50.5 171.5,50.5C 171.276,46.8212 170.942,43.1545 170.5,39.5C 170.679,37.0459 170.013,34.8792 168.5,33C 168.954,30.9701 169.62,29.1368 170.5,27.5 Z"/></g>
<g><path style="opacity:1" fill="#bac4cf" d="M 63.5,22.5 C 68.9127,22.2288 74.2461,22.7288 79.5,24C 76.8333,24.3333 74.1667,24.6667 71.5,25C 68.3855,27.1171 65.0521,28.7837 61.5,30C 58.4046,32.5712 56.4046,35.7378 55.5,39.5C 54.325,39.281 53.325,39.6143 52.5,40.5C 50.2433,44.0122 47.7433,47.3456 45,50.5C 44.5065,52.1341 44.3398,53.8008 44.5,55.5C 42.8333,55.5 41.1667,55.5 39.5,55.5C 39.5,54.5 39.5,53.5 39.5,52.5C 40.2958,47.2802 41.7958,42.2802 44,37.5C 47.6392,32.6386 51.8059,28.4719 56.5,25C 59.1042,24.6097 61.4375,23.7763 63.5,22.5 Z"/></g>
<g><path style="opacity:1" fill="#f5f6f7" d="M 151.5,50.5 C 149.5,51.5 147.5,52.5 145.5,53.5C 139.232,56.6383 133.232,60.3049 127.5,64.5C 127.083,61.9208 127.75,59.7542 129.5,58C 128.833,57.3333 128.167,56.6667 127.5,56C 133.809,56.8417 134.143,55.3417 128.5,51.5C 127.571,50.3112 127.238,48.9778 127.5,47.5C 128.833,47.5 130.167,47.5 131.5,47.5C 131.666,41.4908 131.499,35.4908 131,29.5C 130.5,29 130,28.5 129.5,28C 126.183,27.5017 122.85,27.335 119.5,27.5C 119.649,26.448 119.483,25.448 119,24.5C 116.257,26.7879 113.423,28.9545 110.5,31C 111.38,32.3561 111.714,33.8561 111.5,35.5C 108.121,35.3218 104.955,35.3218 102,35.5C 99.8645,39.2206 100.198,42.5539 103,45.5C 103.498,48.8168 103.665,52.1501 103.5,55.5C 100.833,55.5 98.1667,55.5 95.5,55.5C 95.5,56.8333 95.5,58.1667 95.5,59.5C 100.377,58.8124 104.71,59.9791 108.5,63C 112.796,63.0756 116.796,63.9089 120.5,65.5C 107.467,62.4713 95.4671,64.6379 84.5,72C 83.7476,72.6708 83.4142,73.5041 83.5,74.5C 80.5159,74.7868 79.1826,76.4535 79.5,79.5C 81.1992,79.6602 82.8659,79.4935 84.5,79C 86.6507,77.2261 88.984,75.7261 91.5,74.5C 96.1469,73.9777 100.647,72.9777 105,71.5C 110.743,74.4653 116.577,77.1319 122.5,79.5C 125.337,74.6996 129.004,70.533 133.5,67C 136.817,66.5017 140.15,66.335 143.5,66.5C 143.5,65.5 143.5,64.5 143.5,63.5C 147.367,61.7592 151.367,61.0926 155.5,61.5C 160.31,63.0487 165.31,64.0487 170.5,64.5C 173.681,69.0223 178.014,71.3557 183.5,71.5C 183.298,79.2635 180.298,85.7635 174.5,91C 170.288,91.3974 167.954,93.5641 167.5,97.5C 162.849,97.4088 159.183,99.2422 156.5,103C 146.638,103.967 137.305,106.801 128.5,111.5C 127.051,110.383 125.384,109.716 123.5,109.5C 112.055,113.41 101.721,111.576 92.5,104C 90.3333,103.833 88.1667,103.667 86,103.5C 78.5194,104.956 71.0194,106.289 63.5,107.5C 57.4434,107.273 51.7767,105.773 46.5,103C 41.8193,99.5976 37.8193,95.5976 34.5,91C 33.552,90.5172 32.552,90.3505 31.5,90.5C 31.229,85.9983 30.229,81.665 28.5,77.5C 29,75.5 29.5,73.5 30,71.5C 34.3698,70.6597 37.5364,67.993 39.5,63.5C 39.0825,62.7784 38.4158,62.2784 37.5,62C 39.5,61.6667 41.5,61.3333 43.5,61C 43.9574,60.586 44.2907,60.086 44.5,59.5C 50.9875,58.8332 57.3208,58.1666 63.5,57.5C 63.5,56.1667 63.5,54.8333 63.5,53.5C 60.8333,52.8333 58.1667,52.1667 55.5,51.5C 55.3204,47.318 55.987,43.318 57.5,39.5C 59.8798,38.7466 61.8798,37.4132 63.5,35.5C 65.9366,35.114 67.9366,33.9473 69.5,32C 72.734,31.2886 75.9006,30.4553 79,29.5C 79.49,30.7932 79.6567,32.1266 79.5,33.5C 85.2827,34.5327 90.9493,35.6994 96.5,37C 97.7975,32.8415 99.4642,28.8415 101.5,25C 101.265,24.1268 100.931,23.2935 100.5,22.5C 104.155,21.4138 107.822,21.4138 111.5,22.5C 111.5,21.5 111.5,20.5 111.5,19.5C 121.381,19.7761 131.048,21.2761 140.5,24C 143.113,26.1226 145.446,28.4559 147.5,31C 146.194,36.4462 146.194,41.9462 147.5,47.5C 149.483,47.8148 150.816,48.8148 151.5,50.5 Z"/></g>
<g><path style="opacity:1" fill="#f9fafc" d="M 127.5,64.5 C 125.458,66.5906 123.125,66.9239 120.5,65.5C 116.796,63.9089 112.796,63.0756 108.5,63C 104.71,59.9791 100.377,58.8124 95.5,59.5C 95.5,58.1667 95.5,56.8333 95.5,55.5C 98.1667,55.5 100.833,55.5 103.5,55.5C 103.665,52.1501 103.498,48.8168 103,45.5C 100.198,42.5539 99.8645,39.2206 102,35.5C 104.955,35.3218 108.121,35.3218 111.5,35.5C 111.714,33.8561 111.38,32.3561 110.5,31C 113.423,28.9545 116.257,26.7879 119,24.5C 119.483,25.448 119.649,26.448 119.5,27.5C 122.85,27.335 126.183,27.5017 129.5,28C 130,28.5 130.5,29 131,29.5C 131.499,35.4908 131.666,41.4908 131.5,47.5C 130.167,47.5 128.833,47.5 127.5,47.5C 127.238,48.9778 127.571,50.3112 128.5,51.5C 134.143,55.3417 133.809,56.8417 127.5,56C 128.167,56.6667 128.833,57.3333 129.5,58C 127.75,59.7542 127.083,61.9208 127.5,64.5 Z"/></g>
<g><path style="opacity:1" fill="#e9ebef" d="M 63.5,57.5 C 57.3208,58.1666 50.9875,58.8332 44.5,59.5C 44.2907,60.086 43.9574,60.586 43.5,61C 41.5,61.3333 39.5,61.6667 37.5,62C 38.4158,62.2784 39.0825,62.7784 39.5,63.5C 36.5095,63.3297 34.5095,64.663 33.5,67.5C 32.2713,68.2811 30.938,68.7811 29.5,69C 29.2216,72.9284 27.5549,76.095 24.5,78.5C 25.2017,84.3472 26.535,90.0139 28.5,95.5C 29.5,95.5 30.5,95.5 31.5,95.5C 31.238,96.9778 31.5713,98.3112 32.5,99.5C 38.6419,103.148 44.6419,106.981 50.5,111C 64.1667,111.333 77.8333,111.667 91.5,112C 94.5687,113.846 97.9021,114.846 101.5,115C 107.491,115.499 113.491,115.666 119.5,115.5C 119.5,114.5 119.5,113.5 119.5,112.5C 124.833,113.167 130.167,113.833 135.5,114.5C 135.5,113.5 135.5,112.5 135.5,111.5C 146.635,111.293 157.468,109.293 168,105.5C 170.056,102.44 172.889,100.607 176.5,100C 175.62,98.6439 175.286,97.1439 175.5,95.5C 178.005,95.0198 180.338,94.0198 182.5,92.5C 183.702,88.8032 185.536,85.4699 188,82.5C 188.256,78.7537 187.756,75.087 186.5,71.5C 185.5,71.5 184.5,71.5 183.5,71.5C 178.014,71.3557 173.681,69.0223 170.5,64.5C 165.31,64.0487 160.31,63.0487 155.5,61.5C 151.367,61.0926 147.367,61.7592 143.5,63.5C 143.5,64.5 143.5,65.5 143.5,66.5C 140.15,66.335 136.817,66.5017 133.5,67C 129.004,70.533 125.337,74.6996 122.5,79.5C 116.577,77.1319 110.743,74.4653 105,71.5C 100.647,72.9777 96.1469,73.9777 91.5,74.5C 88.984,75.7261 86.6507,77.2261 84.5,79C 82.8659,79.4935 81.1992,79.6602 79.5,79.5C 79.1826,76.4535 80.5159,74.7868 83.5,74.5C 82.537,75.3635 82.537,76.0302 83.5,76.5C 87.3597,74.6082 91.0263,72.4415 94.5,70C 101.5,69.3333 108.5,69.3333 115.5,70C 118.572,70.2997 121.239,71.4664 123.5,73.5C 127.493,69.1749 132.16,65.8416 137.5,63.5C 140.278,63.9783 142.278,62.9783 143.5,60.5C 155.441,56.8066 167.441,56.64 179.5,60C 183.955,62.2909 187.622,65.4575 190.5,69.5C 193.78,83.197 189.78,94.197 178.5,102.5C 174.804,103.889 171.47,105.889 168.5,108.5C 167.854,111.31 166.188,113.144 163.5,114C 150.318,117.369 136.984,118.203 123.5,116.5C 116.463,117.043 109.463,117.71 102.5,118.5C 94.3261,116.269 85.9927,114.936 77.5,114.5C 68.8454,115.466 60.1788,115.633 51.5,115C 43.3715,111.68 35.7048,107.513 28.5,102.5C 27.396,100.611 26.0627,98.9448 24.5,97.5C 23.513,94.2317 23.1796,90.8984 23.5,87.5C 22.5,87.5 21.5,87.5 20.5,87.5C 21.1596,83.6873 22.3262,80.0207 24,76.5C 26.2217,71.9963 28.7217,67.663 31.5,63.5C 35.352,61.5931 39.352,59.7597 43.5,58C 50.1583,57.5004 56.825,57.3337 63.5,57.5 Z"/></g>
<g><path style="opacity:1" fill="#d1d9df" d="M 191.5,63.5 C 187.724,60.7715 183.724,58.2715 179.5,56C 165.855,54.5926 152.522,55.926 139.5,60C 138.177,60.8159 137.511,61.9826 137.5,63.5C 132.16,65.8416 127.493,69.1749 123.5,73.5C 121.239,71.4664 118.572,70.2997 115.5,70C 108.5,69.3333 101.5,69.3333 94.5,70C 91.0263,72.4415 87.3597,74.6082 83.5,76.5C 82.537,76.0302 82.537,75.3635 83.5,74.5C 83.4142,73.5041 83.7476,72.6708 84.5,72C 95.4671,64.6379 107.467,62.4713 120.5,65.5C 123.125,66.9239 125.458,66.5906 127.5,64.5C 133.232,60.3049 139.232,56.6383 145.5,53.5C 144.141,55.0093 144.641,55.676 147,55.5C 157.232,52.4098 167.732,51.7432 178.5,53.5C 182.615,56.3609 186.948,58.6942 191.5,60.5C 191.5,61.5 191.5,62.5 191.5,63.5 Z"/></g>
<g><path style="opacity:1" fill="#bac4cd" d="M 15.5,79.5 C 15.6602,77.8008 15.4935,76.1341 15,74.5C 12.3488,77.3151 10.6822,80.6484 10,84.5C 9.68268,82.6992 9.01602,82.3659 8,83.5C 7.5258,88.821 6.69247,93.9877 5.5,99C 5.80835,103.176 6.14169,107.342 6.5,111.5C 1.19385,90.9531 6.86052,74.2865 23.5,61.5C 25.973,61.2009 28.1397,60.2009 30,58.5C 30.5,58.8333 31,59.1667 31.5,59.5C 28.7096,61.3871 26.7096,63.8871 25.5,67C 23.7604,68.6945 21.7604,69.8611 19.5,70.5C 18.4261,73.6451 17.0927,76.6451 15.5,79.5 Z"/></g>
<g><path style="opacity:1" fill="#b0bcc8" d="M 207.5,68.5 C 213.967,75.0239 217.467,83.0239 218,92.5C 218.712,98.0277 218.546,103.528 217.5,109C 215.536,112.224 214.37,115.724 214,119.5C 213.623,120.942 212.79,121.942 211.5,122.5C 212.919,118.985 213.586,115.319 213.5,111.5C 212.178,111.33 211.011,111.663 210,112.5C 208.097,114.441 207.264,116.774 207.5,119.5C 206.167,119.5 204.833,119.5 203.5,119.5C 205.98,115.212 208.48,110.879 211,106.5C 213.53,98.2178 213.864,89.8845 212,81.5C 210.097,78.9922 208.93,76.1589 208.5,73C 207.728,71.779 206.728,70.779 205.5,70C 206.044,69.2828 206.711,68.7828 207.5,68.5 Z"/></g>
<g><path style="opacity:1" fill="#e0e3e9" d="M 191.5,63.5 C 193.167,63.5 194.833,63.5 196.5,63.5C 196.351,64.552 196.517,65.552 197,66.5C 201.837,69.5338 204.337,73.8672 204.5,79.5C 204.666,83.8461 204.499,88.1794 204,92.5C 199.291,104.542 191.124,113.376 179.5,119C 167.387,119.663 155.387,120.83 143.5,122.5C 136.817,122.416 130.151,122.083 123.5,121.5C 119.762,121.845 116.095,122.512 112.5,123.5C 104.557,123.813 96.7235,122.48 89,119.5C 87.3197,120.547 85.4864,121.213 83.5,121.5C 78.2876,119.197 72.9543,118.863 67.5,120.5C 61.1802,119.845 54.8468,119.345 48.5,119C 42.1083,117.153 35.7749,115.153 29.5,113C 28.3149,108.781 25.8149,106.614 22,106.5C 20.2766,100.099 19.11,93.5989 18.5,87C 20.5229,78.7887 24.0229,71.2887 29,64.5C 29.6708,63.7476 30.5041,63.4142 31.5,63.5C 28.7217,67.663 26.2217,71.9963 24,76.5C 22.3262,80.0207 21.1596,83.6873 20.5,87.5C 21.5,87.5 22.5,87.5 23.5,87.5C 23.1796,90.8984 23.513,94.2317 24.5,97.5C 26.0627,98.9448 27.396,100.611 28.5,102.5C 35.7048,107.513 43.3715,111.68 51.5,115C 60.1788,115.633 68.8454,115.466 77.5,114.5C 85.9927,114.936 94.3261,116.269 102.5,118.5C 109.463,117.71 116.463,117.043 123.5,116.5C 136.984,118.203 150.318,117.369 163.5,114C 166.188,113.144 167.854,111.31 168.5,108.5C 171.47,105.889 174.804,103.889 178.5,102.5C 189.78,94.197 193.78,83.197 190.5,69.5C 187.622,65.4575 183.955,62.2909 179.5,60C 167.441,56.64 155.441,56.8066 143.5,60.5C 142.278,62.9783 140.278,63.9783 137.5,63.5C 137.511,61.9826 138.177,60.8159 139.5,60C 152.522,55.926 165.855,54.5926 179.5,56C 183.724,58.2715 187.724,60.7715 191.5,63.5 Z"/></g>
<g><path style="opacity:1" fill="#fbfcfb" d="M 122.5,79.5 C 125.68,78.674 128.68,77.3407 131.5,75.5C 132.415,74.6721 133.081,73.6721 133.5,72.5C 139.787,72.1061 145.787,70.6061 151.5,68C 156.833,67.3333 162.167,67.3333 167.5,68C 171.114,70.9442 172.447,74.7775 171.5,79.5C 172.873,79.3433 174.207,79.51 175.5,80C 171.91,83.4246 167.91,86.2579 163.5,88.5C 161.32,90.2608 159.654,92.4274 158.5,95C 154.833,95.3333 151.167,95.6667 147.5,96C 144.544,98.3313 141.544,100.665 138.5,103C 132.175,103.5 125.842,103.666 119.5,103.5C 119.5,104.833 119.5,106.167 119.5,107.5C 115.04,108.115 111.04,107.115 107.5,104.5C 103.878,103.675 100.211,103.175 96.5,103C 95.6064,100.108 93.9397,97.7743 91.5,96C 90.2068,95.51 88.8734,95.3433 87.5,95.5C 87.5,92.8333 87.5,90.1667 87.5,87.5C 82.7797,87.7746 82.4463,86.9412 86.5,85C 90.0987,84.0434 93.432,84.5434 96.5,86.5C 98.7223,85.2217 101.056,84.2217 103.5,83.5C 108.971,85.4007 113.971,88.0673 118.5,91.5C 119.429,92.6888 119.762,94.0222 119.5,95.5C 120.5,95.5 121.5,95.5 122.5,95.5C 122.5,90.1667 122.5,84.8333 122.5,79.5 Z"/></g>
<g><path style="opacity:1" fill="#fbfcfc" d="M 47.5,64.5 C 50.2469,64.1866 52.9135,64.52 55.5,65.5C 61.2288,68.4294 67.2288,70.4294 73.5,71.5C 73.4742,76.7948 74.1409,81.9615 75.5,87C 74.2068,87.49 72.8734,87.6567 71.5,87.5C 71.5,90.1667 71.5,92.8333 71.5,95.5C 68.9158,95.5688 66.9158,96.7355 65.5,99C 62.1832,99.4983 58.8499,99.665 55.5,99.5C 55.67,98.1779 55.3366,97.0113 54.5,96C 52.1902,95.5034 49.8568,95.3367 47.5,95.5C 47.6633,93.1432 47.4966,90.8098 47,88.5C 34.7531,85.6558 32.2531,78.9892 39.5,68.5C 42.5476,67.5372 45.2143,66.2039 47.5,64.5 Z"/></g>
<g><path style="opacity:1" fill="#f0f1f4" d="M 39.5,63.5 C 37.5364,67.993 34.3698,70.6597 30,71.5C 29.5,73.5 29,75.5 28.5,77.5C 30.229,81.665 31.229,85.9983 31.5,90.5C 32.552,90.3505 33.552,90.5172 34.5,91C 37.8193,95.5976 41.8193,99.5976 46.5,103C 51.7767,105.773 57.4434,107.273 63.5,107.5C 71.0194,106.289 78.5194,104.956 86,103.5C 88.1667,103.667 90.3333,103.833 92.5,104C 101.721,111.576 112.055,113.41 123.5,109.5C 125.384,109.716 127.051,110.383 128.5,111.5C 137.305,106.801 146.638,103.967 156.5,103C 159.183,99.2422 162.849,97.4088 167.5,97.5C 167.954,93.5641 170.288,91.3974 174.5,91C 180.298,85.7635 183.298,79.2635 183.5,71.5C 184.5,71.5 185.5,71.5 186.5,71.5C 187.756,75.087 188.256,78.7537 188,82.5C 185.536,85.4699 183.702,88.8032 182.5,92.5C 180.338,94.0198 178.005,95.0198 175.5,95.5C 175.286,97.1439 175.62,98.6439 176.5,100C 172.889,100.607 170.056,102.44 168,105.5C 157.468,109.293 146.635,111.293 135.5,111.5C 135.5,112.5 135.5,113.5 135.5,114.5C 130.167,113.833 124.833,113.167 119.5,112.5C 119.5,113.5 119.5,114.5 119.5,115.5C 113.491,115.666 107.491,115.499 101.5,115C 97.9021,114.846 94.5687,113.846 91.5,112C 77.8333,111.667 64.1667,111.333 50.5,111C 44.6419,106.981 38.6419,103.148 32.5,99.5C 31.5713,98.3112 31.238,96.9778 31.5,95.5C 30.5,95.5 29.5,95.5 28.5,95.5C 26.535,90.0139 25.2017,84.3472 24.5,78.5C 27.5549,76.095 29.2216,72.9284 29.5,69C 30.938,68.7811 32.2713,68.2811 33.5,67.5C 34.5095,64.663 36.5095,63.3297 39.5,63.5 Z"/></g>
<g><path style="opacity:1" fill="#d4dbe1" d="M 63.5,22.5 C 70.4123,21.6957 77.4123,21.3624 84.5,21.5C 83.8592,22.4822 83.1925,23.4822 82.5,24.5C 84.1667,25.5 85.5,26.8333 86.5,28.5C 88.0709,29.3094 89.7376,29.6427 91.5,29.5C 91.5,28.5 91.5,27.5 91.5,26.5C 93.6689,28.3403 95.0023,30.6737 95.5,33.5C 92.7531,33.8134 90.0865,33.48 87.5,32.5C 86.1495,30.6136 84.4828,29.1136 82.5,28C 77.0069,27.3012 71.6736,27.9678 66.5,30C 64.3234,31.1861 63.3234,33.0194 63.5,35.5C 61.8798,37.4132 59.8798,38.7466 57.5,39.5C 55.987,43.318 55.3204,47.318 55.5,51.5C 58.1667,52.1667 60.8333,52.8333 63.5,53.5C 63.5,54.8333 63.5,56.1667 63.5,57.5C 56.825,57.3337 50.1583,57.5004 43.5,58C 39.352,59.7597 35.352,61.5931 31.5,63.5C 30.5041,63.4142 29.6708,63.7476 29,64.5C 24.0229,71.2887 20.5229,78.7887 18.5,87C 19.11,93.5989 20.2766,100.099 22,106.5C 25.8149,106.614 28.3149,108.781 29.5,113C 35.7749,115.153 42.1083,117.153 48.5,119C 54.8468,119.345 61.1802,119.845 67.5,120.5C 72.9543,118.863 78.2876,119.197 83.5,121.5C 85.4864,121.213 87.3197,120.547 89,119.5C 96.7235,122.48 104.557,123.813 112.5,123.5C 116.095,122.512 119.762,121.845 123.5,121.5C 130.151,122.083 136.817,122.416 143.5,122.5C 155.387,120.83 167.387,119.663 179.5,119C 191.124,113.376 199.291,104.542 204,92.5C 204.499,88.1794 204.666,83.8461 204.5,79.5C 205.748,80.3339 206.415,81.6672 206.5,83.5C 207.423,88.4826 207.59,93.4826 207,98.5C 204.089,103.751 200.756,108.751 197,113.5C 187.819,118.621 178.152,122.954 168,126.5C 166.132,125.328 164.298,125.495 162.5,127C 138.493,127.833 114.493,127.666 90.5,126.5C 84.7957,124.97 78.9623,124.303 73,124.5C 55.6314,126.52 39.1314,123.854 23.5,116.5C 23.5,114.833 23.5,113.167 23.5,111.5C 19.8682,110.267 18.2016,107.601 18.5,103.5C 17.5,103.5 16.5,103.5 15.5,103.5C 15.5,98.1667 15.5,92.8333 15.5,87.5C 15.5,84.8333 15.5,82.1667 15.5,79.5C 17.0927,76.6451 18.4261,73.6451 19.5,70.5C 21.7604,69.8611 23.7604,68.6945 25.5,67C 26.7096,63.8871 28.7096,61.3871 31.5,59.5C 31,59.1667 30.5,58.8333 30,58.5C 28.1397,60.2009 25.973,61.2009 23.5,61.5C 27.6861,57.851 32.6861,55.851 38.5,55.5C 38.2627,54.209 38.596,53.209 39.5,52.5C 39.5,53.5 39.5,54.5 39.5,55.5C 41.1667,55.5 42.8333,55.5 44.5,55.5C 44.3398,53.8008 44.5065,52.1341 45,50.5C 47.7433,47.3456 50.2433,44.0122 52.5,40.5C 53.325,39.6143 54.325,39.281 55.5,39.5C 56.4046,35.7378 58.4046,32.5712 61.5,30C 65.0521,28.7837 68.3855,27.1171 71.5,25C 74.1667,24.6667 76.8333,24.3333 79.5,24C 74.2461,22.7288 68.9127,22.2288 63.5,22.5 Z"/></g>
<g><path style="opacity:1" fill="#c6cfd8" d="M 151.5,14.5 C 154.873,17.1897 158.54,19.5231 162.5,21.5C 165.961,27.2675 168.627,33.2675 170.5,39.5C 170.942,43.1545 171.276,46.8212 171.5,50.5C 173.833,50.5 176.167,50.5 178.5,50.5C 178.448,46.8019 178.114,43.1352 177.5,39.5C 179.118,42.8878 180.118,46.5544 180.5,50.5C 186.15,51.493 191.15,53.8263 195.5,57.5C 194.448,57.3505 193.448,57.5172 192.5,58C 193.973,58.7096 194.64,59.8762 194.5,61.5C 197.877,62.5249 200.543,64.5249 202.5,67.5C 208.611,76.9528 210.778,87.2862 209,98.5C 207.768,101.3 207.101,104.3 207,107.5C 203.691,111.145 201.191,115.145 199.5,119.5C 194.216,121.469 188.882,123.469 183.5,125.5C 183.67,126.822 183.337,127.989 182.5,129C 180.833,129.333 179.167,129.667 177.5,130C 134.11,130.32 90.7767,129.32 47.5,127C 38.0195,124.677 28.6862,122.177 19.5,119.5C 19.762,118.022 19.4287,116.689 18.5,115.5C 16.6769,114.509 15.1769,113.176 14,111.5C 13.8333,107.5 13.6667,103.5 13.5,99.5C 13.5093,95.107 14.176,91.107 15.5,87.5C 15.5,92.8333 15.5,98.1667 15.5,103.5C 16.5,103.5 17.5,103.5 18.5,103.5C 18.2016,107.601 19.8682,110.267 23.5,111.5C 23.5,113.167 23.5,114.833 23.5,116.5C 39.1314,123.854 55.6314,126.52 73,124.5C 78.9623,124.303 84.7957,124.97 90.5,126.5C 114.493,127.666 138.493,127.833 162.5,127C 164.298,125.495 166.132,125.328 168,126.5C 178.152,122.954 187.819,118.621 197,113.5C 200.756,108.751 204.089,103.751 207,98.5C 207.59,93.4826 207.423,88.4826 206.5,83.5C 206.415,81.6672 205.748,80.3339 204.5,79.5C 204.337,73.8672 201.837,69.5338 197,66.5C 196.517,65.552 196.351,64.552 196.5,63.5C 194.833,63.5 193.167,63.5 191.5,63.5C 191.5,62.5 191.5,61.5 191.5,60.5C 186.948,58.6942 182.615,56.3609 178.5,53.5C 167.732,51.7432 157.232,52.4098 147,55.5C 144.641,55.676 144.141,55.0093 145.5,53.5C 147.5,52.5 149.5,51.5 151.5,50.5C 154.206,50.4249 156.873,50.0916 159.5,49.5C 162.167,49.1667 164.833,48.8333 167.5,48.5C 167.324,42.2387 165.991,36.2387 163.5,30.5C 161.297,28.7046 160.131,26.3712 160,23.5C 156.219,21.2239 153.385,18.2239 151.5,14.5 Z"/></g>
<g><path style="opacity:1" fill="#bcc6d1" d="M 195.5,57.5 C 198.621,59.4482 201.621,61.6148 204.5,64C 206.141,65.129 207.141,66.629 207.5,68.5C 206.711,68.7828 206.044,69.2828 205.5,70C 206.728,70.779 207.728,71.779 208.5,73C 208.93,76.1589 210.097,78.9922 212,81.5C 213.864,89.8845 213.53,98.2178 211,106.5C 208.48,110.879 205.98,115.212 203.5,119.5C 202.558,122.42 201.224,125.086 199.5,127.5C 196.302,126.964 193.635,127.631 191.5,129.5C 188.729,129.421 186.063,129.921 183.5,131C 156.331,131.391 129.165,131.891 102,132.5C 81.1816,132.03 60.3482,131.864 39.5,132C 31.5377,129.62 24.5377,125.62 18.5,120C 17.552,119.517 16.552,119.351 15.5,119.5C 11.659,110.987 9.65903,101.987 9.5,92.5C 10.1712,87.3344 12.1712,83.0011 15.5,79.5C 15.5,82.1667 15.5,84.8333 15.5,87.5C 14.176,91.107 13.5093,95.107 13.5,99.5C 13.6667,103.5 13.8333,107.5 14,111.5C 15.1769,113.176 16.6769,114.509 18.5,115.5C 19.4287,116.689 19.762,118.022 19.5,119.5C 28.6862,122.177 38.0195,124.677 47.5,127C 90.7767,129.32 134.11,130.32 177.5,130C 179.167,129.667 180.833,129.333 182.5,129C 183.337,127.989 183.67,126.822 183.5,125.5C 188.882,123.469 194.216,121.469 199.5,119.5C 201.191,115.145 203.691,111.145 207,107.5C 207.101,104.3 207.768,101.3 209,98.5C 210.778,87.2862 208.611,76.9528 202.5,67.5C 200.543,64.5249 197.877,62.5249 194.5,61.5C 194.64,59.8762 193.973,58.7096 192.5,58C 193.448,57.5172 194.448,57.3505 195.5,57.5 Z"/></g>
<g><path style="opacity:1" fill="#a4b4c1" d="M 15.5,79.5 C 12.1712,83.0011 10.1712,87.3344 9.5,92.5C 9.65903,101.987 11.659,110.987 15.5,119.5C 17.3384,121.807 19.3384,124.14 21.5,126.5C 27.1115,130.139 33.1115,132.972 39.5,135C 64.8333,135.667 90.1667,135.667 115.5,135C 122.488,133.96 129.488,133.126 136.5,132.5C 148.828,133.228 161.161,134.228 173.5,135.5C 175.5,135.333 177.5,135.167 179.5,135C 183.758,133.216 187.758,131.383 191.5,129.5C 193.635,127.631 196.302,126.964 199.5,127.5C 201.224,125.086 202.558,122.42 203.5,119.5C 204.833,119.5 206.167,119.5 207.5,119.5C 207.264,116.774 208.097,114.441 210,112.5C 211.011,111.663 212.178,111.33 213.5,111.5C 213.586,115.319 212.919,118.985 211.5,122.5C 205.038,130.958 197.038,137.625 187.5,142.5C 183.499,143.5 179.499,144.5 175.5,145.5C 156.659,145.83 137.993,145.497 119.5,144.5C 132.837,144.667 146.171,144.5 159.5,144C 150.086,143.938 140.752,143.104 131.5,141.5C 127.593,142.811 123.593,143.478 119.5,143.5C 119.5,141.833 119.5,140.167 119.5,138.5C 108.793,138.224 98.1266,138.724 87.5,140C 82.3467,142.608 77.0134,144.108 71.5,144.5C 60.8098,144.679 50.1432,144.345 39.5,143.5C 22.5764,138.909 11.5764,128.243 6.5,111.5C 6.14169,107.342 5.80835,103.176 5.5,99C 6.69247,93.9877 7.5258,88.821 8,83.5C 9.01602,82.3659 9.68268,82.6992 10,84.5C 10.6822,80.6484 12.3488,77.3151 15,74.5C 15.4935,76.1341 15.6602,77.8008 15.5,79.5 Z"/></g>
<g><path style="opacity:1" fill="#b1bdca" d="M 15.5,119.5 C 16.552,119.351 17.552,119.517 18.5,120C 24.5377,125.62 31.5377,129.62 39.5,132C 60.3482,131.864 81.1816,132.03 102,132.5C 129.165,131.891 156.331,131.391 183.5,131C 186.063,129.921 188.729,129.421 191.5,129.5C 187.758,131.383 183.758,133.216 179.5,135C 177.5,135.167 175.5,135.333 173.5,135.5C 161.161,134.228 148.828,133.228 136.5,132.5C 129.488,133.126 122.488,133.96 115.5,135C 90.1667,135.667 64.8333,135.667 39.5,135C 33.1115,132.972 27.1115,130.139 21.5,126.5C 19.3384,124.14 17.3384,121.807 15.5,119.5 Z"/></g>
<g><path style="opacity:1" fill="#9babba" d="M 119.5,144.5 C 103.5,144.5 87.5,144.5 71.5,144.5C 77.0134,144.108 82.3467,142.608 87.5,140C 98.1266,138.724 108.793,138.224 119.5,138.5C 119.5,140.167 119.5,141.833 119.5,143.5C 123.593,143.478 127.593,142.811 131.5,141.5C 140.752,143.104 150.086,143.938 159.5,144C 146.171,144.5 132.837,144.667 119.5,144.5 Z"/></g>
<g><path style="opacity:1" fill="#c5cdd7" d="M 39.5,143.5 C 50.1432,144.345 60.8098,144.679 71.5,144.5C 87.5,144.5 103.5,144.5 119.5,144.5C 137.993,145.497 156.659,145.83 175.5,145.5C 135.667,146.255 95.6675,146.255 55.5,145.5C 50.4889,145.666 45.4889,145.499 40.5,145C 39.944,144.617 39.6107,144.117 39.5,143.5 Z"/></g>
<g><path style="opacity:1" fill="#edf1f5" d="M 187.5,142.5 C 187.53,143.497 187.03,144.164 186,144.5C 182.8,145.207 179.633,146.04 176.5,147C 135.99,147.726 95.6571,147.226 55.5,145.5C 95.6675,146.255 135.667,146.255 175.5,145.5C 179.499,144.5 183.499,143.5 187.5,142.5 Z"/></g>
<g><path style="opacity:1" fill="#a7d4ee" d="M 50.5,153.5 C 50.5,152.167 49.8333,151.5 48.5,151.5C 48.631,150.761 48.4643,150.094 48,149.5C 47.2917,150.381 46.4584,151.047 45.5,151.5C 45.1583,150.662 44.4916,150.328 43.5,150.5C 45.3914,147.828 48.0581,146.828 51.5,147.5C 51.7947,149.735 51.4614,151.735 50.5,153.5 Z"/></g>
<g><path style="opacity:1" fill="#8bc5e4" d="M 189.5,153.5 C 189.795,155.735 189.461,157.735 188.5,159.5C 188.795,157.265 188.461,155.265 187.5,153.5C 188.087,152.233 188.087,151.233 187.5,150.5C 185.798,152.537 183.798,154.203 181.5,155.5C 181.5,154.167 180.833,153.5 179.5,153.5C 180.833,152.5 182.167,151.5 183.5,150.5C 185.435,149.85 187.435,149.517 189.5,149.5C 189.5,150.833 189.5,152.167 189.5,153.5 Z"/></g>
<g><path style="opacity:1" fill="#cee6f2" d="M 189.5,153.5 C 189.5,152.167 189.5,150.833 189.5,149.5C 187.435,149.517 185.435,149.85 183.5,150.5C 185.176,148.166 187.509,147.166 190.5,147.5C 190.795,149.735 190.461,151.735 189.5,153.5 Z"/></g>
<g><path style="opacity:1" fill="#4fa3e2" d="M 43.5,150.5 C 44.4916,150.328 45.1583,150.662 45.5,151.5C 43.4752,153.196 41.4752,154.863 39.5,156.5C 38.8333,156.833 38.1667,157.167 37.5,157.5C 37.5,156.167 36.8333,155.5 35.5,155.5C 38.1305,153.847 40.7972,152.181 43.5,150.5 Z"/></g>
<g><path style="opacity:1" fill="#c6f6fc" d="M 48.5,151.5 C 47.7347,154.096 47.4013,156.763 47.5,159.5C 46.3263,160.514 45.6596,161.847 45.5,163.5C 44.1986,164.64 43.0319,165.973 42,167.5C 41.6012,167.272 41.4346,166.938 41.5,166.5C 40.4957,163.816 38.4957,162.316 35.5,162C 36.3079,160.294 37.6412,159.461 39.5,159.5C 39.5,158.5 39.5,157.5 39.5,156.5C 41.4752,154.863 43.4752,153.196 45.5,151.5C 46.4584,151.047 47.2917,150.381 48,149.5C 48.4643,150.094 48.631,150.761 48.5,151.5 Z"/></g>
<g><path style="opacity:1" fill="#74b5dd" d="M 119.5,156.5 C 118.738,158.262 117.404,159.262 115.5,159.5C 114.167,159.5 112.833,159.5 111.5,159.5C 112.965,158.263 114.632,157.263 116.5,156.5C 117.798,155.884 118.798,155.884 119.5,156.5 Z"/></g>
<g><path style="opacity:1" fill="#aad5ee" d="M 122.5,161.5 C 122.768,159.901 122.434,158.568 121.5,157.5C 121.158,156.662 120.492,156.328 119.5,156.5C 118.798,155.884 117.798,155.884 116.5,156.5C 117.918,154.292 119.918,153.458 122.5,154C 123.814,156.605 123.814,159.105 122.5,161.5 Z"/></g>
<g><path style="opacity:1" fill="#54a7e5" d="M 179.5,153.5 C 180.833,153.5 181.5,154.167 181.5,155.5C 179.754,157.252 177.754,158.585 175.5,159.5C 175.631,158.624 175.298,157.957 174.5,157.5C 173.378,158.63 172.044,159.297 170.5,159.5C 173.186,157.143 176.186,155.143 179.5,153.5 Z"/></g>
<g><path style="opacity:1" fill="#61a0d4" d="M 35.5,155.5 C 34.4154,157.587 32.7488,158.92 30.5,159.5C 31.5846,157.413 33.2512,156.08 35.5,155.5 Z"/></g>
<g><path style="opacity:1" fill="#5dabe2" d="M 48.5,151.5 C 49.8333,151.5 50.5,152.167 50.5,153.5C 50.3104,158.37 49.6437,163.036 48.5,167.5C 48.8064,164.615 48.4731,161.948 47.5,159.5C 47.4013,156.763 47.7347,154.096 48.5,151.5 Z"/></g>
<g><path style="opacity:1" fill="#c2f4fb" d="M 187.5,153.5 C 186.626,156.789 185.959,160.123 185.5,163.5C 183.787,164.635 183.12,166.302 183.5,168.5C 183.5,168.833 183.5,169.167 183.5,169.5C 182.5,169.833 181.833,170.5 181.5,171.5C 180.209,171.737 179.209,171.404 178.5,170.5C 180.14,169.21 180.64,167.543 180,165.5C 176.83,166.833 174.663,165.833 173.5,162.5C 174.5,162.167 175.167,161.5 175.5,160.5C 175.5,160.167 175.5,159.833 175.5,159.5C 177.754,158.585 179.754,157.252 181.5,155.5C 183.798,154.203 185.798,152.537 187.5,150.5C 188.087,151.233 188.087,152.233 187.5,153.5 Z"/></g>
<g><path style="opacity:1" fill="#4fa6e2" d="M 111.5,159.5 C 112.833,159.5 114.167,159.5 115.5,159.5C 114.396,161.389 113.063,163.055 111.5,164.5C 110.833,164.5 110.167,164.5 109.5,164.5C 112.021,161.678 111.354,161.011 107.5,162.5C 108.59,161.143 109.924,160.143 111.5,159.5 Z"/></g>
<g><path style="opacity:1" fill="#67b7e7" d="M 121.5,157.5 C 122.434,158.568 122.768,159.901 122.5,161.5C 122.795,163.735 122.461,165.735 121.5,167.5C 121.66,165.801 121.494,164.134 121,162.5C 120.768,163.737 120.268,164.737 119.5,165.5C 119.584,162.673 120.25,160.006 121.5,157.5 Z"/></g>
<g><path style="opacity:1" fill="#298ed9" d="M 175.5,159.5 C 175.5,159.833 175.5,160.167 175.5,160.5C 173.368,160.554 172.035,161.554 171.5,163.5C 170.1,164.1 169.1,165.1 168.5,166.5C 168.44,165.957 168.107,165.624 167.5,165.5C 166.818,166.243 166.151,166.909 165.5,167.5C 165.392,165.486 166.058,163.82 167.5,162.5C 167.81,160.856 168.81,159.856 170.5,159.5C 172.044,159.297 173.378,158.63 174.5,157.5C 175.298,157.957 175.631,158.624 175.5,159.5 Z"/></g>
<g><path style="opacity:1" fill="#a4eefb" d="M 39.5,156.5 C 39.5,157.5 39.5,158.5 39.5,159.5C 37.6412,159.461 36.3079,160.294 35.5,162C 38.4957,162.316 40.4957,163.816 41.5,166.5C 40.8826,166.389 40.3826,166.056 40,165.5C 38.271,168.079 36.4377,168.079 34.5,165.5C 33.6143,164.675 33.281,163.675 33.5,162.5C 34.1098,161.609 34.4431,160.609 34.5,159.5C 35.7095,159.068 36.7095,158.401 37.5,157.5C 38.1667,157.167 38.8333,156.833 39.5,156.5 Z"/></g>
<g><path style="opacity:1" fill="#3793e0" d="M 109.5,164.5 C 108.694,165.728 107.694,166.728 106.5,167.5C 105.504,167.414 104.671,167.748 104,168.5C 103.517,167.552 103.351,166.552 103.5,165.5C 104.035,163.554 105.368,162.554 107.5,162.5C 111.354,161.011 112.021,161.678 109.5,164.5 Z"/></g>
<g><path style="opacity:1" fill="#99edfc" d="M 173.5,162.5 C 174.663,165.833 176.83,166.833 180,165.5C 180.64,167.543 180.14,169.21 178.5,170.5C 175.944,170.868 173.944,170.034 172.5,168C 172.687,166.109 173.021,164.275 173.5,162.5 Z"/></g>
<g><path style="opacity:1" fill="#4fb5f9" d="M 185.5,163.5 C 185.634,165.292 185.301,166.958 184.5,168.5C 184.167,168.5 183.833,168.5 183.5,168.5C 183.12,166.302 183.787,164.635 185.5,163.5 Z"/></g>
<g><path style="opacity:1" fill="#91c8eb" d="M 100.5,167.5 C 100.267,169.062 99.6005,170.395 98.5,171.5C 96.8819,174.171 96.2153,177.171 96.5,180.5C 94.5858,175.238 95.9192,170.905 100.5,167.5 Z"/></g>
<g><path style="opacity:1" fill="#c4f7fb" d="M 119.5,156.5 C 120.492,156.328 121.158,156.662 121.5,157.5C 120.25,160.006 119.584,162.673 119.5,165.5C 117.837,167.438 117.171,169.772 117.5,172.5C 116.288,173.23 115.288,174.23 114.5,175.5C 113.818,174.757 113.151,174.091 112.5,173.5C 111.483,171.401 110.15,170.401 108.5,170.5C 109.129,168.259 110.129,166.259 111.5,164.5C 113.063,163.055 114.396,161.389 115.5,159.5C 117.404,159.262 118.738,158.262 119.5,156.5 Z"/></g>
<g><path style="opacity:1" fill="#1c88d7" d="M 121.5,167.5 C 121.5,168.5 121.5,169.5 121.5,170.5C 120.076,172.515 119.41,174.848 119.5,177.5C 119.5,177.833 119.5,178.167 119.5,178.5C 118.206,179.29 117.039,180.29 116,181.5C 115.278,179.339 115.945,177.672 118,176.5C 118.548,172.83 119.048,169.163 119.5,165.5C 120.268,164.737 120.768,163.737 121,162.5C 121.494,164.134 121.66,165.801 121.5,167.5 Z"/></g>
<g><path style="opacity:1" fill="#77d4fc" d="M 175.5,160.5 C 175.167,161.5 174.5,162.167 173.5,162.5C 173.021,164.275 172.687,166.109 172.5,168C 173.944,170.034 175.944,170.868 178.5,170.5C 179.209,171.404 180.209,171.737 181.5,171.5C 178.038,172.482 174.371,172.815 170.5,172.5C 170.264,169.391 170.597,166.391 171.5,163.5C 172.035,161.554 173.368,160.554 175.5,160.5 Z"/></g>
<g><path style="opacity:1" fill="#9eeffc" d="M 109.5,164.5 C 110.167,164.5 110.833,164.5 111.5,164.5C 110.129,166.259 109.129,168.259 108.5,170.5C 110.15,170.401 111.483,171.401 112.5,173.5C 111.811,174.774 110.977,174.774 110,173.5C 109.692,174.308 109.192,174.975 108.5,175.5C 106.423,174.012 105.423,172.012 105.5,169.5C 105.833,168.833 106.167,168.167 106.5,167.5C 107.694,166.728 108.694,165.728 109.5,164.5 Z"/></g>
<g><path style="opacity:1" fill="#3fb5fb" d="M 171.5,163.5 C 170.597,166.391 170.264,169.391 170.5,172.5C 174.371,172.815 178.038,172.482 181.5,171.5C 181.833,170.5 182.5,169.833 183.5,169.5C 182.962,171.117 182.629,172.784 182.5,174.5C 178.61,175.13 174.777,175.13 171,174.5C 170.055,174.095 169.388,173.428 169,172.5C 168.505,170.527 168.338,168.527 168.5,166.5C 169.1,165.1 170.1,164.1 171.5,163.5 Z"/></g>
<g><path style="opacity:1" fill="#1e96ec" d="M 35.5,155.5 C 36.8333,155.5 37.5,156.167 37.5,157.5C 36.7095,158.401 35.7095,159.068 34.5,159.5C 33.5178,160.141 32.5178,160.807 31.5,161.5C 30.5091,165.445 30.1758,169.445 30.5,173.5C 35.1219,173.844 39.4552,173.177 43.5,171.5C 44.1098,170.609 44.4431,169.609 44.5,168.5C 45.3007,166.958 45.634,165.292 45.5,163.5C 45.6596,161.847 46.3263,160.514 47.5,159.5C 48.4731,161.948 48.8064,164.615 48.5,167.5C 47.5489,168.919 47.2155,170.585 47.5,172.5C 45.7549,174.033 44.7549,176.033 44.5,178.5C 42.9731,178.427 41.9731,179.094 41.5,180.5C 40.8333,180.5 40.1667,180.5 39.5,180.5C 28.0388,181.198 23.5388,175.865 26,164.5C 27.8022,163.211 28.9688,161.544 29.5,159.5C 29.8333,159.5 30.1667,159.5 30.5,159.5C 32.7488,158.92 34.4154,157.587 35.5,155.5 Z"/></g>
<g><path style="opacity:1" fill="#71cafd" d="M 32.5,167.5 C 36.062,170.988 40.062,171.321 44.5,168.5C 44.4431,169.609 44.1098,170.609 43.5,171.5C 39.8333,171.5 36.1667,171.5 32.5,171.5C 32.5,170.167 32.5,168.833 32.5,167.5 Z"/></g>
<g><path style="opacity:1" fill="#8de0fc" d="M 33.5,162.5 C 33.281,163.675 33.6143,164.675 34.5,165.5C 36.4377,168.079 38.271,168.079 40,165.5C 40.3826,166.056 40.8826,166.389 41.5,166.5C 41.4346,166.938 41.6012,167.272 42,167.5C 43.0319,165.973 44.1986,164.64 45.5,163.5C 45.634,165.292 45.3007,166.958 44.5,168.5C 40.062,171.321 36.062,170.988 32.5,167.5C 31.8614,166.903 31.528,166.07 31.5,165C 31.6842,163.624 32.3509,162.791 33.5,162.5 Z"/></g>
<g><path style="opacity:1" fill="#40b7fb" d="M 34.5,159.5 C 34.4431,160.609 34.1098,161.609 33.5,162.5C 32.3509,162.791 31.6842,163.624 31.5,165C 31.528,166.07 31.8614,166.903 32.5,167.5C 32.5,168.833 32.5,170.167 32.5,171.5C 36.1667,171.5 39.8333,171.5 43.5,171.5C 39.4552,173.177 35.1219,173.844 30.5,173.5C 30.1758,169.445 30.5091,165.445 31.5,161.5C 32.5178,160.807 33.5178,160.141 34.5,159.5 Z"/></g>
<g><path style="opacity:1" fill="#add1ea" d="M 47.5,172.5 C 47.2451,174.967 46.2451,176.967 44.5,178.5C 44.7549,176.033 45.7549,174.033 47.5,172.5 Z"/></g>
<g><path style="opacity:1" fill="#6ea4cb" d="M 121.5,170.5 C 121.829,173.228 121.163,175.562 119.5,177.5C 119.41,174.848 120.076,172.515 121.5,170.5 Z"/></g>
<g><path style="opacity:1" fill="#58baf0" d="M 167.5,162.5 C 166.058,163.82 165.392,165.486 165.5,167.5C 164.38,171.017 164.38,174.684 165.5,178.5C 164.833,178.167 164.167,177.833 163.5,177.5C 162.087,173.125 162.254,168.791 164,164.5C 164.816,163.177 165.983,162.511 167.5,162.5 Z"/></g>
<g><path style="opacity:1" fill="#1a97ef" d="M 168.5,166.5 C 168.338,168.527 168.505,170.527 169,172.5C 169.388,173.428 170.055,174.095 171,174.5C 174.777,175.13 178.61,175.13 182.5,174.5C 182.629,172.784 182.962,171.117 183.5,169.5C 183.5,169.167 183.5,168.833 183.5,168.5C 183.833,168.5 184.167,168.5 184.5,168.5C 184.354,172.607 183.02,176.273 180.5,179.5C 179.15,178.05 177.484,177.383 175.5,177.5C 175.5,178.5 175.5,179.5 175.5,180.5C 174.167,180.5 172.833,180.5 171.5,180.5C 170.833,180.5 170.167,180.5 169.5,180.5C 167.62,180.771 166.287,180.104 165.5,178.5C 164.38,174.684 164.38,171.017 165.5,167.5C 166.151,166.909 166.818,166.243 167.5,165.5C 168.107,165.624 168.44,165.957 168.5,166.5 Z"/></g>
<g><path style="opacity:1" fill="#2fa9f3" d="M 98.5,171.5 C 98.3946,175.548 98.7279,179.548 99.5,183.5C 98.2719,182.694 97.2719,181.694 96.5,180.5C 96.2153,177.171 96.8819,174.171 98.5,171.5 Z"/></g>
<g><path style="opacity:1" fill="#34a7f2" d="M 103.5,165.5 C 103.351,166.552 103.517,167.552 104,168.5C 104.671,167.748 105.504,167.414 106.5,167.5C 106.167,168.167 105.833,168.833 105.5,169.5C 103.744,170.552 103.077,172.219 103.5,174.5C 104.005,178.159 106.172,179.826 110,179.5C 111.986,179.431 113.486,178.765 114.5,177.5C 116.727,176.599 117.727,174.933 117.5,172.5C 117.171,169.772 117.837,167.438 119.5,165.5C 119.048,169.163 118.548,172.83 118,176.5C 115.945,177.672 115.278,179.339 116,181.5C 117.039,180.29 118.206,179.29 119.5,178.5C 118.833,180.167 118.167,181.833 117.5,183.5C 116.167,184.5 114.833,185.5 113.5,186.5C 113.5,184.833 113.5,183.167 113.5,181.5C 109.484,181.713 105.65,181.046 102,179.5C 101.779,175.288 101.612,171.288 101.5,167.5C 101.5,166.167 102.167,165.5 103.5,165.5 Z"/></g>
<g><path style="opacity:1" fill="#4fc6fc" d="M 103.5,174.5 C 106.668,177.056 110.334,178.056 114.5,177.5C 113.486,178.765 111.986,179.431 110,179.5C 106.172,179.826 104.005,178.159 103.5,174.5 Z"/></g>
<g><path style="opacity:1" fill="#85ddfc" d="M 105.5,169.5 C 105.423,172.012 106.423,174.012 108.5,175.5C 109.192,174.975 109.692,174.308 110,173.5C 110.977,174.774 111.811,174.774 112.5,173.5C 113.151,174.091 113.818,174.757 114.5,175.5C 115.288,174.23 116.288,173.23 117.5,172.5C 117.727,174.933 116.727,176.599 114.5,177.5C 110.334,178.056 106.668,177.056 103.5,174.5C 103.077,172.219 103.744,170.552 105.5,169.5 Z"/></g>
<g><path style="opacity:1" fill="#63c0f5" d="M 29.5,159.5 C 28.9688,161.544 27.8022,163.211 26,164.5C 23.5388,175.865 28.0388,181.198 39.5,180.5C 37.0521,181.473 34.3854,181.806 31.5,181.5C 23.9419,177.646 21.7752,171.646 25,163.5C 26.3712,161.959 27.8712,160.625 29.5,159.5 Z"/></g>
<g><path style="opacity:1" fill="#2c92dd" d="M 187.5,153.5 C 188.461,155.265 188.795,157.265 188.5,159.5C 189.115,168.227 186.449,175.56 180.5,181.5C 179.5,181.5 178.5,181.5 177.5,181.5C 175.265,181.795 173.265,181.461 171.5,180.5C 172.833,180.5 174.167,180.5 175.5,180.5C 175.5,179.5 175.5,178.5 175.5,177.5C 177.484,177.383 179.15,178.05 180.5,179.5C 183.02,176.273 184.354,172.607 184.5,168.5C 185.301,166.958 185.634,165.292 185.5,163.5C 185.959,160.123 186.626,156.789 187.5,153.5 Z"/></g>
<g><path style="opacity:1" fill="#b9e8fc" d="M 39.5,180.5 C 40.1667,180.5 40.8333,180.5 41.5,180.5C 40.126,182.378 38.126,183.378 35.5,183.5C 33.8295,183.332 32.4961,182.665 31.5,181.5C 34.3854,181.806 37.0521,181.473 39.5,180.5 Z"/></g>
<g><path style="opacity:1" fill="#3ab5f1" d="M 169.5,180.5 C 170.167,180.5 170.833,180.5 171.5,180.5C 173.265,181.461 175.265,181.795 177.5,181.5C 176.551,182.152 175.385,182.486 174,182.5C 171.992,182.693 170.492,182.026 169.5,180.5 Z"/></g>
<g><path style="opacity:1" fill="#98d2ef" d="M 79.5,183.5 C 79.5,184.833 79.5,186.167 79.5,187.5C 78.4318,189.968 77.0985,192.301 75.5,194.5C 75.2843,191.568 75.951,188.902 77.5,186.5C 77.1667,185.833 76.8333,185.167 76.5,184.5C 75.8182,185.243 75.1515,185.909 74.5,186.5C 74.6716,185.508 74.3382,184.842 73.5,184.5C 74.0138,182.561 75.3472,181.561 77.5,181.5C 78.7133,181.747 79.38,182.414 79.5,183.5 Z"/></g>
<g><path style="opacity:1" fill="#1a96f0" d="M 100.5,167.5 C 100.833,167.5 101.167,167.5 101.5,167.5C 101.612,171.288 101.779,175.288 102,179.5C 105.65,181.046 109.484,181.713 113.5,181.5C 113.5,183.167 113.5,184.833 113.5,186.5C 113.158,187.338 112.492,187.672 111.5,187.5C 108.813,187.664 106.146,187.497 103.5,187C 101.65,186.31 100.316,185.144 99.5,183.5C 98.7279,179.548 98.3946,175.548 98.5,171.5C 99.6005,170.395 100.267,169.062 100.5,167.5 Z"/></g>
<g><path style="opacity:1" fill="#84d6fb" d="M 163.5,177.5 C 164.167,177.833 164.833,178.167 165.5,178.5C 166.287,180.104 167.62,180.771 169.5,180.5C 170.492,182.026 171.992,182.693 174,182.5C 175.385,182.486 176.551,182.152 177.5,181.5C 178.5,181.5 179.5,181.5 180.5,181.5C 176.076,183.974 171.409,184.141 166.5,182C 164.859,180.871 163.859,179.371 163.5,177.5 Z"/></g>
<g><path style="opacity:1" fill="#69cbfa" d="M 96.5,180.5 C 97.2719,181.694 98.2719,182.694 99.5,183.5C 100.316,185.144 101.65,186.31 103.5,187C 106.146,187.497 108.813,187.664 111.5,187.5C 111.5,187.833 111.5,188.167 111.5,188.5C 103.918,190.874 98.9182,188.207 96.5,180.5 Z"/></g>
<g><path style="opacity:1" fill="#a6d8f7" d="M 117.5,183.5 C 116.712,186.621 114.712,188.288 111.5,188.5C 111.5,188.167 111.5,187.833 111.5,187.5C 112.492,187.672 113.158,187.338 113.5,186.5C 114.833,185.5 116.167,184.5 117.5,183.5 Z"/></g>
<g><path style="opacity:1" fill="#4699d8" d="M 73.5,184.5 C 74.3382,184.842 74.6716,185.508 74.5,186.5C 72.1829,187.82 70.1829,189.486 68.5,191.5C 67.391,191.557 66.391,191.89 65.5,192.5C 65.1583,191.662 64.4916,191.328 63.5,191.5C 63.4142,190.504 63.7476,189.671 64.5,189C 67.4111,187.239 70.4111,185.739 73.5,184.5 Z"/></g>
<g><path style="opacity:1" fill="#2e93dc" d="M 147.5,191.5 C 145.5,192.833 143.833,194.5 142.5,196.5C 140.589,197.075 138.922,198.075 137.5,199.5C 136.368,198.646 135.035,198.646 133.5,199.5C 134.167,198.5 134.833,197.5 135.5,196.5C 138.159,194.836 140.825,193.17 143.5,191.5C 145.035,190.646 146.368,190.646 147.5,191.5 Z"/></g>
<g><path style="opacity:1" fill="#c7f5fa" d="M 75.5,194.5 C 75.5,195.167 75.5,195.833 75.5,196.5C 75.5,197.5 75.5,198.5 75.5,199.5C 74.5987,200.29 73.9321,201.29 73.5,202.5C 72.0755,204.031 71.4088,203.698 71.5,201.5C 71.762,200.022 71.4287,198.689 70.5,197.5C 68.0698,196.75 65.7365,196.417 63.5,196.5C 65.5212,195.145 67.1879,193.479 68.5,191.5C 70.1829,189.486 72.1829,187.82 74.5,186.5C 75.1515,185.909 75.8182,185.243 76.5,184.5C 76.8333,185.167 77.1667,185.833 77.5,186.5C 75.951,188.902 75.2843,191.568 75.5,194.5 Z"/></g>
<g><path style="opacity:1" fill="#3e97d7" d="M 79.5,187.5 C 79.0019,192.152 78.6686,196.819 78.5,201.5C 78.1667,201.5 77.8333,201.5 77.5,201.5C 77.6621,199.473 77.4955,197.473 77,195.5C 76.6174,196.056 76.1174,196.389 75.5,196.5C 75.5,195.833 75.5,195.167 75.5,194.5C 77.0985,192.301 78.4318,189.968 79.5,187.5 Z"/></g>
<g><path style="opacity:1" fill="#5ea0d0" d="M 62.5,191.5 C 60.1667,194.167 57.8333,196.833 55.5,199.5C 55.585,197.071 56.585,195.071 58.5,193.5C 59.5769,192.295 60.9102,191.628 62.5,191.5 Z"/></g>
<g><path style="opacity:1" fill="#6fb6e3" d="M 156.5,185.5 C 155.975,191.824 155.475,198.158 155,204.5C 154.768,205.737 154.268,206.737 153.5,207.5C 154.19,203.51 154.357,199.51 154,195.5C 153.392,197.066 152.558,198.4 151.5,199.5C 152.22,195.281 153.554,191.281 155.5,187.5C 155.167,187.167 154.833,186.833 154.5,186.5C 152.427,188.58 150.093,190.246 147.5,191.5C 146.368,190.646 145.035,190.646 143.5,191.5C 146.57,187.961 150.403,185.294 155,183.5C 156.03,183.836 156.53,184.503 156.5,185.5 Z"/></g>
<g><path style="opacity:1" fill="#d2e3eb" d="M 79.5,183.5 C 80.6507,188.65 80.8174,193.984 80,199.5C 79.7216,200.416 79.2216,201.082 78.5,201.5C 78.6686,196.819 79.0019,192.152 79.5,187.5C 79.5,186.167 79.5,184.833 79.5,183.5 Z"/></g>
<g><path style="opacity:1" fill="#c3f7fb" d="M 151.5,199.5 C 151.5,200.167 151.5,200.833 151.5,201.5C 150.833,202.5 150.167,203.5 149.5,204.5C 147.977,202.49 146.144,202.156 144,203.5C 142.833,202 141.667,200.5 140.5,199C 141.381,198.292 142.047,197.458 142.5,196.5C 143.833,194.5 145.5,192.833 147.5,191.5C 150.093,190.246 152.427,188.58 154.5,186.5C 154.833,186.833 155.167,187.167 155.5,187.5C 153.554,191.281 152.22,195.281 151.5,199.5 Z"/></g>
<g><path style="opacity:1" fill="#a1c9e9" d="M 135.5,196.5 C 134.833,197.5 134.167,198.5 133.5,199.5C 133.167,199.5 132.833,199.5 132.5,199.5C 132.5,197.5 133.5,196.5 135.5,196.5 Z"/></g>
<g><path style="opacity:1" fill="#98ebfc" d="M 68.5,191.5 C 67.1879,193.479 65.5212,195.145 63.5,196.5C 65.7365,196.417 68.0698,196.75 70.5,197.5C 71.4287,198.689 71.762,200.022 71.5,201.5C 68.8333,201.833 66.1667,202.167 63.5,202.5C 61.2472,200.55 60.9139,198.216 62.5,195.5C 63.6935,194.728 64.6935,193.728 65.5,192.5C 66.391,191.89 67.391,191.557 68.5,191.5 Z"/></g>
<g><path style="opacity:1" fill="#91e5fc" d="M 142.5,196.5 C 142.047,197.458 141.381,198.292 140.5,199C 141.667,200.5 142.833,202 144,203.5C 146.144,202.156 147.977,202.49 149.5,204.5C 147.104,206.951 144.104,207.951 140.5,207.5C 139.5,207.5 138.5,207.5 137.5,207.5C 137.5,204.833 137.5,202.167 137.5,199.5C 138.922,198.075 140.589,197.075 142.5,196.5 Z"/></g>
<g><path style="opacity:1" fill="#e0eef6" d="M 156.5,185.5 C 157.464,190.162 157.464,194.996 156.5,200C 156.335,202.917 157.002,205.583 158.5,208C 156.046,209.471 153.713,210.971 151.5,212.5C 151.893,210.716 152.559,209.05 153.5,207.5C 154.268,206.737 154.768,205.737 155,204.5C 155.475,198.158 155.975,191.824 156.5,185.5 Z"/></g>
<g><path style="opacity:1" fill="#29a0f1" d="M 137.5,199.5 C 137.5,202.167 137.5,204.833 137.5,207.5C 138.5,207.5 139.5,207.5 140.5,207.5C 143.595,209.709 146.595,209.709 149.5,207.5C 149.5,208.5 149.5,209.5 149.5,210.5C 144.862,210.703 140.195,210.703 135.5,210.5C 135.5,212.167 135.5,213.833 135.5,215.5C 134.055,213.937 132.389,212.604 130.5,211.5C 130.5,211.167 130.5,210.833 130.5,210.5C 130.368,207.43 130.701,204.43 131.5,201.5C 131.328,200.508 131.662,199.842 132.5,199.5C 132.833,199.5 133.167,199.5 133.5,199.5C 135.035,198.646 136.368,198.646 137.5,199.5 Z"/></g>
<g><path style="opacity:1" fill="#bee7fb" d="M 129.5,204.5 C 129.205,206.735 129.539,208.735 130.5,210.5C 130.5,210.833 130.5,211.167 130.5,211.5C 130.833,212.833 131.167,214.167 131.5,215.5C 130.034,214.653 129.2,213.32 129,211.5C 128.204,208.961 128.371,206.628 129.5,204.5 Z"/></g>
<g><path style="opacity:1" fill="#7ac9fb" d="M 151.5,201.5 C 151.741,203.898 151.074,205.898 149.5,207.5C 146.595,209.709 143.595,209.709 140.5,207.5C 144.104,207.951 147.104,206.951 149.5,204.5C 150.167,203.5 150.833,202.5 151.5,201.5 Z"/></g>
<g><path style="opacity:1" fill="#78c7f7" d="M 131.5,201.5 C 130.701,204.43 130.368,207.43 130.5,210.5C 129.539,208.735 129.205,206.735 129.5,204.5C 129.427,202.973 130.094,201.973 131.5,201.5 Z"/></g>
<g><path style="opacity:1" fill="#54b8f1" d="M 54.5,199.5 C 54.3359,202.187 54.5026,204.854 55,207.5C 57.4397,208.274 58.773,209.94 59,212.5C 59.5,213 60,213.5 60.5,214C 63.4816,214.498 66.4816,214.665 69.5,214.5C 69.5,214.833 69.5,215.167 69.5,215.5C 66.0641,216.782 62.7307,216.782 59.5,215.5C 58.5977,213.659 57.2644,212.326 55.5,211.5C 53.9827,209.538 53.3161,207.205 53.5,204.5C 53.5068,202.631 53.8401,200.964 54.5,199.5 Z"/></g>
<g><path style="opacity:1" fill="#1d89d7" d="M 153.5,207.5 C 152.559,209.05 151.893,210.716 151.5,212.5C 150.094,212.973 149.427,213.973 149.5,215.5C 149.167,215.5 148.833,215.5 148.5,215.5C 148.366,213.708 148.699,212.042 149.5,210.5C 149.5,209.5 149.5,208.5 149.5,207.5C 151.074,205.898 151.741,203.898 151.5,201.5C 151.5,200.833 151.5,200.167 151.5,199.5C 152.558,198.4 153.392,197.066 154,195.5C 154.357,199.51 154.19,203.51 153.5,207.5 Z"/></g>
<g><path style="opacity:1" fill="#8dddfc" d="M 55.5,211.5 C 57.2644,212.326 58.5977,213.659 59.5,215.5C 57.1667,215.167 55.8333,213.833 55.5,211.5 Z"/></g>
<g><path style="opacity:1" fill="#1d94e8" d="M 62.5,191.5 C 62.8333,191.5 63.1667,191.5 63.5,191.5C 64.4916,191.328 65.1583,191.662 65.5,192.5C 64.6935,193.728 63.6935,194.728 62.5,195.5C 60.8235,196.183 60.1568,197.517 60.5,199.5C 58.1425,201.321 57.8092,203.655 59.5,206.5C 63.9838,207.811 68.3171,207.811 72.5,206.5C 74.4484,204.68 75.4484,202.346 75.5,199.5C 75.5,198.5 75.5,197.5 75.5,196.5C 76.1174,196.389 76.6174,196.056 77,195.5C 77.4955,197.473 77.6621,199.473 77.5,201.5C 77.4162,204.327 76.7496,206.994 75.5,209.5C 74.1149,211.883 72.1149,213.55 69.5,214.5C 66.4816,214.665 63.4816,214.498 60.5,214C 60,213.5 59.5,213 59,212.5C 58.773,209.94 57.4397,208.274 55,207.5C 54.5026,204.854 54.3359,202.187 54.5,199.5C 54.8333,199.5 55.1667,199.5 55.5,199.5C 57.8333,196.833 60.1667,194.167 62.5,191.5 Z"/></g>
<g><path style="opacity:1" fill="#2daefc" d="M 60.5,199.5 C 60.3184,201.591 60.6518,203.591 61.5,205.5C 65.1073,206.489 68.774,206.823 72.5,206.5C 68.3171,207.811 63.9838,207.811 59.5,206.5C 57.8092,203.655 58.1425,201.321 60.5,199.5 Z"/></g>
<g><path style="opacity:1" fill="#4dbefa" d="M 62.5,195.5 C 60.9139,198.216 61.2472,200.55 63.5,202.5C 64.7695,204.611 66.7695,205.611 69.5,205.5C 71.9818,205.89 73.3152,204.89 73.5,202.5C 73.9321,201.29 74.5987,200.29 75.5,199.5C 75.4484,202.346 74.4484,204.68 72.5,206.5C 68.774,206.823 65.1073,206.489 61.5,205.5C 60.6518,203.591 60.3184,201.591 60.5,199.5C 60.1568,197.517 60.8235,196.183 62.5,195.5 Z"/></g>
<g><path style="opacity:1" fill="#8cd9fc" d="M 71.5,201.5 C 71.4088,203.698 72.0755,204.031 73.5,202.5C 73.3152,204.89 71.9818,205.89 69.5,205.5C 66.7695,205.611 64.7695,204.611 63.5,202.5C 66.1667,202.167 68.8333,201.833 71.5,201.5 Z"/></g>
<g><path style="opacity:1" fill="#afd9f8" d="M 75.5,209.5 C 75.1285,213.205 73.1285,215.205 69.5,215.5C 69.5,215.167 69.5,214.833 69.5,214.5C 72.1149,213.55 74.1149,211.883 75.5,209.5 Z"/></g>
<g><path style="opacity:1" fill="#82bbe0" d="M 151.5,212.5 C 151.573,214.027 150.906,215.027 149.5,215.5C 149.427,213.973 150.094,212.973 151.5,212.5 Z"/></g>
<g><path style="opacity:1" fill="#1a95ee" d="M 149.5,210.5 C 148.699,212.042 148.366,213.708 148.5,215.5C 144.08,217.861 139.747,217.861 135.5,215.5C 135.5,213.833 135.5,212.167 135.5,210.5C 140.195,210.703 144.862,210.703 149.5,210.5 Z"/></g>
<g><path style="opacity:1" fill="#68c4f7" d="M 130.5,211.5 C 132.389,212.604 134.055,213.937 135.5,215.5C 139.747,217.861 144.08,217.861 148.5,215.5C 148.833,215.5 149.167,215.5 149.5,215.5C 147.882,217.316 145.882,218.649 143.5,219.5C 140.833,219.167 138.167,218.833 135.5,218.5C 134.074,217.659 132.74,216.659 131.5,215.5C 131.167,214.167 130.833,212.833 130.5,211.5 Z"/></g>
<g><path style="opacity:1" fill="#c5f3fe" d="M 135.5,218.5 C 138.167,218.833 140.833,219.167 143.5,219.5C 140.66,220.917 137.993,220.584 135.5,218.5 Z"/></g>
</svg>
