<?xml version="1.0" encoding="UTF-8"?>
<!DOCTYPE svg PUBLIC "-//W3C//DTD SVG 1.1//EN" "http://www.w3.org/Graphics/SVG/1.1/DTD/svg11.dtd">
<svg xmlns="http://www.w3.org/2000/svg" version="1.1" width="512px" height="512px" style="shape-rendering:geometricPrecision; text-rendering:geometricPrecision; image-rendering:optimizeQuality; fill-rule:evenodd; clip-rule:evenodd" xmlns:xlink="http://www.w3.org/1999/xlink">
<g><path style="opacity:0.993" fill="#fed1b0" d="M 258.5,31.5 C 261.458,34.0595 263.958,37.0595 266,40.5C 279.391,80.9441 294.725,120.611 312,159.5C 315.023,164.01 318.189,168.344 321.5,172.5C 320.738,178.814 319.404,184.98 317.5,191C 336.873,193.013 354.873,199.013 371.5,209C 376.301,212.799 380.801,216.966 385,221.5C 390.919,231.002 396.586,240.669 402,250.5C 409.149,258.83 417.982,261.33 428.5,258C 432.327,256.254 435.993,254.254 439.5,252C 447.391,244.272 455.725,237.106 464.5,230.5C 467.401,231.233 469.067,233.067 469.5,236C 466.319,262.371 452.985,281.705 429.5,294C 421.707,296.577 413.707,297.743 405.5,297.5C 405.416,309.67 403.916,321.67 401,333.5C 400.145,355.036 400.645,376.536 402.5,398C 402.806,422.719 391.139,438.719 367.5,446C 361.167,446.667 354.833,446.667 348.5,446C 344.771,445.156 341.437,443.656 338.5,441.5C 340.124,441.64 341.29,440.973 342,439.5C 342.868,432.272 344.035,425.105 345.5,418C 344.598,414.933 342.598,413.933 339.5,415C 336.894,416.938 335.061,419.438 334,422.5C 333.333,427.167 333.333,431.833 334,436.5C 334.662,437.984 335.496,439.317 336.5,440.5C 327.092,434.771 324.592,426.771 329,416.5C 332,411.167 335,405.833 338,400.5C 339.582,385.546 339.915,370.546 339,355.5C 325.777,364.86 311.277,371.693 295.5,376C 292.817,382.564 290.983,389.397 290,396.5C 287.95,408.134 286.117,419.801 284.5,431.5C 286.398,441.823 288.231,452.157 290,462.5C 291.724,478.95 284.557,489.284 268.5,493.5C 266.123,494.887 263.457,495.721 260.5,496C 253.811,496.609 247.144,496.443 240.5,495.5C 242.475,494.354 243.975,492.687 245,490.5C 245.667,483.5 245.667,476.5 245,469.5C 242.119,464.687 238.785,464.353 235,468.5C 234.26,476.868 234.426,485.202 235.5,493.5C 226.591,491.465 219.425,486.798 214,479.5C 213.082,476.402 212.582,473.235 212.5,470C 213.293,461.781 214.46,453.615 216,445.5C 216.5,424.491 216.166,403.491 215,382.5C 214.188,375.05 211.355,368.55 206.5,363C 202.286,360.731 198.453,361.231 195,364.5C 193.392,367.382 192.059,370.382 191,373.5C 189.086,401.128 188.086,428.795 188,456.5C 185.112,468.456 177.945,476.623 166.5,481C 153.609,485.248 140.609,485.582 127.5,482C 114.021,475.886 108.188,465.386 110,450.5C 110.725,448.051 111.725,445.717 113,443.5C 117.048,439.12 120.715,434.454 124,429.5C 124.638,422.677 125.138,415.843 125.5,409C 124.824,394.173 124.324,379.34 124,364.5C 118.388,344.719 113.721,324.719 110,304.5C 108.32,287.027 109.82,269.861 114.5,253C 106.395,243.296 98.8953,233.129 92,222.5C 86.631,213.221 82.131,203.554 78.5,193.5C 88.4631,183.992 95.9631,172.659 101,159.5C 107.31,141.006 111.31,122.006 113,102.5C 113.801,82.8721 116.301,63.5388 120.5,44.5C 163.757,12.7855 209.757,8.45215 258.5,31.5 Z"/></g>
<g><path style="opacity:0.993" fill="#865b52" d="M 321.5,172.5 C 318.189,168.344 315.023,164.01 312,159.5C 294.725,120.611 279.391,80.9441 266,40.5C 263.958,37.0595 261.458,34.0595 258.5,31.5C 270.033,21.4903 283.533,17.157 299,18.5C 321.758,17.3456 341.758,24.0122 359,38.5C 366.661,48.446 370.661,59.7793 371,72.5C 372.961,91.1697 372.961,109.836 371,128.5C 369.497,143.011 364.831,156.345 357,168.5C 348.896,175.902 339.396,178.402 328.5,176C 326.14,174.82 323.807,173.653 321.5,172.5 Z"/></g>
<g><path style="opacity:0.994" fill="#865b52" d="M 120.5,44.5 C 116.301,63.5388 113.801,82.8721 113,102.5C 111.31,122.006 107.31,141.006 101,159.5C 95.9631,172.659 88.4631,183.992 78.5,193.5C 58.2273,201.686 42.0606,196.686 30,178.5C 19.0964,155.255 14.263,130.755 15.5,105C 14.0328,70.4926 29.3661,47.1592 61.5,35C 78.3632,31.1749 95.0298,31.8415 111.5,37C 115.275,38.6114 118.275,41.1114 120.5,44.5 Z"/></g>
<g><path style="opacity:1" fill="#d17856" d="M 244.5,110.5 C 276.511,107.185 293.511,121.519 295.5,153.5C 296.175,166.478 292.675,178.145 285,188.5C 278.122,195.434 269.789,198.434 260,197.5C 243.85,197.083 232.517,189.416 226,174.5C 220.303,161.144 219.303,147.477 223,133.5C 226.621,122.383 233.787,114.717 244.5,110.5 Z"/></g>
<g><path style="opacity:1" fill="#0b0602" d="M 254.5,135.5 C 270.964,135.735 278.131,144.069 276,160.5C 272.652,174.923 264.152,179.423 250.5,174C 246.619,171.072 244.119,167.239 243,162.5C 239.612,150.106 243.445,141.106 254.5,135.5 Z"/></g>
<g><path style="opacity:1" fill="#0a0704" d="M 135.5,142.5 C 155.452,142.986 162.618,152.986 157,172.5C 151.888,183.743 143.721,186.576 132.5,181C 129.894,179.062 128.061,176.562 127,173.5C 123.448,164.945 123.781,156.612 128,148.5C 130.114,145.879 132.614,143.879 135.5,142.5 Z"/></g>
<g><path style="opacity:1" fill="#0a0703" d="M 195.5,191.5 C 204.568,191.119 213.568,191.619 222.5,193C 232.699,196.556 236.866,203.722 235,214.5C 233.311,219.525 230.144,223.359 225.5,226C 221.294,227.777 216.961,228.944 212.5,229.5C 211.735,237.232 215.068,240.732 222.5,240C 226.112,238.861 229.446,237.194 232.5,235C 237.845,229.328 244.178,225.161 251.5,222.5C 254.542,223.048 255.876,224.881 255.5,228C 255.3,231.233 254.133,234.067 252,236.5C 244.094,244.537 234.927,250.703 224.5,255C 221.833,255.667 219.167,255.667 216.5,255C 213.354,253.014 210.187,251.181 207,249.5C 203.146,251.513 199.313,253.68 195.5,256C 189.936,257.01 184.602,256.343 179.5,254C 170.763,249.053 163.93,242.219 159,233.5C 158.167,227.667 160.667,225.167 166.5,226C 171.543,230.712 176.877,235.045 182.5,239C 192.595,244.091 197.928,240.925 198.5,229.5C 185.823,229.305 178.156,223.138 175.5,211C 175.819,205.034 178.485,200.367 183.5,197C 187.475,194.854 191.475,193.02 195.5,191.5 Z"/></g>
<g><path style="opacity:1" fill="#d27856" d="M 312.5,203.5 C 339.388,202.695 360.888,213.028 377,234.5C 383.156,246.44 385.156,259.107 383,272.5C 376.43,290.631 363.43,299.965 344,300.5C 323.611,299.769 308.611,290.436 299,272.5C 294.645,264.101 291.478,255.268 289.5,246C 298.585,232.668 306.251,218.502 312.5,203.5 Z"/></g>
<g><path style="opacity:1" fill="#d27856" d="M 156.5,281.5 C 185.288,294.455 214.288,294.788 243.5,282.5C 245.651,298.595 243.151,313.928 236,328.5C 220.246,348.979 200.746,353.479 177.5,342C 167.101,333.913 160.267,323.413 157,310.5C 155.332,300.828 155.165,291.162 156.5,281.5 Z"/></g>
<g><path style="opacity:1" fill="#d27957" d="M 281.5,292.5 C 291.372,290.617 298.205,294.283 302,303.5C 303.312,312.374 299.812,318.54 291.5,322C 278.203,323.037 271.703,316.87 272,303.5C 273.798,298.518 276.965,294.851 281.5,292.5 Z"/></g>
<g><path style="opacity:1" fill="#d37a58" d="M 338.5,441.5 C 337.508,441.672 336.842,441.338 336.5,440.5C 335.496,439.317 334.662,437.984 334,436.5C 333.333,431.833 333.333,427.167 334,422.5C 335.061,419.438 336.894,416.938 339.5,415C 342.598,413.933 344.598,414.933 345.5,418C 344.035,425.105 342.868,432.272 342,439.5C 341.29,440.973 340.124,441.64 338.5,441.5 Z"/></g>
<g><path style="opacity:1" fill="#d37b59" d="M 360.5,419.5 C 362.527,419.338 364.527,419.505 366.5,420C 367.097,421.062 367.43,422.228 367.5,423.5C 366.125,429.778 364.958,436.112 364,442.5C 361.822,446.065 359.156,446.399 356,443.5C 355.333,438.167 355.333,432.833 356,427.5C 356.738,424.352 358.238,421.685 360.5,419.5 Z"/></g>
<g><path style="opacity:1" fill="#d37b59" d="M 123.5,450.5 C 127.24,449.68 129.573,451.013 130.5,454.5C 129.207,462.16 128.04,469.827 127,477.5C 122.702,478.921 120.035,477.254 119,472.5C 117.341,464.43 118.841,457.096 123.5,450.5 Z"/></g>
<g><path style="opacity:1" fill="#d37b59" d="M 148.5,453.5 C 152.58,453.081 154.58,454.914 154.5,459C 152.943,466.398 152.11,473.898 152,481.5C 148.844,484.399 146.178,484.065 144,480.5C 142.046,473.514 142.046,466.514 144,459.5C 145.332,457.34 146.832,455.34 148.5,453.5 Z"/></g>
<g><path style="opacity:1" fill="#d37a58" d="M 268.5,493.5 C 265.192,494.026 263.026,492.693 262,489.5C 261.333,482.167 261.333,474.833 262,467.5C 264.527,462.616 267.527,462.283 271,466.5C 271.667,474.167 271.667,481.833 271,489.5C 270.338,490.984 269.504,492.317 268.5,493.5 Z"/></g>
<g><path style="opacity:0.997" fill="#d27957" d="M 240.5,495.5 C 238.716,495.107 237.05,494.441 235.5,493.5C 234.426,485.202 234.26,476.868 235,468.5C 238.785,464.353 242.119,464.687 245,469.5C 245.667,476.5 245.667,483.5 245,490.5C 243.975,492.687 242.475,494.354 240.5,495.5 Z"/></g>
</svg>
