<?xml version="1.0" encoding="UTF-8"?>
<!DOCTYPE svg PUBLIC "-//W3C//DTD SVG 1.1//EN" "http://www.w3.org/Graphics/SVG/1.1/DTD/svg11.dtd">
<svg xmlns="http://www.w3.org/2000/svg" version="1.1" width="2048px" height="1575px" style="shape-rendering:geometricPrecision; text-rendering:geometricPrecision; image-rendering:optimizeQuality; fill-rule:evenodd; clip-rule:evenodd" xmlns:xlink="http://www.w3.org/1999/xlink">
<g><path style="opacity:0.994" fill="#3b88c3" d="M 670.5,-0.5 C 683.167,-0.5 695.833,-0.5 708.5,-0.5C 782.594,7.44011 854.261,25.2734 923.5,53C 1085.44,119.029 1225.27,216.195 1343,344.5C 1396.15,404.449 1440.65,470.115 1476.5,541.5C 1475.45,541.649 1474.45,541.483 1473.5,541C 1326.41,432.14 1164.74,351.806 988.5,300C 892.033,273.077 793.699,260.743 693.5,263C 631.604,265.487 570.604,273.987 510.5,288.5C 518.034,218.158 538.2,151.825 571,89.5C 585.241,63.9511 603.074,41.4511 624.5,22C 638.209,11.1107 653.542,3.61073 670.5,-0.5 Z"/></g>
<g><path style="opacity:0.999" fill="#54abed" d="M 1476.5,541.5 C 1493.69,553.991 1510.69,566.991 1527.5,580.5C 1528.54,583.056 1530.21,585.223 1532.5,587C 1591,633.5 1643.5,686 1690,744.5C 1712.59,773.334 1730.25,805 1743,839.5C 1748.6,857.503 1749.94,875.837 1747,894.5C 1740.11,922.433 1729.44,948.766 1715,973.5C 1687.59,1018.26 1655.59,1059.59 1619,1097.5C 1583.26,1134.58 1545.43,1169.08 1505.5,1201C 1504.18,1201.82 1503.51,1202.98 1503.5,1204.5C 1405.1,1283.2 1298.1,1347.87 1182.5,1398.5C 1180.07,1398.52 1177.74,1399.02 1175.5,1400C 1085.01,1438.93 991.007,1465.43 893.5,1479.5C 857.206,1484.66 820.706,1487.33 784,1487.5C 610.638,1485.1 445.138,1448.93 287.5,1379C 243.54,1358.37 202.206,1333.7 163.5,1305C 135.605,1283.44 111.439,1258.27 91,1229.5C 81.2732,1214.58 73.9399,1198.58 69,1181.5C 62.82,1158.03 69.32,1139.2 88.5,1125C 92.1667,1123.33 95.8333,1121.67 99.5,1120C 106.869,1119.27 114.202,1119.44 121.5,1120.5C 126.794,1123.04 132.461,1124.7 138.5,1125.5C 142.216,1127.41 146.216,1128.74 150.5,1129.5C 171.634,1135.93 192.967,1141.59 214.5,1146.5C 216.515,1147.92 218.848,1148.59 221.5,1148.5C 239.666,1152.54 257.666,1157.54 275.5,1163.5C 278.215,1165.07 281.215,1166.07 284.5,1166.5C 291.667,1169.11 299,1171.11 306.5,1172.5C 310.216,1174.41 314.216,1175.74 318.5,1176.5C 321.789,1177.37 325.123,1178.04 328.5,1178.5C 330.515,1179.92 332.848,1180.59 335.5,1180.5C 342.167,1181.83 348.833,1183.17 355.5,1184.5C 359.919,1185.97 364.586,1186.64 369.5,1186.5C 378.226,1186.84 386.893,1186.34 395.5,1185C 408.598,1180.64 413.098,1171.81 409,1158.5C 402.281,1148.78 394.448,1139.94 385.5,1132C 351.743,1104.62 316.743,1078.96 280.5,1055C 220.784,1016.14 160.451,978.311 99.5,941.5C 65.2335,920.69 31.9001,898.357 -0.5,874.5C -0.5,863.5 -0.5,852.5 -0.5,841.5C 5.90952,775.104 23.4095,711.771 52,651.5C 104.357,544.413 179.524,457.579 277.5,391C 348.776,343.385 426.443,309.219 510.5,288.5C 570.604,273.987 631.604,265.487 693.5,263C 793.699,260.743 892.033,273.077 988.5,300C 1164.74,351.806 1326.41,432.14 1473.5,541C 1474.45,541.483 1475.45,541.649 1476.5,541.5 Z"/></g>
<g><path style="opacity:0.995" fill="#3a88c3" d="M 2047.5,368.5 C 2047.5,377.5 2047.5,386.5 2047.5,395.5C 2045.41,401.632 2043.57,407.966 2042,414.5C 2039.08,421.928 2035.42,428.928 2031,435.5C 2017.68,451.819 2004.01,467.819 1990,483.5C 1974.71,506.418 1960.71,530.084 1948,554.5C 1901.82,652.701 1866.48,755.035 1842,861.5C 1840.46,872.183 1838.8,882.85 1837,893.5C 1836.83,897.667 1836.67,901.833 1836.5,906C 1837.49,923.915 1839.32,941.749 1842,959.5C 1865.49,1077.72 1909.83,1187.06 1975,1287.5C 1980.38,1293.88 1985.38,1300.55 1990,1307.5C 2004.04,1322.54 2017.7,1337.87 2031,1353.5C 2038.43,1365.36 2043.93,1378.03 2047.5,1391.5C 2047.5,1400.5 2047.5,1409.5 2047.5,1418.5C 2044.88,1428.25 2041.05,1437.59 2036,1446.5C 2012.08,1477.39 1980.58,1495.22 1941.5,1500C 1928.5,1500.67 1915.5,1500.67 1902.5,1500C 1874.61,1496.26 1847.61,1489.26 1821.5,1479C 1789.53,1465.85 1759.2,1449.85 1730.5,1431C 1640.2,1369.87 1564.54,1294.37 1503.5,1204.5C 1503.51,1202.98 1504.18,1201.82 1505.5,1201C 1545.43,1169.08 1583.26,1134.58 1619,1097.5C 1655.59,1059.59 1687.59,1018.26 1715,973.5C 1729.44,948.766 1740.11,922.433 1747,894.5C 1749.94,875.837 1748.6,857.503 1743,839.5C 1730.25,805 1712.59,773.334 1690,744.5C 1643.5,686 1591,633.5 1532.5,587C 1530.21,585.223 1528.54,583.056 1527.5,580.5C 1591.42,486.732 1669.42,405.899 1761.5,338C 1793.38,315.89 1827.72,298.223 1864.5,285C 1876.27,281.392 1888.27,278.726 1900.5,277C 1947.69,270.896 1988.02,284.396 2021.5,317.5C 2034.45,332.313 2043.12,349.313 2047.5,368.5 Z"/></g>
<g><path style="opacity:1" fill="#000000" d="M 416.5,502.5 C 418.515,503.924 420.848,504.59 423.5,504.5C 463.965,517.297 490.298,543.964 502.5,584.5C 502.41,587.152 503.076,589.485 504.5,591.5C 505.892,597.748 506.558,604.082 506.5,610.5C 506.77,619.582 506.103,628.582 504.5,637.5C 491.275,689.665 457.942,720.165 404.5,729C 391.354,730.03 378.354,729.197 365.5,726.5C 363.485,725.076 361.152,724.41 358.5,724.5C 321.163,711.495 295.829,686.495 282.5,649.5C 282.59,646.848 281.924,644.515 280.5,642.5C 279.098,637.616 278.431,632.616 278.5,627.5C 278.365,615.815 278.698,604.148 279.5,592.5C 280.043,589.782 280.709,587.115 281.5,584.5C 282.924,582.485 283.59,580.152 283.5,577.5C 298.634,536.863 327.301,511.696 369.5,502C 385.204,499.902 400.871,500.068 416.5,502.5 Z"/></g>
<g><path style="opacity:1" fill="#31648a" d="M 416.5,502.5 C 419.152,502.41 421.485,503.076 423.5,504.5C 420.848,504.59 418.515,503.924 416.5,502.5 Z"/></g>
<g><path style="opacity:1" fill="#226699" d="M 856.5,543.5 C 883.921,542.951 904.088,554.618 917,578.5C 956.274,644.973 982.94,716.306 997,792.5C 1006.73,858.787 1005.07,924.787 992,990.5C 972.849,1073.17 942.183,1151.17 900,1224.5C 879.863,1245.41 856.363,1250.24 829.5,1239C 803.613,1222.67 794.113,1199.5 801,1169.5C 825.211,1124.08 845.878,1077.08 863,1028.5C 879.678,978.598 888.178,927.265 888.5,874.5C 887.97,816.014 876.137,760.014 853,706.5C 840.214,677.593 825.881,649.593 810,622.5C 799.7,587.713 810.867,562.546 843.5,547C 847.999,545.961 852.332,544.794 856.5,543.5 Z"/></g>
<g><path style="opacity:1" fill="#1c384e" d="M 283.5,577.5 C 283.59,580.152 282.924,582.485 281.5,584.5C 281.41,581.848 282.076,579.515 283.5,577.5 Z"/></g>
<g><path style="opacity:1" fill="#1e3c53" d="M 502.5,584.5 C 503.924,586.515 504.59,588.848 504.5,591.5C 503.076,589.485 502.41,587.152 502.5,584.5 Z"/></g>
<g><path style="opacity:1" fill="#152736" d="M 279.5,592.5 C 278.698,604.148 278.365,615.815 278.5,627.5C 277.834,622.678 277.501,617.678 277.5,612.5C 277.276,605.589 277.942,598.922 279.5,592.5 Z"/></g>
<g><path style="opacity:1" fill="#4389be" d="M 506.5,610.5 C 507.653,616.653 507.82,622.986 507,629.5C 506.902,632.522 506.068,635.189 504.5,637.5C 506.103,628.582 506.77,619.582 506.5,610.5 Z"/></g>
<g><path style="opacity:1" fill="#356b94" d="M 280.5,642.5 C 281.924,644.515 282.59,646.848 282.5,649.5C 281.076,647.485 280.41,645.152 280.5,642.5 Z"/></g>
<g><path style="opacity:1" fill="#1f3f58" d="M 358.5,724.5 C 361.152,724.41 363.485,725.076 365.5,726.5C 362.848,726.59 360.515,725.924 358.5,724.5 Z"/></g>
<g><path style="opacity:0.995" fill="#000000" d="M 99.5,941.5 C 160.451,978.311 220.784,1016.14 280.5,1055C 316.743,1078.96 351.743,1104.62 385.5,1132C 394.448,1139.94 402.281,1148.78 409,1158.5C 413.098,1171.81 408.598,1180.64 395.5,1185C 386.893,1186.34 378.226,1186.84 369.5,1186.5C 365.081,1185.03 360.414,1184.36 355.5,1184.5C 348.833,1183.17 342.167,1181.83 335.5,1180.5C 333.485,1179.08 331.152,1178.41 328.5,1178.5C 325.123,1178.04 321.789,1177.37 318.5,1176.5C 314.915,1174.19 310.915,1172.86 306.5,1172.5C 299,1171.11 291.667,1169.11 284.5,1166.5C 281.916,1164.53 278.916,1163.53 275.5,1163.5C 257.666,1157.54 239.666,1152.54 221.5,1148.5C 219.485,1147.08 217.152,1146.41 214.5,1146.5C 192.967,1141.59 171.634,1135.93 150.5,1129.5C 146.915,1127.19 142.915,1125.86 138.5,1125.5C 132.461,1124.7 126.794,1123.04 121.5,1120.5C 134.952,1058.09 127.619,998.422 99.5,941.5 Z"/></g>
<g><path style="opacity:1" fill="#1a3144" d="M 138.5,1125.5 C 142.915,1125.86 146.915,1127.19 150.5,1129.5C 146.216,1128.74 142.216,1127.41 138.5,1125.5 Z"/></g>
<g><path style="opacity:1" fill="#1c384e" d="M 214.5,1146.5 C 217.152,1146.41 219.485,1147.08 221.5,1148.5C 218.848,1148.59 216.515,1147.92 214.5,1146.5 Z"/></g>
<g><path style="opacity:1" fill="#234762" d="M 275.5,1163.5 C 278.916,1163.53 281.916,1164.53 284.5,1166.5C 281.215,1166.07 278.215,1165.07 275.5,1163.5 Z"/></g>
<g><path style="opacity:1" fill="#1a3345" d="M 306.5,1172.5 C 310.915,1172.86 314.915,1174.19 318.5,1176.5C 314.216,1175.74 310.216,1174.41 306.5,1172.5 Z"/></g>
<g><path style="opacity:1" fill="#1f3f58" d="M 328.5,1178.5 C 331.152,1178.41 333.485,1179.08 335.5,1180.5C 332.848,1180.59 330.515,1179.92 328.5,1178.5 Z"/></g>
<g><path style="opacity:1" fill="#264c6a" d="M 355.5,1184.5 C 360.414,1184.36 365.081,1185.03 369.5,1186.5C 364.586,1186.64 359.919,1185.97 355.5,1184.5 Z"/></g>
<g><path style="opacity:0.988" fill="#3b88c3" d="M 1182.5,1398.5 C 1208.56,1432.75 1233.73,1467.75 1258,1503.5C 1262.38,1511.32 1266.38,1519.32 1270,1527.5C 1272.33,1533.81 1273.83,1540.31 1274.5,1547C 1274.11,1557.11 1269.45,1564.45 1260.5,1569C 1253.79,1571.17 1247.13,1573.01 1240.5,1574.5C 1224.83,1574.5 1209.17,1574.5 1193.5,1574.5C 1089.1,1565.93 991.434,1536.09 900.5,1485C 897.98,1483.3 895.647,1481.47 893.5,1479.5C 991.007,1465.43 1085.01,1438.93 1175.5,1400C 1177.74,1399.02 1180.07,1398.52 1182.5,1398.5 Z"/></g>
</svg>
