<?xml version="1.0" encoding="UTF-8"?>
<svg version="1.1" xmlns="http://www.w3.org/2000/svg" width="128" height="128">
<path d="M0 0 C7.57400906 5.53841151 11.74894271 14.45251745 13.3125 23.5625 C14.36663244 34.50725778 12.63952914 44.25261715 7.5 54 C1.67775986 60.82033845 -4.12066072 64.92894583 -13.23828125 65.80859375 C-20.33013357 65.99153986 -26.80091016 65.19867368 -32.2734375 60.23828125 C-38.77400301 52.5345724 -41.21927967 42.49258497 -41 32.625 C-39.69634965 19.84922659 -34.79139495 9.15907762 -24.8203125 1.0078125 C-16.82630004 -4.40937543 -8.331463 -4.91235339 0 0 Z M-13.6875 27.5625 C-14.07972105 28.97449578 -14.45061059 30.39242764 -14.8125 31.8125 C-15.02132812 32.60140625 -15.23015625 33.3903125 -15.4453125 34.203125 C-15.73064411 36.9828071 -15.13727894 38.22137549 -13.6875 40.5625 C-11.55163322 37.35869983 -11.45617825 36.54310033 -11.5625 32.875 C-11.58054687 32.06675781 -11.59859375 31.25851563 -11.6171875 30.42578125 C-11.64039063 29.81089844 -11.66359375 29.19601563 -11.6875 28.5625 C-12.3475 28.2325 -13.0075 27.9025 -13.6875 27.5625 Z " fill="#FCFCFC" transform="translate(76.6875,39.4375)"/>
<path d="M0 0 C7.57400906 5.53841151 11.74894271 14.45251745 13.3125 23.5625 C14.36663244 34.50725778 12.63952914 44.25261715 7.5 54 C1.67775986 60.82033845 -4.12066072 64.92894583 -13.23828125 65.80859375 C-20.33013357 65.99153986 -26.80091016 65.19867368 -32.2734375 60.23828125 C-38.77400301 52.5345724 -41.21927967 42.49258497 -41 32.625 C-39.69634965 19.84922659 -34.79139495 9.15907762 -24.8203125 1.0078125 C-16.82630004 -4.40937543 -8.331463 -4.91235339 0 0 Z M-28 12.25 C-34.63017276 22.01980888 -36.37561675 32.65443774 -34.1796875 44.2421875 C-32.42720211 50.22481004 -29.52254903 54.54571639 -24.38671875 58.19921875 C-19.14563555 60.84630708 -12.9396787 60.42289337 -7.33984375 58.94140625 C-1.09499383 56.23410137 2.5539292 51.38490295 5.34765625 45.3125 C8.52322958 36.33227402 8.87835772 25.52304378 5.36328125 16.59375 C2.16060578 10.40270447 -1.89168049 4.82777317 -8.6875 2.5625 C-16.99238502 1.3998161 -22.93777626 6.05005426 -28 12.25 Z " fill="#9A9A9A" transform="translate(76.6875,39.4375)"/>
<path d="M0 0 C3.62413215 3.62413215 4.28474382 6.41044176 4.4375 11.5 C4.23279945 17.07240392 3.00832687 20.99167313 -1 25 C-4.4375 25.4375 -4.4375 25.4375 -8 25 C-11.55318512 20.47255444 -11.49333198 16.50814396 -11.36328125 10.95703125 C-10.84181159 6.71238039 -9.56570741 4.39578922 -7 1 C-4.34665389 -0.32667306 -2.94124405 -0.49020734 0 0 Z M-4 7 C-4.39222105 8.41199578 -4.76311059 9.82992764 -5.125 11.25 C-5.33382812 12.03890625 -5.54265625 12.8278125 -5.7578125 13.640625 C-6.04314411 16.4203071 -5.44977894 17.65887549 -4 20 C-1.86413322 16.79619983 -1.76867825 15.98060033 -1.875 12.3125 C-1.89304687 11.50425781 -1.91109375 10.69601563 -1.9296875 9.86328125 C-1.95289062 9.24839844 -1.97609375 8.63351563 -2 8 C-2.66 7.67 -3.32 7.34 -4 7 Z " fill="#9B9B9B" transform="translate(67,60)"/>
</svg>
