<?xml version="1.0" encoding="UTF-8"?>
<svg version="1.1" xmlns="http://www.w3.org/2000/svg" width="128" height="128">
<path d="M0 0 C1.38638672 -0.00193359 1.38638672 -0.00193359 2.80078125 -0.00390625 C3.76371094 -0.00003906 4.72664063 0.00382812 5.71875 0.0078125 C7.16314453 0.00201172 7.16314453 0.00201172 8.63671875 -0.00390625 C9.56097656 -0.00261719 10.48523438 -0.00132813 11.4375 0 C12.7049707 0.00169189 12.7049707 0.00169189 13.99804688 0.00341797 C16.21875 0.1328125 16.21875 0.1328125 19.21875 1.1328125 C21.53373064 4.60528346 21.4318999 5.76568185 21.30981445 9.84179688 C21.27930496 11.01311157 21.24879547 12.18442627 21.21736145 13.39123535 C21.17270248 14.65689331 21.12804352 15.92255127 21.08203125 17.2265625 C21.04192429 18.52476929 21.00181732 19.82297607 20.960495 21.16052246 C20.87405483 23.90792124 20.77961882 26.65490666 20.67993164 29.40185547 C20.55308405 32.92215574 20.44890782 36.44270969 20.35107136 39.96392059 C20.25404666 43.32278441 20.1356562 46.68080464 20.01953125 50.0390625 C19.98499344 51.30472046 19.95045563 52.57037842 19.91487122 53.87438965 C19.84546577 55.63136169 19.84546577 55.63136169 19.7746582 57.42382812 C19.73975784 58.45624634 19.70485748 59.48866455 19.66889954 60.55236816 C19.16009762 63.46903233 18.5672906 64.39105652 16.21875 66.1328125 C11.71530289 67.55669651 6.9029858 67.35239538 2.21875 67.3828125 C1.4246875 67.4034375 0.630625 67.4240625 -0.1875 67.4453125 C-4.91372059 67.47682064 -7.90204512 67.13313502 -11.78125 64.1328125 C-12.78125 63.1328125 -12.78125 63.1328125 -12.9375 59.7265625 C-12.87368812 54.6216119 -12.09299347 49.66415939 -11.28125 44.6328125 C-11.13816406 43.715 -10.99507812 42.7971875 -10.84765625 41.8515625 C-10.4975795 39.61107131 -10.1420151 37.37160303 -9.78125 35.1328125 C-10.49780762 35.0100293 -11.21436523 34.88724609 -11.95263672 34.76074219 C-21.89338538 33.02067712 -21.89338538 33.02067712 -25.78125 29.1328125 C-26.24354471 26.19331594 -26.34700209 24.05075463 -24.74902344 21.45800781 C-23.27945321 19.65817374 -21.74470571 17.95361206 -20.15625 16.2578125 C-19.04881531 15.02911282 -17.94332809 13.79865494 -16.83984375 12.56640625 C-16.30858887 11.97843262 -15.77733398 11.39045898 -15.22998047 10.78466797 C-12.93270583 8.16529483 -10.93054406 5.36028575 -8.96484375 2.48828125 C-6.56092068 -0.26472636 -3.38718925 0.00452142 0 0 Z " fill="#FDFDFD" transform="translate(61.78125,35.8671875)"/>
<path d="M0 0 C1.38638672 -0.00193359 1.38638672 -0.00193359 2.80078125 -0.00390625 C3.76371094 -0.00003906 4.72664063 0.00382812 5.71875 0.0078125 C7.16314453 0.00201172 7.16314453 0.00201172 8.63671875 -0.00390625 C9.56097656 -0.00261719 10.48523438 -0.00132813 11.4375 0 C12.7049707 0.00169189 12.7049707 0.00169189 13.99804688 0.00341797 C16.21875 0.1328125 16.21875 0.1328125 19.21875 1.1328125 C21.53373064 4.60528346 21.4318999 5.76568185 21.30981445 9.84179688 C21.27930496 11.01311157 21.24879547 12.18442627 21.21736145 13.39123535 C21.17270248 14.65689331 21.12804352 15.92255127 21.08203125 17.2265625 C21.04192429 18.52476929 21.00181732 19.82297607 20.960495 21.16052246 C20.87405483 23.90792124 20.77961882 26.65490666 20.67993164 29.40185547 C20.55308405 32.92215574 20.44890782 36.44270969 20.35107136 39.96392059 C20.25404666 43.32278441 20.1356562 46.68080464 20.01953125 50.0390625 C19.98499344 51.30472046 19.95045563 52.57037842 19.91487122 53.87438965 C19.84546577 55.63136169 19.84546577 55.63136169 19.7746582 57.42382812 C19.73975784 58.45624634 19.70485748 59.48866455 19.66889954 60.55236816 C19.16009762 63.46903233 18.5672906 64.39105652 16.21875 66.1328125 C11.71530289 67.55669651 6.9029858 67.35239538 2.21875 67.3828125 C1.4246875 67.4034375 0.630625 67.4240625 -0.1875 67.4453125 C-4.91372059 67.47682064 -7.90204512 67.13313502 -11.78125 64.1328125 C-12.78125 63.1328125 -12.78125 63.1328125 -12.9375 59.7265625 C-12.87368812 54.6216119 -12.09299347 49.66415939 -11.28125 44.6328125 C-11.13816406 43.715 -10.99507812 42.7971875 -10.84765625 41.8515625 C-10.4975795 39.61107131 -10.1420151 37.37160303 -9.78125 35.1328125 C-10.49780762 35.0100293 -11.21436523 34.88724609 -11.95263672 34.76074219 C-21.89338538 33.02067712 -21.89338538 33.02067712 -25.78125 29.1328125 C-26.24354471 26.19331594 -26.34700209 24.05075463 -24.74902344 21.45800781 C-23.27945321 19.65817374 -21.74470571 17.95361206 -20.15625 16.2578125 C-19.04881531 15.02911282 -17.94332809 13.79865494 -16.83984375 12.56640625 C-16.30858887 11.97843262 -15.77733398 11.39045898 -15.22998047 10.78466797 C-12.93270583 8.16529483 -10.93054406 5.36028575 -8.96484375 2.48828125 C-6.56092068 -0.26472636 -3.38718925 0.00452142 0 0 Z M-15.78125 20.1328125 C-16.55121101 21.2879107 -17.32317416 22.44167826 -18.09765625 23.59375 C-18.65324219 24.43164062 -19.20882812 25.26953125 -19.78125 26.1328125 C-15.70558023 28.84992568 -12.4089637 29.18568919 -7.60546875 29.15625 C-6.34347656 29.14851563 -5.08148438 29.14078125 -3.78125 29.1328125 C-3.91402344 30.36515625 -4.04679687 31.5975 -4.18359375 32.8671875 C-5.38185783 44.05690572 -5.38185783 44.05690572 -6.46875 55.2578125 C-6.55511719 56.18851563 -6.64148437 57.11921875 -6.73046875 58.078125 C-6.74722656 58.75617188 -6.76398437 59.43421875 -6.78125 60.1328125 C-4.97865514 61.93540736 -2.54844425 61.26515081 -0.15234375 61.26953125 C0.58886719 61.26566406 1.33007812 61.26179688 2.09375 61.2578125 C2.82722656 61.26167969 3.56070313 61.26554687 4.31640625 61.26953125 C7.54308238 61.26365388 10.13718421 61.1600011 13.21875 60.1328125 C13.25633423 58.87174683 13.25633423 58.87174683 13.29467773 57.58520508 C13.39106953 54.39990446 13.49020411 51.21470304 13.59106445 48.02954102 C13.63379253 46.66336286 13.67549606 45.29715219 13.71606445 43.9309082 C13.95399649 35.94402905 14.31445633 27.99780779 15.01367188 20.03710938 C15.34091459 15.40272915 15.30248932 10.77569262 15.21875 6.1328125 C-0.5628295 4.05281353 -7.24565625 6.70367181 -15.78125 20.1328125 Z " fill="#9B9B9B" transform="translate(61.78125,35.8671875)"/>
</svg>
