<?xml version="1.0" encoding="UTF-8"?>
<svg version="1.1" xmlns="http://www.w3.org/2000/svg" width="128" height="128">
<path d="M0 0 C0.7425 -0.020625 1.485 -0.04125 2.25 -0.0625 C9.35651654 -0.11272273 14.43908911 2.33703179 19.625 7.25 C23.91192843 13.277594 25.22512453 18.92848079 24.625 26.25 C23.12589852 30.91781834 21.34686445 35.16720333 18.625 39.25 C19.388125 39.1675 20.15125 39.085 20.9375 39 C23.625 39.25 23.625 39.25 25.30078125 40.77734375 C27.14957494 44.22951604 26.82107801 47.28285347 26.5 51.0625 C26.46390625 51.74892578 26.4278125 52.43535156 26.390625 53.14257812 C26.03710399 58.05931112 25.23457976 62.02161454 22.625 66.25 C19.48828125 67.1875 19.48828125 67.1875 15.625 67.25 C14.60672119 67.26933594 14.60672119 67.26933594 13.56787109 67.2890625 C11.31439929 67.31362908 9.06577811 67.28646005 6.8125 67.25 C1.69384215 67.18743582 -3.37098245 67.20345084 -8.4765625 67.609375 C-9.28891357 67.67253906 -10.10126465 67.73570313 -10.93823242 67.80078125 C-12.4895161 67.93094552 -14.03945475 68.07864875 -15.5871582 68.24609375 C-18.93726989 68.52286718 -20.90819266 68.55434008 -23.765625 66.69140625 C-25.77739927 63.63956421 -26.46212478 61.01782798 -27.1875 57.4375 C-27.56841797 55.66439453 -27.56841797 55.66439453 -27.95703125 53.85546875 C-28.4100187 49.94792279 -28.40252022 47.05362747 -27.375 43.25 C-25.08984375 41.03515625 -25.08984375 41.03515625 -22.3125 39.3125 C-20.93384766 38.43271484 -20.93384766 38.43271484 -19.52734375 37.53515625 C-18.46193359 36.89900391 -18.46193359 36.89900391 -17.375 36.25 C-17.98988281 36.14042969 -18.60476562 36.03085938 -19.23828125 35.91796875 C-20.45064453 35.68013672 -20.45064453 35.68013672 -21.6875 35.4375 C-22.48800781 35.28667969 -23.28851563 35.13585937 -24.11328125 34.98046875 C-26.66539274 34.15621167 -27.72816788 33.34274359 -29.375 31.25 C-31.23354642 25.67436074 -30.69768643 20.6460094 -28.4765625 15.30078125 C-24.80452289 8.4645373 -19.64074448 3.90162221 -12.375 1.25 C-8.26487475 0.08691859 -4.24603118 0.02918234 0 0 Z " fill="#FCFCFC" transform="translate(66.375,36.75)"/>
<path d="M0 0 C0.7425 -0.020625 1.485 -0.04125 2.25 -0.0625 C9.35651654 -0.11272273 14.43908911 2.33703179 19.625 7.25 C23.91192843 13.277594 25.22512453 18.92848079 24.625 26.25 C23.12589852 30.91781834 21.34686445 35.16720333 18.625 39.25 C19.388125 39.1675 20.15125 39.085 20.9375 39 C23.625 39.25 23.625 39.25 25.30078125 40.77734375 C27.14957494 44.22951604 26.82107801 47.28285347 26.5 51.0625 C26.46390625 51.74892578 26.4278125 52.43535156 26.390625 53.14257812 C26.03710399 58.05931112 25.23457976 62.02161454 22.625 66.25 C19.48828125 67.1875 19.48828125 67.1875 15.625 67.25 C14.60672119 67.26933594 14.60672119 67.26933594 13.56787109 67.2890625 C11.31439929 67.31362908 9.06577811 67.28646005 6.8125 67.25 C1.69384215 67.18743582 -3.37098245 67.20345084 -8.4765625 67.609375 C-9.28891357 67.67253906 -10.10126465 67.73570313 -10.93823242 67.80078125 C-12.4895161 67.93094552 -14.03945475 68.07864875 -15.5871582 68.24609375 C-18.93726989 68.52286718 -20.90819266 68.55434008 -23.765625 66.69140625 C-25.77739927 63.63956421 -26.46212478 61.01782798 -27.1875 57.4375 C-27.56841797 55.66439453 -27.56841797 55.66439453 -27.95703125 53.85546875 C-28.4100187 49.94792279 -28.40252022 47.05362747 -27.375 43.25 C-25.08984375 41.03515625 -25.08984375 41.03515625 -22.3125 39.3125 C-20.93384766 38.43271484 -20.93384766 38.43271484 -19.52734375 37.53515625 C-18.46193359 36.89900391 -18.46193359 36.89900391 -17.375 36.25 C-17.98988281 36.14042969 -18.60476562 36.03085938 -19.23828125 35.91796875 C-20.45064453 35.68013672 -20.45064453 35.68013672 -21.6875 35.4375 C-22.48800781 35.28667969 -23.28851563 35.13585937 -24.11328125 34.98046875 C-26.66539274 34.15621167 -27.72816788 33.34274359 -29.375 31.25 C-31.23354642 25.67436074 -30.69768643 20.6460094 -28.4765625 15.30078125 C-24.80452289 8.4645373 -19.64074448 3.90162221 -12.375 1.25 C-8.26487475 0.08691859 -4.24603118 0.02918234 0 0 Z M-20.96484375 14.4921875 C-24.75044342 19.21107906 -24.375 21.96685622 -24.375 28.25 C-19.095 28.91 -13.815 29.57 -8.375 30.25 C-8.045 27.94 -7.715 25.63 -7.375 23.25 C-6.375 22.25 -6.375 22.25 -3.8125 22.1875 C-3.008125 22.208125 -2.20375 22.22875 -1.375 22.25 C-0.97867966 26.41136358 -1.32685177 29.19539332 -3.84765625 32.61328125 C-9.186692 38.33465204 -15.97450806 42.79748387 -22.375 47.25 C-22.25937394 48.64664108 -22.132008 50.04231199 -22 51.4375 C-21.93039063 52.21480469 -21.86078125 52.99210937 -21.7890625 53.79296875 C-21.3800813 56.74947078 -21.3800813 56.74947078 -19.375 61.25 C-6.835 61.25 5.705 61.25 18.625 61.25 C19.285 55.97 19.945 50.69 20.625 45.25 C15.345 44.92 10.065 44.59 4.625 44.25 C5.65625 43.445625 6.6875 42.64125 7.75 41.8125 C14.05437252 36.41790481 18.15556078 30.22605575 18.9375 21.9375 C18.43012291 15.95045035 16.05299885 12.69059884 11.96875 8.5703125 C8.47936362 5.75601644 5.11445359 5.55229619 0.75 5.75 C0.04109619 5.7698999 -0.66780762 5.7897998 -1.39819336 5.81030273 C-9.86037958 6.17746169 -15.18059149 8.19407228 -20.96484375 14.4921875 Z " fill="#9A9A9A" transform="translate(66.375,36.75)"/>
</svg>
