<?xml version="1.0" encoding="UTF-8"?>
<svg version="1.1" xmlns="http://www.w3.org/2000/svg" width="128" height="128">
<path d="M0 0 C4.20805991 4.10285841 5.83584045 7.99725351 6.3125 13.8125 C6.23937245 17.68825992 5.06929456 20.65271606 3.609375 24.19921875 C2.72684972 26.80719411 3.15658182 28.40486715 4 31 C6.3843816 39.36312949 7.21904701 47.04006464 3 55 C-2.02726312 60.86514031 -8.03113083 64.54676494 -15.796875 65.43359375 C-25.68001284 65.4433597 -35.25389038 65.17169438 -42.75 57.8125 C-44.86508806 54.96385539 -45.35094372 52.96935703 -45.125 49.4375 C-44.13018368 44.26973735 -41.82856823 40.66233476 -37.9375 37.125 C-36 36 -36 36 -33 36 C-33.2371032 27.17001425 -33.2371032 27.17001425 -38 20 C-40.90917075 15.25912915 -42.31895646 10.56630464 -42 5 C-39.48919513 0.187624 -36.00217642 -1.24485038 -31 -3 C-21.09873497 -5.46669146 -8.83703137 -5.53212533 0 0 Z " fill="#FCFCFC" transform="translate(81,40)"/>
<path d="M0 0 C4.20805991 4.10285841 5.83584045 7.99725351 6.3125 13.8125 C6.23937245 17.68825992 5.06929456 20.65271606 3.609375 24.19921875 C2.72684972 26.80719411 3.15658182 28.40486715 4 31 C6.3843816 39.36312949 7.21904701 47.04006464 3 55 C-2.02726312 60.86514031 -8.03113083 64.54676494 -15.796875 65.43359375 C-25.68001284 65.4433597 -35.25389038 65.17169438 -42.75 57.8125 C-44.86508806 54.96385539 -45.35094372 52.96935703 -45.125 49.4375 C-44.13018368 44.26973735 -41.82856823 40.66233476 -37.9375 37.125 C-36 36 -36 36 -33 36 C-33.2371032 27.17001425 -33.2371032 27.17001425 -38 20 C-40.90917075 15.25912915 -42.31895646 10.56630464 -42 5 C-39.48919513 0.187624 -36.00217642 -1.24485038 -31 -3 C-21.09873497 -5.46669146 -8.83703137 -5.53212533 0 0 Z M-36 6 C-35.54996653 11.62541841 -34.31558515 14.61487125 -31 19 C-30.29875 18.67 -29.5975 18.34 -28.875 18 C-25.73996884 16.90955438 -23.29436818 16.84677357 -20 17 C-20.125 19.3125 -20.125 19.3125 -21 22 C-24.0625 23.8125 -24.0625 23.8125 -27 25 C-27 28.3 -27 31.6 -27 35 C-25.535625 35.309375 -24.07125 35.61875 -22.5625 35.9375 C-18.125 36.875 -18.125 36.875 -17 38 C-16.8125 40.9375 -16.8125 40.9375 -17 44 C-19 46 -19 46 -21.0234375 46.08203125 C-28.81050657 45.18949343 -28.81050657 45.18949343 -32 42 C-34.46800047 43.15173355 -36.04783565 44.04783565 -38 46 C-39.08916154 49.37350049 -39.08916154 49.37350049 -39 53 C-34.91201974 57.90557632 -28.43583519 59.4934024 -22.32421875 60.39453125 C-14.93284836 60.84407712 -9.5905156 58.87484663 -4 54 C-0.04349635 49.03136751 0.68781068 44.19029611 0 38 C-1.30096474 34.32519416 -1.30096474 34.32519416 -3 31 C-3.67276716 29.3357865 -4.34206835 27.67013418 -5 26 C-4.360625 25.236875 -3.72125 24.47375 -3.0625 23.6875 C0.15993818 19.4885654 0.44092288 16.20289002 0 11 C-1.87417675 6.93928372 -3.4158369 5.33065836 -7.3125 3.125 C-16.84050316 0.14526868 -27.45569 0.81321019 -36 6 Z " fill="#9A9A9A" transform="translate(81,40)"/>
</svg>
