<?xml version="1.0" encoding="UTF-8"?>
<svg version="1.1" xmlns="http://www.w3.org/2000/svg" width="128" height="128">
<path d="M0 0 C7.02974393 0.75538915 14.45943303 5.1428436 19.6875 9.75 C21.9375 12.8125 21.9375 12.8125 22.6875 16.1875 C21.67209248 21.095303 19.18588712 24.09038975 15.9375 27.8125 C16.865625 27.750625 17.79375 27.68875 18.75 27.625 C21.9375 27.8125 21.9375 27.8125 23.6171875 29.046875 C26.65894417 33.11454959 25.11635767 39.30756625 24.55078125 44.06640625 C23.28788952 52.46211048 23.28788952 52.46211048 20.9375 54.8125 C17.8125 54.9375 17.8125 54.9375 14.9375 54.8125 C14.98390625 55.57175781 15.0303125 56.33101562 15.078125 57.11328125 C15.13226563 58.60408203 15.13226563 58.60408203 15.1875 60.125 C15.23390625 61.11113281 15.2803125 62.09726563 15.328125 63.11328125 C14.9375 65.8125 14.9375 65.8125 13.234375 67.60546875 C8.93103033 69.86692029 4.73353689 69.96941303 -0.0625 70 C-1.5784375 70.02126953 -1.5784375 70.02126953 -3.125 70.04296875 C-7.30561708 69.71496821 -10.08583829 68.78916171 -13.0625 65.8125 C-13.2578125 63.2109375 -13.2578125 63.2109375 -13.1875 60.1875 C-13.16945313 59.18460938 -13.15140625 58.18171875 -13.1328125 57.1484375 C-13.10960937 56.37757812 -13.08640625 55.60671875 -13.0625 54.8125 C-13.74957031 54.85890625 -14.43664063 54.9053125 -15.14453125 54.953125 C-16.49611328 55.00726563 -16.49611328 55.00726563 -17.875 55.0625 C-18.76832031 55.10890625 -19.66164063 55.1553125 -20.58203125 55.203125 C-23.0625 54.8125 -23.0625 54.8125 -24.82421875 53.109375 C-27.20727936 48.68906069 -27.24310274 44.26283768 -27.3125 39.3125 C-27.33828125 38.2090625 -27.3640625 37.105625 -27.390625 35.96875 C-26.87359961 30.99545814 -24.58483875 28.05457889 -20.9375 24.8125 C-17.63366451 21.62065894 -15.01708233 18.09549397 -12.4375 14.3125 C-12.05013672 13.74764893 -11.66277344 13.18279785 -11.26367188 12.60083008 C-9.6581162 10.23896955 -8.09507469 7.86676165 -6.625 5.41796875 C-4.69174513 2.29550776 -3.60761726 0.95712295 0 0 Z " fill="#FCFCFC" transform="translate(63.0625,34.1875)"/>
<path d="M0 0 C7.02974393 0.75538915 14.45943303 5.1428436 19.6875 9.75 C21.9375 12.8125 21.9375 12.8125 22.6875 16.1875 C21.67209248 21.095303 19.18588712 24.09038975 15.9375 27.8125 C16.865625 27.750625 17.79375 27.68875 18.75 27.625 C21.9375 27.8125 21.9375 27.8125 23.6171875 29.046875 C26.65894417 33.11454959 25.11635767 39.30756625 24.55078125 44.06640625 C23.28788952 52.46211048 23.28788952 52.46211048 20.9375 54.8125 C17.8125 54.9375 17.8125 54.9375 14.9375 54.8125 C14.98390625 55.57175781 15.0303125 56.33101562 15.078125 57.11328125 C15.13226563 58.60408203 15.13226563 58.60408203 15.1875 60.125 C15.23390625 61.11113281 15.2803125 62.09726563 15.328125 63.11328125 C14.9375 65.8125 14.9375 65.8125 13.234375 67.60546875 C8.93103033 69.86692029 4.73353689 69.96941303 -0.0625 70 C-1.5784375 70.02126953 -1.5784375 70.02126953 -3.125 70.04296875 C-7.30561708 69.71496821 -10.08583829 68.78916171 -13.0625 65.8125 C-13.2578125 63.2109375 -13.2578125 63.2109375 -13.1875 60.1875 C-13.16945313 59.18460938 -13.15140625 58.18171875 -13.1328125 57.1484375 C-13.10960937 56.37757812 -13.08640625 55.60671875 -13.0625 54.8125 C-13.74957031 54.85890625 -14.43664063 54.9053125 -15.14453125 54.953125 C-16.49611328 55.00726563 -16.49611328 55.00726563 -17.875 55.0625 C-18.76832031 55.10890625 -19.66164063 55.1553125 -20.58203125 55.203125 C-23.0625 54.8125 -23.0625 54.8125 -24.82421875 53.109375 C-27.20727936 48.68906069 -27.24310274 44.26283768 -27.3125 39.3125 C-27.33828125 38.2090625 -27.3640625 37.105625 -27.390625 35.96875 C-26.87359961 30.99545814 -24.58483875 28.05457889 -20.9375 24.8125 C-17.63366451 21.62065894 -15.01708233 18.09549397 -12.4375 14.3125 C-12.05013672 13.74764893 -11.66277344 13.18279785 -11.26367188 12.60083008 C-9.6581162 10.23896955 -8.09507469 7.86676165 -6.625 5.41796875 C-4.69174513 2.29550776 -3.60761726 0.95712295 0 0 Z M-0.0625 6.8125 C-1.85163796 8.70853509 -1.85163796 8.70853509 -3.375 11.25 C-5.67922022 14.7333521 -8.00016211 18.13813009 -10.5625 21.4375 C-11.13097656 22.17742188 -11.69945312 22.91734375 -12.28515625 23.6796875 C-14.0625 25.8125 -14.0625 25.8125 -16.05859375 27.6953125 C-19.24977267 30.76449464 -20.89702626 32.65008116 -21.53515625 37.1328125 C-21.72884407 43.15487543 -21.72884407 43.15487543 -20.0625 48.8125 C-15.4425 48.8125 -10.8225 48.8125 -6.0625 48.8125 C-6.3925 50.1325 -6.7225 51.4525 -7.0625 52.8125 C-7.12938591 54.72811254 -7.14781719 56.64585592 -7.125 58.5625 C-7.11146484 60.03976563 -7.11146484 60.03976563 -7.09765625 61.546875 C-7.08605469 62.29453125 -7.07445312 63.0421875 -7.0625 63.8125 C-4.95840361 63.83951408 -2.85420822 63.85890223 -0.75 63.875 C0.42175781 63.88660156 1.59351563 63.89820313 2.80078125 63.91015625 C5.96809195 63.96149898 5.96809195 63.96149898 8.9375 62.8125 C8.9375 58.5225 8.9375 54.2325 8.9375 49.8125 C11.5775 49.8125 14.2175 49.8125 16.9375 49.8125 C18.82841945 44.25792412 19.11809336 39.68178404 18.9375 33.8125 C13.6575 33.4825 8.3775 33.1525 2.9375 32.8125 C3.96875 31.8225 5 30.8325 6.0625 29.8125 C11.62913489 24.29233462 11.62913489 24.29233462 15.9375 17.8125 C16.07180266 15.73668828 16.07180266 15.73668828 14.9375 13.8125 C12.55704951 11.79322838 12.55704951 11.79322838 9.625 10.0625 C8.65949219 9.44890625 7.69398437 8.8353125 6.69921875 8.203125 C3.85740564 6.51267438 3.85740564 6.51267438 -0.0625 6.8125 Z " fill="#9A9A9A" transform="translate(63.0625,34.1875)"/>
</svg>
