<?xml version="1.0" encoding="UTF-8"?>
<svg version="1.1" xmlns="http://www.w3.org/2000/svg" width="128" height="128">
<path d="M0 0 C0.886875 -0.02755371 1.77375 -0.05510742 2.6875 -0.08349609 C3.42742187 -0.11548096 4.16734375 -0.14746582 4.9296875 -0.18041992 C7.41228405 0.22036233 8.25863597 1.1962001 9.8125 3.12353516 C11.31134742 6.91009705 11.07034623 11.10101739 11.125 15.12353516 C11.15400391 15.83509766 11.18300781 16.54666016 11.21289062 17.27978516 C11.25712872 20.92772667 11.1207901 22.74189944 8.79296875 25.62353516 C8.13941406 26.11853516 7.48585937 26.61353516 6.8125 27.12353516 C7.451875 27.88666016 8.09125 28.64978516 8.75 29.43603516 C12.84740675 34.77508032 12.36519832 40.65696486 11.8125 47.12353516 C9.91132996 55.12906441 5.59289724 61.75249806 -1.1484375 66.50634766 C-8.4302473 70.37734692 -17.23470664 70.42655193 -25.09765625 68.35791016 C-30.74522224 66.21132399 -35.89159181 63.41944334 -40.1875 59.12353516 C-40.46456774 52.88291418 -38.35296291 46.88448365 -36.1875 41.12353516 C-36.8475 40.46353516 -37.5075 39.80353516 -38.1875 39.12353516 C-38.38720635 36.50568641 -38.46733823 33.99594608 -38.453125 31.37744141 C-38.45503845 30.61052475 -38.4569519 29.84360809 -38.45892334 29.05345154 C-38.46028524 27.43024366 -38.45658845 25.80702489 -38.44824219 24.18383789 C-38.43755703 21.69929485 -38.44812942 19.21547728 -38.4609375 16.73095703 C-38.45961562 15.15478356 -38.45705263 13.57861054 -38.453125 12.00244141 C-38.45717346 11.2586171 -38.46122192 10.51479279 -38.46539307 9.74842834 C-38.43132132 5.99746091 -38.32141803 4.3244122 -36.1875 1.12353516 C-33.08984375 0.69116211 -33.08984375 0.69116211 -29.125 0.61181641 C-28.41907715 0.5938652 -27.7131543 0.575914 -26.98583984 0.55741882 C-24.71978931 0.50320448 -22.45394254 0.46948552 -20.1875 0.43603516 C-18.69137641 0.40284912 -17.19528115 0.36835826 -15.69921875 0.33251953 C-12.82033428 0.26627654 -9.94192597 0.21597255 -7.0625 0.18066406 C-4.70781909 0.14594913 -2.35317018 0.09119976 0 0 Z " fill="#FCFCFC" transform="translate(76.1875,33.87646484375)"/>
<path d="M0 0 C0.886875 -0.02755371 1.77375 -0.05510742 2.6875 -0.08349609 C3.42742187 -0.11548096 4.16734375 -0.14746582 4.9296875 -0.18041992 C7.41228405 0.22036233 8.25863597 1.1962001 9.8125 3.12353516 C11.31134742 6.91009705 11.07034623 11.10101739 11.125 15.12353516 C11.15400391 15.83509766 11.18300781 16.54666016 11.21289062 17.27978516 C11.25712872 20.92772667 11.1207901 22.74189944 8.79296875 25.62353516 C8.13941406 26.11853516 7.48585937 26.61353516 6.8125 27.12353516 C7.451875 27.88666016 8.09125 28.64978516 8.75 29.43603516 C12.84740675 34.77508032 12.36519832 40.65696486 11.8125 47.12353516 C9.91132996 55.12906441 5.59289724 61.75249806 -1.1484375 66.50634766 C-8.4302473 70.37734692 -17.23470664 70.42655193 -25.09765625 68.35791016 C-30.74522224 66.21132399 -35.89159181 63.41944334 -40.1875 59.12353516 C-40.46456774 52.88291418 -38.35296291 46.88448365 -36.1875 41.12353516 C-36.8475 40.46353516 -37.5075 39.80353516 -38.1875 39.12353516 C-38.38720635 36.50568641 -38.46733823 33.99594608 -38.453125 31.37744141 C-38.45503845 30.61052475 -38.4569519 29.84360809 -38.45892334 29.05345154 C-38.46028524 27.43024366 -38.45658845 25.80702489 -38.44824219 24.18383789 C-38.43755703 21.69929485 -38.44812942 19.21547728 -38.4609375 16.73095703 C-38.45961562 15.15478356 -38.45705263 13.57861054 -38.453125 12.00244141 C-38.45717346 11.2586171 -38.46122192 10.51479279 -38.46539307 9.74842834 C-38.43132132 5.99746091 -38.32141803 4.3244122 -36.1875 1.12353516 C-33.08984375 0.69116211 -33.08984375 0.69116211 -29.125 0.61181641 C-28.41907715 0.5938652 -27.7131543 0.575914 -26.98583984 0.55741882 C-24.71978931 0.50320448 -22.45394254 0.46948552 -20.1875 0.43603516 C-18.69137641 0.40284912 -17.19528115 0.36835826 -15.69921875 0.33251953 C-12.82033428 0.26627654 -9.94192597 0.21597255 -7.0625 0.18066406 C-4.70781909 0.14594913 -2.35317018 0.09119976 0 0 Z M-32.1875 6.12353516 C-32.1875 15.69353516 -32.1875 25.26353516 -32.1875 35.12353516 C-25.2575 35.61853516 -25.2575 35.61853516 -18.1875 36.12353516 C-12.1875 39.12353516 -12.1875 39.12353516 -11.3125 41.68603516 C-11.2367148 43.16384663 -11.1875 44.64378175 -11.1875 46.12353516 C-16.6902661 46.3436458 -20.96330171 46.06742289 -26.1875 44.12353516 C-27.5075 44.12353516 -28.8275 44.12353516 -30.1875 44.12353516 C-30.86345315 45.53579442 -31.52790059 46.9535642 -32.1875 48.37353516 C-32.55875 49.16244141 -32.93 49.95134766 -33.3125 50.76416016 C-34.41931252 53.32920086 -34.41931252 53.32920086 -34.1875 57.12353516 C-26.31771075 61.8964166 -19.60200755 65.3487824 -10.1875 63.12353516 C-3.25752222 60.73388765 0.82715925 57.4740621 4.125 50.93603516 C6.14360045 45.99252385 6.69508189 41.4010146 5.8125 36.12353516 C3.03315412 30.45794548 -1.28014552 26.48030058 -7 23.81103516 C-11.1079649 22.92500351 -15.00369122 22.9561828 -19.1875 23.12353516 C-19.1875 22.13353516 -19.1875 21.14353516 -19.1875 20.12353516 C-11.2675 20.12353516 -3.3475 20.12353516 4.8125 20.12353516 C4.8125 15.50353516 4.8125 10.88353516 4.8125 6.12353516 C-7.3975 6.12353516 -19.6075 6.12353516 -32.1875 6.12353516 Z " fill="#9B9B9B" transform="translate(76.1875,33.87646484375)"/>
</svg>
