<?xml version="1.0" encoding="UTF-8"?>
<svg version="1.1" xmlns="http://www.w3.org/2000/svg" width="128" height="128">
<path d="M0 0 C3.75937169 5.9808186 2.10517163 13.42479821 0.6328125 19.921875 C0 22 0 22 -1.21875 23.9921875 C-2.27930665 26.02298205 -2.27930665 26.02298205 -1.1015625 28.0859375 C-0.61429688 28.84132812 -0.12703125 29.59671875 0.375 30.375 C4.08271271 37.23172898 4.4016593 44.7161133 2.40625 52.23828125 C-0.06316579 57.39432995 -5.15523804 60.34118036 -10 63 C-16.84852411 65.28284137 -26.2979077 65.16947101 -33 62.375 C-41.38323047 57.85246777 -46.60476921 51.88628852 -49.75 42.84375 C-52.75870612 31.31037654 -51.56430089 19.03685257 -45.64453125 8.61328125 C-34.51390533 -7.05314934 -16.44185724 -10.68720721 0 0 Z " fill="#FCFCFC" transform="translate(87,39)"/>
<path d="M0 0 C3.75937169 5.9808186 2.10517163 13.42479821 0.6328125 19.921875 C0 22 0 22 -1.21875 23.9921875 C-2.27930665 26.02298205 -2.27930665 26.02298205 -1.1015625 28.0859375 C-0.61429688 28.84132812 -0.12703125 29.59671875 0.375 30.375 C4.08271271 37.23172898 4.4016593 44.7161133 2.40625 52.23828125 C-0.06316579 57.39432995 -5.15523804 60.34118036 -10 63 C-16.84852411 65.28284137 -26.2979077 65.16947101 -33 62.375 C-41.38323047 57.85246777 -46.60476921 51.88628852 -49.75 42.84375 C-52.75870612 31.31037654 -51.56430089 19.03685257 -45.64453125 8.61328125 C-34.51390533 -7.05314934 -16.44185724 -10.68720721 0 0 Z M-37.25 7.25 C-44.09212252 15.91917431 -45.69732563 24.11908883 -45 35 C-43.71343721 43.91151288 -40.36673914 49.9171144 -33.1875 55.37890625 C-27.51881285 58.76830878 -21.42600319 58.85507301 -15 58 C-9.75392685 56.40744208 -5.75199257 53.84350693 -3 49 C-1.44115194 42.76460775 -1.9571565 37.72578077 -5 32 C-7.58362347 29.03622484 -10.23966448 27.25344517 -14 26 C-15.49774018 25.90774789 -16.99942974 25.8699981 -18.5 25.875 C-19.2734375 25.87242188 -20.046875 25.86984375 -20.84375 25.8671875 C-23.18447017 25.91854187 -23.18447017 25.91854187 -26 27 C-24.25 20.25 -24.25 20.25 -22 18 C-16.34071124 17.45441497 -10.5538144 17.79917526 -5 19 C-3.95023036 15.85069107 -3.89868405 13.61185544 -3.9375 10.3125 C-3.94652344 9.31863281 -3.95554688 8.32476562 -3.96484375 7.30078125 C-3.97644531 6.54152344 -3.98804688 5.78226563 -4 5 C-4.62648437 4.72285156 -5.25296875 4.44570313 -5.8984375 4.16015625 C-6.71570313 3.79792969 -7.53296875 3.43570313 -8.375 3.0625 C-9.59316406 2.52302734 -9.59316406 2.52302734 -10.8359375 1.97265625 C-12.23683785 1.3430097 -13.62625284 0.68687358 -15 0 C-24.12723074 -0.93730821 -30.93524945 0.36833918 -37.25 7.25 Z " fill="#9A9A9A" transform="translate(87,39)"/>
<path d="M0 0 C3.5 0.125 3.5 0.125 4.5 1.125 C4.6875 3.5625 4.6875 3.5625 4.5 6.125 C2.5 8.125 2.5 8.125 -0.5 8.375 C-3.5 8.125 -3.5 8.125 -5.5 6.125 C-4.77384077 0.17049431 -4.77384077 0.17049431 0 0 Z " fill="#9E9E9E" transform="translate(67.5,76.875)"/>
</svg>
