<?xml version="1.0" encoding="UTF-8"?>
<svg version="1.1" xmlns="http://www.w3.org/2000/svg" width="128" height="128">
<path d="M0 0 C1.50647315 -0.03054287 3.01298204 -0.05941011 4.51953125 -0.0859375 C5.77378906 -0.11171875 7.02804688 -0.1375 8.3203125 -0.1640625 C11.20703125 0.1640625 11.20703125 0.1640625 12.84057617 1.42089844 C16.710225 6.35734522 15.45733055 15.42739228 14.8359375 21.32177734 C13.14955279 28.94324118 7.5394269 34.89893506 2.84863281 40.91943359 C0.34405207 44.3440492 -1.57210109 47.977992 -3.41796875 51.7890625 C-3.73725342 52.44575928 -4.05653809 53.10245605 -4.38549805 53.77905273 C-6.0443791 57.29891891 -7.44136985 60.82812794 -8.60546875 64.5390625 C-9.79296875 68.1640625 -9.79296875 68.1640625 -12.79296875 70.1640625 C-18.62792649 70.55965286 -24.36312511 70.01679039 -30.16796875 69.4140625 C-30.87010498 69.35250977 -31.57224121 69.29095703 -32.2956543 69.22753906 C-35.46304708 68.85864132 -37.41095113 68.51189177 -39.80078125 66.3359375 C-41.93071857 61.67355503 -39.41066549 56.85581403 -37.74609375 52.296875 C-34.94389197 45.29137056 -31.54061033 38.70633716 -27.79296875 32.1640625 C-29.04013672 32.01710938 -29.04013672 32.01710938 -30.3125 31.8671875 C-31.39917969 31.71765625 -32.48585938 31.568125 -33.60546875 31.4140625 C-34.68441406 31.27484375 -35.76335938 31.135625 -36.875 30.9921875 C-39.79296875 30.1640625 -39.79296875 30.1640625 -41.66015625 28.43359375 C-44.99487807 21.75265108 -42.72388959 12.42333925 -41.5234375 5.34375 C-40.79296875 3.1640625 -40.79296875 3.1640625 -37.79296875 1.1640625 C-34.78466797 0.84521484 -34.78466797 0.84521484 -31.09765625 0.75 C-30.10636467 0.72067886 -30.10636467 0.72067886 -29.095047 0.69076538 C-26.95281602 0.63020529 -24.81058329 0.58384772 -22.66796875 0.5390625 C-21.20547524 0.5033279 -19.74299141 0.46719489 -18.28051758 0.43066406 C-15.41286412 0.36141769 -12.54518609 0.29925701 -9.67724609 0.24316406 C-6.4507587 0.1774581 -3.22576339 0.09319265 0 0 Z " fill="#FCFCFC" transform="translate(78.79296875,32.8359375)"/>
<path d="M0 0 C1.50647315 -0.03054287 3.01298204 -0.05941011 4.51953125 -0.0859375 C5.77378906 -0.11171875 7.02804688 -0.1375 8.3203125 -0.1640625 C11.20703125 0.1640625 11.20703125 0.1640625 12.84057617 1.42089844 C16.710225 6.35734522 15.45733055 15.42739228 14.8359375 21.32177734 C13.14955279 28.94324118 7.5394269 34.89893506 2.84863281 40.91943359 C0.34405207 44.3440492 -1.57210109 47.977992 -3.41796875 51.7890625 C-3.73725342 52.44575928 -4.05653809 53.10245605 -4.38549805 53.77905273 C-6.0443791 57.29891891 -7.44136985 60.82812794 -8.60546875 64.5390625 C-9.79296875 68.1640625 -9.79296875 68.1640625 -12.79296875 70.1640625 C-18.62792649 70.55965286 -24.36312511 70.01679039 -30.16796875 69.4140625 C-30.87010498 69.35250977 -31.57224121 69.29095703 -32.2956543 69.22753906 C-35.46304708 68.85864132 -37.41095113 68.51189177 -39.80078125 66.3359375 C-41.93071857 61.67355503 -39.41066549 56.85581403 -37.74609375 52.296875 C-34.94389197 45.29137056 -31.54061033 38.70633716 -27.79296875 32.1640625 C-29.04013672 32.01710938 -29.04013672 32.01710938 -30.3125 31.8671875 C-31.39917969 31.71765625 -32.48585938 31.568125 -33.60546875 31.4140625 C-34.68441406 31.27484375 -35.76335938 31.135625 -36.875 30.9921875 C-39.79296875 30.1640625 -39.79296875 30.1640625 -41.66015625 28.43359375 C-44.99487807 21.75265108 -42.72388959 12.42333925 -41.5234375 5.34375 C-40.79296875 3.1640625 -40.79296875 3.1640625 -37.79296875 1.1640625 C-34.78466797 0.84521484 -34.78466797 0.84521484 -31.09765625 0.75 C-30.10636467 0.72067886 -30.10636467 0.72067886 -29.095047 0.69076538 C-26.95281602 0.63020529 -24.81058329 0.58384772 -22.66796875 0.5390625 C-21.20547524 0.5033279 -19.74299141 0.46719489 -18.28051758 0.43066406 C-15.41286412 0.36141769 -12.54518609 0.29925701 -9.67724609 0.24316406 C-6.4507587 0.1774581 -3.22576339 0.09319265 0 0 Z M-35.79296875 7.1640625 C-36.85040353 10.98399991 -36.89223298 14.44352557 -36.85546875 18.4140625 C-36.83484375 20.6415625 -36.81421875 22.8690625 -36.79296875 25.1640625 C-29.86296875 25.1640625 -22.93296875 25.1640625 -15.79296875 25.1640625 C-17.27796875 27.2678125 -18.76296875 29.3715625 -20.29296875 31.5390625 C-24.28462629 37.38826968 -27.54643604 43.38003736 -30.41796875 49.8515625 C-30.76021484 50.61710449 -31.10246094 51.38264648 -31.45507812 52.17138672 C-33.05242516 55.89825307 -33.79296875 57.98854285 -33.79296875 62.1640625 C-27.33288038 64.11427786 -21.52113145 64.38668553 -14.79296875 64.1640625 C-14.46425781 63.266875 -14.13554688 62.3696875 -13.796875 61.4453125 C-9.30792671 49.53556147 -4.12068756 37.51015382 4.76953125 28.2265625 C9.61251556 22.65473302 8.89824572 16.51953116 8.48828125 9.53125 C8.39546875 8.42007813 8.30265625 7.30890625 8.20703125 6.1640625 C-6.49334399 6.02440679 -21.11408707 6.35738908 -35.79296875 7.1640625 Z " fill="#9A9A9A" transform="translate(78.79296875,32.8359375)"/>
</svg>
