<?xml version="1.0" encoding="UTF-8"?>
<svg version="1.1" xmlns="http://www.w3.org/2000/svg" width="128" height="128">
<path d="M0 0 C4.74699745 3.61721205 7.6951419 7.54145203 8.953125 13.48828125 C9.37315641 19.03805794 9.21874791 23.35286931 6.953125 28.48828125 C7.45892085 31.29314913 8.36984744 33.45507732 9.515625 36.11328125 C11.85577107 42.33436263 11.95973033 48.01370981 9.453125 54.17578125 C3.86613988 62.40106491 -3.43926476 66.39750596 -13.046875 68.48828125 C-21.38893731 69.57423019 -29.02662752 67.6880393 -36.359375 63.67578125 C-41.76639886 59.27471532 -45.68360613 54.38982989 -47.046875 47.48828125 C-47.16127877 42.80487685 -46.92201333 38.84960754 -44.359375 34.86328125 C-42.6484839 32.38767638 -42.6484839 32.38767638 -43.859375 28.86328125 C-44.06433594 28.18136719 -44.26929688 27.49945313 -44.48046875 26.796875 C-45.84046887 21.2537021 -46.18532984 14.93346887 -43.546875 9.73828125 C-39.77306961 4.21045364 -34.09621734 -1.03652978 -27.63671875 -3.0703125 C-18.26682934 -4.66729214 -8.34540508 -5.03846736 0 0 Z " fill="#FDFDFD" transform="translate(83.046875,34.51171875)"/>
<path d="M0 0 C4.74699745 3.61721205 7.6951419 7.54145203 8.953125 13.48828125 C9.37315641 19.03805794 9.21874791 23.35286931 6.953125 28.48828125 C7.45892085 31.29314913 8.36984744 33.45507732 9.515625 36.11328125 C11.85577107 42.33436263 11.95973033 48.01370981 9.453125 54.17578125 C3.86613988 62.40106491 -3.43926476 66.39750596 -13.046875 68.48828125 C-21.38893731 69.57423019 -29.02662752 67.6880393 -36.359375 63.67578125 C-41.76639886 59.27471532 -45.68360613 54.38982989 -47.046875 47.48828125 C-47.16127877 42.80487685 -46.92201333 38.84960754 -44.359375 34.86328125 C-42.6484839 32.38767638 -42.6484839 32.38767638 -43.859375 28.86328125 C-44.06433594 28.18136719 -44.26929688 27.49945313 -44.48046875 26.796875 C-45.84046887 21.2537021 -46.18532984 14.93346887 -43.546875 9.73828125 C-39.77306961 4.21045364 -34.09621734 -1.03652978 -27.63671875 -3.0703125 C-18.26682934 -4.66729214 -8.34540508 -5.03846736 0 0 Z M-34.8515625 8.21875 C-38.46975127 12.39550708 -39.82927577 15.78610059 -39.45703125 21.3125 C-38.82439452 24.66848722 -37.52295507 27.41311445 -36.046875 30.48828125 C-36.046875 33.93881066 -36.60567323 34.45987782 -38.609375 37.11328125 C-41.15237134 41.06180833 -41.60626273 43.71795823 -40.75 48.31640625 C-39.08407789 53.46225454 -36.19656563 57.02552917 -31.609375 59.86328125 C-28.17628746 61.42925101 -25.78185528 62.18948283 -22.046875 62.48828125 C-21.40234375 62.56304687 -20.7578125 62.6378125 -20.09375 62.71484375 C-12.65556296 63.22320905 -4.92585233 60.78252951 0.79296875 55.92578125 C4.57282638 51.54333762 5.35417 47.43139793 5.30859375 41.84375 C4.72044416 37.9464511 2.67505799 35.25621874 -0.046875 32.48828125 C-1.036875 31.82828125 -2.026875 31.16828125 -3.046875 30.48828125 C-2.2425 29.72515625 -1.438125 28.96203125 -0.609375 28.17578125 C2.38105808 25.03947339 2.87453114 23.51000146 3.203125 19.23828125 C2.88318032 14.43911104 1.90593809 10.55847655 -1.4765625 6.97265625 C-10.32927706 -0.6908877 -26.49825598 0.20897773 -34.8515625 8.21875 Z " fill="#9A9A9A" transform="translate(83.046875,34.51171875)"/>
<path d="M0 0 C2 1.1875 2 1.1875 3 3 C2.92266964 6.09321432 2.40339474 7.53454453 0.375 9.875 C-3.01666376 11.48157757 -5.41288637 10.81217667 -9 10 C-10 9 -10 9 -10.25 5.5625 C-10.1675 4.386875 -10.085 3.21125 -10 2 C-6.30513897 -0.46324069 -4.36706908 -0.38991688 0 0 Z " fill="#9C9C9C" transform="translate(70,74)"/>
<path d="M0 0 C3.0625 0.25 3.0625 0.25 6.0625 2.25 C6.375 4.75 6.375 4.75 6.0625 7.25 C4.0625 9.25 4.0625 9.25 2.15234375 9.48046875 C-3.82638889 9.36111111 -3.82638889 9.36111111 -4.9375 8.25 C-5.125 5.3125 -5.125 5.3125 -4.9375 2.25 C-2.9375 0.25 -2.9375 0.25 0 0 Z " fill="#9E9E9E" transform="translate(64.9375,50.75)"/>
</svg>
