<?xml version="1.0" encoding="UTF-8"?>
<svg version="1.1" xmlns="http://www.w3.org/2000/svg" width="128" height="128">
<path d="M0 0 C6.71730122 5.49814691 9.27964857 11.89095288 10.46484375 20.296875 C11.70275748 33.03765007 10.10100261 46.06698983 1.8125 56.3125 C-4.3404647 62.84919798 -11.57732812 66.02220759 -20.5 66.3125 C-29.50545473 66.21827252 -38.58441782 63.05607876 -46 58 C-47.92700587 54.14598825 -47.46387984 50.43121222 -46.17578125 46.45703125 C-44.62129919 42.54482174 -42.91354289 38.74950971 -41 35 C-41.639375 34.2575 -42.27875 33.515 -42.9375 32.75 C-46.38779786 28.14960285 -46.55974119 23.6673795 -46 18 C-44.02750352 9.42834252 -39.88147544 2.29499592 -32.5 -2.6875 C-22.41503863 -7.98210472 -9.36550842 -5.72491019 0 0 Z " fill="#FCFCFC" transform="translate(83,37)"/>
<path d="M0 0 C6.71730122 5.49814691 9.27964857 11.89095288 10.46484375 20.296875 C11.70275748 33.03765007 10.10100261 46.06698983 1.8125 56.3125 C-4.3404647 62.84919798 -11.57732812 66.02220759 -20.5 66.3125 C-29.50545473 66.21827252 -38.58441782 63.05607876 -46 58 C-47.92700587 54.14598825 -47.46387984 50.43121222 -46.17578125 46.45703125 C-44.62129919 42.54482174 -42.91354289 38.74950971 -41 35 C-41.639375 34.2575 -42.27875 33.515 -42.9375 32.75 C-46.38779786 28.14960285 -46.55974119 23.6673795 -46 18 C-44.02750352 9.42834252 -39.88147544 2.29499592 -32.5 -2.6875 C-22.41503863 -7.98210472 -9.36550842 -5.72491019 0 0 Z M-34.78515625 7.1640625 C-39.04838484 13.35229501 -40.92883958 18.45317838 -40 26 C-37.80727567 30.38544865 -35.61341775 33.23315916 -31 35 C-25.89268005 35.41040964 -20.94562664 35.4429593 -16 34 C-15.64444444 41.11111111 -15.64444444 41.11111111 -17 44.5 C-19.50816055 46.38112041 -21.55833168 46.60550907 -24.66015625 46.47265625 C-29.15585841 45.5645094 -33.05291819 43.26471907 -37 41 C-40.11696661 45.33664919 -40.55966813 48.80408388 -41 54 C-31.9804527 58.71580392 -23.84754241 61.96499477 -13.53515625 59.3828125 C-5.80551567 56.39666075 -1.0644649 50.70919871 2.375 43.3125 C6.08750076 34.48320471 6.35685155 24.23672035 3.5 15.125 C0.81293772 8.59791609 -3.58221902 4.78656733 -9.75 1.5625 C-18.91740009 -0.0241654 -28.41592062 -0.55706778 -34.78515625 7.1640625 Z " fill="#9A9A9A" transform="translate(83,37)"/>
<path d="M0 0 C0.66 0.66 1.32 1.32 2 2 C1.85611045 5.38140438 1.60498077 7.32779915 -0.6875 9.875 C-3.62217268 11.3026786 -5.77592156 11.28658475 -9 11 C-10 10 -10 10 -10.25 6.625 C-10 3 -10 3 -8.9375 1.0625 C-5.92115289 -0.59162584 -3.36333392 -0.30575763 0 0 Z " fill="#9E9E9E" transform="translate(67,51)"/>
</svg>
