<?xml version="1.0" encoding="UTF-8"?>
<svg version="1.1" xmlns="http://www.w3.org/2000/svg" width="626" height="330">
<path d="M0 0 C206.58 0 413.16 0 626 0 C626 108.9 626 217.8 626 330 C419.42 330 212.84 330 0 330 C0 221.1 0 112.2 0 0 Z " fill="#EE0000" transform="translate(0,0)"/>
<path d="M0 0 C206.58 0 413.16 0 626 0 C626 7.92 626 15.84 626 24 C522.71 24 419.42 24 313 24 C313 31.59 313 39.18 313 47 C415.96 47 518.92 47 625 47 C625 54.59 625 62.18 625 70 C522.04 70 419.08 70 313 70 C313 77.59 313 85.18 313 93 C415.96 93 518.92 93 625 93 C625 100.59 625 108.18 625 116 C522.04 116 419.08 116 313 116 C313 139.1 313 162.2 313 186 C415.96 186 518.92 186 625 186 C625 193.59 625 201.18 625 209 C418.75 209 212.5 209 0 209 C0 140.03 0 71.06 0 0 Z " fill="#010068" transform="translate(0,0)"/>
<path d="M0 0 C103.29 0 206.58 0 313 0 C313 68.64 313 137.28 313 208 C106.42 208 -100.16 208 -313 208 C-313 200.41 -313 192.82 -313 185 C-106.75 185 99.5 185 312 185 C312 177.41 312 169.82 312 162 C209.04 162 106.08 162 0 162 C0 138.9 0 115.8 0 92 C102.96 92 205.92 92 312 92 C312 84.41 312 76.82 312 69 C209.04 69 106.08 69 0 69 C0 61.41 0 53.82 0 46 C102.96 46 205.92 46 312 46 C312 38.41 312 30.82 312 23 C209.04 23 106.08 23 0 23 C0 15.41 0 7.82 0 0 Z " fill="#F4E3E3" transform="translate(313,24)"/>
<path d="M0 0 C206.58 0 413.16 0 626 0 C626 9.24 626 18.48 626 28 C419.42 28 212.84 28 0 28 C0 18.76 0 9.52 0 0 Z " fill="#FEFEFE" transform="translate(0,302)"/>
<path d="M0 0 C206.58 0 413.16 0 626 0 C626 7.92 626 15.84 626 24 C419.42 24 212.84 24 0 24 C0 16.08 0 8.16 0 0 Z " fill="#EE0000" transform="translate(0,232)"/>
<path d="M0 0 C206.25 0 412.5 0 625 0 C625 7.59 625 15.18 625 23 C418.75 23 212.5 23 0 23 C0 15.41 0 7.82 0 0 Z " fill="#EE0000" transform="translate(0,186)"/>
<path d="M0 0 C206.58 0 413.16 0 626 0 C626 7.26 626 14.52 626 22 C419.42 22 212.84 22 0 22 C0 14.74 0 7.48 0 0 Z " fill="#FDFEFE" transform="translate(0,256)"/>
<path d="M0 0 C206.58 0 413.16 0 626 0 C626 7.26 626 14.52 626 22 C419.42 22 212.84 22 0 22 C0 14.74 0 7.48 0 0 Z " fill="#FEFEFC" transform="translate(0,210)"/>
<path d="M0 0 C102.96 0 205.92 0 312 0 C312 7.92 312 15.84 312 24 C209.04 24 106.08 24 0 24 C0 16.08 0 8.16 0 0 Z " fill="#ED0000" transform="translate(314,0)"/>
<path d="M0 0 C102.96 0 205.92 0 312 0 C312 7.59 312 15.18 312 23 C209.04 23 106.08 23 0 23 C0 15.41 0 7.82 0 0 Z " fill="#ED0000" transform="translate(313,93)"/>
<path d="M0 0 C102.63 0 205.26 0 311 0 C311 7.59 311 15.18 311 23 C208.37 23 105.74 23 0 23 C0 15.41 0 7.82 0 0 Z " fill="#EE0000" transform="translate(314,47)"/>
<path d="M0 0 C103.29 0 206.58 0 313 0 C313 7.26 313 14.52 313 22 C209.71 22 106.42 22 0 22 C0 14.74 0 7.48 0 0 Z " fill="#FDFEFE" transform="translate(313,24)"/>
<path d="M0 0 C102.96 0 205.92 0 312 0 C312 7.26 312 14.52 312 22 C209.04 22 106.08 22 0 22 C0 14.74 0 7.48 0 0 Z " fill="#FEFDFD" transform="translate(314,117)"/>
<path d="M0 0 C102.3 0 204.6 0 310 0 C310 7.26 310 14.52 310 22 C207.7 22 105.4 22 0 22 C0 14.74 0 7.48 0 0 Z " fill="#F00101" transform="translate(314,140)"/>
<path d="M0 0 C102.96 0 205.92 0 312 0 C312 6.93 312 13.86 312 21 C209.04 21 106.08 21 0 21 C0 14.07 0 7.14 0 0 Z " fill="#FEFEFC" transform="translate(314,71)"/>
<path d="M0 0 C0.66 0 1.32 0 2 0 C2.17390259 1.15786011 2.17390259 1.15786011 2.35131836 2.33911133 C2.87729828 5.83066121 3.40734992 9.32158098 3.9375 12.8125 C4.21110352 14.63491211 4.21110352 14.63491211 4.49023438 16.49414062 C4.66748047 17.65751953 4.84472656 18.82089844 5.02734375 20.01953125 C5.18968506 21.09307861 5.35202637 22.16662598 5.51928711 23.27270508 C5.94553006 26.08117472 5.94553006 26.08117472 7 29 C12.96731671 21.85855848 18.61180677 14.59045205 24 7 C25.23987807 10.71963421 24.25242659 12.46140831 22.96875 16.0390625 C21.72597184 19.83755382 20.76543901 23.68270747 19.8125 27.5625 C19.63372314 28.28977295 19.45494629 29.0170459 19.27075195 29.76635742 C18.84438942 31.51022796 18.42179305 33.2550186 18 35 C19.45019531 34.22076172 19.45019531 34.22076172 20.9296875 33.42578125 C24.30258394 31.61674931 27.68086322 29.81808343 31.06298828 28.02636719 C32.76073134 27.12678163 34.4566861 26.22382277 36.15234375 25.3203125 C37.46912109 24.63582031 37.46912109 24.63582031 38.8125 23.9375 C39.58207031 23.53402344 40.35164063 23.13054688 41.14453125 22.71484375 C41.75683594 22.47894531 42.36914062 22.24304688 43 22 C43.66 22.33 44.32 22.66 45 23 C44.61142822 23.41362793 44.22285645 23.82725586 43.82250977 24.25341797 C42.06677485 26.12504558 40.31460417 27.99997334 38.5625 29.875 C37.64500977 30.85146484 37.64500977 30.85146484 36.70898438 31.84765625 C36.12568359 32.47285156 35.54238281 33.09804687 34.94140625 33.7421875 C34.40201416 34.3182373 33.86262207 34.89428711 33.30688477 35.48779297 C31.90528819 36.9840239 31.90528819 36.9840239 31 39 C30.34 39 29.68 39 29 39 C29 39.66 29 40.32 29 41 C28.34 41 27.68 41 27 41 C26.67 41.99 26.34 42.98 26 44 C35.57 44 45.14 44 55 44 C52.06860827 46.1985438 50.03541949 47.58200818 46.8125 49.0078125 C46.03132813 49.35457031 45.25015625 49.70132813 44.4453125 50.05859375 C43.63835937 50.41050781 42.83140625 50.76242188 42 51.125 C41.19304687 51.48464844 40.38609375 51.84429687 39.5546875 52.21484375 C36.05379492 53.75731622 32.74274127 55.15788321 29 56 C31.75331806 58.75331806 35.03244589 59.64326771 38.625 60.9375 C40.01302083 61.44661458 41.40104167 61.95572917 42.7890625 62.46484375 C43.82015137 62.83971924 43.82015137 62.83971924 44.87207031 63.22216797 C48.25641923 64.45926476 51.62764011 65.73062858 55 67 C55 67.66 55 68.32 55 69 C45.76 69 36.52 69 27 69 C28.464375 70.753125 29.92875 72.50625 31.4375 74.3125 C35.875 79.625 35.875 79.625 37 83 C37.66 83 38.32 83 39 83 C39 83.66 39 84.32 39 85 C39.66 85 40.32 85 41 85 C42.38938077 86.96147874 43.7260411 88.96166576 45 91 C38.94965688 89.30916337 33.63585129 86.3171076 28.125 83.375 C26.66320312 82.6015625 26.66320312 82.6015625 25.171875 81.8125 C22.77906294 80.54571714 20.38855464 79.27478682 18 78 C18.31807617 79.0669812 18.31807617 79.0669812 18.64257812 80.15551758 C19.59925941 83.37327828 20.54969864 86.59284964 21.5 89.8125 C21.83386719 90.93205078 22.16773438 92.05160156 22.51171875 93.20507812 C22.82753906 94.27822266 23.14335937 95.35136719 23.46875 96.45703125 C23.76201172 97.44678955 24.05527344 98.43654785 24.35742188 99.45629883 C25 102 25 102 25 105 C24.34 105 23.68 105 23 105 C21.14626869 102.68059706 19.40367469 100.35564256 17.6875 97.9375 C17.21376953 97.28072266 16.74003906 96.62394531 16.25195312 95.94726562 C14.82771365 93.96969645 13.41289926 91.98568305 12 90 C11.04836361 88.66783548 10.0965522 87.33579597 9.14453125 86.00390625 C8.08298828 84.51697266 8.08298828 84.51697266 7 83 C5.47357352 90.27988014 4.21473599 97.58359941 3.0534668 104.92919922 C2.1074588 110.78508241 2.1074588 110.78508241 1 113 C0.34 113 -0.32 113 -1 113 C-1.08564209 112.34402832 -1.17128418 111.68805664 -1.25952148 111.01220703 C-1.64846501 108.049303 -2.04291273 105.08715747 -2.4375 102.125 C-2.57220703 101.09246094 -2.70691406 100.05992187 -2.84570312 98.99609375 C-2.97783203 98.00996094 -3.10996094 97.02382812 -3.24609375 96.0078125 C-3.36654053 95.09660645 -3.4869873 94.18540039 -3.61108398 93.24658203 C-3.89362951 90.97266576 -3.89362951 90.97266576 -5 89 C-5.039992 87.00039988 -5.04346799 84.99952758 -5 83 C-5.66 83 -6.32 83 -7 83 C-7.26804443 83.57218262 -7.53608887 84.14436523 -7.81225586 84.73388672 C-9.04279031 87.08164022 -10.4379736 89.12034192 -12.00390625 91.2578125 C-12.57947266 92.04800781 -13.15503906 92.83820313 -13.74804688 93.65234375 C-14.64620117 94.87630859 -14.64620117 94.87630859 -15.5625 96.125 C-16.75258725 97.75166471 -17.94145061 99.37922575 -19.12890625 101.0078125 C-19.65556885 101.72598145 -20.18223145 102.44415039 -20.72485352 103.18408203 C-22.04878019 104.97421804 -22.04878019 104.97421804 -23 107 C-23.66 107 -24.32 107 -25 107 C-24.3212527 100.80535692 -22.6957044 95.03060448 -20.9375 89.0625 C-20.65583984 88.09248047 -20.37417969 87.12246094 -20.08398438 86.12304688 C-19.39353534 83.74743409 -18.69877999 81.37317295 -18 79 C-20.68926168 80.246317 -23.37638852 81.49692566 -26.0625 82.75 C-26.81466797 83.09804687 -27.56683594 83.44609375 -28.34179688 83.8046875 C-31.96186847 85.4971885 -35.48750697 87.23925092 -38.93359375 89.265625 C-42 91 -42 91 -44 91 C-42.56438314 87.81293058 -40.79733671 85.37830895 -38.5 82.75 C-37.58734375 81.69039062 -37.58734375 81.69039062 -36.65625 80.609375 C-35 79 -35 79 -33 79 C-33 78.34 -33 77.68 -33 77 C-32.34 77 -31.68 77 -31 77 C-30.71125 76.4225 -30.4225 75.845 -30.125 75.25 C-29.08333333 73.16666667 -28.04166667 71.08333333 -27 69 C-35.91 69 -44.82 69 -54 69 C-52.28561239 65.57122477 -48.23672336 64.90315603 -44.8125 63.5625 C-35.66220116 60.73553496 -35.66220116 60.73553496 -29 55 C-29.72469482 54.87761963 -30.44938965 54.75523926 -31.19604492 54.62915039 C-33.9796022 54.00457685 -36.2744943 53.11942519 -38.86328125 51.93359375 C-39.74951172 51.53076172 -40.63574219 51.12792969 -41.54882812 50.71289062 C-42.46083984 50.29201172 -43.37285156 49.87113281 -44.3125 49.4375 C-45.24384766 49.01275391 -46.17519531 48.58800781 -47.13476562 48.15039062 C-49.4253672 47.10493657 -51.71363659 46.05468244 -54 45 C-54 44.67 -54 44.34 -54 44 C-44.76 43.67 -35.52 43.34 -26 43 C-28.97 39.7 -31.94 36.4 -35 33 C-35.66 31.68 -36.32 30.36 -37 29 C-37.66 29 -38.32 29 -39 29 C-39 28.34 -39 27.68 -39 27 C-39.66 27 -40.32 27 -41 27 C-42.625 25 -42.625 25 -44 23 C-43.67 22.34 -43.34 21.68 -43 21 C-40.36 22.32 -37.72 23.64 -35 25 C-35 25.66 -35 26.32 -35 27 C-34.31550781 27.09152344 -33.63101563 27.18304688 -32.92578125 27.27734375 C-29.29943637 28.17303641 -26.44952692 29.75026282 -23.1875 31.5625 C-22.59001953 31.89185547 -21.99253906 32.22121094 -21.37695312 32.56054688 C-19.91466002 33.36773267 -18.4568601 34.18304917 -17 35 C-17.32613281 33.82824219 -17.65226562 32.65648437 -17.98828125 31.44921875 C-20.34633923 22.97176117 -22.69898792 14.49316654 -25 6 C-24.34 6 -23.68 6 -23 6 C-21.29309526 8.19756551 -19.69568564 10.39558115 -18.125 12.6875 C-17.25396832 13.94235425 -16.38159217 15.19627643 -15.5078125 16.44921875 C-15.08790039 17.05427246 -14.66798828 17.65932617 -14.23535156 18.28271484 C-13.11141603 19.84511851 -11.8994644 21.34324631 -10.6796875 22.83203125 C-9 25 -9 25 -9 27 C-8.34 27 -7.68 27 -7 27 C-6.505 27.99 -6.505 27.99 -6 29 C-5.79503906 27.92878906 -5.59007812 26.85757813 -5.37890625 25.75390625 C-5.10697291 24.35673149 -4.83482648 22.95959819 -4.5625 21.5625 C-4.42779297 20.85544922 -4.29308594 20.14839844 -4.15429688 19.41992188 C-3.11328125 14.11328125 -3.11328125 14.11328125 -2 13 C-1.79103683 11.19188816 -1.63219639 9.37783968 -1.5 7.5625 C-1.10992366 2.21984733 -1.10992366 2.21984733 0 0 Z " fill="#F8C808" transform="translate(195,37)"/>
<path d="M0 0 C-3.71423824 1.23807941 -4.48823522 0.4456965 -8 -1 C-10.60212075 -1.3589674 -10.60212075 -1.3589674 -13.30078125 -1.4140625 C-14.27724609 -1.45273437 -15.25371094 -1.49140625 -16.25976562 -1.53125 C-17.26716797 -1.5621875 -18.27457031 -1.593125 -19.3125 -1.625 C-20.85260742 -1.68300781 -20.85260742 -1.68300781 -22.42382812 -1.7421875 C-24.94904265 -1.83614897 -27.47425592 -1.9218154 -30 -2 C-30 -1.34 -30 -0.68 -30 0 C-30.80824219 0.18175781 -31.61648437 0.36351562 -32.44921875 0.55078125 C-33.51785156 0.80214844 -34.58648437 1.05351563 -35.6875 1.3125 C-37.27111328 1.67794922 -37.27111328 1.67794922 -38.88671875 2.05078125 C-41.9810052 2.99420861 -44.25395514 4.3299182 -47 6 C-47.99 6 -48.98 6 -50 6 C-50 6.66 -50 7.32 -50 8 C-51.50390625 9.26171875 -51.50390625 9.26171875 -53.5625 10.6875 C-61.02362724 16.14493229 -65.9049822 21.67786706 -70 30 C-70.66 30 -71.32 30 -72 30 C-72 31.32 -72 32.64 -72 34 C-72.66 34 -73.32 34 -74 34 C-74.144375 34.86625 -74.28875 35.7325 -74.4375 36.625 C-74.76756159 38.60536952 -75.11782939 40.58289844 -75.515625 42.55078125 C-77.86901335 59.30918379 -76.06506351 74.03972684 -68.05078125 88.9765625 C-67 91 -67 91 -66 94 C-65.34 94 -64.68 94 -64 94 C-62.37890625 95.6796875 -62.37890625 95.6796875 -60.5625 97.875 C-58.41599116 100.46193722 -56.83223438 102.11184374 -54 104 C-54 104.66 -54 105.32 -54 106 C-51.03 106.99 -51.03 106.99 -48 108 C-48 108.66 -48 109.32 -48 110 C-47.44828125 110.13277344 -46.8965625 110.26554687 -46.328125 110.40234375 C-43.77949398 111.05660641 -41.26840657 111.80035064 -38.75 112.5625 C-37.85796875 112.83191406 -36.9659375 113.10132813 -36.046875 113.37890625 C-35.37140625 113.58386719 -34.6959375 113.78882813 -34 114 C-34 114.66 -34 115.32 -34 116 C-29.64561223 115.86034706 -25.29155381 115.71217758 -20.9375 115.5625 C-19.09381836 115.50352539 -19.09381836 115.50352539 -17.21289062 115.44335938 C-11.40765506 115.23994142 -5.7246793 115.01223898 0 114 C0 114.66 0 115.32 0 116 C-2.6638319 117.13212856 -5.33074812 118.25577958 -8 119.375 C-8.74378906 119.69210938 -9.48757812 120.00921875 -10.25390625 120.3359375 C-26.2486906 127.0120214 -43.74128709 127.20954233 -60 121 C-72.7289882 115.39750348 -84.49329295 106.91609084 -92 95 C-92 94.01 -92 93.02 -92 92 C-92.66 92 -93.32 92 -94 92 C-100.57400884 80.2606985 -102.36941669 69.50047363 -102.4375 56.1875 C-102.44749023 55.03080811 -102.45748047 53.87411621 -102.46777344 52.68237305 C-102.39926233 45.88851806 -101.62298262 40.27139724 -99 34 C-98.69578125 33.17628906 -98.3915625 32.35257813 -98.078125 31.50390625 C-95.48659304 25.4284752 -91.89204284 20.31081708 -88 15 C-87.34 14.01 -86.68 13.02 -86 12 C-85.34 12 -84.68 12 -84 12 C-84 11.34 -84 10.68 -84 10 C-83.34 10 -82.68 10 -82 10 C-82 9.34 -82 8.68 -82 8 C-81.34 8 -80.68 8 -80 8 C-80 7.34 -80 6.68 -80 6 C-56.78099252 -14.33628646 -25.88638658 -14.46166848 0 0 Z " fill="#F9C907" transform="translate(164,36)"/>
<path d="M0 0 C206.58 0 413.16 0 626 0 C626 7.92 626 15.84 626 24 C419.42 24 212.84 24 0 24 C0 23.67 0 23.34 0 23 C205.59 23 411.18 23 623 23 C623 16.4 623 9.8 623 3 C417.41 3 211.82 3 0 3 C0 2.01 0 1.02 0 0 Z " fill="#F23432" transform="translate(0,278)"/>
<path d="M0 0 C206.58 0 413.16 0 626 0 C626 7.92 626 15.84 626 24 C419.42 24 212.84 24 0 24 C0 23.01 0 22.02 0 21 C205.59 21 411.18 21 623 21 C623 14.4 623 7.8 623 1 C417.41 1 211.82 1 0 1 C0 0.67 0 0.34 0 0 Z " fill="#F23033" transform="translate(0,232)"/>
<path d="M0 0 C206.25 0 412.5 0 625 0 C625 7.59 625 15.18 625 23 C418.75 23 212.5 23 0 23 C0 22.34 0 21.68 0 21 C205.59 21 411.18 21 623 21 C623 14.73 623 8.46 623 2 C621.03629629 2.00138269 621.03629629 2.00138269 619.03292179 2.00279331 C576.07692135 2.03265585 533.12091931 2.05127299 490.16490996 2.06185675 C487.57207624 2.06249763 484.97924252 2.06315666 482.38640881 2.06381607 C391.25310731 2.08661315 300.12064048 2.0130367 139.74457854 1.50902146 C137.11556658 1.49996751 134.48655455 1.49093169 131.85754251 1.48189783 C87.90499251 1.33074723 43.95247825 1.17077605 0 1 C0 0.67 0 0.34 0 0 Z " fill="#EA1E1B" transform="translate(0,186)"/>
<path d="M0 0 C102.96 0 205.92 0 312 0 C312 7.59 312 15.18 312 23 C209.04 23 106.08 23 0 23 C0 15.41 0 7.82 0 0 Z M2 1 C2 7.6 2 14.2 2 21 C103.64 21 205.28 21 310 21 C310 14.73 310 8.46 310 2 C208.36 1.67 106.72 1.34 2 1 Z " fill="#E91A1D" transform="translate(313,93)"/>
<path d="M0 0 C100.98 0 201.96 0 306 0 C306 7.92 306 15.84 306 24 C203.04 24 100.08 24 -6 24 C-6 23.01 -6 22.02 -6 21 C95.97 21 197.94 21 303 21 C303 14.4 303 7.8 303 1 C203.01 1 103.02 1 0 1 C0 0.67 0 0.34 0 0 Z " fill="#EE2B2D" transform="translate(320,0)"/>
<path d="M0 0 C102.63 0 205.26 0 311 0 C311 7.59 311 15.18 311 23 C209.03 23 107.06 23 2 23 C2 22.67 2 22.34 2 22 C103.31 22 204.62 22 309 22 C309 15.4 309 8.8 309 2 C306.62947165 2.00276538 306.62947165 2.00276538 304.21105385 2.00558662 C266.7314327 2.04886374 229.25181462 2.08186168 191.77217368 2.10213066 C187.16321991 2.1046322 182.55426619 2.10722083 177.9453125 2.10986328 C177.02771839 2.1103879 176.11012427 2.11091252 175.16472428 2.11145304 C160.28982312 2.12016545 145.41493735 2.13594 130.54004534 2.15430559 C115.28712926 2.17298143 100.03422127 2.18411181 84.78129423 2.18817699 C75.36268805 2.19092687 65.94412538 2.19962491 56.52553259 2.21583293 C50.07464246 2.22637126 43.62377497 2.22960781 37.17287685 2.22700275 C33.44610883 2.22571652 29.71941704 2.22774497 25.99266243 2.23841095 C21.96019645 2.24986816 17.92789467 2.24599822 13.89541626 2.24050903 C12.11237309 2.24924756 12.11237309 2.24924756 10.29330885 2.25816262 C9.21992432 2.25418052 8.14653978 2.25019842 7.04062843 2.24609566 C5.6428779 2.24723482 5.6428779 2.24723482 4.21688998 2.24839699 C2 2 2 2 0 0 Z " fill="#EB1B1B" transform="translate(314,47)"/>
<path d="M0 0 C0.66 0 1.32 0 2 0 C2.22231326 62.0077564 1.53457713 123.98905341 1 186 C-102.29 186 -205.58 186 -312 186 C-312 185.34 -312 184.68 -312 184 C-209.37 184 -106.74 184 -1 184 C-0.67 123.28 -0.34 62.56 0 0 Z " fill="#410661" transform="translate(312,0)"/>
<path d="M0 0 C0.33 0.99 0.66 1.98 1 3 C0.34 3.66 -0.32 4.32 -1 5 C-0.12263184 5.029729 -0.12263184 5.029729 0.77246094 5.06005859 C3.43208025 5.15553481 6.09093838 5.26512142 8.75 5.375 C9.67039063 5.4059375 10.59078125 5.436875 11.5390625 5.46875 C12.42851562 5.50742188 13.31796875 5.54609375 14.234375 5.5859375 C15.05131836 5.6173584 15.86826172 5.6487793 16.70996094 5.68115234 C19.16832958 6.02343693 20.85759999 6.7739277 23 8 C19.58934861 9.03974499 16.47735158 9.11508506 12.921875 9.09765625 C11.76171875 9.09443359 10.6015625 9.09121094 9.40625 9.08789062 C8.1996875 9.07951172 6.993125 9.07113281 5.75 9.0625 C4.52796875 9.05798828 3.3059375 9.05347656 2.046875 9.04882812 C-0.96879946 9.03704815 -3.98437498 9.02059853 -7 9 C-6.34 7.68 -5.68 6.36 -5 5 C-4.34 5 -3.68 5 -3 5 C-3 4.34 -3 3.68 -3 3 C-2.34 3 -1.68 3 -1 3 C-0.67 2.01 -0.34 1.02 0 0 Z " fill="#44306B" transform="translate(227,73)"/>
<path d="M0 0 C1.5613959 2.93270882 2.66538899 5.82068273 3.625 9 C4.01558594 10.2684375 4.01558594 10.2684375 4.4140625 11.5625 C5 14 5 14 5 18 C0.64029169 16.65150163 -3.31341438 14.95092154 -7.375 12.875 C-8.43460938 12.33617188 -9.49421875 11.79734375 -10.5859375 11.2421875 C-11.38257813 10.83226563 -12.17921875 10.42234375 -13 10 C-11.234375 8.8828125 -11.234375 8.8828125 -9 8 C-6.35435928 8.93565342 -4.37036624 10.45014515 -2 12 C-2 11.34 -2 10.68 -2 10 C-0.68 10 0.64 10 2 10 C1.34 9.67 0.68 9.34 0 9 C-1.28571429 2.57142857 -1.28571429 2.57142857 0 0 Z " fill="#1C1472" transform="translate(173,54)"/>
<path d="M0 0 C2 3 2 3 1.7578125 5.109375 C1.44457031 6.41648437 1.44457031 6.41648437 1.125 7.75 C-0.79618422 17.70074903 -0.1667142 27.90994343 0 38 C-0.99 38.495 -0.99 38.495 -2 39 C-4.75006659 26.61230026 -4.24401598 11.97418796 0 0 Z " fill="#170D5D" transform="translate(90,70)"/>
<path d="M0 0 C0.763125 0.061875 1.52625 0.12375 2.3125 0.1875 C1.3125 3.1875 1.3125 3.1875 -0.44995117 4.21484375 C-1.20252197 4.51519531 -1.95509277 4.81554687 -2.73046875 5.125 C-3.55740234 5.46273437 -4.38433594 5.80046875 -5.23632812 6.1484375 C-6.10708984 6.49132812 -6.97785156 6.83421875 -7.875 7.1875 C-9.57756304 7.87316506 -11.27940336 8.56062779 -12.98046875 9.25 C-13.78790527 9.57613281 -14.5953418 9.90226562 -15.42724609 10.23828125 C-18.25811939 11.42713795 -20.96839611 12.7634194 -23.6875 14.1875 C-23.3575 12.8675 -23.0275 11.5475 -22.6875 10.1875 C-20.3775 9.5275 -18.0675 8.8675 -15.6875 8.1875 C-15.6875 7.5275 -15.6875 6.8675 -15.6875 6.1875 C-15.0275 6.1875 -14.3675 6.1875 -13.6875 6.1875 C-13.6875 5.5275 -13.6875 4.8675 -13.6875 4.1875 C-12.429375 4.084375 -11.17125 3.98125 -9.875 3.875 C-5.57001597 3.36142296 -3.97726366 0.27748351 0 0 Z " fill="#120C69" transform="translate(163.6875,91.8125)"/>
<path d="M0 0 C9.24 0 18.48 0 28 0 C28 0.66 28 1.32 28 2 C20.08 2 12.16 2 4 2 C4 2.66 4 3.32 4 4 C2.68 3.34 1.36 2.68 0 2 C0 1.34 0 0.68 0 0 Z " fill="#0A0789" transform="translate(222,106)"/>
<path d="M0 0 C1.35432675 1.31200404 2.68733482 2.64631404 4 4 C4 4.33 4 4.66 4 5 C-5.9 5.33 -15.8 5.66 -26 6 C-26 5.34 -26 4.68 -26 4 C-22.57426063 3.22471521 -19.42760755 2.88081222 -15.91796875 2.90234375 C-14.98662109 2.90556641 -14.05527344 2.90878906 -13.09570312 2.91210938 C-12.13599609 2.92048828 -11.17628906 2.92886719 -10.1875 2.9375 C-9.20845703 2.94201172 -8.22941406 2.94652344 -7.22070312 2.95117188 C-4.81373889 2.96291316 -2.40690143 2.97933581 0 3 C0 2.01 0 1.02 0 0 Z " fill="#241447" transform="translate(166,76)"/>
<path d="M0 0 C1.6097168 0.00966797 1.6097168 0.00966797 3.25195312 0.01953125 C4.9312793 0.04466797 4.9312793 0.04466797 6.64453125 0.0703125 C7.77568359 0.07933594 8.90683594 0.08835937 10.07226562 0.09765625 C12.86739953 0.12124388 15.6621097 0.1541595 18.45703125 0.1953125 C18.12703125 1.5153125 17.79703125 2.8353125 17.45703125 4.1953125 C16.46703125 3.8653125 15.47703125 3.5353125 14.45703125 3.1953125 C12.6853615 3.04695302 10.90935513 2.94761232 9.1328125 2.87890625 C8.10478516 2.83701172 7.07675781 2.79511719 6.01757812 2.75195312 C4.40979492 2.69297852 4.40979492 2.69297852 2.76953125 2.6328125 C1.68607422 2.58962891 0.60261719 2.54644531 -0.51367188 2.50195312 C-3.18997666 2.39584412 -5.86637401 2.29378889 -8.54296875 2.1953125 C-5.14399202 -0.07067198 -3.97977702 -0.04211404 0 0 Z " fill="#0D0B89" transform="translate(149.54296875,105.8046875)"/>
<path d="M0 0 C1.794375 0.6496875 1.794375 0.6496875 3.625 1.3125 C9.95122272 3.43811083 16.46572954 4.68942797 23 6 C23 6.33 23 6.66 23 7 C19.37 7.33 15.74 7.66 12 8 C12 7.34 12 6.68 12 6 C10.989375 5.896875 9.97875 5.79375 8.9375 5.6875 C4.78781792 4.96295233 1.78643737 3.77730734 -2 2 C-1.34 1.34 -0.68 0.68 0 0 Z " fill="#231B7A" transform="translate(118,144)"/>
<path d="M0 0 C4.17383395 3.92831431 7.89394426 8.16479983 11 13 C11 13.66 11 14.32 11 15 C6.7257442 13.4169423 4.73468206 10.49431596 2 7 C1.34 8.32 0.68 9.64 0 11 C-1.26026798 8.47946405 -0.91874445 7.1457902 -0.5625 4.375 C-0.46066406 3.55773437 -0.35882813 2.74046875 -0.25390625 1.8984375 C-0.17011719 1.27195312 -0.08632812 0.64546875 0 0 Z " fill="#271B6C" transform="translate(201,119)"/>
<path d="M0 0 C3.3 0.99 6.6 1.98 10 3 C10 3.66 10 4.32 10 5 C0.43 5.33 -9.14 5.66 -19 6 C-19.33 5.34 -19.66 4.68 -20 4 C-12.74 4 -5.48 4 2 4 C2 3.34 2 2.68 2 2 C1.34 2 0.68 2 0 2 C0 1.34 0 0.68 0 0 Z " fill="#C1980C" transform="translate(240,101)"/>
<path d="M0 0 C0.66 0.33 1.32 0.66 2 1 C2 1.66 2 2.32 2 3 C2.598125 3.020625 3.19625 3.04125 3.8125 3.0625 C6 4 6 4 7.5 7.25 C7.73332031 7.87519531 7.96664062 8.50039062 8.20703125 9.14453125 C9.34764721 11.81346022 11.09709377 13.83462395 13 16 C12.01 16 11.02 16 10 16 C10 15.34 10 14.68 10 14 C9.34 14 8.68 14 8 14 C8 13.34 8 12.68 8 12 C7.34 12 6.68 12 6 12 C4.23828125 10.13671875 4.23828125 10.13671875 2.3125 7.6875 C1.66925781 6.88699219 1.02601563 6.08648437 0.36328125 5.26171875 C-0.08660156 4.51535156 -0.53648437 3.76898438 -1 3 C-0.67 2.01 -0.34 1.02 0 0 Z " fill="#170F61" transform="translate(226,108)"/>
<path d="M0 0 C2.00293347 3.00440021 2.49271626 4.70993945 3.125 8.1875 C3.29257813 9.08855469 3.46015625 9.98960937 3.6328125 10.91796875 C3.75398437 11.60503906 3.87515625 12.29210937 4 13 C3.34 13 2.68 13 2 13 C-0.04849238 10.90316561 -1.64536349 8.59638665 -3 6 C-2.9375 3.125 -2.9375 3.125 -2 1 C-1.34 0.67 -0.68 0.34 0 0 Z " fill="#F0C523" transform="translate(216,129)"/>
<path d="M0 0 C-1.35470453 4.0641136 -3.37411034 4.83841193 -7 7 C-10.00832349 8.39922023 -11.66734965 9 -15 9 C-14 6 -14 6 -11.34765625 4.39453125 C-10.26355469 3.87246094 -9.17945313 3.35039063 -8.0625 2.8125 C-6.98097656 2.28269531 -5.89945313 1.75289063 -4.78515625 1.20703125 C-2 0 -2 0 0 0 Z " fill="#1E136A" transform="translate(174,117)"/>
<path d="M0 0 C2.9719385 1.12451727 5.33440687 2.22293791 8 4 C6.02 4.99 6.02 4.99 4 6 C4.33 8.31 4.66 10.62 5 13 C4.01 13.495 4.01 13.495 3 14 C2.49528803 12.23050388 1.99639315 10.45934777 1.5 8.6875 C1.2215625 7.70136719 0.943125 6.71523437 0.65625 5.69921875 C0 3 0 3 0 0 Z " fill="#150E70" transform="translate(213,115)"/>
<path d="M0 0 C1.65 1.32 3.3 2.64 5 4 C4.05016642 5.50539661 3.08988109 7.00420347 2.125 8.5 C1.59132812 9.3353125 1.05765625 10.170625 0.5078125 11.03125 C0.01023438 11.6809375 -0.48734375 12.330625 -1 13 C-1.66 13 -2.32 13 -3 13 C-2.45144652 8.428721 -1.58255197 4.32564205 0 0 Z " fill="#DBAE2B" transform="translate(173,131)"/>
<path d="M0 0 C2.06895287 3.440592 2.06895287 3.440592 1.7578125 5.96484375 C1.54898438 6.61582031 1.34015625 7.26679687 1.125 7.9375 C0.21226822 11.06770195 -0.20553343 13.71146513 0 17 C-1.32 17.33 -2.64 17.66 -4 18 C-3.41632611 11.69632197 -1.95928381 6.01339937 0 0 Z " fill="#2D225E" transform="translate(217,54)"/>
<path d="M0 0 C-0.33 0.99 -0.66 1.98 -1 3 C-7.93 3 -14.86 3 -22 3 C-22 2.67 -22 2.34 -22 2 C-17.77860536 1.02834437 -13.63206684 0.70403547 -9.3125 0.4375 C-8.63638672 0.39431641 -7.96027344 0.35113281 -7.26367188 0.30664062 C-2.37202381 0 -2.37202381 0 0 0 Z " fill="#04047D" transform="translate(158,149)"/>
<path d="M0 0 C0.99 0.495 0.99 0.495 2 1 C2 1.66 2 2.32 2 3 C2.66 3 3.32 3 4 3 C4 3.66 4 4.32 4 5 C4.66 5 5.32 5 6 5 C7.69140625 6.6796875 7.69140625 6.6796875 9.5625 8.875 C10.18253906 9.59429687 10.80257812 10.31359375 11.44140625 11.0546875 C13 13 13 13 14 15 C9.57224008 14.5655002 7.6061024 11.80679829 4.75 8.625 C4.29109375 8.13 3.8321875 7.635 3.359375 7.125 C0 3.38569568 0 3.38569568 0 0 Z " fill="#21196E" transform="translate(152,61)"/>
<path d="M0 0 C1.48454806 0.59082014 2.96254351 1.19812655 4.4375 1.8125 C5.67306641 2.31716797 5.67306641 2.31716797 6.93359375 2.83203125 C9 4 9 4 10 7 C9.0625 9.1875 9.0625 9.1875 8 11 C7.67 10.01 7.34 9.02 7 8 C6.34 8 5.68 8 5 8 C5 7.34 5 6.68 5 6 C4.34 6 3.68 6 3 6 C0 2.53846154 0 2.53846154 0 0 Z " fill="#F2C510" transform="translate(151,58)"/>
<path d="M0 0 C0.66 0 1.32 0 2 0 C3.5078125 1.96875 3.5078125 1.96875 5.125 4.5 C5.66382813 5.3353125 6.20265625 6.170625 6.7578125 7.03125 C7.16773438 7.6809375 7.57765625 8.330625 8 9 C7.01 9.99 6.02 10.98 5 12 C2.2289312 9.65408148 1.47940716 7.85223799 0.8125 4.3125 C0.65394531 3.50425781 0.49539062 2.69601563 0.33203125 1.86328125 C0.22246094 1.24839844 0.11289063 0.63351563 0 0 Z " fill="#EBC424" transform="translate(170,43)"/>
<path d="M0 0 C0 0.66 0 1.32 0 2 C-3.10996778 3.82976016 -5.18182882 4.20629302 -8.765625 3.9765625 C-9.65507812 3.925 -10.54453125 3.8734375 -11.4609375 3.8203125 C-12.38132813 3.75585938 -13.30171875 3.69140625 -14.25 3.625 C-15.18585938 3.56828125 -16.12171875 3.5115625 -17.0859375 3.453125 C-19.39143448 3.31197212 -21.69578928 3.1605965 -24 3 C-24 2.67 -24 2.34 -24 2 C-22.81921875 1.93941406 -21.6384375 1.87882813 -20.421875 1.81640625 C-18.8645723 1.73197418 -17.30728121 1.64732751 -15.75 1.5625 C-14.97269531 1.52318359 -14.19539062 1.48386719 -13.39453125 1.44335938 C-12.64042969 1.40146484 -11.88632813 1.35957031 -11.109375 1.31640625 C-10.41811523 1.27974854 -9.72685547 1.24309082 -9.01464844 1.20532227 C-6.97357542 1.04616823 -6.97357542 1.04616823 -4.93066406 0.48022461 C-3 0 -3 0 0 0 Z " fill="#9E791A" transform="translate(164,150)"/>
<path d="M0 0 C2.77579761 2.77579761 2.86061387 5.30306937 3.625 9.125 C3.88539062 10.40632813 4.14578125 11.68765625 4.4140625 13.0078125 C4.60742188 13.99523437 4.80078125 14.98265625 5 16 C2 15 2 15 1.015625 13.14453125 C-0.549808 8.37635013 -1.40843329 4.9935362 0 0 Z " fill="#2F2562" transform="translate(62,106)"/>
<path d="M0 0 C-0.99 0.495 -0.99 0.495 -2 1 C4.6 1.33 11.2 1.66 18 2 C18 2.33 18 2.66 18 3 C9.42 3 0.84 3 -8 3 C-5.45189726 -0.82215411 -4.39145359 -1.46381786 0 0 Z " fill="#EAC146" transform="translate(152,102)"/>
<path d="M0 0 C1.32 0 2.64 0 4 0 C4 0.99 4 1.98 4 3 C3.34 3 2.68 3 2 3 C2.33 3.680625 2.66 4.36125 3 5.0625 C4.17307315 8.50840238 4.14180493 11.38397422 4 15 C3.34 14.67 2.68 14.34 2 14 C0.52819204 9.17574056 -0.25376143 5.07522852 0 0 Z " fill="#100A70" transform="translate(168,40)"/>
<path d="M0 0 C0 0.99 0 1.98 0 3 C-0.66 3 -1.32 3 -2 3 C-2 3.66 -2 4.32 -2 5 C-6.455 5.495 -6.455 5.495 -11 6 C-11.33 5.34 -11.66 4.68 -12 4 C-10.56570999 3.32645501 -9.12742943 2.66140299 -7.6875 2 C-6.88699219 1.62875 -6.08648437 1.2575 -5.26171875 0.875 C-3 0 -3 0 0 0 Z " fill="#16125F" transform="translate(240,87)"/>
<path d="M0 0 C4.72065967 1.54269924 9.41664092 3.07794619 14 5 C14 5.66 14 6.32 14 7 C8.63904723 5.41078475 3.29156027 3.81027062 -2 2 C-1.34 1.34 -0.68 0.68 0 0 Z " fill="#1E136F" transform="translate(228,94)"/>
<path d="M0 0 C0 0.66 0 1.32 0 2 C-1.74122549 3.03572896 -3.49336595 4.0531252 -5.25 5.0625 C-6.71179688 5.91521484 -6.71179688 5.91521484 -8.203125 6.78515625 C-11 8 -11 8 -13.359375 7.68359375 C-13.90078125 7.45800781 -14.4421875 7.23242188 -15 7 C-12.87767021 5.82823482 -10.75242209 4.66245215 -8.625 3.5 C-7.72007812 2.99919922 -7.72007812 2.99919922 -6.796875 2.48828125 C-2.2265625 0 -2.2265625 0 0 0 Z " fill="#150E73" transform="translate(238,58)"/>
<path d="M0 0 C0.66 0 1.32 0 2 0 C0.16508812 4.74018901 -1.91941459 9.36413251 -4 14 C-4.66 13.67 -5.32 13.34 -6 13 C-5.60791281 7.64147506 -3.6642613 3.85831875 0 0 Z " fill="#130D73" transform="translate(70,56)"/>
<path d="M0 0 C1.31223496 3.93670488 0.24296256 6.12488144 -1 10 C-2.98 10 -4.96 10 -7 10 C-6.02223933 8.51990357 -5.0427506 7.04094856 -4.0625 5.5625 C-3.51722656 4.73878906 -2.97195312 3.91507813 -2.41015625 3.06640625 C-1 1 -1 1 0 0 Z " fill="#DEB32B" transform="translate(219,44)"/>
<path d="M0 0 C0.66 0 1.32 0 2 0 C2.33 3.3 2.66 6.6 3 10 C1.68 10.33 0.36 10.66 -1 11 C-1.0270043 9.54176788 -1.04639787 8.08339325 -1.0625 6.625 C-1.07410156 5.81289063 -1.08570313 5.00078125 -1.09765625 4.1640625 C-1 2 -1 2 0 0 Z " fill="#CAA12B" transform="translate(195,37)"/>
<path d="M0 0 C2.77426597 4.16139895 4.18550101 7.33049088 3.625 12.375 C3.41875 13.24125 3.2125 14.1075 3 15 C2.34 15 1.68 15 1 15 C0.67 10.05 0.34 5.1 0 0 Z " fill="#191571" transform="translate(218,129)"/>
<path d="M0 0 C-2.05233685 2.2477975 -3.00667261 3.0022242 -6 4 C-8.33299825 4.03954234 -10.66708189 4.04401732 -13 4 C-12 2 -12 2 -9.3125 0.875 C-6.0420565 0.01110926 -3.36293818 -0.16013991 0 0 Z " fill="#282070" transform="translate(134,36)"/>
<path d="M0 0 C3.01217112 0.64449607 5.51655836 1.65022182 8.25 3.0625 C8.95640625 3.42472656 9.6628125 3.78695312 10.390625 4.16015625 C10.92171875 4.43730469 11.4528125 4.71445313 12 5 C11.01 5.66 10.02 6.32 9 7 C7.68381002 6.21448343 6.37214772 5.4213763 5.0625 4.625 C4.33160156 4.18414062 3.60070312 3.74328125 2.84765625 3.2890625 C1 2 1 2 0 0 Z " fill="#1A1669" transform="translate(90,150)"/>
<path d="M0 0 C0.66 0.33 1.32 0.66 2 1 C0.68 2.65 -0.64 4.3 -2 6 C-1.01 5.34 -0.02 4.68 1 4 C2.32 4 3.64 4 5 4 C5 4.66 5 5.32 5 6 C3.02253397 6.73080266 1.01927511 7.39421747 -1 8 C-1.66 7.67 -2.32 7.34 -3 7 C-2.25 2.25 -2.25 2.25 0 0 Z " fill="#251674" transform="translate(153,122)"/>
<path d="M0 0 C0.66 0.33 1.32 0.66 2 1 C1.34 3.64 0.68 6.28 0 9 C-0.99 8.34 -1.98 7.68 -3 7 C-2.625 4.0625 -2.625 4.0625 -2 1 C-1.34 0.67 -0.68 0.34 0 0 Z " fill="#0C0A6E" transform="translate(176,115)"/>
<path d="M0 0 C4.38889325 0.66498383 7.9811485 2.18757677 12 4 C11.67 4.66 11.34 5.32 11 6 C6.95743617 4.77782954 3.50711041 3.37245704 0 1 C0 0.67 0 0.34 0 0 Z " fill="#1B146E" transform="translate(140,82)"/>
<path d="M0 0 C1.32 0 2.64 0 4 0 C4 0.66 4 1.32 4 2 C5.98 2.66 7.96 3.32 10 4 C10 4.66 10 5.32 10 6 C8.6078125 5.505 8.6078125 5.505 7.1875 5 C4.07970709 3.85032996 4.07970709 3.85032996 1 4 C0.67 2.68 0.34 1.36 0 0 Z " fill="#150D67" transform="translate(150,56)"/>
<path d="M0 0 C0.99 0 1.98 0 3 0 C5 3 5 3 5 6 C4.01 6.33 3.02 6.66 2 7 C0.4375 5.1875 0.4375 5.1875 -1 3 C-0.67 2.01 -0.34 1.02 0 0 Z " fill="#12096E" transform="translate(179,50)"/>
<path d="M0 0 C0.66 0.33 1.32 0.66 2 1 C-0.5162178 3.60608273 -3.05134359 5.89381685 -6 8 C-6.66 7.67 -7.32 7.34 -8 7 C-7.34 6.01 -6.68 5.02 -6 4 C-5.34 4 -4.68 4 -4 4 C-4 3.34 -4 2.68 -4 2 C-2.125 0.9375 -2.125 0.9375 0 0 Z " fill="#2E2279" transform="translate(118,40)"/>
<path d="M0 0 C3 1 3 1 4.16796875 2.84765625 C4.50441406 3.57855469 4.84085937 4.30945313 5.1875 5.0625 C5.53167969 5.79597656 5.87585938 6.52945313 6.23046875 7.28515625 C6.48441406 7.85105469 6.73835938 8.41695312 7 9 C6.01 9.495 6.01 9.495 5 10 C4.16121545 8.71186658 3.32913217 7.41936744 2.5 6.125 C2.0359375 5.40570313 1.571875 4.68640625 1.09375 3.9453125 C0 2 0 2 0 0 Z " fill="#241A67" transform="translate(93,120)"/>
<path d="M0 0 C2 3 2 3 1.625 6.1875 C1.41875 7.115625 1.2125 8.04375 1 9 C0.01 9.33 -0.98 9.66 -2 10 C-1.46274105 6.62294375 -0.88935377 3.303314 0 0 Z " fill="#362B74" transform="translate(90,70)"/>
<path d="M0 0 C0 0.66 0 1.32 0 2 C-3.4019487 4.09350689 -6.05272412 4.17942163 -10 4 C-6.70320317 0.70320317 -4.71687256 0 0 0 Z " fill="#2C2171" transform="translate(160,154)"/>
<path d="M0 0 C0.33 0 0.66 0 1 0 C1.33 4.29 1.66 8.58 2 13 C1.34 13 0.68 13 0 13 C-1.0161692 8.37078475 -0.83796731 4.65537393 0 0 Z " fill="#1F1660" transform="translate(192,136)"/>
<path d="M0 0 C1.88391785 3.26545761 2.49287967 6.28111761 3 10 C1 10 1 10 -0.75 8.375 C-2 6 -2 6 -1.1875 2.75 C-0.795625 1.8425 -0.40375 0.935 0 0 Z " fill="#D1A72A" transform="translate(217,132)"/>
<path d="M0 0 C2.64 0 5.28 0 8 0 C7.67 1.32 7.34 2.64 7 4 C4.49642139 3.1654738 2.33214148 2.20628008 0 1 C0 0.67 0 0.34 0 0 Z " fill="#07067E" transform="translate(160,106)"/>
<path d="M0 0 C0.66 0.33 1.32 0.66 2 1 C0.35 2.65 -1.3 4.3 -3 6 C-4.32 5.34 -5.64 4.68 -7 4 C-1.7265625 0.77734375 -1.7265625 0.77734375 0 0 Z " fill="#DAAD3F" transform="translate(238,59)"/>
<path d="M0 0 C1.88391785 3.26545761 2.49287967 6.28111761 3 10 C2.01 9.67 1.02 9.34 0 9 C-1.125 2.25 -1.125 2.25 0 0 Z " fill="#362B6E" transform="translate(173,54)"/>
<path d="M0 0 C0.94875 0.350625 1.8975 0.70125 2.875 1.0625 C2.875 1.7225 2.875 2.3825 2.875 3.0625 C3.535 3.3925 4.195 3.7225 4.875 4.0625 C0.65587253 3.5830537 -1.92163178 2.89624881 -5.125 0.0625 C-3.125 -0.9375 -3.125 -0.9375 0 0 Z " fill="#2B2368" transform="translate(121.125,144.9375)"/>
<path d="M0 0 C0 0.66 0 1.32 0 2 C0.66 2.33 1.32 2.66 2 3 C-1.71888239 2.49287967 -4.73454239 1.88391785 -8 0 C-5.13822943 -1.43088528 -3.06624227 -0.59991697 0 0 Z " fill="#2B2576" transform="translate(150,27)"/>
<path d="M0 0 C0.99 0 1.98 0 3 0 C5.80255323 2.9063515 6 3.78825048 6 8 C5.34 8 4.68 8 4 8 C2.68 5.36 1.36 2.72 0 0 Z " fill="#161070" transform="translate(212,136)"/>
<path d="M0 0 C0.33 0.66 0.66 1.32 1 2 C1.99 2.33 2.98 2.66 4 3 C-1.75 6 -1.75 6 -4 6 C-2.84826645 3.53199953 -1.95216435 1.95216435 0 0 Z " fill="#D4A837" transform="translate(155,122)"/>
<path d="M0 0 C0.763125 0.0825 1.52625 0.165 2.3125 0.25 C1.9825 1.24 1.6525 2.23 1.3125 3.25 C-0.9975 3.58 -3.3075 3.91 -5.6875 4.25 C-3.34903846 0.31153846 -3.34903846 0.31153846 0 0 Z " fill="#150D84" transform="translate(163.6875,91.75)"/>
<path d="M0 0 C1.32 0 2.64 0 4 0 C4 2.31 4 4.62 4 7 C3.34 6.67 2.68 6.34 2 6 C2 5.34 2 4.68 2 4 C1.34 4 0.68 4 0 4 C0 2.68 0 1.36 0 0 Z " fill="#100C89" transform="translate(186,60)"/>
<path d="M0 0 C4.455 1.98 4.455 1.98 9 4 C7.68 4.33 6.36 4.66 5 5 C4.01 5.495 4.01 5.495 3 6 C0 2.25 0 2.25 0 0 Z " fill="#CFA522" transform="translate(151,58)"/>
<path d="M0 0 C0.66 0 1.32 0 2 0 C3.38938077 1.96147874 4.7260411 3.96166576 6 6 C0.25 4.25 0.25 4.25 -2 2 C-1.34 2 -0.68 2 0 2 C0 1.34 0 0.68 0 0 Z " fill="#D2AD26" transform="translate(234,122)"/>
<path d="M0 0 C2.64752004 2.57784846 4.94432065 4.91648098 7 8 C6.01 8 5.02 8 4 8 C4 7.34 4 6.68 4 6 C3.34 6 2.68 6 2 6 C2 5.34 2 4.68 2 4 C1.34 4 0.68 4 0 4 C0 2.68 0 1.36 0 0 Z " fill="#261C7F" transform="translate(232,116)"/>
<path d="M0 0 C0.66 0 1.32 0 2 0 C4 3 4 3 3.625 6.1875 C3.41875 7.115625 3.2125 8.04375 3 9 C1.35173889 6.03312999 0.55728913 3.34373475 0 0 Z " fill="#CBA429" transform="translate(170,43)"/>
<path d="M0 0 C0.66 0 1.32 0 2 0 C1.67 1.98 1.34 3.96 1 6 C-0.65 6 -2.3 6 -4 6 C-2.7260411 3.96166576 -1.38938077 1.96147874 0 0 Z " fill="#281C7E" transform="translate(188,120)"/>
<path d="M0 0 C3.14624993 -0.26218749 4.61837017 -0.24754367 7.3125 1.5 C8.1478125 2.2425 8.1478125 2.2425 9 3 C6 4 6 4 2.8125 2.5625 C1.884375 2.046875 0.95625 1.53125 0 1 C0 0.67 0 0.34 0 0 Z " fill="#131073" transform="translate(152,88)"/>
<path d="M0 0 C0.66 0 1.32 0 2 0 C2 1.98 2 3.96 2 6 C1.01 6.33 0.02 6.66 -1 7 C-0.67 4.69 -0.34 2.38 0 0 Z " fill="#261D75" transform="translate(62,72)"/>
</svg>
