<?xml version="1.0" encoding="UTF-8"?>
<!DOCTYPE svg PUBLIC "-//W3C//DTD SVG 1.1//EN" "http://www.w3.org/Graphics/SVG/1.1/DTD/svg11.dtd">
<svg xmlns="http://www.w3.org/2000/svg" version="1.1" width="256px" height="256px" style="shape-rendering:geometricPrecision; text-rendering:geometricPrecision; image-rendering:optimizeQuality; fill-rule:evenodd; clip-rule:evenodd" xmlns:xlink="http://www.w3.org/1999/xlink">
<g><path style="opacity:1" fill="#fefefe" d="M -0.5,-0.5 C 84.8333,-0.5 170.167,-0.5 255.5,-0.5C 255.5,84.8333 255.5,170.167 255.5,255.5C 170.167,255.5 84.8333,255.5 -0.5,255.5C -0.5,170.167 -0.5,84.8333 -0.5,-0.5 Z"/></g>
<g><path style="opacity:1" fill="#f9f1d6" d="M 173.5,7.5 C 172.167,7.16667 170.833,6.83333 169.5,6.5C 167.776,4.83751 165.609,3.83751 163,3.5C 162.235,3.56993 161.735,3.90326 161.5,4.5C 160.957,4.44001 160.624,4.10667 160.5,3.5C 165.762,2.22622 170.096,3.55956 173.5,7.5 Z"/></g>
<g><path style="opacity:1" fill="#f5e6b9" d="M 173.5,7.5 C 175.967,7.75488 177.967,8.75488 179.5,10.5C 177.033,10.2451 175.033,9.24512 173.5,7.5 Z"/></g>
<g><path style="opacity:1" fill="#f7eac5" d="M 179.5,10.5 C 182.812,10.149 185.145,11.4823 186.5,14.5C 183.9,13.5324 181.566,12.1991 179.5,10.5 Z"/></g>
<g><path style="opacity:1" fill="#f1ce4c" d="M 161.5,4.5 C 161.735,3.90326 162.235,3.56993 163,3.5C 165.609,3.83751 167.776,4.83751 169.5,6.5C 167.352,6.38937 167.019,7.05604 168.5,8.5C 171.685,11.8847 175.352,14.5514 179.5,16.5C 181.616,18.3999 182.949,20.7332 183.5,23.5C 182.957,23.56 182.624,23.8933 182.5,24.5C 183.372,26.4496 184.039,28.4496 184.5,30.5C 182.395,27.973 180.061,25.6397 177.5,23.5C 172.137,17.1417 166.804,10.8084 161.5,4.5 Z"/></g>
<g><path style="opacity:1" fill="#e7bb2a" d="M 169.5,6.5 C 170.833,6.83333 172.167,7.16667 173.5,7.5C 175.033,9.24512 177.033,10.2451 179.5,10.5C 181.566,12.1991 183.9,13.5324 186.5,14.5C 195.755,19.6267 204.088,25.9601 211.5,33.5C 210.85,33.1961 210.183,32.8627 209.5,32.5C 209.002,33.6034 208.669,34.6034 208.5,35.5C 202.224,33.1663 201.89,34.1663 207.5,38.5C 206.529,39.9621 206.862,41.2954 208.5,42.5C 210.69,44.524 213.023,46.3573 215.5,48C 214.5,48.3333 213.5,48.6667 212.5,49C 214.286,49.7845 215.786,50.9512 217,52.5C 218.034,55.9857 219.367,59.319 221,62.5C 221.705,66.2886 220.205,68.6219 216.5,69.5C 216.33,68.1779 216.663,67.0113 217.5,66C 214.173,61.1799 211.507,56.0133 209.5,50.5C 206.905,47.612 204.572,44.612 202.5,41.5C 202.631,40.7611 202.464,40.0944 202,39.5C 198.073,37.6362 194.906,34.9695 192.5,31.5C 190.746,27.4118 187.746,24.7451 183.5,23.5C 182.949,20.7332 181.616,18.3999 179.5,16.5C 175.352,14.5514 171.685,11.8847 168.5,8.5C 167.019,7.05604 167.352,6.38937 169.5,6.5 Z"/></g>
<g><path style="opacity:1" fill="#f1dbc5" d="M 177.5,23.5 C 180.061,25.6397 182.395,27.973 184.5,30.5C 184.5,31.1667 184.5,31.8333 184.5,32.5C 181.426,29.9895 179.093,26.9895 177.5,23.5 Z"/></g>
<g><path style="opacity:1" fill="#fce94d" d="M 183.5,23.5 C 185.571,26.8039 188.071,29.8039 191,32.5C 194.596,41.1217 198.096,49.7884 201.5,58.5C 201.5,59.8333 201.5,61.1667 201.5,62.5C 201.167,62.5 200.833,62.5 200.5,62.5C 197.775,50.3827 192.441,39.716 184.5,30.5C 184.039,28.4496 183.372,26.4496 182.5,24.5C 182.624,23.8933 182.957,23.56 183.5,23.5 Z"/></g>
<g><path style="opacity:1" fill="#ea9b2d" d="M 184.5,30.5 C 192.441,39.716 197.775,50.3827 200.5,62.5C 201.81,67.7434 202.476,73.0767 202.5,78.5C 202.826,87.0168 202.493,95.3501 201.5,103.5C 201.729,93.4679 201.396,83.4679 200.5,73.5C 200.59,70.8478 199.924,68.5145 198.5,66.5C 198.483,64.4352 198.15,62.4352 197.5,60.5C 197.741,58.1016 197.074,56.1016 195.5,54.5C 195.448,51.6538 194.448,49.3204 192.5,47.5C 190.965,41.8963 188.299,36.8963 184.5,32.5C 184.5,31.8333 184.5,31.1667 184.5,30.5 Z"/></g>
<g><path style="opacity:1" fill="#f2d2b8" d="M 192.5,47.5 C 194.448,49.3204 195.448,51.6538 195.5,54.5C 193.643,52.7185 192.643,50.3852 192.5,47.5 Z"/></g>
<g><path style="opacity:1" fill="#efc29c" d="M 195.5,54.5 C 197.074,56.1016 197.741,58.1016 197.5,60.5C 195.926,58.8984 195.259,56.8984 195.5,54.5 Z"/></g>
<g><path style="opacity:1" fill="#efbd2a" d="M 211.5,33.5 C 214.082,35.2324 216.582,37.2324 219,39.5C 223.31,45.1489 227.644,50.8156 232,56.5C 235.55,62.2002 238.384,68.2002 240.5,74.5C 240.557,75.609 240.89,76.609 241.5,77.5C 240.069,77.1193 239.236,76.1193 239,74.5C 236.282,77.949 237.115,80.7823 241.5,83C 241,83.5 240.5,84 240,84.5C 237.737,83.4113 235.904,84.078 234.5,86.5C 235.025,87.1924 235.692,87.6924 236.5,88C 236.167,88.3333 235.833,88.6667 235.5,89C 233.721,88.0209 232.055,88.3542 230.5,90C 232.891,90.6914 232.891,91.6914 230.5,93C 232.066,93.6082 233.4,94.4415 234.5,95.5C 233.001,97.1643 232.001,99.1643 231.5,101.5C 231.861,104.32 231.861,106.987 231.5,109.5C 229.804,109.685 228.471,110.519 227.5,112C 227.428,114.176 227.762,116.176 228.5,118C 226.663,121.645 224.663,121.978 222.5,119C 223.664,117.006 224.331,114.839 224.5,112.5C 223.731,106.09 223.731,99.5903 224.5,93C 227.97,88.6012 228.47,83.7679 226,78.5C 223.948,77.2071 221.781,76.2071 219.5,75.5C 217.654,73.9699 216.654,71.9699 216.5,69.5C 220.205,68.6219 221.705,66.2886 221,62.5C 219.367,59.319 218.034,55.9857 217,52.5C 215.786,50.9512 214.286,49.7845 212.5,49C 213.5,48.6667 214.5,48.3333 215.5,48C 213.023,46.3573 210.69,44.524 208.5,42.5C 206.862,41.2954 206.529,39.9621 207.5,38.5C 201.89,34.1663 202.224,33.1663 208.5,35.5C 208.669,34.6034 209.002,33.6034 209.5,32.5C 210.183,32.8627 210.85,33.1961 211.5,33.5 Z"/></g>
<g><path style="opacity:1" fill="#efbd8e" d="M 198.5,66.5 C 199.924,68.5145 200.59,70.8478 200.5,73.5C 199.076,71.4855 198.41,69.1522 198.5,66.5 Z"/></g>
<g><path style="opacity:1" fill="#fcdb83" d="M 240.5,74.5 C 242.176,75.1834 242.843,76.5168 242.5,78.5C 243.11,79.391 243.443,80.391 243.5,81.5C 241.896,80.713 241.229,79.3797 241.5,77.5C 240.89,76.609 240.557,75.609 240.5,74.5 Z"/></g>
<g><path style="opacity:1" fill="#feefc6" d="M 242.5,78.5 C 244.379,79.8952 245.379,81.8952 245.5,84.5C 243.952,84.1788 243.285,83.1788 243.5,81.5C 243.443,80.391 243.11,79.391 242.5,78.5 Z"/></g>
<g><path style="opacity:1" fill="#fabf16" d="M 200.5,62.5 C 200.833,62.5 201.167,62.5 201.5,62.5C 203.763,68.9636 204.763,75.6303 204.5,82.5C 204.821,88.0262 204.488,93.3595 203.5,98.5C 203.824,91.6457 203.491,84.979 202.5,78.5C 202.476,73.0767 201.81,67.7434 200.5,62.5 Z"/></g>
<g><path style="opacity:1" fill="#fef64f" d="M 201.5,58.5 C 202.434,59.5676 202.768,60.901 202.5,62.5C 207.386,78.2319 208.719,94.2319 206.5,110.5C 206.827,100.985 206.494,91.6517 205.5,82.5C 205.167,82.5 204.833,82.5 204.5,82.5C 204.763,75.6303 203.763,68.9636 201.5,62.5C 201.5,61.1667 201.5,59.8333 201.5,58.5 Z"/></g>
<g><path style="opacity:1" fill="#fbd96f" d="M 246.5,92.5 C 247.924,94.5145 248.59,96.8478 248.5,99.5C 247.076,97.4855 246.41,95.1522 246.5,92.5 Z"/></g>
<g><path style="opacity:1" fill="#f1ca44" d="M 202.5,41.5 C 204.572,44.612 206.905,47.612 209.5,50.5C 211.507,56.0133 214.173,61.1799 217.5,66C 216.663,67.0113 216.33,68.1779 216.5,69.5C 216.654,71.9699 217.654,73.9699 219.5,75.5C 219.586,76.4959 219.252,77.3292 218.5,78C 219.999,80.7494 221.332,83.5828 222.5,86.5C 222.534,97.1093 222.201,107.943 221.5,119C 223.889,123.158 223.222,126.991 219.5,130.5C 220.369,133.763 221.703,134.096 223.5,131.5C 224.167,131.833 224.833,132.167 225.5,132.5C 226.257,135.132 226.59,137.632 226.5,140C 225.12,141.324 224.786,142.657 225.5,144C 223.086,146.996 220.253,149.496 217,151.5C 216.392,153.154 215.892,154.821 215.5,156.5C 215.056,158.113 214.056,159.28 212.5,160C 213.308,160.308 213.975,160.808 214.5,161.5C 211.602,162.729 210.102,165.395 210,169.5C 208.431,170.938 206.931,172.438 205.5,174C 205.833,174.333 206.167,174.667 206.5,175C 202.639,175.569 202.639,176.402 206.5,177.5C 204.554,179.104 202.388,180.437 200,181.5C 198.437,180.898 198.604,180.065 200.5,179C 199.552,178.517 198.552,178.351 197.5,178.5C 196.377,180.958 196.377,183.125 197.5,185C 196.675,186.688 195.675,186.855 194.5,185.5C 193.5,186 192.5,186.5 191.5,187C 186.815,192.083 182.148,197.083 177.5,202C 175.598,203.651 173.598,203.984 171.5,203C 169.227,206.386 166.227,208.886 162.5,210.5C 161.573,212.113 160.739,213.779 160,215.5C 155.271,213.765 150.937,214.432 147,217.5C 146.099,220.071 144.766,222.404 143,224.5C 140.174,221.026 136.674,220.026 132.5,221.5C 132.833,222.167 133.167,222.833 133.5,223.5C 130.845,223.975 128.845,225.309 127.5,227.5C 125.738,227.357 124.071,227.691 122.5,228.5C 119.519,227.26 117.686,225.593 117,223.5C 111.089,224.004 105.256,224.004 99.5,223.5C 99.8333,222.833 100.167,222.167 100.5,221.5C 101.807,220.847 103.14,220.18 104.5,219.5C 106.523,220.54 108.523,221.54 110.5,222.5C 116.519,219.913 122.853,218.413 129.5,218C 131.452,217.634 133.118,216.801 134.5,215.5C 133.913,216.767 133.913,217.767 134.5,218.5C 135.192,217.975 135.692,217.308 136,216.5C 138.8,217.443 141.634,217.276 144.5,216C 150.681,212.743 157.015,209.743 163.5,207C 167.101,203.906 171.101,201.406 175.5,199.5C 179.71,196.347 182.71,193.013 184.5,189.5C 186.973,189.264 188.64,187.931 189.5,185.5C 196.555,177.8 202.722,168.8 208,158.5C 208.897,155.51 209.731,152.51 210.5,149.5C 211.242,148.713 212.075,148.047 213,147.5C 213.848,137.945 216.015,128.778 219.5,120C 218.868,111.454 218.368,102.621 218,93.5C 216.579,87.0277 215.079,80.6943 213.5,74.5C 213.666,70.4862 213.499,66.4862 213,62.5C 206.988,56.877 203.488,49.877 202.5,41.5 Z"/></g>
<g><path style="opacity:1" fill="#f7c128" d="M 241.5,77.5 C 241.229,79.3797 241.896,80.713 243.5,81.5C 243.285,83.1788 243.952,84.1788 245.5,84.5C 245.833,87.1667 246.167,89.8333 246.5,92.5C 246.41,95.1522 247.076,97.4855 248.5,99.5C 248.5,100.167 248.5,100.833 248.5,101.5C 249.99,113.779 250.656,126.112 250.5,138.5C 250.5,140.5 250.5,142.5 250.5,144.5C 249.076,146.515 248.41,148.848 248.5,151.5C 248.595,154.692 247.929,157.692 246.5,160.5C 244.187,162.371 242.02,164.371 240,166.5C 239.333,163.833 238.667,163.833 238,166.5C 237.535,165.069 236.701,163.903 235.5,163C 235.833,162.667 236.167,162.333 236.5,162C 234.998,161.417 233.665,160.584 232.5,159.5C 232.579,155.89 233.413,152.224 235,148.5C 236.635,147.274 238.135,145.941 239.5,144.5C 239.274,140.9 237.608,138.234 234.5,136.5C 235.682,134.239 237.349,132.405 239.5,131C 237.285,129.609 237.285,127.943 239.5,126C 236.803,122.729 237.136,119.729 240.5,117C 238.875,116.147 238.542,115.147 239.5,114C 236.12,108.391 234.453,102.225 234.5,95.5C 233.4,94.4415 232.066,93.6082 230.5,93C 232.891,91.6914 232.891,90.6914 230.5,90C 232.055,88.3542 233.721,88.0209 235.5,89C 235.833,88.6667 236.167,88.3333 236.5,88C 235.692,87.6924 235.025,87.1924 234.5,86.5C 235.904,84.078 237.737,83.4113 240,84.5C 240.5,84 241,83.5 241.5,83C 237.115,80.7823 236.282,77.949 239,74.5C 239.236,76.1193 240.069,77.1193 241.5,77.5 Z"/></g>
<g><path style="opacity:1" fill="#fcd31d" d="M 204.5,82.5 C 204.833,82.5 205.167,82.5 205.5,82.5C 205.666,88.5092 205.499,94.5092 205,100.5C 204.924,104.796 204.091,108.796 202.5,112.5C 203.127,107.859 203.46,103.193 203.5,98.5C 204.488,93.3595 204.821,88.0262 204.5,82.5 Z"/></g>
<g><path style="opacity:1" fill="#fded34" d="M 205.5,82.5 C 206.494,91.6517 206.827,100.985 206.5,110.5C 203.156,119.548 200.656,128.881 199,138.5C 194.399,146.036 190.066,153.703 186,161.5C 184.887,162.305 183.721,162.972 182.5,163.5C 182.5,162.5 182.5,161.5 182.5,160.5C 183.63,158.685 184.296,156.685 184.5,154.5C 185.833,152.833 187.167,151.167 188.5,149.5C 194.587,142.317 198.254,133.984 199.5,124.5C 199.898,120.239 200.898,116.239 202.5,112.5C 204.091,108.796 204.924,104.796 205,100.5C 205.499,94.5092 205.666,88.5092 205.5,82.5 Z"/></g>
<g><path style="opacity:1" fill="#f4c22d" d="M 234.5,95.5 C 234.453,102.225 236.12,108.391 239.5,114C 238.542,115.147 238.875,116.147 240.5,117C 237.136,119.729 236.803,122.729 239.5,126C 237.285,127.943 237.285,129.609 239.5,131C 237.349,132.405 235.682,134.239 234.5,136.5C 237.608,138.234 239.274,140.9 239.5,144.5C 238.135,145.941 236.635,147.274 235,148.5C 233.413,152.224 232.579,155.89 232.5,159.5C 233.665,160.584 234.998,161.417 236.5,162C 236.167,162.333 235.833,162.667 235.5,163C 236.701,163.903 237.535,165.069 238,166.5C 238.667,163.833 239.333,163.833 240,166.5C 242.02,164.371 244.187,162.371 246.5,160.5C 244.879,164.743 243.546,169.076 242.5,173.5C 241.094,173.973 240.427,174.973 240.5,176.5C 240.5,176.833 240.5,177.167 240.5,177.5C 238.755,179.033 237.755,181.033 237.5,183.5C 237.5,183.833 237.5,184.167 237.5,184.5C 235.169,187.528 233.169,190.862 231.5,194.5C 229.478,196.531 227.811,198.865 226.5,201.5C 223.614,205.263 220.281,208.597 216.5,211.5C 215.069,211.119 214.236,210.119 214,208.5C 210.42,208.68 207.753,210.68 206,214.5C 205.167,213.667 204.333,212.833 203.5,212C 205.491,208.71 208.158,206.043 211.5,204C 210.624,201.854 209.291,200.021 207.5,198.5C 206.076,201.106 204.743,201.106 203.5,198.5C 203.541,196.255 204.375,195.588 206,196.5C 207.074,195.382 208.24,194.382 209.5,193.5C 209.291,192.914 208.957,192.414 208.5,192C 209.833,190.667 211.167,189.333 212.5,188C 212.167,187.667 211.833,187.333 211.5,187C 213.943,184.522 216.776,182.688 220,181.5C 220.627,179.414 220.127,179.081 218.5,180.5C 217.289,179.726 217.289,178.893 218.5,178C 216.203,176.84 216.536,175.84 219.5,175C 219.263,172.712 219.263,170.212 219.5,167.5C 220.873,167.343 222.207,167.51 223.5,168C 222.304,168.654 222.304,169.154 223.5,169.5C 224.842,167.658 226.509,166.158 228.5,165C 228,164.5 227.5,164 227,163.5C 222.021,166.272 221.521,165.772 225.5,162C 225.355,161.228 225.022,160.561 224.5,160C 225.833,159.333 227.167,158.667 228.5,158C 227.542,156.853 227.875,155.853 229.5,155C 228.97,150.247 230.303,145.914 233.5,142C 232.912,140.08 231.912,138.413 230.5,137C 231.833,135.667 231.833,134.333 230.5,133C 231.191,131.933 231.691,130.766 232,129.5C 232.333,129.833 232.667,130.167 233,130.5C 234.214,128.951 235.714,127.785 237.5,127C 236.675,125.312 235.675,125.145 234.5,126.5C 233.62,123.889 232.954,121.222 232.5,118.5C 232.818,117.353 233.484,116.519 234.5,116C 231.456,115.641 231.122,114.974 233.5,114C 233.794,112.346 233.127,110.846 231.5,109.5C 231.861,106.987 231.861,104.32 231.5,101.5C 232.001,99.1643 233.001,97.1643 234.5,95.5 Z"/></g>
<g><path style="opacity:1" fill="#f5cca7" d="M 200.5,104.5 C 200.54,107.881 200.207,111.214 199.5,114.5C 199.167,114.5 198.833,114.5 198.5,114.5C 198.549,110.922 199.215,107.589 200.5,104.5 Z"/></g>
<g><path style="opacity:1" fill="#f4961e" d="M 202.5,78.5 C 203.491,84.979 203.824,91.6457 203.5,98.5C 203.46,103.193 203.127,107.859 202.5,112.5C 200.898,116.239 199.898,120.239 199.5,124.5C 199.167,124.5 198.833,124.5 198.5,124.5C 198.616,121.14 198.949,117.807 199.5,114.5C 200.207,111.214 200.54,107.881 200.5,104.5C 200.5,103.833 200.833,103.5 201.5,103.5C 202.493,95.3501 202.826,87.0168 202.5,78.5 Z"/></g>
<g><path style="opacity:1" fill="#fdd76e" d="M 248.5,101.5 C 250.021,105.36 251.021,109.36 251.5,113.5C 251.826,122.017 251.493,130.35 250.5,138.5C 250.656,126.112 249.99,113.779 248.5,101.5 Z"/></g>
<g><path style="opacity:1" fill="#f3b883" d="M 197.5,120.5 C 197.741,122.898 197.074,124.898 195.5,126.5C 195.259,124.102 195.926,122.102 197.5,120.5 Z"/></g>
<g><path style="opacity:1" fill="#f9dfc9" d="M 195.5,126.5 C 194.351,130.788 192.684,134.788 190.5,138.5C 190.737,133.734 192.404,129.734 195.5,126.5 Z"/></g>
<g><path style="opacity:1" fill="#f0d054" d="M 192.5,31.5 C 194.906,34.9695 198.073,37.6362 202,39.5C 202.464,40.0944 202.631,40.7611 202.5,41.5C 203.488,49.877 206.988,56.877 213,62.5C 213.499,66.4862 213.666,70.4862 213.5,74.5C 214.55,86.5416 215.884,98.5416 217.5,110.5C 214.991,130.218 209.158,148.885 200,166.5C 195.501,170.843 192.001,175.843 189.5,181.5C 188.448,181.351 187.448,181.517 186.5,182C 183.161,186.205 179.495,190.038 175.5,193.5C 174.311,194.429 172.978,194.762 171.5,194.5C 187.993,180.537 200.327,163.703 208.5,144C 207.859,138.006 208.859,132.173 211.5,126.5C 212.325,125.614 213.325,125.281 214.5,125.5C 215.332,119.516 215.499,113.516 215,107.5C 214.292,106.619 213.458,105.953 212.5,105.5C 212.228,101.098 212.561,96.7649 213.5,92.5C 212.432,83.0078 210.599,73.6745 208,64.5C 207,63.1667 206,61.8333 205,60.5C 204.313,56.4204 203.313,52.4204 202,48.5C 198.936,42.6463 195.769,36.9796 192.5,31.5 Z"/></g>
<g><path style="opacity:1" fill="#fccb25" d="M 198.5,124.5 C 198.833,124.5 199.167,124.5 199.5,124.5C 198.254,133.984 194.587,142.317 188.5,149.5C 192.652,141.525 195.985,133.192 198.5,124.5 Z"/></g>
<g><path style="opacity:1" fill="#f3c435" d="M 219.5,75.5 C 221.781,76.2071 223.948,77.2071 226,78.5C 228.47,83.7679 227.97,88.6012 224.5,93C 223.731,99.5903 223.731,106.09 224.5,112.5C 224.331,114.839 223.664,117.006 222.5,119C 224.663,121.978 226.663,121.645 228.5,118C 227.762,116.176 227.428,114.176 227.5,112C 228.471,110.519 229.804,109.685 231.5,109.5C 233.127,110.846 233.794,112.346 233.5,114C 231.122,114.974 231.456,115.641 234.5,116C 233.484,116.519 232.818,117.353 232.5,118.5C 232.954,121.222 233.62,123.889 234.5,126.5C 235.675,125.145 236.675,125.312 237.5,127C 235.714,127.785 234.214,128.951 233,130.5C 232.667,130.167 232.333,129.833 232,129.5C 231.691,130.766 231.191,131.933 230.5,133C 231.833,134.333 231.833,135.667 230.5,137C 231.912,138.413 232.912,140.08 233.5,142C 230.303,145.914 228.97,150.247 229.5,155C 227.875,155.853 227.542,156.853 228.5,158C 227.167,158.667 225.833,159.333 224.5,160C 225.022,160.561 225.355,161.228 225.5,162C 221.521,165.772 222.021,166.272 227,163.5C 227.5,164 228,164.5 228.5,165C 226.509,166.158 224.842,167.658 223.5,169.5C 222.304,169.154 222.304,168.654 223.5,168C 222.207,167.51 220.873,167.343 219.5,167.5C 219.263,170.212 219.263,172.712 219.5,175C 216.536,175.84 216.203,176.84 218.5,178C 217.289,178.893 217.289,179.726 218.5,180.5C 220.127,179.081 220.627,179.414 220,181.5C 216.776,182.688 213.943,184.522 211.5,187C 211.833,187.333 212.167,187.667 212.5,188C 211.167,189.333 209.833,190.667 208.5,192C 208.957,192.414 209.291,192.914 209.5,193.5C 208.24,194.382 207.074,195.382 206,196.5C 204.375,195.588 203.541,196.255 203.5,198.5C 201.887,198.944 200.72,199.944 200,201.5C 199.667,200.833 199.333,200.167 199,199.5C 196.523,202.95 194.356,202.95 192.5,199.5C 193.598,198.603 193.598,197.77 192.5,197C 197.657,191.605 203.323,186.939 209.5,183C 208.672,182.085 207.672,181.419 206.5,181C 207.745,178.343 209.745,176.51 212.5,175.5C 213.466,173.604 213.799,171.604 213.5,169.5C 214.5,169.5 215.5,169.5 216.5,169.5C 216.02,166.315 216.686,163.481 218.5,161C 218.085,158.974 217.085,157.474 215.5,156.5C 215.892,154.821 216.392,153.154 217,151.5C 220.253,149.496 223.086,146.996 225.5,144C 224.786,142.657 225.12,141.324 226.5,140C 226.59,137.632 226.257,135.132 225.5,132.5C 224.833,132.167 224.167,131.833 223.5,131.5C 221.703,134.096 220.369,133.763 219.5,130.5C 223.222,126.991 223.889,123.158 221.5,119C 222.201,107.943 222.534,97.1093 222.5,86.5C 221.332,83.5828 219.999,80.7494 218.5,78C 219.252,77.3292 219.586,76.4959 219.5,75.5 Z"/></g>
<g><path style="opacity:1" fill="#fef7e3" d="M 251.5,113.5 C 252.166,118.489 252.499,123.656 252.5,129C 252.495,134.546 251.828,139.712 250.5,144.5C 250.5,142.5 250.5,140.5 250.5,138.5C 251.493,130.35 251.826,122.017 251.5,113.5 Z"/></g>
<g><path style="opacity:1" fill="#efb682" d="M 189.5,141.5 C 189.573,143.027 188.906,144.027 187.5,144.5C 187.427,142.973 188.094,141.973 189.5,141.5 Z"/></g>
<g><path style="opacity:1" fill="#ee922f" d="M 198.5,114.5 C 198.833,114.5 199.167,114.5 199.5,114.5C 198.949,117.807 198.616,121.14 198.5,124.5C 195.985,133.192 192.652,141.525 188.5,149.5C 187.167,151.167 185.833,152.833 184.5,154.5C 181.84,158.161 179.174,161.828 176.5,165.5C 175.728,166.694 174.728,167.694 173.5,168.5C 174.5,165.833 175.5,163.167 176.5,160.5C 178.177,158.46 179.844,156.46 181.5,154.5C 182.974,153.564 183.974,152.23 184.5,150.5C 185.471,148.517 186.471,146.517 187.5,144.5C 188.906,144.027 189.573,143.027 189.5,141.5C 189.557,140.391 189.89,139.391 190.5,138.5C 192.684,134.788 194.351,130.788 195.5,126.5C 197.074,124.898 197.741,122.898 197.5,120.5C 197.833,118.5 198.167,116.5 198.5,114.5 Z"/></g>
<g><path style="opacity:1" fill="#fee9ac" d="M 250.5,144.5 C 250.59,147.152 249.924,149.485 248.5,151.5C 248.41,148.848 249.076,146.515 250.5,144.5 Z"/></g>
<g><path style="opacity:1" fill="#fbe567" d="M 183.5,23.5 C 187.746,24.7451 190.746,27.4118 192.5,31.5C 195.769,36.9796 198.936,42.6463 202,48.5C 203.313,52.4204 204.313,56.4204 205,60.5C 206,61.8333 207,63.1667 208,64.5C 210.599,73.6745 212.432,83.0078 213.5,92.5C 212.561,96.7649 212.228,101.098 212.5,105.5C 209.485,139.349 195.151,167.516 169.5,190C 165.249,192.945 161.249,196.112 157.5,199.5C 147.611,204.361 137.777,209.361 128,214.5C 126.318,214.193 124.652,213.86 123,213.5C 116.456,217.039 109.79,217.372 103,214.5C 102.005,215.066 101.172,215.733 100.5,216.5C 97.1401,216.384 93.8067,216.051 90.5,215.5C 97.74,213.308 105.073,213.308 112.5,215.5C 120.801,213.737 128.801,211.237 136.5,208C 144.024,203.405 151.691,199.072 159.5,195C 163.962,191.781 167.962,188.114 171.5,184C 172.5,183.667 173.5,183.333 174.5,183C 180.123,176.249 185.123,169.082 189.5,161.5C 189.406,158.459 190.906,156.793 194,156.5C 195.022,151.456 197.355,147.122 201,143.5C 201.872,138.805 202.872,134.139 204,129.5C 205,128.167 206,126.833 207,125.5C 209.453,105.222 208.953,85.055 205.5,65C 204.87,63.6898 203.87,62.8565 202.5,62.5C 202.768,60.901 202.434,59.5676 201.5,58.5C 198.096,49.7884 194.596,41.1217 191,32.5C 188.071,29.8039 185.571,26.8039 183.5,23.5 Z"/></g>
<g><path style="opacity:1" fill="#ebad76" d="M 184.5,150.5 C 183.974,152.23 182.974,153.564 181.5,154.5C 181.554,152.368 182.554,151.035 184.5,150.5 Z"/></g>
<g><path style="opacity:1" fill="#f4d95f" d="M 212.5,105.5 C 213.458,105.953 214.292,106.619 215,107.5C 215.499,113.516 215.332,119.516 214.5,125.5C 213.325,125.281 212.325,125.614 211.5,126.5C 208.859,132.173 207.859,138.006 208.5,144C 200.327,163.703 187.993,180.537 171.5,194.5C 167.163,197.007 163.163,200.007 159.5,203.5C 158.264,204.246 156.93,204.579 155.5,204.5C 154.761,204.631 154.094,204.464 153.5,204C 155.384,202.951 156.718,201.451 157.5,199.5C 161.249,196.112 165.249,192.945 169.5,190C 195.151,167.516 209.485,139.349 212.5,105.5 Z"/></g>
<g><path style="opacity:1" fill="#fabb24" d="M 184.5,154.5 C 184.296,156.685 183.63,158.685 182.5,160.5C 180.5,162.167 178.5,163.833 176.5,165.5C 179.174,161.828 181.84,158.161 184.5,154.5 Z"/></g>
<g><path style="opacity:1" fill="#f2d39a" d="M 6.5,164.5 C 9.5,165.5 11.5,167.5 12.5,170.5C 11.8333,170.5 11.1667,170.5 10.5,170.5C 9.58489,168.246 8.25156,166.246 6.5,164.5 Z"/></g>
<g><path style="opacity:1" fill="#f1ce4e" d="M 213.5,74.5 C 215.079,80.6943 216.579,87.0277 218,93.5C 218.368,102.621 218.868,111.454 219.5,120C 216.015,128.778 213.848,137.945 213,147.5C 212.075,148.047 211.242,148.713 210.5,149.5C 209.731,152.51 208.897,155.51 208,158.5C 202.722,168.8 196.555,177.8 189.5,185.5C 188.64,187.931 186.973,189.264 184.5,189.5C 182.71,193.013 179.71,196.347 175.5,199.5C 171.101,201.406 167.101,203.906 163.5,207C 157.015,209.743 150.681,212.743 144.5,216C 141.634,217.276 138.8,217.443 136,216.5C 135.692,217.308 135.192,217.975 134.5,218.5C 133.913,217.767 133.913,216.767 134.5,215.5C 139.414,213.712 144.414,212.045 149.5,210.5C 149.351,209.448 149.517,208.448 150,207.5C 151.876,206.391 153.709,205.391 155.5,204.5C 156.93,204.579 158.264,204.246 159.5,203.5C 163.163,200.007 167.163,197.007 171.5,194.5C 172.978,194.762 174.311,194.429 175.5,193.5C 179.495,190.038 183.161,186.205 186.5,182C 187.448,181.517 188.448,181.351 189.5,181.5C 192.001,175.843 195.501,170.843 200,166.5C 209.158,148.885 214.991,130.218 217.5,110.5C 215.884,98.5416 214.55,86.5416 213.5,74.5 Z"/></g>
<g><path style="opacity:1" fill="#f6b425" d="M 173.5,168.5 C 171.5,171.833 168.833,174.5 165.5,176.5C 167.5,173.167 170.167,170.5 173.5,168.5 Z"/></g>
<g><path style="opacity:1" fill="#fef4c6" d="M 4.5,169.5 C 6.24512,171.033 7.24512,173.033 7.5,175.5C 5.75488,173.967 4.75488,171.967 4.5,169.5 Z"/></g>
<g><path style="opacity:1" fill="#fde59e" d="M 242.5,173.5 C 242.573,175.027 241.906,176.027 240.5,176.5C 240.427,174.973 241.094,173.973 242.5,173.5 Z"/></g>
<g><path style="opacity:1" fill="#feefa5" d="M 10.5,181.5 C 11.9063,181.973 12.573,182.973 12.5,184.5C 11.0937,184.027 10.427,183.027 10.5,181.5 Z"/></g>
<g><path style="opacity:1" fill="#fdee6a" d="M 189.5,161.5 C 185.123,169.082 180.123,176.249 174.5,183C 173.5,183.333 172.5,183.667 171.5,184C 167.962,188.114 163.962,191.781 159.5,195C 151.691,199.072 144.024,203.405 136.5,208C 128.801,211.237 120.801,213.737 112.5,215.5C 105.073,213.308 97.74,213.308 90.5,215.5C 81.9047,216.182 73.9047,214.015 66.5,209C 64.5273,208.505 62.5273,208.338 60.5,208.5C 58.8008,208.66 57.1341,208.494 55.5,208C 49.801,203.818 43.801,200.152 37.5,197C 32.0154,193.343 27.0154,189.176 22.5,184.5C 19.3477,181.578 16.1811,178.578 13,175.5C 11.5619,174.1 10.7286,172.433 10.5,170.5C 11.1667,170.5 11.8333,170.5 12.5,170.5C 17.2256,177.707 23.5589,183.207 31.5,187C 32.7101,188.039 33.7101,189.206 34.5,190.5C 35.8152,193.006 37.8152,194.839 40.5,196C 44.4379,197.474 48.4379,198.641 52.5,199.5C 65.9615,205.97 80.2949,208.97 95.5,208.5C 97.3786,208.393 97.7119,208.893 96.5,210C 97.0253,210.692 97.6919,211.192 98.5,211.5C 118.697,211.782 137.363,206.449 154.5,195.5C 158.799,192.344 163.132,189.178 167.5,186C 171.335,180.998 175.669,176.498 180.5,172.5C 181.701,169.128 183.534,166.128 186,163.5C 186.816,162.177 187.983,161.511 189.5,161.5 Z"/></g>
<g><path style="opacity:1" fill="#e0b691" d="M 154.5,181.5 C 153.564,182.974 152.23,183.974 150.5,184.5C 151.035,182.554 152.368,181.554 154.5,181.5 Z"/></g>
<g><path style="opacity:1" fill="#d89e3c" d="M 12.5,170.5 C 20.5243,176.864 28.5243,183.197 36.5,189.5C 36.5,189.833 36.5,190.167 36.5,190.5C 35.8333,190.5 35.1667,190.5 34.5,190.5C 33.7101,189.206 32.7101,188.039 31.5,187C 23.5589,183.207 17.2256,177.707 12.5,170.5 Z"/></g>
<g><path style="opacity:1" fill="#fde49c" d="M 240.5,177.5 C 240.245,179.967 239.245,181.967 237.5,183.5C 237.755,181.033 238.755,179.033 240.5,177.5 Z"/></g>
<g><path style="opacity:1" fill="#f5bd25" d="M 165.5,176.5 C 161.241,180.651 156.908,184.818 152.5,189C 151.207,189.49 149.873,189.657 148.5,189.5C 153.855,184.819 159.522,180.485 165.5,176.5 Z"/></g>
<g><path style="opacity:1" fill="#d2852e" d="M 176.5,160.5 C 175.5,163.167 174.5,165.833 173.5,168.5C 170.167,170.5 167.5,173.167 165.5,176.5C 159.522,180.485 153.855,184.819 148.5,189.5C 145.489,190.669 142.822,192.336 140.5,194.5C 135.518,195.826 130.518,197.16 125.5,198.5C 127.327,197.309 128.993,195.975 130.5,194.5C 137.487,191.732 144.154,188.398 150.5,184.5C 152.23,183.974 153.564,182.974 154.5,181.5C 162.466,175.202 169.799,168.202 176.5,160.5 Z"/></g>
<g><path style="opacity:1" fill="#fef3d5" d="M 237.5,184.5 C 236.993,188.866 234.993,192.2 231.5,194.5C 233.169,190.862 235.169,187.528 237.5,184.5 Z"/></g>
<g><path style="opacity:1" fill="#e0cab9" d="M 42.5,191.5 C 43.8734,191.343 45.2068,191.51 46.5,192C 48.4308,192.902 50.0975,194.069 51.5,195.5C 48.0534,194.917 45.0534,193.584 42.5,191.5 Z"/></g>
<g><path style="opacity:1" fill="#fef0ad" d="M 15.5,190.5 C 16.9063,190.973 17.573,191.973 17.5,193.5C 16.0937,193.027 15.427,192.027 15.5,190.5 Z"/></g>
<g><path style="opacity:1" fill="#fce234" d="M 182.5,160.5 C 182.5,161.5 182.5,162.5 182.5,163.5C 166.34,184.52 145.34,198.354 119.5,205C 117.19,205.497 114.857,205.663 112.5,205.5C 112.5,205.167 112.5,204.833 112.5,204.5C 118.569,203.3 124.569,201.8 130.5,200C 134.036,198.356 137.369,196.523 140.5,194.5C 142.822,192.336 145.489,190.669 148.5,189.5C 149.873,189.657 151.207,189.49 152.5,189C 156.908,184.818 161.241,180.651 165.5,176.5C 168.833,174.5 171.5,171.833 173.5,168.5C 174.728,167.694 175.728,166.694 176.5,165.5C 178.5,163.833 180.5,162.167 182.5,160.5 Z"/></g>
<g><path style="opacity:1" fill="#d7c0ac" d="M 52.5,195.5 C 55.0098,195.927 57.3432,196.593 59.5,197.5C 57.4727,197.662 55.4727,197.495 53.5,197C 52.944,196.617 52.6107,196.117 52.5,195.5 Z"/></g>
<g><path style="opacity:1" fill="#e9c741" d="M 34.5,190.5 C 35.1667,190.5 35.8333,190.5 36.5,190.5C 41.8333,193.5 47.1667,196.5 52.5,199.5C 48.4379,198.641 44.4379,197.474 40.5,196C 37.8152,194.839 35.8152,193.006 34.5,190.5 Z"/></g>
<g><path style="opacity:1" fill="#b17b1e" d="M 36.5,189.5 C 38.6854,189.704 40.6854,190.37 42.5,191.5C 45.0534,193.584 48.0534,194.917 51.5,195.5C 51.8333,195.5 52.1667,195.5 52.5,195.5C 52.6107,196.117 52.944,196.617 53.5,197C 55.4727,197.495 57.4727,197.662 59.5,197.5C 61.649,198.736 63.9823,199.736 66.5,200.5C 66.5,201.167 66.5,201.833 66.5,202.5C 61.7606,201.815 57.0939,200.815 52.5,199.5C 47.1667,196.5 41.8333,193.5 36.5,190.5C 36.5,190.167 36.5,189.833 36.5,189.5 Z"/></g>
<g><path style="opacity:1" fill="#fceec8" d="M 231.5,194.5 C 230.972,197.688 229.305,200.021 226.5,201.5C 227.811,198.865 229.478,196.531 231.5,194.5 Z"/></g>
<g><path style="opacity:1" fill="#fef86c" d="M 202.5,62.5 C 203.87,62.8565 204.87,63.6898 205.5,65C 208.953,85.055 209.453,105.222 207,125.5C 206,126.833 205,128.167 204,129.5C 202.872,134.139 201.872,138.805 201,143.5C 197.355,147.122 195.022,151.456 194,156.5C 190.906,156.793 189.406,158.459 189.5,161.5C 187.983,161.511 186.816,162.177 186,163.5C 183.534,166.128 181.701,169.128 180.5,172.5C 175.669,176.498 171.335,180.998 167.5,186C 163.132,189.178 158.799,192.344 154.5,195.5C 137.363,206.449 118.697,211.782 98.5,211.5C 97.6919,211.192 97.0253,210.692 96.5,210C 97.7119,208.893 97.3786,208.393 95.5,208.5C 101.244,207.955 106.91,206.955 112.5,205.5C 114.857,205.663 117.19,205.497 119.5,205C 145.34,198.354 166.34,184.52 182.5,163.5C 183.721,162.972 184.887,162.305 186,161.5C 190.066,153.703 194.399,146.036 199,138.5C 200.656,128.881 203.156,119.548 206.5,110.5C 208.719,94.2319 207.386,78.2319 202.5,62.5 Z"/></g>
<g><path style="opacity:1" fill="#fdd92e" d="M 6.5,164.5 C 8.25156,166.246 9.58489,168.246 10.5,170.5C 10.7286,172.433 11.5619,174.1 13,175.5C 16.1811,178.578 19.3477,181.578 22.5,184.5C 22.9617,186.757 23.9617,188.757 25.5,190.5C 30.8774,194.532 35.8774,199.032 40.5,204C 44.4195,205.584 47.4195,208.25 49.5,212C 50.448,212.483 51.448,212.649 52.5,212.5C 56.7995,213.932 60.7995,216.098 64.5,219C 66.6099,218.653 68.6099,218.82 70.5,219.5C 68.9872,221.241 66.9872,222.241 64.5,222.5C 61.3,221.469 58.4667,219.802 56,217.5C 52.7238,217.984 49.7238,219.651 47,222.5C 45.6861,221.687 44.5195,220.687 43.5,219.5C 42.914,219.709 42.414,220.043 42,220.5C 41.1841,219.177 40.0174,218.511 38.5,218.5C 35.6274,216.446 32.9608,214.113 30.5,211.5C 30.573,209.973 29.9063,208.973 28.5,208.5C 27.8333,207.167 26.8333,206.167 25.5,205.5C 25.573,203.973 24.9063,202.973 23.5,202.5C 21.5066,199.574 19.5066,196.574 17.5,193.5C 17.573,191.973 16.9063,190.973 15.5,190.5C 14.5,188.5 13.5,186.5 12.5,184.5C 12.573,182.973 11.9063,181.973 10.5,181.5C 10.2501,179.059 9.25013,177.059 7.5,175.5C 7.24512,173.033 6.24512,171.033 4.5,169.5C 4.55138,167.43 3.88472,165.597 2.5,164C 2.83333,163.5 3.16667,163 3.5,162.5C 4.51776,163.193 5.51776,163.859 6.5,164.5 Z"/></g>
<g><path style="opacity:1" fill="#dccbbe" d="M 59.5,197.5 C 63.4899,197.999 67.4899,198.499 71.5,199C 72.4158,199.278 73.0825,199.778 73.5,200.5C 73.1667,200.5 72.8333,200.5 72.5,200.5C 70.5,200.5 68.5,200.5 66.5,200.5C 63.9823,199.736 61.649,198.736 59.5,197.5 Z"/></g>
<g><path style="opacity:1" fill="#e5d9d0" d="M 116.5,198.5 C 116.082,199.222 115.416,199.722 114.5,200C 110.49,200.501 106.49,201.001 102.5,201.5C 93.6506,201.826 84.9839,201.493 76.5,200.5C 89.9012,200.879 103.235,200.212 116.5,198.5 Z"/></g>
<g><path style="opacity:1" fill="#ecbb21" d="M 140.5,194.5 C 137.369,196.523 134.036,198.356 130.5,200C 124.569,201.8 118.569,203.3 112.5,204.5C 115.404,203.715 118.07,202.381 120.5,200.5C 122.284,200.107 123.95,199.441 125.5,198.5C 130.518,197.16 135.518,195.826 140.5,194.5 Z"/></g>
<g><path style="opacity:1" fill="#be9d7e" d="M 72.5,200.5 C 72.8333,200.5 73.1667,200.5 73.5,200.5C 74.5,200.5 75.5,200.5 76.5,200.5C 84.9839,201.493 93.6506,201.826 102.5,201.5C 102.5,201.833 102.5,202.167 102.5,202.5C 93.1607,202.666 83.8274,202.5 74.5,202C 73.5842,201.722 72.9175,201.222 72.5,200.5 Z"/></g>
<g><path style="opacity:1" fill="#b3732d" d="M 130.5,194.5 C 128.993,195.975 127.327,197.309 125.5,198.5C 123.95,199.441 122.284,200.107 120.5,200.5C 114.946,201.961 109.279,202.961 103.5,203.5C 103.5,202.833 103.167,202.5 102.5,202.5C 102.5,202.167 102.5,201.833 102.5,201.5C 106.49,201.001 110.49,200.501 114.5,200C 115.416,199.722 116.082,199.222 116.5,198.5C 121.166,197.167 125.833,195.834 130.5,194.5 Z"/></g>
<g><path style="opacity:1" fill="#995e17" d="M 66.5,200.5 C 68.5,200.5 70.5,200.5 72.5,200.5C 72.9175,201.222 73.5842,201.722 74.5,202C 83.8274,202.5 93.1607,202.666 102.5,202.5C 103.167,202.5 103.5,202.833 103.5,203.5C 91.8321,204.917 80.1655,204.584 68.5,202.5C 67.8333,202.5 67.1667,202.5 66.5,202.5C 66.5,201.833 66.5,201.167 66.5,200.5 Z"/></g>
<g><path style="opacity:1" fill="#eec33c" d="M 215.5,156.5 C 217.085,157.474 218.085,158.974 218.5,161C 216.686,163.481 216.02,166.315 216.5,169.5C 215.5,169.5 214.5,169.5 213.5,169.5C 213.799,171.604 213.466,173.604 212.5,175.5C 209.745,176.51 207.745,178.343 206.5,181C 207.672,181.419 208.672,182.085 209.5,183C 203.323,186.939 197.657,191.605 192.5,197C 193.598,197.77 193.598,198.603 192.5,199.5C 190.175,200.655 189.008,202.655 189,205.5C 188.147,203.875 187.147,203.542 186,204.5C 185.64,206.421 184.806,208.088 183.5,209.5C 182.914,209.291 182.414,208.957 182,208.5C 180.556,210.155 178.722,210.822 176.5,210.5C 176.5,211.5 176.5,212.5 176.5,213.5C 170.179,215.668 164.012,218.334 158,221.5C 155.131,220.963 152.131,220.963 149,221.5C 147.287,222.137 147.121,223.137 148.5,224.5C 148.144,227.115 146.811,228.948 144.5,230C 142.236,230.236 140.069,230.736 138,231.5C 137.536,230.906 137.369,230.239 137.5,229.5C 134.841,226.345 131.841,226.011 128.5,228.5C 127.893,228.376 127.56,228.043 127.5,227.5C 128.845,225.309 130.845,223.975 133.5,223.5C 133.167,222.833 132.833,222.167 132.5,221.5C 136.674,220.026 140.174,221.026 143,224.5C 144.766,222.404 146.099,220.071 147,217.5C 150.937,214.432 155.271,213.765 160,215.5C 160.739,213.779 161.573,212.113 162.5,210.5C 166.227,208.886 169.227,206.386 171.5,203C 173.598,203.984 175.598,203.651 177.5,202C 182.148,197.083 186.815,192.083 191.5,187C 192.5,186.5 193.5,186 194.5,185.5C 195.675,186.855 196.675,186.688 197.5,185C 196.377,183.125 196.377,180.958 197.5,178.5C 198.552,178.351 199.552,178.517 200.5,179C 198.604,180.065 198.437,180.898 200,181.5C 202.388,180.437 204.554,179.104 206.5,177.5C 202.639,176.402 202.639,175.569 206.5,175C 206.167,174.667 205.833,174.333 205.5,174C 206.931,172.438 208.431,170.938 210,169.5C 210.102,165.395 211.602,162.729 214.5,161.5C 213.975,160.808 213.308,160.308 212.5,160C 214.056,159.28 215.056,158.113 215.5,156.5 Z"/></g>
<g><path style="opacity:1" fill="#fef0b5" d="M 23.5,202.5 C 24.9063,202.973 25.573,203.973 25.5,205.5C 24.0937,205.027 23.427,204.027 23.5,202.5 Z"/></g>
<g><path style="opacity:1" fill="#fde94f" d="M 22.5,184.5 C 27.0154,189.176 32.0154,193.343 37.5,197C 43.801,200.152 49.801,203.818 55.5,208C 57.1341,208.494 58.8008,208.66 60.5,208.5C 60.9175,209.222 61.5842,209.722 62.5,210C 60.1667,210.333 57.8333,210.667 55.5,211C 56.056,211.383 56.3893,211.883 56.5,212.5C 55.1667,212.5 53.8333,212.5 52.5,212.5C 51.448,212.649 50.448,212.483 49.5,212C 47.4195,208.25 44.4195,205.584 40.5,204C 35.8774,199.032 30.8774,194.532 25.5,190.5C 23.9617,188.757 22.9617,186.757 22.5,184.5 Z"/></g>
<g><path style="opacity:1" fill="#cd9c18" d="M 120.5,200.5 C 118.07,202.381 115.404,203.715 112.5,204.5C 98.1436,205.977 83.8102,205.811 69.5,204C 68.944,203.617 68.6107,203.117 68.5,202.5C 80.1655,204.584 91.8321,204.917 103.5,203.5C 109.279,202.961 114.946,201.961 120.5,200.5 Z"/></g>
<g><path style="opacity:1" fill="#f3d440" d="M 52.5,199.5 C 57.0939,200.815 61.7606,201.815 66.5,202.5C 67.1667,202.5 67.8333,202.5 68.5,202.5C 68.6107,203.117 68.944,203.617 69.5,204C 83.8102,205.811 98.1436,205.977 112.5,204.5C 112.5,204.833 112.5,205.167 112.5,205.5C 106.91,206.955 101.244,207.955 95.5,208.5C 80.2949,208.97 65.9615,205.97 52.5,199.5 Z"/></g>
<g><path style="opacity:1" fill="#feefb4" d="M 28.5,208.5 C 29.9063,208.973 30.573,209.973 30.5,211.5C 29.0937,211.027 28.427,210.027 28.5,208.5 Z"/></g>
<g><path style="opacity:1" fill="#fcdb58" d="M 157.5,199.5 C 156.718,201.451 155.384,202.951 153.5,204C 154.094,204.464 154.761,204.631 155.5,204.5C 153.709,205.391 151.876,206.391 150,207.5C 149.517,208.448 149.351,209.448 149.5,210.5C 144.414,212.045 139.414,213.712 134.5,215.5C 133.118,216.801 131.452,217.634 129.5,218C 122.853,218.413 116.519,219.913 110.5,222.5C 108.523,221.54 106.523,220.54 104.5,219.5C 103.14,220.18 101.807,220.847 100.5,221.5C 99.7611,221.631 99.0944,221.464 98.5,221C 99.5,220 100.5,219 101.5,218C 101.272,217.601 100.938,217.435 100.5,217.5C 100.5,217.167 100.5,216.833 100.5,216.5C 101.172,215.733 102.005,215.066 103,214.5C 109.79,217.372 116.456,217.039 123,213.5C 124.652,213.86 126.318,214.193 128,214.5C 137.777,209.361 147.611,204.361 157.5,199.5 Z"/></g>
<g><path style="opacity:1" fill="#e9b92d" d="M 203.5,198.5 C 204.743,201.106 206.076,201.106 207.5,198.5C 209.291,200.021 210.624,201.854 211.5,204C 208.158,206.043 205.491,208.71 203.5,212C 204.333,212.833 205.167,213.667 206,214.5C 207.753,210.68 210.42,208.68 214,208.5C 214.236,210.119 215.069,211.119 216.5,211.5C 212.55,215.787 208.55,220.12 204.5,224.5C 202.251,225.08 200.585,226.413 199.5,228.5C 197.118,229.351 195.118,230.684 193.5,232.5C 190.669,233.079 188.336,234.412 186.5,236.5C 181.911,237.569 177.911,239.569 174.5,242.5C 170.257,243.403 166.257,244.736 162.5,246.5C 159.848,246.41 157.515,247.076 155.5,248.5C 155.167,248.5 154.833,248.5 154.5,248.5C 149.239,248.851 144.239,249.851 139.5,251.5C 129.161,251.666 118.828,251.5 108.5,251C 105.635,250.817 102.969,250.317 100.5,249.5C 106.509,249.666 112.509,249.499 118.5,249C 118.167,248.667 117.833,248.333 117.5,248C 119.044,247.71 120.377,247.044 121.5,246C 119.044,244.289 116.377,242.956 113.5,242C 115.68,241.581 117.846,241.748 120,242.5C 121.627,242.375 123.127,241.875 124.5,241C 126.424,238.069 128.757,235.403 131.5,233C 130.552,232.517 129.552,232.351 128.5,232.5C 128.414,231.504 128.748,230.671 129.5,230C 132.061,230.401 134.728,230.235 137.5,229.5C 137.369,230.239 137.536,230.906 138,231.5C 140.069,230.736 142.236,230.236 144.5,230C 146.811,228.948 148.144,227.115 148.5,224.5C 147.121,223.137 147.287,222.137 149,221.5C 152.131,220.963 155.131,220.963 158,221.5C 164.012,218.334 170.179,215.668 176.5,213.5C 176.5,212.5 176.5,211.5 176.5,210.5C 178.722,210.822 180.556,210.155 182,208.5C 182.414,208.957 182.914,209.291 183.5,209.5C 184.806,208.088 185.64,206.421 186,204.5C 187.147,203.542 188.147,203.875 189,205.5C 189.008,202.655 190.175,200.655 192.5,199.5C 194.356,202.95 196.523,202.95 199,199.5C 199.333,200.167 199.667,200.833 200,201.5C 200.72,199.944 201.887,198.944 203.5,198.5 Z"/></g>
<g><path style="opacity:1" fill="#fde357" d="M 60.5,208.5 C 62.5273,208.338 64.5273,208.505 66.5,209C 73.9047,214.015 81.9047,216.182 90.5,215.5C 93.8067,216.051 97.1401,216.384 100.5,216.5C 100.5,216.833 100.5,217.167 100.5,217.5C 99.2436,217.904 98.0769,218.571 97,219.5C 94.8449,218.756 92.8449,217.756 91,216.5C 83.826,218.333 76.9926,217.5 70.5,214C 68.1009,213.289 65.7676,213.456 63.5,214.5C 61.3821,213.054 59.0488,212.387 56.5,212.5C 56.3893,211.883 56.056,211.383 55.5,211C 57.8333,210.667 60.1667,210.333 62.5,210C 61.5842,209.722 60.9175,209.222 60.5,208.5 Z"/></g>
<g><path style="opacity:1" fill="#feda48" d="M 52.5,212.5 C 53.8333,212.5 55.1667,212.5 56.5,212.5C 59.0488,212.387 61.3821,213.054 63.5,214.5C 65.7676,213.456 68.1009,213.289 70.5,214C 76.9926,217.5 83.826,218.333 91,216.5C 92.8449,217.756 94.8449,218.756 97,219.5C 98.0769,218.571 99.2436,217.904 100.5,217.5C 100.938,217.435 101.272,217.601 101.5,218C 100.5,219 99.5,220 98.5,221C 99.0944,221.464 99.7611,221.631 100.5,221.5C 100.167,222.167 99.8333,222.833 99.5,223.5C 98.8333,223.5 98.5,223.833 98.5,224.5C 94.6988,224.709 91.1988,225.709 88,227.5C 85.9728,224.806 83.6395,222.473 81,220.5C 77.2758,222.012 73.7758,221.679 70.5,219.5C 68.6099,218.82 66.6099,218.653 64.5,219C 60.7995,216.098 56.7995,213.932 52.5,212.5 Z"/></g>
<g><path style="opacity:1" fill="#fdcd30" d="M 70.5,219.5 C 73.7758,221.679 77.2758,222.012 81,220.5C 83.6395,222.473 85.9728,224.806 88,227.5C 91.1988,225.709 94.6988,224.709 98.5,224.5C 100.795,224.456 103.128,224.956 105.5,226C 101.279,226.72 97.6123,228.554 94.5,231.5C 87.3,229.743 80.3,228.91 73.5,229C 71.0777,230.888 71.0777,232.888 73.5,235C 72.1134,236.683 70.4467,237.85 68.5,238.5C 57.149,233.827 47.149,227.16 38.5,218.5C 40.0174,218.511 41.1841,219.177 42,220.5C 42.414,220.043 42.914,219.709 43.5,219.5C 44.5195,220.687 45.6861,221.687 47,222.5C 49.7238,219.651 52.7238,217.984 56,217.5C 58.4667,219.802 61.3,221.469 64.5,222.5C 66.9872,222.241 68.9872,221.241 70.5,219.5 Z"/></g>
<g><path style="opacity:1" fill="#f8e8bf" d="M 204.5,224.5 C 203.415,226.587 201.749,227.92 199.5,228.5C 200.585,226.413 202.251,225.08 204.5,224.5 Z"/></g>
<g><path style="opacity:1" fill="#fcc428" d="M 94.5,231.5 C 95.7846,233.806 95.1179,235.639 92.5,237C 92.9574,237.414 93.2907,237.914 93.5,238.5C 90.9463,239.899 89.2796,241.899 88.5,244.5C 85.8333,244.167 83.1667,243.833 80.5,243.5C 79.8333,243.5 79.1667,243.5 78.5,243.5C 76.0189,240.429 72.6855,238.763 68.5,238.5C 70.4467,237.85 72.1134,236.683 73.5,235C 71.0777,232.888 71.0777,230.888 73.5,229C 80.3,228.91 87.3,229.743 94.5,231.5 Z"/></g>
<g><path style="opacity:1" fill="#f6c533" d="M 127.5,227.5 C 127.56,228.043 127.893,228.376 128.5,228.5C 131.841,226.011 134.841,226.345 137.5,229.5C 134.728,230.235 132.061,230.401 129.5,230C 128.748,230.671 128.414,231.504 128.5,232.5C 125.776,235.385 122.609,237.718 119,239.5C 117.667,238.833 116.333,238.167 115,237.5C 113,238.833 111,238.833 109,237.5C 108.121,240.701 106.455,243.368 104,245.5C 102.333,244.167 100.667,244.167 99,245.5C 98.6667,244.833 98.3333,244.167 98,243.5C 95.6215,244.967 93.1215,245.967 90.5,246.5C 90.1667,246.5 89.8333,246.5 89.5,246.5C 86.1461,246.253 83.1461,245.253 80.5,243.5C 83.1667,243.833 85.8333,244.167 88.5,244.5C 89.2796,241.899 90.9463,239.899 93.5,238.5C 93.2907,237.914 92.9574,237.414 92.5,237C 95.1179,235.639 95.7846,233.806 94.5,231.5C 97.6123,228.554 101.279,226.72 105.5,226C 103.128,224.956 100.795,224.456 98.5,224.5C 98.5,223.833 98.8333,223.5 99.5,223.5C 105.256,224.004 111.089,224.004 117,223.5C 117.686,225.593 119.519,227.26 122.5,228.5C 124.071,227.691 125.738,227.357 127.5,227.5 Z"/></g>
<g><path style="opacity:1" fill="#f7e8c2" d="M 193.5,232.5 C 191.911,235.08 189.578,236.413 186.5,236.5C 188.336,234.412 190.669,233.079 193.5,232.5 Z"/></g>
<g><path style="opacity:1" fill="#fbcf58" d="M 68.5,238.5 C 72.6855,238.763 76.0189,240.429 78.5,243.5C 74.8174,242.325 71.4841,240.659 68.5,238.5 Z"/></g>
<g><path style="opacity:1" fill="#f7eac8" d="M 186.5,236.5 C 184.044,238.412 181.378,240.245 178.5,242C 177.207,242.49 175.873,242.657 174.5,242.5C 177.911,239.569 181.911,237.569 186.5,236.5 Z"/></g>
<g><path style="opacity:1" fill="#f2bc27" d="M 128.5,232.5 C 129.552,232.351 130.552,232.517 131.5,233C 128.757,235.403 126.424,238.069 124.5,241C 123.127,241.875 121.627,242.375 120,242.5C 117.846,241.748 115.68,241.581 113.5,242C 116.377,242.956 119.044,244.289 121.5,246C 120.377,247.044 119.044,247.71 117.5,248C 117.833,248.333 118.167,248.667 118.5,249C 112.509,249.499 106.509,249.666 100.5,249.5C 98.5648,248.85 96.5648,248.517 94.5,248.5C 93.713,246.896 92.3797,246.229 90.5,246.5C 93.1215,245.967 95.6215,244.967 98,243.5C 98.3333,244.167 98.6667,244.833 99,245.5C 100.667,244.167 102.333,244.167 104,245.5C 106.455,243.368 108.121,240.701 109,237.5C 111,238.833 113,238.833 115,237.5C 116.333,238.167 117.667,238.833 119,239.5C 122.609,237.718 125.776,235.385 128.5,232.5 Z"/></g>
<g><path style="opacity:1" fill="#f6d77d" d="M 89.5,246.5 C 89.8333,246.5 90.1667,246.5 90.5,246.5C 92.3797,246.229 93.713,246.896 94.5,248.5C 92.302,248.88 90.6354,248.213 89.5,246.5 Z"/></g>
<g><path style="opacity:1" fill="#f1dca4" d="M 162.5,246.5 C 160.485,247.924 158.152,248.59 155.5,248.5C 157.515,247.076 159.848,246.41 162.5,246.5 Z"/></g>
<g><path style="opacity:1" fill="#f0da9e" d="M 154.5,248.5 C 154.082,249.222 153.416,249.722 152.5,250C 148.152,250.465 143.819,250.965 139.5,251.5C 144.239,249.851 149.239,248.851 154.5,248.5 Z"/></g>
</svg>
