<?xml version="1.0" encoding="UTF-8"?>
<!DOCTYPE svg PUBLIC "-//W3C//DTD SVG 1.1//EN" "http://www.w3.org/Graphics/SVG/1.1/DTD/svg11.dtd">
<svg xmlns="http://www.w3.org/2000/svg" version="1.1" width="512px" height="483px" style="shape-rendering:geometricPrecision; text-rendering:geometricPrecision; image-rendering:optimizeQuality; fill-rule:evenodd; clip-rule:evenodd" xmlns:xlink="http://www.w3.org/1999/xlink">
<g><path style="opacity:0.999" fill="#be1931" d="M 154.5,-0.5 C 158.5,-0.5 162.5,-0.5 166.5,-0.5C 171.302,20.7167 175.802,42.05 180,63.5C 182.495,73.4834 186.495,82.8167 192,91.5C 197.494,98.9951 204.661,104.162 213.5,107C 220.765,109.253 228.099,111.253 235.5,113C 274.057,116.883 312.723,118.716 351.5,118.5C 352.988,124.782 354.655,131.115 356.5,137.5C 353.921,138.228 351.254,138.728 348.5,139C 338.78,142.848 329.113,146.848 319.5,151C 315.741,154.743 314.574,159.243 316,164.5C 317.6,169.442 320.933,172.109 326,172.5C 330.648,171.952 335.148,170.785 339.5,169C 347.598,165.915 355.598,162.749 363.5,159.5C 366.507,165.535 369.507,171.535 372.5,177.5C 360.04,182.982 348.206,189.649 337,197.5C 332.482,205.771 334.315,212.104 342.5,216.5C 345.304,217.638 348.304,217.805 351.5,217C 352.056,216.617 352.389,216.117 352.5,215.5C 363.194,209.155 373.861,202.822 384.5,196.5C 387.551,202.933 390.884,209.266 394.5,215.5C 383.277,221.704 372.777,229.037 363,237.5C 358.759,245.446 360.593,251.613 368.5,256C 372.261,256.738 375.928,256.405 379.5,255C 388.205,247.991 397.205,241.491 406.5,235.5C 410.167,242.167 413.833,248.833 417.5,255.5C 414.579,256.065 411.912,257.232 409.5,259C 403.241,264.048 397.074,269.214 391,274.5C 386.935,281.909 388.435,288.076 395.5,293C 399.594,293.767 403.594,293.434 407.5,292C 414.126,287.043 420.46,281.709 426.5,276C 427.448,275.517 428.448,275.351 429.5,275.5C 433.157,282.718 435.824,290.385 437.5,298.5C 429.018,301.492 423.852,307.492 422,316.5C 420.117,335.304 423.784,352.97 433,369.5C 442.623,385.791 454.456,400.291 468.5,413C 479.696,422.599 492.363,429.599 506.5,434C 508.134,434.494 509.801,434.66 511.5,434.5C 511.5,436.833 511.5,439.167 511.5,441.5C 509.719,445.744 507.885,450.077 506,454.5C 501.578,460.758 496.078,465.758 489.5,469.5C 489.158,468.662 488.492,468.328 487.5,468.5C 466.329,464.274 446.329,456.774 427.5,446C 395.624,428.236 365.291,408.236 336.5,386C 319.095,371.599 302.595,356.099 287,339.5C 265.428,314.018 244.095,288.351 223,262.5C 211,248.334 198.167,235.001 184.5,222.5C 185.497,222.53 186.164,222.03 186.5,221C 193.069,197.594 195.236,173.761 193,149.5C 192.123,137.536 188.456,126.536 182,116.5C 177.085,109.672 172.419,102.672 168,95.5C 149.643,72.3175 131.143,49.3175 112.5,26.5C 123.813,13.4989 137.813,4.49893 154.5,-0.5 Z"/></g>
<g><path style="opacity:0.997" fill="#a1051f" d="M 166.5,-0.5 C 168.5,-0.5 170.5,-0.5 172.5,-0.5C 176.068,1.23049 178.902,3.89715 181,7.5C 183.466,14.3655 185.466,21.3655 187,28.5C 188.684,38.5671 190.684,48.5671 193,58.5C 199.003,80.832 213.503,93.6654 236.5,97C 248.197,98.457 259.863,99.957 271.5,101.5C 293.663,102.322 315.829,103.655 338,105.5C 338.902,105.257 339.735,104.923 340.5,104.5C 346.425,107.421 350.092,112.088 351.5,118.5C 312.723,118.716 274.057,116.883 235.5,113C 228.099,111.253 220.765,109.253 213.5,107C 204.661,104.162 197.494,98.9951 192,91.5C 186.495,82.8167 182.495,73.4834 180,63.5C 175.802,42.05 171.302,20.7167 166.5,-0.5 Z"/></g>
<g><path style="opacity:0.994" fill="#dc2e44" d="M 112.5,26.5 C 131.143,49.3175 149.643,72.3175 168,95.5C 172.419,102.672 177.085,109.672 182,116.5C 188.456,126.536 192.123,137.536 193,149.5C 195.236,173.761 193.069,197.594 186.5,221C 186.164,222.03 185.497,222.53 184.5,222.5C 153.807,195.325 121.807,169.825 88.5,146C 78.9505,139.723 68.6171,135.39 57.5,133C 50.3403,131.108 44.6736,127.274 40.5,121.5C 41.343,116.796 42.5097,112.129 44,107.5C 48.9785,98.872 54.3119,90.5387 60,82.5C 71.0198,69.7524 82.0198,57.0858 93,44.5C 99.7426,38.5839 106.243,32.5839 112.5,26.5 Z"/></g>
<g><path style="opacity:0.91" fill="#8897a4" d="M 340.5,104.5 C 339.735,104.923 338.902,105.257 338,105.5C 315.829,103.655 293.663,102.322 271.5,101.5C 286.505,95.9053 301.171,89.4053 315.5,82C 319.93,79.7298 324.597,79.0631 329.5,80C 330.5,80.8333 331.5,81.6667 332.5,82.5C 334.97,89.9114 337.637,97.2447 340.5,104.5 Z"/></g>
<g><path style="opacity:0.999" fill="#cbd5dc" d="M 40.5,121.5 C 44.6736,127.274 50.3403,131.108 57.5,133C 68.6171,135.39 78.9505,139.723 88.5,146C 121.807,169.825 153.807,195.325 184.5,222.5C 198.167,235.001 211,248.334 223,262.5C 244.095,288.351 265.428,314.018 287,339.5C 302.595,356.099 319.095,371.599 336.5,386C 365.291,408.236 395.624,428.236 427.5,446C 446.329,456.774 466.329,464.274 487.5,468.5C 486.4,469.558 485.066,470.392 483.5,471C 459.928,476.336 436.595,475.336 413.5,468C 381.497,457.497 351.164,443.497 322.5,426C 303.631,413.064 285.298,399.397 267.5,385C 193.454,325.952 119.121,267.286 44.5,209C 34.9629,201.13 26.4629,192.297 19,182.5C 16.0788,177.659 13.4121,172.659 11,167.5C 8.96693,162.705 8.1336,157.705 8.5,152.5C 13.9777,143.041 20.311,134.208 27.5,126C 29.8333,124.333 32.1667,122.667 34.5,121C 36.5976,120.322 38.5976,120.489 40.5,121.5 Z"/></g>
<g><path style="opacity:0.981" fill="#ccd3da" d="M 356.5,137.5 C 366.443,142.331 368.776,149.664 363.5,159.5C 355.598,162.749 347.598,165.915 339.5,169C 335.148,170.785 330.648,171.952 326,172.5C 320.933,172.109 317.6,169.442 316,164.5C 314.574,159.243 315.741,154.743 319.5,151C 329.113,146.848 338.78,142.848 348.5,139C 351.254,138.728 353.921,138.228 356.5,137.5 Z"/></g>
<g><path style="opacity:0.923" fill="#8899a6" d="M 8.5,152.5 C 8.1336,157.705 8.96693,162.705 11,167.5C 13.4121,172.659 16.0788,177.659 19,182.5C 26.4629,192.297 34.9629,201.13 44.5,209C 119.121,267.286 193.454,325.952 267.5,385C 285.298,399.397 303.631,413.064 322.5,426C 351.164,443.497 381.497,457.497 413.5,468C 436.595,475.336 459.928,476.336 483.5,471C 485.066,470.392 486.4,469.558 487.5,468.5C 488.492,468.328 489.158,468.662 489.5,469.5C 485.939,472.532 481.939,475.032 477.5,477C 471.388,478.855 465.388,480.689 459.5,482.5C 449.5,482.5 439.5,482.5 429.5,482.5C 382.693,472.628 339.693,454.128 300.5,427C 213.68,358.16 126.346,290.16 38.5,223C 29.0297,214.531 19.863,205.697 11,196.5C 6.31847,189.947 2.48514,182.947 -0.5,175.5C -0.5,171.833 -0.5,168.167 -0.5,164.5C 2.05918,160.161 5.05918,156.161 8.5,152.5 Z"/></g>
<g><path style="opacity:0.979" fill="#ccd3da" d="M 372.5,177.5 C 383.78,179.13 387.78,185.463 384.5,196.5C 373.861,202.822 363.194,209.155 352.5,215.5C 349.236,216.324 345.902,216.658 342.5,216.5C 334.315,212.104 332.482,205.771 337,197.5C 348.206,189.649 360.04,182.982 372.5,177.5 Z"/></g>
<g><path style="opacity:0.975" fill="#ccd3da" d="M 394.5,215.5 C 406.127,217.404 410.127,224.071 406.5,235.5C 397.205,241.491 388.205,247.991 379.5,255C 375.928,256.405 372.261,256.738 368.5,256C 360.593,251.613 358.759,245.446 363,237.5C 372.777,229.037 383.277,221.704 394.5,215.5 Z"/></g>
<g><path style="opacity:1" fill="#c5616f" d="M 352.5,215.5 C 352.389,216.117 352.056,216.617 351.5,217C 348.304,217.805 345.304,217.638 342.5,216.5C 345.902,216.658 349.236,216.324 352.5,215.5 Z"/></g>
<g><path style="opacity:0.979" fill="#ccd3da" d="M 417.5,255.5 C 425.912,255.411 430.245,259.578 430.5,268C 429.841,270.462 429.507,272.962 429.5,275.5C 428.448,275.351 427.448,275.517 426.5,276C 420.46,281.709 414.126,287.043 407.5,292C 403.594,293.434 399.594,293.767 395.5,293C 388.435,288.076 386.935,281.909 391,274.5C 397.074,269.214 403.241,264.048 409.5,259C 411.912,257.232 414.579,256.065 417.5,255.5 Z"/></g>
<g><path style="opacity:1" fill="#dc2d43" d="M 437.5,298.5 C 439.095,302.783 440.595,307.117 442,311.5C 463,343.167 484,374.833 505,406.5C 506.949,412.046 509.116,417.379 511.5,422.5C 511.5,426.5 511.5,430.5 511.5,434.5C 509.801,434.66 508.134,434.494 506.5,434C 492.363,429.599 479.696,422.599 468.5,413C 454.456,400.291 442.623,385.791 433,369.5C 423.784,352.97 420.117,335.304 422,316.5C 423.852,307.492 429.018,301.492 437.5,298.5 Z"/></g>
</svg>
