<?xml version="1.0" encoding="UTF-8"?>
<!DOCTYPE svg PUBLIC "-//W3C//DTD SVG 1.1//EN" "http://www.w3.org/Graphics/SVG/1.1/DTD/svg11.dtd">
<svg xmlns="http://www.w3.org/2000/svg" version="1.1" width="348px" height="240px" style="shape-rendering:geometricPrecision; text-rendering:geometricPrecision; image-rendering:optimizeQuality; fill-rule:evenodd; clip-rule:evenodd" xmlns:xlink="http://www.w3.org/1999/xlink">
<g><path style="opacity:1" fill="#f6f6f6" d="M -0.5,-0.5 C 39.5,-0.5 79.5,-0.5 119.5,-0.5C 119.5,2.83333 119.5,6.16667 119.5,9.5C 115.162,9.62192 114.828,9.95526 118.5,10.5C 113.019,11.807 109.185,15.1403 107,20.5C 106.187,33.5753 106.354,46.5753 107.5,59.5C 107.316,61.9248 106.649,61.9248 105.5,59.5C 104.506,64.456 104.173,69.456 104.5,74.5C 109.5,74.5 114.5,74.5 119.5,74.5C 119.5,79.5 119.5,84.5 119.5,89.5C 114.821,89.3342 110.155,89.5008 105.5,90C 106.252,90.6708 106.586,91.5041 106.5,92.5C 95.9609,76.3797 81.9609,72.5463 64.5,81C 58.5618,86.3918 54.8952,92.8918 53.5,100.5C 53.6495,99.448 53.4828,98.448 53,97.5C 52.5034,99.8098 52.3367,102.143 52.5,104.5C 49.8333,104.5 47.1667,104.5 44.5,104.5C 44.5,109.5 44.5,114.5 44.5,119.5C 48.8461,119.334 53.1794,119.501 57.5,120C 58,120.5 58.5,121 59,121.5C 59.499,125.821 59.6657,130.154 59.5,134.5C 49.5,134.5 39.5,134.5 29.5,134.5C 29.5,139.5 29.5,144.5 29.5,149.5C 24.5,149.5 19.5,149.5 14.5,149.5C 14.5,154.5 14.5,159.5 14.5,164.5C 14.5,169.5 14.5,174.5 14.5,179.5C 9.5,179.5 4.5,179.5 -0.5,179.5C -0.5,119.5 -0.5,59.5 -0.5,-0.5 Z"/></g>
<g><path style="opacity:1" fill="#f6f5f5" d="M 119.5,-0.5 C 189.5,-0.5 259.5,-0.5 329.5,-0.5C 329.5,4.5 329.5,9.5 329.5,14.5C 334.5,14.5 339.5,14.5 344.5,14.5C 344.5,19.5 344.5,24.5 344.5,29.5C 339.5,29.5 334.5,29.5 329.5,29.5C 329.5,34.5 329.5,39.5 329.5,44.5C 334.5,44.5 339.5,44.5 344.5,44.5C 344.5,49.5 344.5,54.5 344.5,59.5C 339.5,59.5 334.5,59.5 329.5,59.5C 329.5,64.5 329.5,69.5 329.5,74.5C 334.5,74.5 339.5,74.5 344.5,74.5C 344.5,79.5 344.5,84.5 344.5,89.5C 339.5,89.5 334.5,89.5 329.5,89.5C 329.5,94.5 329.5,99.5 329.5,104.5C 334.5,104.5 339.5,104.5 344.5,104.5C 344.5,109.5 344.5,114.5 344.5,119.5C 339.5,119.5 334.5,119.5 329.5,119.5C 329.5,124.5 329.5,129.5 329.5,134.5C 334.5,134.5 339.5,134.5 344.5,134.5C 344.5,139.5 344.5,144.5 344.5,149.5C 339.5,149.5 334.5,149.5 329.5,149.5C 329.5,154.5 329.5,159.5 329.5,164.5C 334.5,164.5 339.5,164.5 344.5,164.5C 344.5,169.5 344.5,174.5 344.5,179.5C 339.737,179.774 335.07,179.441 330.5,178.5C 324.298,167.107 316.298,156.94 306.5,148C 284.101,130.957 262.101,131.457 240.5,149.5C 239.555,144.595 239.221,139.595 239.5,134.5C 244.5,134.5 249.5,134.5 254.5,134.5C 253.931,130.671 254.598,127.337 256.5,124.5C 265.188,129.675 274.521,130.842 284.5,128C 294.426,123.32 299.759,115.487 300.5,104.5C 305.167,104.5 309.833,104.5 314.5,104.5C 314.5,99.5 314.5,94.5 314.5,89.5C 309.5,89.5 304.5,89.5 299.5,89.5C 299.5,84.5 299.5,79.5 299.5,74.5C 294.5,74.5 289.5,74.5 284.5,74.5C 284.5,69.5 284.5,64.5 284.5,59.5C 279.5,59.5 274.5,59.5 269.5,59.5C 269.5,54.5 269.5,49.5 269.5,44.5C 264.5,44.5 259.5,44.5 254.5,44.5C 254.5,39.5 254.5,34.5 254.5,29.5C 249.5,29.5 244.5,29.5 239.5,29.5C 239.721,32.2788 239.388,34.9455 238.5,37.5C 236.858,35.9192 234.858,35.2525 232.5,35.5C 219.677,34.5045 206.677,34.1712 193.5,34.5C 193.5,43.5 193.5,52.5 193.5,61.5C 192.586,66.2579 189.919,69.7579 185.5,72C 178.254,73.3905 170.921,73.8905 163.5,73.5C 164.167,71.8333 164.833,70.1667 165.5,68.5C 175.493,70.6757 183.326,67.6757 189,59.5C 189.667,46.8333 189.667,34.1667 189,21.5C 187.567,16.4018 184.4,12.9018 179.5,11C 159.169,10.5 138.836,10.3334 118.5,10.5C 114.828,9.95526 115.162,9.62192 119.5,9.5C 119.5,6.16667 119.5,2.83333 119.5,-0.5 Z"/></g>
<g><path style="opacity:1" fill="#de3310" d="M 118.5,10.5 C 138.836,10.3334 159.169,10.5 179.5,11C 184.4,12.9018 187.567,16.4018 189,21.5C 189.667,34.1667 189.667,46.8333 189,59.5C 183.326,67.6757 175.493,70.6757 165.5,68.5C 159.491,68.3338 153.491,68.5005 147.5,69C 142.605,74.064 137.605,78.8974 132.5,83.5C 131.373,84.1217 130.373,84.955 129.5,86C 127.888,86.7203 126.388,86.5536 125,85.5C 125.268,79.9243 126.101,74.4243 127.5,69C 118.196,70.8451 111.53,67.6784 107.5,59.5C 106.354,46.5753 106.187,33.5753 107,20.5C 109.185,15.1403 113.019,11.807 118.5,10.5 Z"/></g>
<g><path style="opacity:1" fill="#ea846e" d="M 232.5,35.5 C 219.833,35.5 207.167,35.5 194.5,35.5C 194.826,44.3494 194.493,53.0161 193.5,61.5C 193.5,52.5 193.5,43.5 193.5,34.5C 206.677,34.1712 219.677,34.5045 232.5,35.5 Z"/></g>
<g><path style="opacity:1" fill="#de310d" d="M 232.5,35.5 C 234.858,35.2525 236.858,35.9192 238.5,37.5C 240.223,39.2528 241.723,41.2528 243,43.5C 243.667,56.1667 243.667,68.8333 243,81.5C 241.983,87.0146 238.816,90.3479 233.5,91.5C 229.833,91.5 226.167,91.5 222.5,91.5C 222.263,92.791 222.596,93.791 223.5,94.5C 224.66,99.4541 225.16,104.454 225,109.5C 223.612,110.554 222.112,110.72 220.5,110C 214.802,103.968 208.802,98.3009 202.5,93C 190.776,92.9127 179.11,92.2461 167.5,91C 162.268,86.3632 159.934,80.5299 160.5,73.5C 161.5,73.5 162.5,73.5 163.5,73.5C 170.921,73.8905 178.254,73.3905 185.5,72C 189.919,69.7579 192.586,66.2579 193.5,61.5C 194.493,53.0161 194.826,44.3494 194.5,35.5C 207.167,35.5 219.833,35.5 232.5,35.5 Z"/></g>
<g><path style="opacity:1" fill="#f8f7f7" d="M 300.5,104.5 C 300.694,93.3924 296.028,84.8924 286.5,79C 267.273,72.51 254.106,78.6766 247,97.5C 245.732,108.114 248.899,117.114 256.5,124.5C 254.598,127.337 253.931,130.671 254.5,134.5C 249.5,134.5 244.5,134.5 239.5,134.5C 239.221,139.595 239.555,144.595 240.5,149.5C 240.158,150.338 239.492,150.672 238.5,150.5C 234.03,149.514 229.363,149.181 224.5,149.5C 224.5,154.5 224.5,159.5 224.5,164.5C 219.5,164.5 214.5,164.5 209.5,164.5C 209.5,169.5 209.5,174.5 209.5,179.5C 204.5,179.5 199.5,179.5 194.5,179.5C 194.5,174.5 194.5,169.5 194.5,164.5C 189.5,164.5 184.5,164.5 179.5,164.5C 179.5,159.5 179.5,154.5 179.5,149.5C 174.5,149.5 169.5,149.5 164.5,149.5C 164.5,144.5 164.5,139.5 164.5,134.5C 159.5,134.5 154.5,134.5 149.5,134.5C 149.5,129.5 149.5,124.5 149.5,119.5C 144.5,119.5 139.5,119.5 134.5,119.5C 135.146,107.12 134.479,95.1201 132.5,83.5C 137.605,78.8974 142.605,74.064 147.5,69C 153.491,68.5005 159.491,68.3338 165.5,68.5C 164.833,70.1667 164.167,71.8333 163.5,73.5C 162.5,73.5 161.5,73.5 160.5,73.5C 159.934,80.5299 162.268,86.3632 167.5,91C 179.11,92.2461 190.776,92.9127 202.5,93C 208.802,98.3009 214.802,103.968 220.5,110C 222.112,110.72 223.612,110.554 225,109.5C 225.16,104.454 224.66,99.4541 223.5,94.5C 226.548,92.8813 229.881,91.8813 233.5,91.5C 238.816,90.3479 241.983,87.0146 243,81.5C 243.667,68.8333 243.667,56.1667 243,43.5C 241.723,41.2528 240.223,39.2528 238.5,37.5C 239.388,34.9455 239.721,32.2788 239.5,29.5C 244.5,29.5 249.5,29.5 254.5,29.5C 254.5,34.5 254.5,39.5 254.5,44.5C 259.5,44.5 264.5,44.5 269.5,44.5C 269.5,49.5 269.5,54.5 269.5,59.5C 274.5,59.5 279.5,59.5 284.5,59.5C 284.5,64.5 284.5,69.5 284.5,74.5C 289.5,74.5 294.5,74.5 299.5,74.5C 299.5,79.5 299.5,84.5 299.5,89.5C 304.5,89.5 309.5,89.5 314.5,89.5C 314.5,94.5 314.5,99.5 314.5,104.5C 309.833,104.5 305.167,104.5 300.5,104.5 Z"/></g>
<g><path style="opacity:1" fill="#de300d" d="M 106.5,92.5 C 110.992,110.469 104.658,122.636 87.5,129C 66.379,131.39 55.0457,121.89 53.5,100.5C 54.8952,92.8918 58.5618,86.3918 64.5,81C 81.9609,72.5463 95.9609,76.3797 106.5,92.5 Z"/></g>
<g><path style="opacity:1" fill="#de310d" d="M 300.5,104.5 C 299.759,115.487 294.426,123.32 284.5,128C 274.521,130.842 265.188,129.675 256.5,124.5C 248.899,117.114 245.732,108.114 247,97.5C 254.106,78.6766 267.273,72.51 286.5,79C 296.028,84.8924 300.694,93.3924 300.5,104.5 Z"/></g>
<g><path style="opacity:1" fill="#e77760" d="M 233.5,91.5 C 229.881,91.8813 226.548,92.8813 223.5,94.5C 222.596,93.791 222.263,92.791 222.5,91.5C 226.167,91.5 229.833,91.5 233.5,91.5 Z"/></g>
<g><path style="opacity:1" fill="#f6f4f4" d="M 107.5,59.5 C 111.53,67.6784 118.196,70.8451 127.5,69C 126.101,74.4243 125.268,79.9243 125,85.5C 126.388,86.5536 127.888,86.7203 129.5,86C 130.373,84.955 131.373,84.1217 132.5,83.5C 134.479,95.1201 135.146,107.12 134.5,119.5C 139.5,119.5 144.5,119.5 149.5,119.5C 149.5,124.5 149.5,129.5 149.5,134.5C 154.5,134.5 159.5,134.5 164.5,134.5C 164.5,139.5 164.5,144.5 164.5,149.5C 169.5,149.5 174.5,149.5 179.5,149.5C 179.5,154.5 179.5,159.5 179.5,164.5C 184.5,164.5 189.5,164.5 194.5,164.5C 194.5,169.5 194.5,174.5 194.5,179.5C 199.5,179.5 204.5,179.5 209.5,179.5C 209.5,174.5 209.5,169.5 209.5,164.5C 214.5,164.5 219.5,164.5 224.5,164.5C 224.5,159.5 224.5,154.5 224.5,149.5C 229.363,149.181 234.03,149.514 238.5,150.5C 224.605,167.505 217.605,187.172 217.5,209.5C 215.043,209.208 212.376,209.208 209.5,209.5C 209.5,214.5 209.5,219.5 209.5,224.5C 204.5,224.5 199.5,224.5 194.5,224.5C 194.5,219.5 194.5,214.5 194.5,209.5C 189.5,209.5 184.5,209.5 179.5,209.5C 179.5,204.5 179.5,199.5 179.5,194.5C 175.167,194.5 170.833,194.5 166.5,194.5C 165.098,189.616 164.431,184.616 164.5,179.5C 162.446,179.635 160.779,178.968 159.5,177.5C 158.163,176.685 157.163,175.518 156.5,174C 152.186,173.545 148.186,174.545 144.5,177C 137.751,177.877 131.084,177.544 124.5,176C 121.705,174.207 119.205,172.04 117,169.5C 113.453,159.967 108.287,151.467 101.5,144C 86.7726,133.94 71.4392,132.94 55.5,141C 44.7635,147.57 35.4301,155.737 27.5,165.5C 23.3656,164.515 19.0323,164.182 14.5,164.5C 14.5,159.5 14.5,154.5 14.5,149.5C 19.5,149.5 24.5,149.5 29.5,149.5C 29.5,144.5 29.5,139.5 29.5,134.5C 39.5,134.5 49.5,134.5 59.5,134.5C 59.6657,130.154 59.499,125.821 59,121.5C 58.5,121 58,120.5 57.5,120C 53.1794,119.501 48.8461,119.334 44.5,119.5C 44.5,114.5 44.5,109.5 44.5,104.5C 47.1667,104.5 49.8333,104.5 52.5,104.5C 52.3367,102.143 52.5034,99.8098 53,97.5C 53.4828,98.448 53.6495,99.448 53.5,100.5C 55.0457,121.89 66.379,131.39 87.5,129C 104.658,122.636 110.992,110.469 106.5,92.5C 106.586,91.5041 106.252,90.6708 105.5,90C 110.155,89.5008 114.821,89.3342 119.5,89.5C 119.5,84.5 119.5,79.5 119.5,74.5C 114.5,74.5 109.5,74.5 104.5,74.5C 104.173,69.456 104.506,64.456 105.5,59.5C 106.649,61.9248 107.316,61.9248 107.5,59.5 Z"/></g>
<g><path style="opacity:1" fill="#de310d" d="M 159.5,177.5 C 161.018,183.017 163.018,188.35 165.5,193.5C 165.124,195.383 164.124,196.883 162.5,198C 148.989,205.235 134.656,207.568 119.5,205C 115.702,203.455 112.035,201.621 108.5,199.5C 107.817,206.389 107.15,213.222 106.5,220C 89.1667,220.667 71.8333,220.667 54.5,220C 53.8432,208.561 53.1765,197.061 52.5,185.5C 45.3534,191.781 40.1867,199.448 37,208.5C 36.1641,214.896 35.1641,221.229 34,227.5C 26.9297,229.97 19.763,230.136 12.5,228C 7.83232,204.835 12.8323,184.002 27.5,165.5C 35.4301,155.737 44.7635,147.57 55.5,141C 71.4392,132.94 86.7726,133.94 101.5,144C 108.287,151.467 113.453,159.967 117,169.5C 119.205,172.04 121.705,174.207 124.5,176C 131.084,177.544 137.751,177.877 144.5,177C 148.186,174.545 152.186,173.545 156.5,174C 157.163,175.518 158.163,176.685 159.5,177.5 Z"/></g>
<g><path style="opacity:1" fill="#de310e" d="M 330.5,178.5 C 336.504,194.403 338.004,210.737 335,227.5C 327.667,230.167 320.333,230.167 313,227.5C 312.239,217.387 310.572,207.387 308,197.5C 305.81,192.637 302.81,188.304 299,184.5C 298.822,196.409 298.322,208.242 297.5,220C 280.833,220.667 264.167,220.667 247.5,220C 246.874,219.25 246.374,218.416 246,217.5C 245.667,206.833 245.333,196.167 245,185.5C 243.107,188.618 241.774,191.951 241,195.5C 239.661,203.694 238.494,211.861 237.5,220C 231.585,221.527 225.585,221.861 219.5,221C 219,220.5 218.5,220 218,219.5C 217.502,216.183 217.335,212.85 217.5,209.5C 217.605,187.172 224.605,167.505 238.5,150.5C 239.492,150.672 240.158,150.338 240.5,149.5C 262.101,131.457 284.101,130.957 306.5,148C 316.298,156.94 324.298,167.107 330.5,178.5 Z"/></g>
<g><path style="opacity:1" fill="#f9f8f7" d="M 329.5,-0.5 C 335.5,-0.5 341.5,-0.5 347.5,-0.5C 347.5,79.5 347.5,159.5 347.5,239.5C 306.5,239.5 265.5,239.5 224.5,239.5C 224.5,234.5 224.5,229.5 224.5,224.5C 219.5,224.5 214.5,224.5 209.5,224.5C 209.5,219.5 209.5,214.5 209.5,209.5C 212.376,209.208 215.043,209.208 217.5,209.5C 217.335,212.85 217.502,216.183 218,219.5C 218.5,220 219,220.5 219.5,221C 225.585,221.861 231.585,221.527 237.5,220C 238.494,211.861 239.661,203.694 241,195.5C 241.774,191.951 243.107,188.618 245,185.5C 245.333,196.167 245.667,206.833 246,217.5C 246.374,218.416 246.874,219.25 247.5,220C 264.167,220.667 280.833,220.667 297.5,220C 298.322,208.242 298.822,196.409 299,184.5C 302.81,188.304 305.81,192.637 308,197.5C 310.572,207.387 312.239,217.387 313,227.5C 320.333,230.167 327.667,230.167 335,227.5C 338.004,210.737 336.504,194.403 330.5,178.5C 335.07,179.441 339.737,179.774 344.5,179.5C 344.5,174.5 344.5,169.5 344.5,164.5C 339.5,164.5 334.5,164.5 329.5,164.5C 329.5,159.5 329.5,154.5 329.5,149.5C 334.5,149.5 339.5,149.5 344.5,149.5C 344.5,144.5 344.5,139.5 344.5,134.5C 339.5,134.5 334.5,134.5 329.5,134.5C 329.5,129.5 329.5,124.5 329.5,119.5C 334.5,119.5 339.5,119.5 344.5,119.5C 344.5,114.5 344.5,109.5 344.5,104.5C 339.5,104.5 334.5,104.5 329.5,104.5C 329.5,99.5 329.5,94.5 329.5,89.5C 334.5,89.5 339.5,89.5 344.5,89.5C 344.5,84.5 344.5,79.5 344.5,74.5C 339.5,74.5 334.5,74.5 329.5,74.5C 329.5,69.5 329.5,64.5 329.5,59.5C 334.5,59.5 339.5,59.5 344.5,59.5C 344.5,54.5 344.5,49.5 344.5,44.5C 339.5,44.5 334.5,44.5 329.5,44.5C 329.5,39.5 329.5,34.5 329.5,29.5C 334.5,29.5 339.5,29.5 344.5,29.5C 344.5,24.5 344.5,19.5 344.5,14.5C 339.5,14.5 334.5,14.5 329.5,14.5C 329.5,9.5 329.5,4.5 329.5,-0.5 Z"/></g>
<g><path style="opacity:1" fill="#f7f6f6" d="M 14.5,164.5 C 19.0323,164.182 23.3656,164.515 27.5,165.5C 12.8323,184.002 7.83232,204.835 12.5,228C 19.763,230.136 26.9297,229.97 34,227.5C 35.1641,221.229 36.1641,214.896 37,208.5C 40.1867,199.448 45.3534,191.781 52.5,185.5C 53.1765,197.061 53.8432,208.561 54.5,220C 71.8333,220.667 89.1667,220.667 106.5,220C 107.15,213.222 107.817,206.389 108.5,199.5C 112.035,201.621 115.702,203.455 119.5,205C 134.656,207.568 148.989,205.235 162.5,198C 164.124,196.883 165.124,195.383 165.5,193.5C 163.018,188.35 161.018,183.017 159.5,177.5C 160.779,178.968 162.446,179.635 164.5,179.5C 164.431,184.616 165.098,189.616 166.5,194.5C 170.833,194.5 175.167,194.5 179.5,194.5C 179.5,199.5 179.5,204.5 179.5,209.5C 184.5,209.5 189.5,209.5 194.5,209.5C 194.5,214.5 194.5,219.5 194.5,224.5C 199.5,224.5 204.5,224.5 209.5,224.5C 214.5,224.5 219.5,224.5 224.5,224.5C 224.5,229.5 224.5,234.5 224.5,239.5C 149.5,239.5 74.5,239.5 -0.5,239.5C -0.5,219.5 -0.5,199.5 -0.5,179.5C 4.5,179.5 9.5,179.5 14.5,179.5C 14.5,174.5 14.5,169.5 14.5,164.5 Z"/></g>
</svg>
