<?xml version="1.0" encoding="UTF-8"?>
<svg version="1.1" xmlns="http://www.w3.org/2000/svg" width="128" height="128">
<path d="M0 0 C4.03527446 1.5548764 6.07508555 4.17821081 8.75 7.5 C9.94882813 8.96953125 9.94882813 8.96953125 11.171875 10.46875 C13 13 13 13 13 15 C13.61746094 15.18175781 14.23492187 15.36351562 14.87109375 15.55078125 C20.62042737 17.25720447 26.32305366 19.06654726 32 21 C31.52430718 24.50823456 29.84752319 26.68157852 27.76196289 29.4675293 C22.17901591 37.07671124 20.99246259 43.14781899 21.09765625 52.48046875 C21 56 21 56 19 59 C18.03320312 58.69964844 17.06640625 58.39929688 16.0703125 58.08984375 C8.37458526 55.79857531 2.0011796 54.2436435 -6 56 C-7.155 56.2475 -8.31 56.495 -9.5 56.75 C-12.67738063 57.46217152 -15.84054735 58.2126129 -19 59 C-19.02578125 57.7934375 -19.0515625 56.586875 -19.078125 55.34375 C-19.13444886 53.72913262 -19.1917952 52.11455067 -19.25 50.5 C-19.26417969 49.70851562 -19.27835938 48.91703125 -19.29296875 48.1015625 C-19.66037102 39.13694705 -23.71821248 33.12675729 -28.828125 25.98046875 C-30 24 -30 24 -30 21 C-27.20964954 19.99619084 -24.41785145 18.9968055 -21.625 18 C-20.43390625 17.57074219 -20.43390625 17.57074219 -19.21875 17.1328125 C-18.45820312 16.86210938 -17.69765625 16.59140625 -16.9140625 16.3125 C-16.2123291 16.06113281 -15.5105957 15.80976562 -14.78759766 15.55078125 C-13 15 -13 15 -11 15 C-10.76539062 14.45859375 -10.53078125 13.9171875 -10.2890625 13.359375 C-8.6416356 10.34408456 -6.57346656 7.88815988 -4.375 5.25 C-3.55773437 4.26515625 -2.74046875 3.2803125 -1.8984375 2.265625 C-1.27195312 1.51796875 -0.64546875 0.7703125 0 0 Z " fill="#ECBD00" transform="translate(63,35)"/>
<path d="M0 0 C4.03527446 1.5548764 6.07508555 4.17821081 8.75 7.5 C9.94882813 8.96953125 9.94882813 8.96953125 11.171875 10.46875 C13 13 13 13 13 15 C13.61746094 15.18175781 14.23492187 15.36351562 14.87109375 15.55078125 C20.62042737 17.25720447 26.32305366 19.06654726 32 21 C29.09566218 23.42851899 26.77184217 24.53520235 23.0859375 25.3515625 C22.16039062 25.56296875 21.23484375 25.774375 20.28125 25.9921875 C18.84265625 26.30542969 18.84265625 26.30542969 17.375 26.625 C15.46569597 27.0526841 13.55681841 27.48227799 11.6484375 27.9140625 C10.80458496 28.0992041 9.96073242 28.2843457 9.09130859 28.47509766 C6.9599575 28.93001338 6.9599575 28.93001338 5 30 C-1.97373248 30.49008949 -8.04095031 28.99509746 -14.75 27.1875 C-15.77738281 26.92646484 -16.80476563 26.66542969 -17.86328125 26.39648438 C-22.58886006 25.14885764 -26.19415293 24.17319972 -30 21 C-27.20964954 19.99619084 -24.41785145 18.9968055 -21.625 18 C-20.43390625 17.57074219 -20.43390625 17.57074219 -19.21875 17.1328125 C-18.45820312 16.86210938 -17.69765625 16.59140625 -16.9140625 16.3125 C-16.2123291 16.06113281 -15.5105957 15.80976562 -14.78759766 15.55078125 C-13 15 -13 15 -11 15 C-10.76539062 14.45859375 -10.53078125 13.9171875 -10.2890625 13.359375 C-8.6416356 10.34408456 -6.57346656 7.88815988 -4.375 5.25 C-3.55773437 4.26515625 -2.74046875 3.2803125 -1.8984375 2.265625 C-1.27195312 1.51796875 -0.64546875 0.7703125 0 0 Z " fill="#FECB01" transform="translate(63,35)"/>
<path d="M0 0 C-1.40203106 4.08130508 -3.40646874 6.87573162 -6.0625 10.25 C-10.63592897 16.86705128 -10.89727925 22.52794219 -10.8671875 30.41015625 C-11 34 -11 34 -13 37 C-18.94 35.35 -24.88 33.7 -31 32 C-31 24.08 -31 16.16 -31 8 C-27.7 7.05125 -24.4 6.1025 -21 5.125 C-19.97648437 4.82996582 -18.95296875 4.53493164 -17.8984375 4.23095703 C-3.13436867 0 -3.13436867 0 0 0 Z " fill="#FFCC00" transform="translate(95,57)"/>
<path d="M0 0 C3.03281652 3.03281652 5.97580906 5.9923601 8.8125 9.1875 C9.41707031 9.86167969 10.02164063 10.53585938 10.64453125 11.23046875 C12 13 12 13 12 15 C12.61746094 15.18175781 13.23492187 15.36351562 13.87109375 15.55078125 C19.62042737 17.25720447 25.32305366 19.06654726 31 21 C28.13922795 23.37973549 25.84563768 24.52513713 22.2265625 25.3515625 C21.3190625 25.56296875 20.4115625 25.774375 19.4765625 25.9921875 C18.53554687 26.20101562 17.59453125 26.40984375 16.625 26.625 C15.69171875 26.8415625 14.7584375 27.058125 13.796875 27.28125 C9.20061013 28.33591701 4.6595763 29.22340395 0 30 C0 20.1 0 10.2 0 0 Z " fill="#FFD948" transform="translate(64,35)"/>
<path d="M0 0 C3.05566461 2.96306871 5.97135828 6.01720161 8.8125 9.1875 C9.41707031 9.86167969 10.02164063 10.53585938 10.64453125 11.23046875 C12 13 12 13 12 15 C12.61746094 15.18175781 13.23492187 15.36351562 13.87109375 15.55078125 C19.62042737 17.25720447 25.32305366 19.06654726 31 21 C29 23 29 23 26 23.375 C18.81153013 23.00446032 13.56695592 20.9297115 8.69140625 15.53515625 C0 5.20577862 0 5.20577862 0 0 Z " fill="#FFE895" transform="translate(64,35)"/>
<path d="M0 0 C0.7578125 1.66015625 0.7578125 1.66015625 1 4 C-0.6953125 6.62109375 -0.6953125 6.62109375 -3.125 9.4375 C-4.30449219 10.82775391 -4.30449219 10.82775391 -5.5078125 12.24609375 C-11.5765871 18.95218481 -15.74475939 22.57619027 -24.875 23.3125 C-28 23 -28 23 -30 21 C-27.20964954 19.99619084 -24.41785145 18.9968055 -21.625 18 C-20.43390625 17.57074219 -20.43390625 17.57074219 -19.21875 17.1328125 C-18.45820312 16.86210938 -17.69765625 16.59140625 -16.9140625 16.3125 C-16.2123291 16.06113281 -15.5105957 15.80976562 -14.78759766 15.55078125 C-13 15 -13 15 -11 15 C-10.76539062 14.45859375 -10.53078125 13.9171875 -10.2890625 13.359375 C-8.6416356 10.34408456 -6.57346656 7.88815988 -4.375 5.25 C-3.55773437 4.26515625 -2.74046875 3.2803125 -1.8984375 2.265625 C-1.27195312 1.51796875 -0.64546875 0.7703125 0 0 Z " fill="#FED945" transform="translate(63,35)"/>
</svg>
