<?xml version="1.0" encoding="UTF-8"?>
<!DOCTYPE svg PUBLIC "-//W3C//DTD SVG 1.1//EN" "http://www.w3.org/Graphics/SVG/1.1/DTD/svg11.dtd">
<svg xmlns="http://www.w3.org/2000/svg" version="1.1" width="512px" height="512px" style="shape-rendering:geometricPrecision; text-rendering:geometricPrecision; image-rendering:optimizeQuality; fill-rule:evenodd; clip-rule:evenodd" xmlns:xlink="http://www.w3.org/1999/xlink">
<g><path style="opacity:0.975" fill="#ffa721" d="M 297.5,6.5 C 302.963,5.78388 306.463,8.11721 308,13.5C 312.554,41.3248 317.054,69.1581 321.5,97C 321.699,100.274 320.366,102.607 317.5,104C 296.688,102.31 276.021,99.3101 255.5,95C 251.629,93.9613 249.295,91.4613 248.5,87.5C 249.776,82.9459 251.609,78.6126 254,74.5C 266.603,52.9032 279.603,31.5698 293,10.5C 294.397,8.92975 295.897,7.59641 297.5,6.5 Z"/></g>
<g><path style="opacity:0.978" fill="#ffa721" d="M 115.5,40.5 C 118.811,40.9091 121.811,42.0758 124.5,44C 148.089,61.3782 171.589,78.8782 195,96.5C 196.922,101.726 195.422,105.893 190.5,109C 174.167,120 157.833,131 141.5,142C 135.279,143.458 131.779,140.958 131,134.5C 124.176,107.537 117.509,80.5371 111,53.5C 110.333,50.5 110.333,47.5 111,44.5C 111.907,42.3909 113.407,41.0576 115.5,40.5 Z"/></g>
<g><path style="opacity:0.977" fill="#ffa722" d="M 456.5,107.5 C 461.094,107.115 463.761,109.115 464.5,113.5C 463.366,117.481 461.533,121.148 459,124.5C 443.613,144.887 428.613,165.553 414,186.5C 412.167,188.333 410.333,190.167 408.5,192C 405.697,192.755 403.03,192.422 400.5,191C 388.294,173.424 376.461,155.591 365,137.5C 363.456,132.377 365.29,129.211 370.5,128C 399.31,121.209 427.977,114.376 456.5,107.5 Z"/></g>
<g><path style="opacity:0.996" fill="#fcc11a" d="M 244.5,115.5 C 298.836,114.082 341.003,135.748 371,180.5C 395.476,225.497 396.809,271.163 375,317.5C 344.99,368.758 300.157,391.925 240.5,387C 198.075,381.222 164.575,361.056 140,326.5C 121.467,292.433 116.467,256.433 125,218.5C 141.908,157.417 181.741,123.083 244.5,115.5 Z"/></g>
<g><path style="opacity:1" fill="#fde168" d="M 200.5,148.5 C 212.807,147.964 220.14,153.631 222.5,165.5C 218.802,184.062 210.469,200.229 197.5,214C 190.674,219.837 183.007,221.504 174.5,219C 169.572,217.073 166.406,213.573 165,208.5C 163.654,186.687 171.488,168.853 188.5,155C 192.434,152.536 196.434,150.369 200.5,148.5 Z"/></g>
<g><path style="opacity:0.979" fill="#ffa722" d="M 99.5,183.5 C 106.836,184.153 109.836,188.153 108.5,195.5C 106.635,212.324 103.802,228.99 100,245.5C 99.6093,255.231 94.7759,258.731 85.5,256C 61.0034,242.253 36.6701,228.253 12.5,214C 7.68882,206.433 9.35549,200.767 17.5,197C 44.8857,191.972 72.219,187.472 99.5,183.5 Z"/></g>
<g><path style="opacity:0.978" fill="#ffa722" d="M 418.5,244.5 C 421.688,244.618 424.688,245.451 427.5,247C 450.167,260.667 472.833,274.333 495.5,288C 500.533,291.9 501.7,296.733 499,302.5C 496.932,304.562 494.432,305.728 491.5,306C 462.618,311.204 433.618,315.204 404.5,318C 402.119,316.491 401.119,314.325 401.5,311.5C 404.101,294.129 406.934,276.795 410,259.5C 410.548,255.307 411.714,251.307 413.5,247.5C 415.145,246.304 416.811,245.304 418.5,244.5 Z"/></g>
<g><path style="opacity:0.978" fill="#ffa721" d="M 101.5,309.5 C 106.076,309.568 109.576,311.568 112,315.5C 122.088,330.01 132.422,344.343 143,358.5C 146.027,362.35 147.027,366.684 146,371.5C 144.048,373.894 141.548,375.394 138.5,376C 113.167,382.333 87.8333,388.667 62.5,395C 48.9374,397.118 44.7707,391.951 50,379.5C 65.722,358.111 81.0553,336.444 96,314.5C 97.7297,312.598 99.563,310.931 101.5,309.5 Z"/></g>
<g><path style="opacity:0.978" fill="#ffa721" d="M 368.5,360.5 C 374.348,359.002 378.181,361.002 380,366.5C 386.491,393.464 392.824,420.464 399,447.5C 401.001,456.496 397.501,460.329 388.5,459C 363.816,442.325 339.483,425.158 315.5,407.5C 313.336,404.55 313.169,401.55 315,398.5C 331.902,384.417 349.736,371.75 368.5,360.5 Z"/></g>
<g><path style="opacity:0.979" fill="#ffa721" d="M 194.5,396.5 C 214.307,399.161 233.974,402.661 253.5,407C 260.989,408.13 264.156,412.296 263,419.5C 248.063,444.764 232.73,469.764 217,494.5C 211.516,501.255 206.516,500.922 202,493.5C 197.593,464.32 193.093,435.153 188.5,406C 188.729,401.625 190.729,398.458 194.5,396.5 Z"/></g>
</svg>
