<?xml version="1.0" encoding="UTF-8"?>
<!DOCTYPE svg PUBLIC "-//W3C//DTD SVG 1.1//EN" "http://www.w3.org/Graphics/SVG/1.1/DTD/svg11.dtd">
<svg xmlns="http://www.w3.org/2000/svg" version="1.1" width="1200px" height="600px" style="shape-rendering:geometricPrecision; text-rendering:geometricPrecision; image-rendering:optimizeQuality; fill-rule:evenodd; clip-rule:evenodd" xmlns:xlink="http://www.w3.org/1999/xlink">
<g><path style="opacity:1" fill="#fefefe" d="M 0.5,-0.5 C 45.1667,-0.5 89.8333,-0.5 134.5,-0.5C 255.862,60.5976 377.362,121.598 499,182.5C 499.5,121.501 499.667,60.5009 499.5,-0.5C 512.833,-0.5 526.167,-0.5 539.5,-0.5C 539.5,79.5 539.5,159.5 539.5,239.5C 359.5,239.5 179.5,239.5 -0.5,239.5C -0.5,226.167 -0.5,212.833 -0.5,199.5C 87.834,199.667 176.167,199.5 264.5,199C 176.14,154.82 87.8068,110.653 -0.5,66.5C -0.5,59.1667 -0.5,51.8333 -0.5,44.5C 102.935,95.7175 206.268,147.217 309.5,199C 339.167,199.667 368.833,199.667 398.5,199C 265.617,132.725 132.951,66.2255 0.5,-0.5 Z"/></g>
<g><path style="opacity:1" fill="#012169" d="M 134.5,-0.5 C 256.167,-0.5 377.833,-0.5 499.5,-0.5C 499.667,60.5009 499.5,121.501 499,182.5C 377.362,121.598 255.862,60.5976 134.5,-0.5 Z"/></g>
<g><path style="opacity:1" fill="#c7102d" d="M 539.5,-0.5 C 579.5,-0.5 619.5,-0.5 659.5,-0.5C 659.5,79.5 659.5,159.5 659.5,239.5C 839.5,239.5 1019.5,239.5 1199.5,239.5C 1199.5,279.5 1199.5,319.5 1199.5,359.5C 1019.5,359.5 839.5,359.5 659.5,359.5C 659.5,439.5 659.5,519.5 659.5,599.5C 619.5,599.5 579.5,599.5 539.5,599.5C 539.5,519.5 539.5,439.5 539.5,359.5C 359.5,359.5 179.5,359.5 -0.5,359.5C -0.5,319.5 -0.5,279.5 -0.5,239.5C 179.5,239.5 359.5,239.5 539.5,239.5C 539.5,159.5 539.5,79.5 539.5,-0.5 Z"/></g>
<g><path style="opacity:1" fill="#fefefe" d="M 659.5,-0.5 C 672.833,-0.5 686.167,-0.5 699.5,-0.5C 699.333,60.5009 699.5,121.501 700,182.5C 821.638,121.598 943.138,60.5976 1064.5,-0.5C 1079.5,-0.5 1094.5,-0.5 1109.5,-0.5C 977.112,66.1944 844.445,132.694 711.5,199C 741.167,199.667 770.833,199.667 800.5,199C 933.383,132.725 1066.05,66.2255 1198.5,-0.5C 1198.83,-0.5 1199.17,-0.5 1199.5,-0.5C 1199.5,21.8333 1199.5,44.1667 1199.5,66.5C 1111.19,110.653 1022.86,154.82 934.5,199C 1022.83,199.5 1111.17,199.667 1199.5,199.5C 1199.5,212.833 1199.5,226.167 1199.5,239.5C 1019.5,239.5 839.5,239.5 659.5,239.5C 659.5,159.5 659.5,79.5 659.5,-0.5 Z"/></g>
<g><path style="opacity:1" fill="#012169" d="M 699.5,-0.5 C 821.167,-0.5 942.833,-0.5 1064.5,-0.5C 943.138,60.5976 821.638,121.598 700,182.5C 699.5,121.501 699.333,60.5009 699.5,-0.5 Z"/></g>
<g><path style="opacity:1" fill="#c8112e" d="M 1109.5,-0.5 C 1139.17,-0.5 1168.83,-0.5 1198.5,-0.5C 1066.05,66.2255 933.383,132.725 800.5,199C 770.833,199.667 741.167,199.667 711.5,199C 844.445,132.694 977.112,66.1944 1109.5,-0.5 Z"/></g>
<g><path style="opacity:1" fill="#c8112e" d="M -0.5,-0.5 C -0.166667,-0.5 0.166667,-0.5 0.5,-0.5C 132.951,66.2255 265.617,132.725 398.5,199C 368.833,199.667 339.167,199.667 309.5,199C 206.268,147.217 102.935,95.7175 -0.5,44.5C -0.5,29.5 -0.5,14.5 -0.5,-0.5 Z"/></g>
<g><path style="opacity:1" fill="#022169" d="M -0.5,66.5 C 87.8068,110.653 176.14,154.82 264.5,199C 176.167,199.5 87.834,199.667 -0.5,199.5C -0.5,155.167 -0.5,110.833 -0.5,66.5 Z"/></g>
<g><path style="opacity:1" fill="#012169" d="M 1199.5,66.5 C 1199.5,110.833 1199.5,155.167 1199.5,199.5C 1111.17,199.667 1022.83,199.5 934.5,199C 1022.86,154.82 1111.19,110.653 1199.5,66.5 Z"/></g>
<g><path style="opacity:1" fill="#fefefe" d="M -0.5,359.5 C 179.5,359.5 359.5,359.5 539.5,359.5C 539.5,439.5 539.5,519.5 539.5,599.5C 526.167,599.5 512.833,599.5 499.5,599.5C 499.667,538.499 499.5,477.499 499,416.5C 377.362,477.402 255.862,538.402 134.5,599.5C 119.5,599.5 104.5,599.5 89.5,599.5C 221.951,532.775 354.617,466.275 487.5,400C 457.833,399.333 428.167,399.333 398.5,400C 265.617,466.275 132.951,532.775 0.5,599.5C 0.166667,599.5 -0.166667,599.5 -0.5,599.5C -0.5,577.167 -0.5,554.833 -0.5,532.5C 87.8068,488.347 176.14,444.18 264.5,400C 176.167,399.5 87.834,399.333 -0.5,399.5C -0.5,386.167 -0.5,372.833 -0.5,359.5 Z"/></g>
<g><path style="opacity:1" fill="#fefefe" d="M 1199.5,359.5 C 1199.5,372.833 1199.5,386.167 1199.5,399.5C 1111.17,399.333 1022.83,399.5 934.5,400C 1022.86,444.18 1111.19,488.347 1199.5,532.5C 1199.5,539.833 1199.5,547.167 1199.5,554.5C 1096.06,503.283 992.732,451.783 889.5,400C 859.833,399.333 830.167,399.333 800.5,400C 933.383,466.275 1066.05,532.775 1198.5,599.5C 1153.83,599.5 1109.17,599.5 1064.5,599.5C 943.138,538.402 821.638,477.402 700,416.5C 699.5,477.499 699.333,538.499 699.5,599.5C 686.167,599.5 672.833,599.5 659.5,599.5C 659.5,519.5 659.5,439.5 659.5,359.5C 839.5,359.5 1019.5,359.5 1199.5,359.5 Z"/></g>
<g><path style="opacity:1" fill="#022169" d="M -0.5,399.5 C 87.834,399.333 176.167,399.5 264.5,400C 176.14,444.18 87.8068,488.347 -0.5,532.5C -0.5,488.167 -0.5,443.833 -0.5,399.5 Z"/></g>
<g><path style="opacity:1" fill="#c8112e" d="M 89.5,599.5 C 59.8333,599.5 30.1667,599.5 0.5,599.5C 132.951,532.775 265.617,466.275 398.5,400C 428.167,399.333 457.833,399.333 487.5,400C 354.617,466.275 221.951,532.775 89.5,599.5 Z"/></g>
<g><path style="opacity:1" fill="#c8112e" d="M 1199.5,554.5 C 1199.5,569.5 1199.5,584.5 1199.5,599.5C 1199.17,599.5 1198.83,599.5 1198.5,599.5C 1066.05,532.775 933.383,466.275 800.5,400C 830.167,399.333 859.833,399.333 889.5,400C 992.732,451.783 1096.06,503.283 1199.5,554.5 Z"/></g>
<g><path style="opacity:1" fill="#012169" d="M 1199.5,399.5 C 1199.5,443.833 1199.5,488.167 1199.5,532.5C 1111.19,488.347 1022.86,444.18 934.5,400C 1022.83,399.5 1111.17,399.333 1199.5,399.5 Z"/></g>
<g><path style="opacity:1" fill="#012169" d="M 499.5,599.5 C 377.833,599.5 256.167,599.5 134.5,599.5C 255.862,538.402 377.362,477.402 499,416.5C 499.5,477.499 499.667,538.499 499.5,599.5 Z"/></g>
<g><path style="opacity:1" fill="#012169" d="M 1064.5,599.5 C 942.833,599.5 821.167,599.5 699.5,599.5C 699.333,538.499 699.5,477.499 700,416.5C 821.638,477.402 943.138,538.402 1064.5,599.5 Z"/></g>
</svg>
